<?xml version="1.0" encoding="utf-8"?>
<!-- Generator: Adobe Illustrator 18.1.1, SVG Export Plug-In . SVG Version: 6.00 Build 0)  -->
<svg version="1.1" id="Layer_1" xmlns="http://www.w3.org/2000/svg" xmlns:xlink="http://www.w3.org/1999/xlink" x="0px" y="0px"
	 viewBox="0 0 1013.9 372" enable-background="new 0 0 1013.9 372" xml:space="preserve">
<g>
	<g>
		<g>
			<g>
				<path fill="#999999" d="M54.5,11.1c-22,0-39.8,17.8-39.8,39.8s17.8,39.8,39.8,39.8s39.8-17.8,39.8-39.8S76.4,11.1,54.5,11.1z
					 M54.5,73.6c-12.6,0-22.8-10.2-22.8-22.8s10.2-22.8,22.8-22.8s22.8,10.2,22.8,22.8S67.1,73.6,54.5,73.6z"/>
			</g>
			<path fill="#698C46" d="M54.3,11c-0.1,0-0.4,0-0.4,0v17c0,0,0.4,0,0.4,0c12.6,0,22.9,10.2,22.9,22.8S67,73.5,54.5,73.5
				c-12.6,0-22.7-10.2-22.7-22.8c0-9.8,6.3-18.2,15-21.4l-5.6-16c-15.4,5.5-26.3,20.2-26.3,37.4c0,22,17.8,39.8,39.8,39.8
				s39.7-17.8,39.7-39.8S76.3,11,54.3,11z"/>
		</g>
		<g>
			<path d="M41.9,54.4c0.3,0,0.6,0,1.1,0c0.8-0.1,1.5-0.4,2.1-1c0.7-0.6,1.1-1.5,1.3-2.7h0c-0.6,0.7-1.4,1.1-2.4,1.1
				c-1.8,0-3-1.4-3-3.1c0-1.9,1.4-3.6,3.4-3.6c2.1,0,3.3,1.7,3.3,4.3c0,2.2-0.7,3.8-1.7,4.7c-0.8,0.8-1.8,1.2-2.9,1.4
				c-0.5,0.1-0.9,0.1-1.3,0.1V54.4z M42.4,48.6c0,1.3,0.8,2.1,1.9,2.1c0.9,0,1.6-0.5,2-1.1c0.1-0.1,0.1-0.3,0.1-0.5
				c0-1.7-0.6-3-2.1-3C43.2,46.1,42.4,47.1,42.4,48.6z"/>
			<path d="M49.4,53.8c0.4,0.2,1.3,0.6,2.2,0.6c1.8,0,2.3-1.1,2.3-2c0-1.4-1.3-2-2.6-2h-0.8v-1h0.8c1,0,2.3-0.5,2.3-1.7
				c0-0.8-0.5-1.5-1.8-1.5c-0.8,0-1.6,0.4-2,0.7l-0.4-1c0.5-0.4,1.6-0.8,2.6-0.8c2,0,2.9,1.2,2.9,2.4c0,1-0.6,1.9-1.9,2.4v0
				c1.2,0.2,2.3,1.2,2.3,2.6c0,1.6-1.3,3-3.7,3c-1.1,0-2.1-0.4-2.6-0.7L49.4,53.8z"/>
			<path d="M61.6,48.1c0,2.1-1.1,3.2-2.4,3.2c-1.3,0-2.3-1-2.4-3c0-2,1.1-3.2,2.4-3.2C60.6,45.1,61.6,46.2,61.6,48.1z M57.9,48.2
				c0,1.3,0.5,2.3,1.3,2.3c0.9,0,1.3-1,1.3-2.3c0-1.2-0.4-2.3-1.3-2.3C58.3,45.9,57.9,46.9,57.9,48.2z M59,55.5L65,45.1h0.9
				l-5.9,10.4H59z M68.1,52.3c0,2.1-1.1,3.2-2.4,3.2c-1.3,0-2.3-1-2.4-3c0-2,1.1-3.2,2.4-3.2C67.2,49.3,68.1,50.3,68.1,52.3z
				 M64.4,52.4c0,1.3,0.5,2.3,1.3,2.3c0.9,0,1.3-1,1.3-2.3c0-1.2-0.4-2.3-1.3-2.3C64.9,50.1,64.4,51.1,64.4,52.4z"/>
		</g>
	</g>
	<g>
		<g>
			<g>
				<path fill="#999999" d="M147.9,11c-22,0-39.8,17.8-39.8,39.8s17.8,39.8,39.8,39.8s39.8-17.8,39.8-39.8S169.9,11,147.9,11z
					 M147.9,73.5c-12.6,0-22.8-10.2-22.8-22.8S135.4,28,147.9,28c12.6,0,22.8,10.2,22.8,22.8S160.5,73.5,147.9,73.5z"/>
			</g>
			<path fill="#698C46" d="M147.9,11v17c13,0.3,22.5,10.4,22.5,22.7c0,12.6-10,22.8-22.6,22.8c-12.6,0-22.7-10.2-22.7-22.8
				c0-9.1,5.4-17,13.2-20.6l-7.2-15.4c-13.6,6.3-22.9,20.1-22.9,36c0,22,17.8,39.8,39.8,39.8c22,0,39.4-17.8,39.4-39.8
				C187.4,29,169.9,11.3,147.9,11z"/>
		</g>
		<g>
			<path d="M136.2,55.1c0.3,0,0.6,0,1.1,0c0.8-0.1,1.5-0.4,2.1-1c0.7-0.6,1.1-1.5,1.3-2.7h0c-0.6,0.7-1.4,1.1-2.4,1.1
				c-1.8,0-3-1.4-3-3.1c0-1.9,1.4-3.6,3.4-3.6c2.1,0,3.3,1.7,3.3,4.3c0,2.2-0.7,3.8-1.7,4.7c-0.8,0.8-1.8,1.2-2.9,1.4
				c-0.5,0.1-0.9,0.1-1.3,0.1V55.1z M136.7,49.3c0,1.3,0.8,2.1,1.9,2.1c0.9,0,1.6-0.5,2-1.1c0.1-0.1,0.1-0.3,0.1-0.5
				c0-1.7-0.6-3-2.1-3C137.6,46.8,136.7,47.8,136.7,49.3z"/>
			<path d="M150.1,50.9c0,3.4-1.3,5.3-3.5,5.3c-2,0-3.3-1.8-3.3-5.2c0-3.4,1.5-5.2,3.5-5.2C148.9,45.8,150.1,47.7,150.1,50.9z
				 M144.6,51c0,2.6,0.8,4.1,2,4.1c1.4,0,2.1-1.6,2.1-4.2c0-2.5-0.6-4.1-2-4.1C145.5,46.8,144.6,48.3,144.6,51z"/>
			<path d="M155.9,48.8c0,2.1-1.1,3.2-2.4,3.2c-1.3,0-2.3-1-2.4-3c0-2,1.1-3.2,2.4-3.2C155,45.8,155.9,46.9,155.9,48.8z M152.2,48.9
				c0,1.3,0.4,2.3,1.3,2.3c0.9,0,1.3-1,1.3-2.3c0-1.2-0.4-2.3-1.3-2.3C152.7,46.6,152.2,47.6,152.2,48.9z M153.4,56.2l5.9-10.4h0.9
				l-5.9,10.4H153.4z M162.5,53c0,2.1-1.1,3.2-2.4,3.2c-1.3,0-2.3-1-2.4-3c0-2,1.1-3.2,2.4-3.2C161.6,50,162.5,51,162.5,53z
				 M158.8,53.1c0,1.3,0.5,2.3,1.3,2.3c0.9,0,1.3-1,1.3-2.3c0-1.2-0.4-2.3-1.3-2.3C159.2,50.8,158.8,51.8,158.8,53.1z"/>
		</g>
	</g>
	<g>
		<g>
			<g>
				<path fill="#999999" d="M241.3,11c-22,0-39.8,17.8-39.8,39.8s17.8,39.8,39.8,39.8S281,72.7,281,50.7S263.2,11,241.3,11z
					 M241.3,73.5c-12.6,0-22.8-10.2-22.8-22.8c0-12.6,10.2-22.8,22.8-22.8S264,38.2,264,50.7C264,63.3,253.8,73.5,241.3,73.5z"/>
			</g>
			<g>
				<path fill="#698C46" d="M241.1,11.1c0,0-0.3,0-0.3,0v17c0,0,0.2,0,0.3,0c12.6,0,22.8,10.2,22.8,22.8c0,12.6-10.2,22.8-22.7,22.8
					c-12.6,0-22.7-10.2-22.7-22.8c0-6.6,2.8-12.6,7.3-16.7l-10.4-13.5c-8.5,7.3-13.9,18.1-13.9,30.2c0,22,17.8,39.8,39.8,39.8
					S281,72.8,281,50.8S263.1,11.1,241.1,11.1z"/>
			</g>
		</g>
		<g>
			<path d="M228.3,53.5c0-1.3,0.8-2.2,2-2.7l0,0c-1.1-0.5-1.6-1.4-1.6-2.3c0-1.6,1.3-2.7,3.1-2.7c2,0,2.9,1.2,2.9,2.5
				c0,0.9-0.4,1.8-1.7,2.4v0c1.3,0.5,2,1.4,2,2.6c0,1.8-1.5,2.9-3.4,2.9C229.6,56.2,228.3,54.9,228.3,53.5z M233.8,53.4
				c0-1.2-0.9-1.8-2.2-2.2c-1.2,0.3-1.8,1.1-1.8,2.1c0,1,0.7,1.9,2,1.9C233,55.2,233.8,54.5,233.8,53.4z M230,48.4
				c0,1,0.8,1.6,1.9,1.9c0.9-0.3,1.5-0.9,1.5-1.8c0-0.8-0.5-1.6-1.7-1.6C230.6,46.8,230,47.5,230,48.4z"/>
			<path d="M242.4,47.1h-3.8l-0.4,2.6c0.2,0,0.5-0.1,0.8-0.1c0.8,0,1.6,0.2,2.2,0.5c0.8,0.4,1.4,1.3,1.4,2.6c0,2-1.6,3.4-3.8,3.4
				c-1.1,0-2-0.3-2.5-0.6l0.3-1c0.4,0.2,1.2,0.6,2.2,0.6c1.3,0,2.4-0.8,2.4-2.2c0-1.3-0.9-2.2-2.9-2.2c-0.6,0-1,0.1-1.4,0.1l0.7-4.8
				h4.8V47.1z"/>
			<path d="M248.9,48.8c0,2.1-1.1,3.2-2.4,3.2c-1.3,0-2.3-1-2.4-3c0-2,1.1-3.2,2.4-3.2C248,45.8,248.9,46.9,248.9,48.8z M245.2,48.9
				c0,1.3,0.5,2.3,1.3,2.3c0.9,0,1.3-1,1.3-2.3c0-1.2-0.4-2.3-1.3-2.3C245.7,46.6,245.2,47.6,245.2,48.9z M246.4,56.2l5.9-10.4h0.9
				l-5.9,10.4H246.4z M255.5,53c0,2.1-1.1,3.2-2.4,3.2c-1.3,0-2.3-1-2.4-3c0-2,1.1-3.2,2.4-3.2C254.6,50,255.5,51,255.5,53z
				 M251.8,53.1c0,1.3,0.5,2.3,1.3,2.3c0.9,0,1.3-1,1.3-2.3c0-1.2-0.4-2.3-1.3-2.3C252.3,50.8,251.8,51.8,251.8,53.1z"/>
		</g>
	</g>
	<g>
		<g>
			<g>
				<path fill="#999999" d="M54.5,135.2c-22,0-39.8,17.8-39.8,39.8s17.8,39.8,39.8,39.8s39.8-17.8,39.8-39.8S76.4,135.2,54.5,135.2z
					 M54.5,197.7c-12.6,0-22.8-10.2-22.8-22.8c0-12.6,10.2-22.8,22.8-22.8s22.8,10.2,22.8,22.8C77.2,187.5,67.1,197.7,54.5,197.7z"
					/>
			</g>
			<g>
				<path fill="#F6DE60" d="M54.3,135.2c0,0,0.6,0-0.4,0v17c1,0,0.3,0,0.4,0c12.6,0,22.9,10.2,22.9,22.8c0,12.6-10.1,22.8-22.7,22.8
					c-12.6,0-22.7-10.2-22.7-22.8c0-5.7,2.1-10.9,5.6-14.9l-12.8-11.2c-6.1,7-9.8,16.1-9.8,26.2c0,22,17.8,39.8,39.8,39.8
					s39.6-17.8,39.6-39.8S76.2,135.2,54.3,135.2z"/>
			</g>
		</g>
		<g>
			<path d="M42,177.6c0-1.3,0.8-2.2,2-2.7l0,0c-1.1-0.5-1.6-1.4-1.6-2.3c0-1.6,1.4-2.7,3.1-2.7c2,0,2.9,1.2,2.9,2.5
				c0,0.9-0.4,1.8-1.7,2.4v0c1.3,0.5,2,1.4,2,2.6c0,1.8-1.5,2.9-3.4,2.9C43.2,180.3,42,179.1,42,177.6z M47.4,177.6
				c0-1.2-0.9-1.8-2.2-2.2c-1.2,0.3-1.8,1.1-1.8,2.1c0,1,0.7,1.9,2,1.9C46.6,179.4,47.4,178.6,47.4,177.6z M43.6,172.5
				c0,1,0.8,1.6,1.9,1.9c0.9-0.3,1.5-0.9,1.5-1.8c0-0.8-0.5-1.6-1.7-1.6C44.3,170.9,43.6,171.6,43.6,172.5z"/>
			<path d="M53,171.4L53,171.4l-1.8,0.9l-0.3-1l2.2-1.2h1.2v10.1H53V171.4z"/>
			<path d="M62.5,172.9c0,2.1-1.1,3.2-2.4,3.2c-1.3,0-2.3-1-2.4-3c0-2,1.1-3.2,2.4-3.2C61.6,169.9,62.5,171,62.5,172.9z M58.9,173
				c0,1.3,0.5,2.3,1.3,2.3c0.9,0,1.3-1,1.3-2.3c0-1.2-0.4-2.3-1.3-2.3C59.3,170.7,58.9,171.7,58.9,173z M60,180.3l5.9-10.4h0.9
				l-5.9,10.4H60z M69.1,177.1c0,2.1-1.1,3.2-2.4,3.2c-1.3,0-2.3-1-2.4-3c0-2,1.1-3.2,2.4-3.2C68.2,174.1,69.1,175.2,69.1,177.1z
				 M65.4,177.2c0,1.3,0.5,2.3,1.3,2.3c0.9,0,1.3-1,1.3-2.3c0-1.2-0.4-2.3-1.3-2.3C65.9,174.9,65.4,175.9,65.4,177.2z"/>
		</g>
	</g>
	<g>
		<g>
			<g>
				<path fill="#999999" d="M147.9,135.2c-22,0-39.8,17.8-39.8,39.8s17.8,39.8,39.8,39.8s39.8-17.8,39.8-39.8
					S169.9,135.2,147.9,135.2z M147.9,197.7c-12.6,0-22.8-10.2-22.8-22.8c0-12.6,10.2-22.8,22.8-22.8c12.6,0,22.8,10.2,22.8,22.8
					C170.7,187.5,160.5,197.7,147.9,197.7z"/>
			</g>
			<g>
				<path fill="#F6DE60" d="M147.9,135.2v17c13,0.1,22.7,10.2,22.7,22.8c0,12.6-10.2,22.8-22.7,22.8c-11.8,0-21.4-8.9-22.6-20.4
					l-17,1.1c1.7,20.4,18.8,36.3,39.6,36.3c22,0,39.7-17.8,39.7-39.8C187.6,153,169.9,135.2,147.9,135.2z"/>
			</g>
		</g>
		<g>
			<path d="M142.1,170.1v0.9l-4.4,9.2h-1.4l4.4-8.9v0h-4.9v-1.1H142.1z"/>
			<path d="M143.8,178.6c0.4,0.2,1.3,0.6,2.2,0.6c1.8,0,2.3-1.1,2.3-2c0-1.4-1.3-2-2.6-2H145v-1h0.8c1,0,2.3-0.5,2.3-1.7
				c0-0.8-0.5-1.5-1.8-1.5c-0.8,0-1.6,0.4-2,0.7l-0.4-1c0.5-0.4,1.6-0.8,2.6-0.8c2,0,2.9,1.2,2.9,2.4c0,1-0.6,1.9-1.9,2.4v0
				c1.2,0.2,2.3,1.2,2.3,2.6c0,1.6-1.3,3-3.7,3c-1.1,0-2.1-0.4-2.6-0.7L143.8,178.6z"/>
			<path d="M156,172.9c0,2.1-1.1,3.2-2.4,3.2c-1.3,0-2.3-1-2.4-3c0-2,1.1-3.2,2.4-3.2C155.1,169.9,156,171,156,172.9z M152.3,173
				c0,1.3,0.4,2.3,1.3,2.3c0.9,0,1.3-1,1.3-2.3c0-1.2-0.4-2.3-1.3-2.3C152.8,170.7,152.3,171.7,152.3,173z M153.5,180.3l5.9-10.4
				h0.9l-5.9,10.4H153.5z M162.6,177.1c0,2.1-1.1,3.2-2.4,3.2c-1.3,0-2.3-1-2.4-3c0-2,1.1-3.2,2.4-3.2
				C161.7,174.1,162.6,175.2,162.6,177.1z M158.9,177.2c0,1.3,0.5,2.3,1.3,2.3c0.9,0,1.3-1,1.3-2.3c0-1.2-0.4-2.3-1.3-2.3
				C159.4,174.9,158.9,175.9,158.9,177.2z"/>
		</g>
	</g>
	<g>
		<g>
			<g>
				<path fill="#999999" d="M241.4,135.2c-22,0-39.8,17.8-39.8,39.8s17.8,39.8,39.8,39.8s39.8-17.8,39.8-39.8
					S263.3,135.2,241.4,135.2z M241.4,197.7c-12.6,0-22.8-10.2-22.8-22.8c0-12.6,10.2-22.8,22.8-22.8c12.6,0,22.8,10.2,22.8,22.8
					C264.1,187.5,253.9,197.7,241.4,197.7z"/>
			</g>
			<g>
				<path fill="#F6DE60" d="M242.9,135.2v17c12,0.8,21.2,10.6,21.2,22.7c0,12.6-10.2,22.8-22.8,22.8c-10.2,0-18.9-6.8-21.8-16
					l-16.8,3c4.3,17.2,19.9,30,38.5,30c22,0,39.8-17.8,39.8-39.8C281.1,153.4,263.9,136,242.9,135.2z"/>
			</g>
		</g>
		<g>
			<path d="M235,170.3c-0.3,0-0.6,0-1,0.1c-2.1,0.4-3.3,1.9-3.5,3.6h0c0.5-0.6,1.3-1.2,2.4-1.2c1.8,0,3,1.3,3,3.3
				c0,1.8-1.3,3.6-3.4,3.6c-2.2,0-3.6-1.7-3.6-4.3c0-2,0.7-3.6,1.7-4.5c0.8-0.8,2-1.3,3.2-1.5c0.4-0.1,0.7-0.1,1-0.1V170.3z
				 M234.7,176.2c0-1.4-0.8-2.3-2.1-2.3c-0.8,0-1.6,0.5-2,1.2c-0.1,0.2-0.2,0.4-0.2,0.6c0,1.7,0.8,2.9,2.2,2.9
				C233.9,178.6,234.7,177.6,234.7,176.2z"/>
			<path d="M237.1,176.9c0-1.3,0.8-2.2,2-2.7l0,0c-1.1-0.5-1.6-1.4-1.6-2.3c0-1.6,1.4-2.7,3.1-2.7c2,0,2.9,1.2,2.9,2.5
				c0,0.9-0.4,1.8-1.7,2.4v0c1.3,0.5,2,1.4,2,2.6c0,1.8-1.5,2.9-3.4,2.9C238.4,179.6,237.1,178.4,237.1,176.9z M242.6,176.8
				c0-1.2-0.9-1.8-2.2-2.2c-1.2,0.3-1.8,1.1-1.8,2.1c0,1,0.7,1.9,2,1.9C241.8,178.6,242.6,177.9,242.6,176.8z M238.8,171.8
				c0,1,0.8,1.6,1.9,1.9c0.9-0.3,1.5-0.9,1.5-1.8c0-0.8-0.5-1.6-1.7-1.6C239.4,170.2,238.8,170.9,238.8,171.8z"/>
			<path d="M249.8,172.2c0,2.1-1.1,3.2-2.4,3.2c-1.3,0-2.3-1-2.4-3c0-2,1.1-3.2,2.4-3.2C248.8,169.2,249.8,170.3,249.8,172.2z
				 M246.1,172.3c0,1.3,0.4,2.3,1.3,2.3c0.9,0,1.3-1,1.3-2.3c0-1.2-0.4-2.3-1.3-2.3C246.5,170,246.1,171,246.1,172.3z M247.2,179.6
				l5.9-10.4h0.9l-5.9,10.4H247.2z M256.3,176.4c0,2.1-1.1,3.2-2.4,3.2c-1.3,0-2.3-1-2.4-3c0-2,1.1-3.2,2.4-3.2
				C255.4,173.4,256.3,174.5,256.3,176.4z M252.6,176.5c0,1.3,0.5,2.3,1.3,2.3c0.9,0,1.3-1,1.3-2.3c0-1.2-0.4-2.3-1.3-2.3
				C253.1,174.2,252.6,175.2,252.6,176.5z"/>
		</g>
	</g>
	<g>
		<g>
			<g>
				<path fill="#999999" d="M54.5,257.6c-22,0-39.8,17.8-39.8,39.8c0,22,17.8,39.8,39.8,39.8s39.8-17.8,39.8-39.8
					C94.2,275.4,76.4,257.6,54.5,257.6z M54.5,320.1c-12.6,0-22.8-10.2-22.8-22.8c0-12.6,10.2-22.8,22.8-22.8s22.8,10.2,22.8,22.8
					C77.2,309.9,67.1,320.1,54.5,320.1z"/>
			</g>
			<g>
				<path fill="#DF8F2F" d="M94.4,297.4c0-21.9-17.5-39.7-39.5-39.7v17c12,0.1,22.5,10.2,22.5,22.8c0,12-9.4,21.8-21.2,22.7l1.2,17
					C78,335.6,94.4,318.4,94.4,297.4z"/>
			</g>
		</g>
		<g>
			<path d="M47.6,302.6v-2.7h-4.7V299l4.5-6.4h1.5v6.3h1.4v1.1h-1.4v2.7H47.6z M47.6,298.8v-3.4c0-0.5,0-1.1,0-1.6h0
				c-0.3,0.6-0.6,1-0.8,1.5l-2.5,3.4v0H47.6z"/>
			<path d="M52.1,301.6c0.3,0,0.6,0,1.1,0c0.8-0.1,1.5-0.4,2.1-1c0.7-0.6,1.1-1.5,1.3-2.7h0c-0.6,0.7-1.4,1.1-2.4,1.1
				c-1.8,0-3-1.4-3-3.1c0-1.9,1.4-3.6,3.4-3.6s3.3,1.7,3.3,4.3c0,2.2-0.7,3.8-1.7,4.7c-0.8,0.8-1.8,1.2-2.9,1.4
				c-0.5,0.1-0.9,0.1-1.3,0.1V301.6z M52.6,295.8c0,1.3,0.8,2.1,1.9,2.1c0.9,0,1.6-0.5,2-1.1c0.1-0.1,0.1-0.3,0.1-0.5
				c0-1.7-0.6-3-2.1-3C53.4,293.4,52.6,294.4,52.6,295.8z"/>
			<path d="M63.8,295.4c0,2.1-1.1,3.2-2.4,3.2c-1.3,0-2.3-1-2.4-3c0-2,1.1-3.2,2.4-3.2C62.9,292.4,63.8,293.4,63.8,295.4z
				 M60.1,295.5c0,1.3,0.5,2.3,1.3,2.3c0.9,0,1.3-1,1.3-2.3c0-1.2-0.4-2.3-1.3-2.3C60.6,293.2,60.1,294.2,60.1,295.5z M61.3,302.8
				l5.9-10.4h0.9l-5.9,10.4H61.3z M70.4,299.5c0,2.1-1.1,3.2-2.4,3.2c-1.3,0-2.3-1-2.4-3c0-2,1.1-3.2,2.4-3.2
				C69.5,296.5,70.4,297.6,70.4,299.5z M66.7,299.6c0,1.3,0.5,2.3,1.3,2.3c0.9,0,1.3-1,1.3-2.3c0-1.2-0.4-2.3-1.3-2.3
				C67.1,297.4,66.7,298.4,66.7,299.6z"/>
		</g>
	</g>
	<g>
		<g>
			<g>
				<path fill="#999999" d="M241.4,257.7c-22,0-39.8,17.8-39.8,39.8c0,22,17.8,39.8,39.8,39.8s39.8-17.8,39.8-39.8
					C281.1,275.5,263.3,257.7,241.4,257.7z M241.4,320.2c-12.6,0-22.8-10.2-22.8-22.8s10.2-22.8,22.8-22.8
					c12.6,0,22.8,10.2,22.8,22.8S253.9,320.2,241.4,320.2z"/>
			</g>
			<g>
				<path fill="#DF8F2F" d="M263.8,297.3c0,2.5,0,4-0.8,6.3l16.5,4.7c1.3-3.9,1.2-6.7,1.2-11c0-21.9-17.9-39.7-39.9-39.7v17
					C253.9,274.6,263.8,284.8,263.8,297.3z"/>
			</g>
		</g>
		<g>
			<path d="M230.1,301c0.4,0.2,1.3,0.6,2.2,0.6c1.8,0,2.3-1.1,2.3-2c0-1.4-1.3-2-2.6-2h-0.8v-1h0.8c1,0,2.3-0.5,2.3-1.7
				c0-0.8-0.5-1.5-1.8-1.5c-0.8,0-1.6,0.4-2,0.7l-0.4-1c0.5-0.4,1.6-0.8,2.6-0.8c2,0,2.9,1.2,2.9,2.4c0,1-0.6,1.9-1.9,2.4v0
				c1.2,0.2,2.3,1.2,2.3,2.6c0,1.6-1.3,3-3.7,3c-1.1,0-2.1-0.4-2.6-0.7L230.1,301z"/>
			<path d="M237.7,302.6v-0.8l1.1-1c2.6-2.5,3.7-3.8,3.8-5.3c0-1-0.5-2-2-2c-0.9,0-1.7,0.5-2.1,0.9l-0.4-1c0.7-0.6,1.7-1,2.9-1
				c2.2,0,3.1,1.5,3.1,2.9c0,1.9-1.4,3.4-3.5,5.4l-0.8,0.7v0h4.5v1.1H237.7z"/>
			<path d="M250.3,295.4c0,2.1-1.1,3.2-2.4,3.2c-1.3,0-2.3-1-2.4-3c0-2,1.1-3.2,2.4-3.2C249.3,292.4,250.3,293.4,250.3,295.4z
				 M246.6,295.5c0,1.3,0.5,2.3,1.3,2.3c0.9,0,1.3-1,1.3-2.3c0-1.2-0.4-2.3-1.3-2.3C247,293.2,246.6,294.2,246.6,295.5z
				 M247.7,302.8l5.9-10.4h0.9l-5.9,10.4H247.7z M256.8,299.5c0,2.1-1.1,3.2-2.4,3.2c-1.3,0-2.3-1-2.4-3c0-2,1.1-3.2,2.4-3.2
				C255.9,296.5,256.8,297.6,256.8,299.5z M253.1,299.6c0,1.3,0.5,2.3,1.3,2.3c0.9,0,1.3-1,1.3-2.3c0-1.2-0.4-2.3-1.3-2.3
				C253.6,297.4,253.1,298.4,253.1,299.6z"/>
		</g>
	</g>
	<g>
		<g>
			<g>
				<path fill="#999999" d="M147.9,257.7c-22,0-39.8,17.8-39.8,39.8c0,22,17.8,39.8,39.8,39.8s39.8-17.8,39.8-39.8
					C187.7,275.5,169.9,257.7,147.9,257.7z M147.9,320.2c-12.6,0-22.8-10.2-22.8-22.8s10.2-22.8,22.8-22.8
					c12.6,0,22.8,10.2,22.8,22.8S160.5,320.2,147.9,320.2z"/>
			</g>
			<g>
				<path fill="#DF8F2F" d="M170.6,297.3c0,2.5-0.4,5-1.1,7.2l16.2,5.1c1.3-3.9,1.9-8,1.9-12.4c0-21.9-17.7-39.7-39.7-39.7v17
					C160.9,274.6,170.6,284.8,170.6,297.3z"/>
			</g>
		</g>
		<g>
			<path d="M136.7,301c0.4,0.2,1.3,0.6,2.2,0.6c1.8,0,2.3-1.1,2.3-2c0-1.4-1.3-2-2.6-2h-0.8v-1h0.8c1,0,2.3-0.5,2.3-1.7
				c0-0.8-0.5-1.5-1.8-1.5c-0.8,0-1.6,0.4-2,0.7l-0.4-1c0.5-0.4,1.6-0.8,2.6-0.8c2,0,2.9,1.2,2.9,2.4c0,1-0.6,1.9-1.9,2.4v0
				c1.2,0.2,2.3,1.2,2.3,2.6c0,1.6-1.3,3-3.7,3c-1.1,0-2.1-0.4-2.6-0.7L136.7,301z"/>
			<path d="M144.6,301c0.4,0.2,1.3,0.6,2.2,0.6c1.8,0,2.3-1.1,2.3-2c0-1.4-1.3-2-2.6-2h-0.8v-1h0.8c1,0,2.3-0.5,2.3-1.7
				c0-0.8-0.5-1.5-1.8-1.5c-0.8,0-1.6,0.4-2,0.7l-0.4-1c0.5-0.4,1.6-0.8,2.6-0.8c2,0,2.9,1.2,2.9,2.4c0,1-0.6,1.9-1.9,2.4v0
				c1.2,0.2,2.3,1.2,2.3,2.6c0,1.6-1.3,3-3.7,3c-1.1,0-2.1-0.4-2.6-0.7L144.6,301z"/>
			<path d="M156.8,295.4c0,2.1-1.1,3.2-2.4,3.2c-1.3,0-2.3-1-2.4-3c0-2,1.1-3.2,2.4-3.2C155.9,292.4,156.8,293.4,156.8,295.4z
				 M153.1,295.5c0,1.3,0.5,2.3,1.3,2.3c0.9,0,1.3-1,1.3-2.3c0-1.2-0.4-2.3-1.3-2.3C153.6,293.2,153.1,294.2,153.1,295.5z
				 M154.3,302.8l5.9-10.4h0.9l-5.9,10.4H154.3z M163.4,299.5c0,2.1-1.1,3.2-2.4,3.2c-1.3,0-2.3-1-2.4-3c0-2,1.1-3.2,2.4-3.2
				C162.5,296.5,163.4,297.6,163.4,299.5z M159.7,299.6c0,1.3,0.5,2.3,1.3,2.3c0.9,0,1.3-1,1.3-2.3c0-1.2-0.4-2.3-1.3-2.3
				C160.2,297.4,159.7,298.4,159.7,299.6z"/>
		</g>
	</g>
	<g>
		<g>
			<g>
				<path fill="#999999" d="M334.7,257.6c-22,0-39.8,17.8-39.8,39.8c0,22,17.8,39.8,39.8,39.8c22,0,39.8-17.8,39.8-39.8
					C374.4,275.4,356.6,257.6,334.7,257.6z M334.7,320.1c-12.6,0-22.8-10.2-22.8-22.8s10.2-22.8,22.8-22.8
					c12.6,0,22.8,10.2,22.8,22.8S347.2,320.1,334.7,320.1z"/>
			</g>
			<g>
				<path fill="#BB262B" d="M335,274.6c5,0,9.6,1.6,13.3,4.3l9.7-14c-6.5-4.6-14.4-7.3-23-7.3c0,0-0.1,0-0.1,0L335,274.6
					C334.9,274.6,334.9,274.6,335,274.6z"/>
			</g>
		</g>
		<g>
			<path d="M324.4,301.6c0.3,0,0.6,0,1.1,0c0.8-0.1,1.5-0.4,2.1-1c0.7-0.6,1.1-1.5,1.3-2.7h0c-0.6,0.7-1.4,1.1-2.4,1.1
				c-1.8,0-3-1.4-3-3.1c0-1.9,1.4-3.6,3.4-3.6c2.1,0,3.3,1.7,3.3,4.3c0,2.2-0.7,3.8-1.7,4.7c-0.8,0.8-1.8,1.2-2.9,1.4
				c-0.5,0.1-0.9,0.1-1.3,0.1V301.6z M324.9,295.8c0,1.3,0.8,2.1,1.9,2.1c0.9,0,1.6-0.5,2-1.1c0.1-0.1,0.1-0.3,0.1-0.5
				c0-1.7-0.6-3-2.1-3C325.7,293.4,324.9,294.4,324.9,295.8z"/>
			<path d="M336.1,295.4c0,2.1-1.1,3.2-2.4,3.2c-1.3,0-2.3-1-2.4-3c0-2,1.1-3.2,2.4-3.2C335.2,292.4,336.1,293.4,336.1,295.4z
				 M332.4,295.5c0,1.3,0.5,2.3,1.3,2.3c0.9,0,1.3-1,1.3-2.3c0-1.2-0.4-2.3-1.3-2.3C332.9,293.2,332.4,294.2,332.4,295.5z
				 M333.6,302.8l5.9-10.4h0.9l-5.9,10.4H333.6z M342.7,299.5c0,2.1-1.1,3.2-2.4,3.2c-1.3,0-2.3-1-2.4-3c0-2,1.1-3.2,2.4-3.2
				C341.7,296.5,342.7,297.6,342.7,299.5z M339,299.6c0,1.3,0.5,2.3,1.3,2.3c0.9,0,1.3-1,1.3-2.3c0-1.2-0.4-2.3-1.3-2.3
				C339.4,297.4,339,298.4,339,299.6z"/>
		</g>
	</g>
	<g>
		<g>
			<g>
				<path fill="#999999" d="M428.2,257.8c-22,0-39.8,17.8-39.8,39.8c0,22,17.8,39.8,39.8,39.8c22,0,39.8-17.8,39.8-39.8
					C467.9,275.6,450.1,257.8,428.2,257.8z M428.2,320.3c-12.6,0-22.8-10.2-22.8-22.8c0-12.6,10.2-22.8,22.8-22.8
					c12.6,0,22.8,10.2,22.8,22.8C450.9,310.1,440.7,320.3,428.2,320.3z"/>
			</g>
			<g>
				<path fill="#BB262B" d="M437.4,277.3l5.9-16c-4.7-2.2-9.4-3.6-15.4-3.9v17C431.9,274.7,434.6,275.7,437.4,277.3z"/>
			</g>
		</g>
		<g>
			<path d="M423.1,293.7h-3.8l-0.4,2.6c0.2,0,0.4-0.1,0.8-0.1c0.8,0,1.6,0.2,2.2,0.5c0.8,0.4,1.4,1.3,1.4,2.6c0,2-1.6,3.4-3.8,3.4
				c-1.1,0-2-0.3-2.5-0.6l0.3-1c0.4,0.2,1.2,0.6,2.2,0.6c1.3,0,2.4-0.8,2.4-2.2c0-1.3-0.9-2.2-2.9-2.2c-0.6,0-1,0.1-1.4,0.1l0.7-4.8
				h4.8V293.7z"/>
			<path d="M429.6,295.4c0,2.1-1.1,3.2-2.4,3.2c-1.3,0-2.3-1-2.4-3c0-2,1.1-3.2,2.4-3.2C428.7,292.4,429.6,293.4,429.6,295.4z
				 M425.9,295.5c0,1.3,0.4,2.3,1.3,2.3c0.9,0,1.3-1,1.3-2.3c0-1.2-0.4-2.3-1.3-2.3C426.4,293.2,425.9,294.2,425.9,295.5z
				 M427.1,302.8l5.9-10.4h0.9l-5.9,10.4H427.1z M436.2,299.5c0,2.1-1.1,3.2-2.4,3.2c-1.3,0-2.3-1-2.4-3c0-2,1.1-3.2,2.4-3.2
				C435.3,296.5,436.2,297.6,436.2,299.5z M432.5,299.6c0,1.3,0.5,2.3,1.3,2.3c0.9,0,1.3-1,1.3-2.3c0-1.2-0.4-2.3-1.3-2.3
				C432.9,297.4,432.5,298.4,432.5,299.6z"/>
		</g>
	</g>
	<g>
		<path d="M45.4,110.3h-2.3l-5.6-9.2h-0.1l0,0.5c0.1,1,0.1,1.9,0.1,2.7v6h-1.7V98.8h2.3l5.6,9.1h0c0-0.1,0-0.6-0.1-1.3
			c0-0.8,0-1.3,0-1.8v-6h1.7V110.3z"/>
		<path d="M55.9,106c0,1.4-0.4,2.5-1.1,3.3c-0.7,0.8-1.7,1.2-3,1.2c-0.8,0-1.5-0.2-2.2-0.6c-0.6-0.4-1.1-0.9-1.4-1.6
			c-0.3-0.7-0.5-1.5-0.5-2.4c0-1.4,0.4-2.5,1.1-3.3c0.7-0.8,1.7-1.2,3.1-1.2c1.3,0,2.3,0.4,3,1.2C55.6,103.5,55.9,104.6,55.9,106z
			 M49.6,106c0,2,0.7,3,2.2,3c1.5,0,2.2-1,2.2-3c0-2-0.7-3-2.2-3c-0.8,0-1.3,0.3-1.7,0.8C49.8,104.3,49.6,105,49.6,106z"/>
		<path d="M60,110.3l-3.3-8.7h1.9l1.8,5.1c0.3,0.8,0.5,1.5,0.6,2.1h0.1c0-0.4,0.2-1.1,0.6-2.1l1.8-5.1h2l-3.3,8.7H60z"/>
		<path d="M72.1,110.3l-0.4-1.2h-0.1c-0.4,0.5-0.8,0.9-1.3,1.1c-0.4,0.2-1,0.3-1.6,0.3c-0.9,0-1.5-0.2-2-0.7c-0.5-0.5-0.7-1.1-0.7-2
			c0-0.9,0.3-1.6,1-2c0.7-0.5,1.7-0.7,3-0.7l1.5,0v-0.5c0-0.6-0.1-1-0.4-1.2c-0.3-0.3-0.7-0.4-1.2-0.4c-0.4,0-0.9,0.1-1.3,0.2
			c-0.4,0.1-0.8,0.3-1.2,0.5l-0.6-1.3c0.5-0.2,1-0.4,1.5-0.6c0.6-0.1,1.1-0.2,1.6-0.2c1.1,0,1.9,0.2,2.5,0.7
			c0.6,0.5,0.8,1.2,0.8,2.3v5.9H72.1z M69.4,109.1c0.7,0,1.2-0.2,1.6-0.6c0.4-0.4,0.6-0.9,0.6-1.6v-0.8l-1.1,0
			c-0.9,0-1.5,0.2-1.9,0.4c-0.4,0.3-0.6,0.7-0.6,1.2c0,0.4,0.1,0.7,0.3,0.9C68.6,109,68.9,109.1,69.4,109.1z"/>
	</g>
	<g>
		<path d="M122.4,110.3h-2.2l-3.6-5.2l-1.1,0.9v4.3h-1.9V98.8h1.9v5.5c0.5-0.6,1-1.2,1.5-1.8l3.1-3.7h2.1c-2,2.4-3.4,4-4.3,5
			L122.4,110.3z"/>
		<path d="M127.5,110.5c-1.4,0-2.4-0.4-3.2-1.2c-0.8-0.8-1.1-1.9-1.1-3.3c0-1.4,0.4-2.5,1.1-3.3c0.7-0.8,1.7-1.2,2.9-1.2
			c1.1,0,2.1,0.3,2.7,1c0.7,0.7,1,1.7,1,2.9v1h-5.8c0,0.8,0.3,1.5,0.7,1.9c0.4,0.5,1,0.7,1.8,0.7c0.5,0,1,0,1.4-0.1
			c0.4-0.1,0.9-0.3,1.4-0.5v1.5c-0.5,0.2-0.9,0.4-1.4,0.5C128.6,110.4,128.1,110.5,127.5,110.5z M127.2,102.9
			c-0.6,0-1.1,0.2-1.4,0.6c-0.4,0.4-0.6,0.9-0.6,1.6h3.9c0-0.7-0.2-1.3-0.5-1.6C128.2,103.1,127.8,102.9,127.2,102.9z"/>
		<path d="M131.7,101.6h2l1.8,4.9c0.3,0.7,0.4,1.4,0.5,2h0.1c0-0.3,0.1-0.6,0.3-1c0.1-0.4,0.8-2.4,2-5.9h2l-3.7,9.8
			c-0.7,1.8-1.8,2.7-3.4,2.7c-0.4,0-0.8,0-1.2-0.1v-1.5c0.3,0.1,0.6,0.1,1,0.1c0.9,0,1.5-0.5,1.9-1.5l0.3-0.8L131.7,101.6z"/>
		<path d="M147.4,107.9c0,0.8-0.3,1.5-0.9,2c-0.6,0.5-1.5,0.7-2.7,0.7c-1.2,0-2.1-0.2-2.8-0.5v-1.6c1,0.5,2,0.7,2.9,0.7
			c1.1,0,1.7-0.3,1.7-1c0-0.2-0.1-0.4-0.2-0.6c-0.1-0.1-0.3-0.3-0.6-0.5c-0.3-0.2-0.7-0.3-1.2-0.5c-1-0.4-1.7-0.8-2-1.2
			c-0.4-0.4-0.5-0.9-0.5-1.5c0-0.7,0.3-1.3,0.9-1.7c0.6-0.4,1.4-0.6,2.4-0.6c1,0,2,0.2,2.9,0.6l-0.6,1.4c-0.9-0.4-1.7-0.6-2.4-0.6
			c-1,0-1.5,0.3-1.5,0.8c0,0.3,0.1,0.5,0.4,0.7c0.3,0.2,0.8,0.4,1.7,0.8c0.7,0.3,1.2,0.5,1.6,0.8c0.3,0.2,0.6,0.5,0.7,0.8
			C147.4,107.1,147.4,107.4,147.4,107.9z"/>
		<path d="M152.7,109c0.5,0,0.9-0.1,1.4-0.2v1.4c-0.2,0.1-0.5,0.2-0.8,0.2c-0.3,0.1-0.7,0.1-1,0.1c-1.7,0-2.6-0.9-2.6-2.8V103h-1.2
			v-0.8l1.3-0.7l0.6-1.8h1.1v1.9h2.5v1.4h-2.5v4.7c0,0.4,0.1,0.8,0.3,1C152,108.9,152.3,109,152.7,109z"/>
		<path d="M163.5,106c0,1.4-0.4,2.5-1.1,3.3c-0.7,0.8-1.7,1.2-3,1.2c-0.8,0-1.5-0.2-2.2-0.6c-0.6-0.4-1.1-0.9-1.4-1.6
			c-0.3-0.7-0.5-1.5-0.5-2.4c0-1.4,0.4-2.5,1.1-3.3c0.7-0.8,1.7-1.2,3.1-1.2c1.3,0,2.3,0.4,3,1.2C163.1,103.5,163.5,104.6,163.5,106
			z M157.1,106c0,2,0.7,3,2.2,3c1.5,0,2.2-1,2.2-3c0-2-0.7-3-2.2-3c-0.8,0-1.3,0.3-1.7,0.8C157.3,104.3,157.1,105,157.1,106z"/>
		<path d="M173.2,110.3h-1.9V105c0-0.7-0.1-1.2-0.4-1.5c-0.3-0.3-0.7-0.5-1.3-0.5c-0.8,0-1.4,0.2-1.7,0.7c-0.4,0.5-0.5,1.2-0.5,2.3
			v4.3h-1.8v-8.7h1.4l0.3,1.1h0.1c0.3-0.4,0.6-0.7,1.1-1c0.5-0.2,1-0.3,1.6-0.3c2.1,0,3.1,1.1,3.1,3.2V110.3z"/>
		<path d="M179.6,110.5c-1.4,0-2.4-0.4-3.2-1.2c-0.8-0.8-1.1-1.9-1.1-3.3c0-1.4,0.4-2.5,1.1-3.3c0.7-0.8,1.7-1.2,2.9-1.2
			c1.1,0,2.1,0.3,2.7,1c0.7,0.7,1,1.7,1,2.9v1h-5.8c0,0.8,0.3,1.5,0.7,1.9c0.4,0.5,1,0.7,1.8,0.7c0.5,0,1,0,1.4-0.1
			c0.4-0.1,0.9-0.3,1.4-0.5v1.5c-0.5,0.2-0.9,0.4-1.4,0.5C180.7,110.4,180.2,110.5,179.6,110.5z M179.3,102.9
			c-0.6,0-1.1,0.2-1.4,0.6c-0.4,0.4-0.6,0.9-0.6,1.6h3.9c0-0.7-0.2-1.3-0.5-1.6C180.3,103.1,179.9,102.9,179.3,102.9z"/>
	</g>
	<g>
		<path d="M221,104.1h4.2v5.8c-0.7,0.2-1.4,0.4-2,0.5c-0.6,0.1-1.3,0.1-2.1,0.1c-1.7,0-3.1-0.5-4-1.5c-0.9-1-1.4-2.5-1.4-4.4
			c0-1.8,0.5-3.3,1.6-4.3c1.1-1,2.5-1.6,4.4-1.6c1.2,0,2.3,0.2,3.4,0.7l-0.7,1.6c-0.9-0.4-1.9-0.6-2.8-0.6c-1.2,0-2.2,0.4-2.9,1.2
			c-0.7,0.8-1.1,1.8-1.1,3.2c0,1.4,0.3,2.5,1,3.2c0.6,0.7,1.6,1.1,2.8,1.1c0.6,0,1.3-0.1,1.9-0.2v-3H221V104.1z"/>
		<path d="M229.6,110.3h-1.8V98.1h1.8V110.3z"/>
		<path d="M237.7,110.3l-0.4-1.2h-0.1c-0.4,0.5-0.8,0.9-1.3,1.1c-0.4,0.2-1,0.3-1.6,0.3c-0.9,0-1.5-0.2-2-0.7
			c-0.5-0.5-0.7-1.1-0.7-2c0-0.9,0.3-1.6,1-2c0.7-0.5,1.7-0.7,3-0.7l1.5,0v-0.5c0-0.6-0.1-1-0.4-1.2c-0.3-0.3-0.7-0.4-1.2-0.4
			c-0.4,0-0.9,0.1-1.3,0.2c-0.4,0.1-0.8,0.3-1.2,0.5l-0.6-1.3c0.5-0.2,1-0.4,1.5-0.6c0.6-0.1,1.1-0.2,1.6-0.2c1.1,0,1.9,0.2,2.5,0.7
			c0.6,0.5,0.8,1.2,0.8,2.3v5.9H237.7z M235,109.1c0.7,0,1.2-0.2,1.6-0.6c0.4-0.4,0.6-0.9,0.6-1.6v-0.8l-1.1,0
			c-0.9,0-1.5,0.2-1.9,0.4c-0.4,0.3-0.6,0.7-0.6,1.2c0,0.4,0.1,0.7,0.3,0.9C234.2,109,234.5,109.1,235,109.1z"/>
		<path d="M249.3,110.3h-1.9V105c0-0.7-0.1-1.2-0.4-1.5c-0.3-0.3-0.7-0.5-1.3-0.5c-0.8,0-1.4,0.2-1.7,0.7c-0.4,0.5-0.5,1.2-0.5,2.3
			v4.3h-1.8v-8.7h1.4l0.3,1.1h0.1c0.3-0.4,0.6-0.7,1.1-1c0.5-0.2,1-0.3,1.6-0.3c2.1,0,3.1,1.1,3.1,3.2V110.3z"/>
		<path d="M255.3,110.5c-1.3,0-2.3-0.4-3-1.2c-0.7-0.8-1-1.9-1-3.3c0-1.5,0.4-2.6,1.1-3.4s1.7-1.2,3.1-1.2c0.9,0,1.7,0.2,2.5,0.5
			l-0.6,1.5c-0.8-0.3-1.4-0.5-1.9-0.5c-1.5,0-2.3,1-2.3,3c0,1,0.2,1.7,0.6,2.2c0.4,0.5,0.9,0.7,1.6,0.7c0.8,0,1.6-0.2,2.3-0.6v1.6
			c-0.3,0.2-0.7,0.3-1.1,0.4C256.3,110.4,255.9,110.5,255.3,110.5z"/>
		<path d="M263.6,110.5c-1.4,0-2.4-0.4-3.2-1.2c-0.8-0.8-1.1-1.9-1.1-3.3c0-1.4,0.4-2.5,1.1-3.3c0.7-0.8,1.7-1.2,2.9-1.2
			c1.1,0,2.1,0.3,2.7,1c0.7,0.7,1,1.7,1,2.9v1h-5.8c0,0.8,0.3,1.5,0.7,1.9c0.4,0.5,1,0.7,1.8,0.7c0.5,0,1,0,1.4-0.1
			c0.4-0.1,0.9-0.3,1.4-0.5v1.5c-0.5,0.2-0.9,0.4-1.4,0.5C264.7,110.4,264.2,110.5,263.6,110.5z M263.3,102.9
			c-0.6,0-1.1,0.2-1.4,0.6c-0.4,0.4-0.6,0.9-0.6,1.6h3.9c0-0.7-0.2-1.3-0.5-1.6C264.3,103.1,263.8,102.9,263.3,102.9z"/>
	</g>
	<g>
		<path d="M34.5,236.8h-1.9v-5.2h-5.3v5.2h-1.9v-11.5h1.9v4.7h5.3v-4.7h1.9V236.8z"/>
		<path d="M45.1,232.4c0,1.4-0.4,2.5-1.1,3.3c-0.7,0.8-1.7,1.2-3,1.2c-0.8,0-1.5-0.2-2.2-0.6c-0.6-0.4-1.1-0.9-1.4-1.6
			c-0.3-0.7-0.5-1.5-0.5-2.4c0-1.4,0.4-2.5,1.1-3.3c0.7-0.8,1.7-1.2,3.1-1.2c1.3,0,2.3,0.4,3,1.2C44.7,229.9,45.1,231,45.1,232.4z
			 M38.7,232.4c0,2,0.7,3,2.2,3c1.5,0,2.2-1,2.2-3c0-2-0.7-3-2.2-3c-0.8,0-1.3,0.3-1.7,0.8C38.9,230.7,38.7,231.4,38.7,232.4z"/>
		<path d="M51.6,227.9c0.4,0,0.7,0,0.9,0.1l-0.2,1.7c-0.3-0.1-0.5-0.1-0.8-0.1c-0.7,0-1.3,0.2-1.8,0.7c-0.5,0.5-0.7,1.1-0.7,1.9v4.5
			h-1.8v-8.7h1.4l0.2,1.5H49c0.3-0.5,0.7-0.9,1.1-1.2C50.6,228.1,51.1,227.9,51.6,227.9z"/>
		<path d="M54,225.8c0-0.3,0.1-0.6,0.3-0.8c0.2-0.2,0.4-0.3,0.8-0.3c0.3,0,0.6,0.1,0.8,0.3c0.2,0.2,0.3,0.4,0.3,0.8
			c0,0.3-0.1,0.6-0.3,0.7c-0.2,0.2-0.4,0.3-0.8,0.3c-0.3,0-0.6-0.1-0.8-0.3C54.1,226.3,54,226.1,54,225.8z M56,236.8h-1.8v-8.7H56
			V236.8z"/>
		<path d="M64.4,236.8h-6.6v-1.1l4.4-6.1h-4.1v-1.4h6.2v1.3l-4.3,6h4.4V236.8z"/>
		<path d="M74,232.4c0,1.4-0.4,2.5-1.1,3.3c-0.7,0.8-1.7,1.2-3,1.2c-0.8,0-1.5-0.2-2.2-0.6c-0.6-0.4-1.1-0.9-1.4-1.6
			c-0.3-0.7-0.5-1.5-0.5-2.4c0-1.4,0.4-2.5,1.1-3.3c0.7-0.8,1.7-1.2,3.1-1.2c1.3,0,2.3,0.4,3,1.2C73.7,229.9,74,231,74,232.4z
			 M67.7,232.4c0,2,0.7,3,2.2,3c1.5,0,2.2-1,2.2-3c0-2-0.7-3-2.2-3c-0.8,0-1.3,0.3-1.7,0.8C67.9,230.7,67.7,231.4,67.7,232.4z"/>
		<path d="M83.8,236.8h-1.9v-5.3c0-0.7-0.1-1.2-0.4-1.5c-0.3-0.3-0.7-0.5-1.3-0.5c-0.8,0-1.4,0.2-1.7,0.7c-0.4,0.5-0.5,1.2-0.5,2.3
			v4.3h-1.8v-8.7h1.4l0.3,1.1h0.1c0.3-0.4,0.6-0.7,1.1-1c0.5-0.2,1-0.3,1.6-0.3c2.1,0,3.1,1.1,3.1,3.2V236.8z"/>
	</g>
	<g>
		<path d="M128.8,226.7c-1.1,0-1.9,0.4-2.5,1.1c-0.6,0.8-0.9,1.8-0.9,3.2c0,1.4,0.3,2.5,0.9,3.2c0.6,0.7,1.5,1.1,2.6,1.1
			c0.5,0,1,0,1.4-0.1c0.5-0.1,0.9-0.2,1.4-0.4v1.6c-0.9,0.3-1.9,0.5-3.1,0.5c-1.7,0-3-0.5-3.9-1.5c-0.9-1-1.4-2.5-1.4-4.4
			c0-1.2,0.2-2.2,0.7-3.1c0.4-0.9,1.1-1.6,1.9-2.1c0.8-0.5,1.8-0.7,2.9-0.7c1.2,0,2.3,0.2,3.3,0.7l-0.7,1.6
			c-0.4-0.2-0.8-0.3-1.2-0.5S129.2,226.7,128.8,226.7z"/>
		<path d="M133.8,225.8c0-0.3,0.1-0.6,0.3-0.8c0.2-0.2,0.4-0.3,0.8-0.3c0.3,0,0.6,0.1,0.8,0.3c0.2,0.2,0.3,0.4,0.3,0.8
			c0,0.3-0.1,0.6-0.3,0.7c-0.2,0.2-0.4,0.3-0.8,0.3c-0.3,0-0.6-0.1-0.8-0.3C133.9,226.3,133.8,226.1,133.8,225.8z M135.7,236.8h-1.8
			v-8.7h1.8V236.8z"/>
		<path d="M146,236.8h-1.9v-5.3c0-0.7-0.1-1.2-0.4-1.5c-0.3-0.3-0.7-0.5-1.3-0.5c-0.8,0-1.4,0.2-1.7,0.7c-0.4,0.5-0.5,1.2-0.5,2.3
			v4.3h-1.8v-8.7h1.4l0.3,1.1h0.1c0.3-0.4,0.6-0.7,1.1-1c0.5-0.2,1-0.3,1.6-0.3c2.1,0,3.1,1.1,3.1,3.2V236.8z"/>
		<path d="M151.5,236.9c-1.1,0-1.9-0.4-2.5-1.2c-0.6-0.8-0.9-1.9-0.9-3.3c0-1.4,0.3-2.5,0.9-3.3c0.6-0.8,1.5-1.2,2.6-1.2
			c1.1,0,2,0.4,2.6,1.3h0.1c-0.1-0.6-0.1-1.1-0.1-1.5v-3.2h1.9v12.2h-1.4l-0.3-1.1h-0.1C153.5,236.5,152.7,236.9,151.5,236.9z
			 M152,235.4c0.8,0,1.3-0.2,1.7-0.6c0.3-0.4,0.5-1.1,0.5-2.1v-0.3c0-1.1-0.2-1.9-0.5-2.3c-0.4-0.5-0.9-0.7-1.7-0.7
			c-0.6,0-1.1,0.3-1.5,0.8c-0.4,0.5-0.5,1.3-0.5,2.3c0,1,0.2,1.7,0.5,2.2C150.8,235.2,151.3,235.4,152,235.4z"/>
		<path d="M162.4,236.9c-1.4,0-2.4-0.4-3.2-1.2c-0.8-0.8-1.1-1.9-1.1-3.3c0-1.4,0.4-2.5,1.1-3.3c0.7-0.8,1.7-1.2,2.9-1.2
			c1.1,0,2.1,0.3,2.7,1c0.7,0.7,1,1.7,1,2.9v1H160c0,0.8,0.3,1.5,0.7,1.9c0.4,0.5,1,0.7,1.8,0.7c0.5,0,1,0,1.4-0.1
			c0.4-0.1,0.9-0.3,1.4-0.5v1.5c-0.5,0.2-0.9,0.4-1.4,0.5C163.5,236.9,163,236.9,162.4,236.9z M162.1,229.3c-0.6,0-1.1,0.2-1.4,0.6
			c-0.4,0.4-0.6,0.9-0.6,1.6h3.9c0-0.7-0.2-1.3-0.5-1.6C163.1,229.5,162.7,229.3,162.1,229.3z"/>
		<path d="M172.3,227.9c0.4,0,0.7,0,0.9,0.1l-0.2,1.7c-0.3-0.1-0.5-0.1-0.8-0.1c-0.7,0-1.3,0.2-1.8,0.7c-0.5,0.5-0.7,1.1-0.7,1.9
			v4.5h-1.8v-8.7h1.4l0.2,1.5h0.1c0.3-0.5,0.7-0.9,1.1-1.2C171.3,228.1,171.8,227.9,172.3,227.9z"/>
	</g>
	<g>
		<path d="M219.8,236.8h-2.3l-5.6-9.2h-0.1l0,0.5c0.1,1,0.1,1.9,0.1,2.7v6h-1.7v-11.5h2.3l5.6,9.1h0c0-0.1,0-0.6-0.1-1.3
			c0-0.8,0-1.3,0-1.8v-6h1.7V236.8z"/>
		<path d="M226.4,236.9c-1.4,0-2.4-0.4-3.2-1.2c-0.8-0.8-1.1-1.9-1.1-3.3c0-1.4,0.4-2.5,1.1-3.3c0.7-0.8,1.7-1.2,2.9-1.2
			c1.1,0,2.1,0.3,2.7,1c0.7,0.7,1,1.7,1,2.9v1H224c0,0.8,0.3,1.5,0.7,1.9c0.4,0.5,1,0.7,1.8,0.7c0.5,0,1,0,1.4-0.1
			c0.4-0.1,0.9-0.3,1.4-0.5v1.5c-0.5,0.2-0.9,0.4-1.4,0.5C227.5,236.9,227,236.9,226.4,236.9z M226,229.3c-0.6,0-1.1,0.2-1.4,0.6
			c-0.4,0.4-0.6,0.9-0.6,1.6h3.9c0-0.7-0.2-1.3-0.5-1.6C227.1,229.5,226.6,229.3,226,229.3z"/>
		<path d="M238,236.8l-0.3-1.1h-0.1c-0.3,0.4-0.6,0.7-1.1,1c-0.5,0.2-1,0.3-1.6,0.3c-1.1,0-1.8-0.3-2.4-0.8
			c-0.5-0.5-0.8-1.3-0.8-2.4v-5.7h1.9v5.4c0,0.7,0.1,1.2,0.4,1.5c0.3,0.3,0.7,0.5,1.3,0.5c0.8,0,1.3-0.2,1.7-0.7
			c0.4-0.5,0.5-1.2,0.5-2.3v-4.3h1.9v8.7H238z"/>
		<path d="M245.3,235.4c0.5,0,0.9-0.1,1.4-0.2v1.4c-0.2,0.1-0.5,0.2-0.8,0.2c-0.3,0.1-0.7,0.1-1,0.1c-1.7,0-2.6-0.9-2.6-2.8v-4.7
			h-1.2v-0.8l1.3-0.7l0.6-1.8h1.1v1.9h2.5v1.4h-2.5v4.7c0,0.4,0.1,0.8,0.3,1C244.7,235.3,245,235.4,245.3,235.4z"/>
		<path d="M252.8,227.9c0.4,0,0.7,0,0.9,0.1l-0.2,1.7c-0.3-0.1-0.5-0.1-0.8-0.1c-0.7,0-1.3,0.2-1.8,0.7c-0.5,0.5-0.7,1.1-0.7,1.9
			v4.5h-1.8v-8.7h1.4l0.2,1.5h0.1c0.3-0.5,0.7-0.9,1.1-1.2C251.8,228.1,252.3,227.9,252.8,227.9z"/>
		<path d="M263,232.4c0,1.4-0.4,2.5-1.1,3.3c-0.7,0.8-1.7,1.2-3,1.2c-0.8,0-1.5-0.2-2.2-0.6c-0.6-0.4-1.1-0.9-1.4-1.6
			c-0.3-0.7-0.5-1.5-0.5-2.4c0-1.4,0.4-2.5,1.1-3.3c0.7-0.8,1.7-1.2,3.1-1.2c1.3,0,2.3,0.4,3,1.2C262.7,229.9,263,231,263,232.4z
			 M256.7,232.4c0,2,0.7,3,2.2,3c1.5,0,2.2-1,2.2-3c0-2-0.7-3-2.2-3c-0.8,0-1.3,0.3-1.7,0.8C256.9,230.7,256.7,231.4,256.7,232.4z"
			/>
		<path d="M272.8,236.8H271v-5.3c0-0.7-0.1-1.2-0.4-1.5c-0.3-0.3-0.7-0.5-1.3-0.5c-0.8,0-1.4,0.2-1.7,0.7c-0.4,0.5-0.5,1.2-0.5,2.3
			v4.3h-1.8v-8.7h1.4l0.3,1.1h0.1c0.3-0.4,0.6-0.7,1.1-1c0.5-0.2,1-0.3,1.6-0.3c2.1,0,3.1,1.1,3.1,3.2V236.8z"/>
	</g>
	<g>
		<path d="M43.3,355.5c0,1-0.4,1.8-1.1,2.4c-0.7,0.6-1.8,0.9-3.1,0.9c-1.3,0-2.4-0.2-3.2-0.6v-1.8c0.5,0.2,1.1,0.4,1.7,0.6
			c0.6,0.1,1.1,0.2,1.6,0.2c0.7,0,1.3-0.1,1.6-0.4s0.5-0.7,0.5-1.1c0-0.4-0.2-0.8-0.5-1.1c-0.3-0.3-1-0.7-2-1.1
			c-1-0.4-1.8-0.9-2.2-1.5c-0.4-0.5-0.6-1.2-0.6-2c0-1,0.3-1.7,1-2.3c0.7-0.6,1.6-0.8,2.7-0.8c1.1,0,2.2,0.2,3.3,0.7l-0.6,1.5
			c-1-0.4-1.9-0.6-2.7-0.6c-0.6,0-1.1,0.1-1.4,0.4c-0.3,0.3-0.5,0.6-0.5,1c0,0.3,0.1,0.6,0.2,0.8c0.1,0.2,0.3,0.4,0.6,0.6
			c0.3,0.2,0.8,0.4,1.6,0.7c0.8,0.4,1.5,0.7,1.9,1c0.4,0.3,0.7,0.6,0.9,1C43.2,354.5,43.3,355,43.3,355.5z"/>
		<path d="M52.5,358.6l-1.1-4.1c-0.1-0.4-0.4-1.4-0.7-3h-0.1c-0.3,1.4-0.5,2.4-0.7,3l-1.2,4h-2l-2.4-8.7h1.9l1.1,4.3
			c0.3,1.1,0.4,2,0.5,2.7h0c0.1-0.4,0.1-0.8,0.2-1.3c0.1-0.5,0.2-0.9,0.3-1.1l1.3-4.6h2l1.3,4.6c0.1,0.3,0.2,0.6,0.3,1.2
			c0.1,0.5,0.2,0.9,0.2,1.2h0.1c0.1-0.6,0.3-1.5,0.6-2.7l1.1-4.3H57l-2.5,8.7H52.5z"/>
		<path d="M58.4,347.6c0-0.3,0.1-0.6,0.3-0.8c0.2-0.2,0.4-0.3,0.8-0.3c0.3,0,0.6,0.1,0.8,0.3c0.2,0.2,0.3,0.4,0.3,0.8
			c0,0.3-0.1,0.6-0.3,0.7c-0.2,0.2-0.4,0.3-0.8,0.3c-0.3,0-0.6-0.1-0.8-0.3C58.5,348.2,58.4,347.9,58.4,347.6z M60.3,358.6h-1.8
			v-8.7h1.8V358.6z"/>
		<path d="M67.3,351.3h-2.1v7.3h-1.9v-7.3h-1.4v-0.9l1.4-0.6v-0.6c0-1,0.2-1.8,0.7-2.3c0.5-0.5,1.2-0.7,2.2-0.7
			c0.6,0,1.3,0.1,1.9,0.3l-0.5,1.4c-0.5-0.1-0.9-0.2-1.3-0.2c-0.4,0-0.7,0.1-0.9,0.4c-0.2,0.3-0.3,0.6-0.3,1.2v0.6h2.1V351.3z"/>
		<path d="M72,357.3c0.5,0,0.9-0.1,1.4-0.2v1.4c-0.2,0.1-0.5,0.2-0.8,0.2c-0.3,0.1-0.7,0.1-1,0.1c-1.7,0-2.6-0.9-2.6-2.8v-4.7h-1.2
			v-0.8l1.3-0.7l0.6-1.8h1.1v1.9h2.5v1.4h-2.5v4.7c0,0.4,0.1,0.8,0.3,1C71.4,357.2,71.7,357.3,72,357.3z"/>
	</g>
	<g>
		<path d="M111.6,348.6c-1.1,0-1.9,0.4-2.5,1.1c-0.6,0.8-0.9,1.8-0.9,3.2c0,1.4,0.3,2.5,0.9,3.2c0.6,0.7,1.5,1.1,2.6,1.1
			c0.5,0,1,0,1.4-0.1c0.5-0.1,0.9-0.2,1.4-0.4v1.6c-0.9,0.3-1.9,0.5-3.1,0.5c-1.7,0-3-0.5-3.9-1.5c-0.9-1-1.4-2.5-1.4-4.4
			c0-1.2,0.2-2.2,0.7-3.1c0.4-0.9,1.1-1.6,1.9-2.1c0.8-0.5,1.8-0.7,2.9-0.7c1.2,0,2.3,0.2,3.3,0.7l-0.7,1.6
			c-0.4-0.2-0.8-0.3-1.2-0.5S112.1,348.6,111.6,348.6z"/>
		<path d="M120.5,358.8c-1.4,0-2.4-0.4-3.2-1.2c-0.8-0.8-1.1-1.9-1.1-3.3c0-1.4,0.4-2.5,1.1-3.3c0.7-0.8,1.7-1.2,2.9-1.2
			c1.1,0,2.1,0.3,2.7,1c0.7,0.7,1,1.7,1,2.9v1h-5.8c0,0.8,0.3,1.5,0.7,1.9c0.4,0.5,1,0.7,1.8,0.7c0.5,0,1,0,1.4-0.1
			c0.4-0.1,0.9-0.3,1.4-0.5v1.5c-0.5,0.2-0.9,0.4-1.4,0.5C121.6,358.7,121.1,358.8,120.5,358.8z M120.2,351.2
			c-0.6,0-1.1,0.2-1.4,0.6c-0.4,0.4-0.6,0.9-0.6,1.6h3.9c0-0.7-0.2-1.3-0.5-1.6C121.2,351.3,120.8,351.2,120.2,351.2z"/>
		<path d="M125.9,347.6c0-0.3,0.1-0.6,0.3-0.8c0.2-0.2,0.4-0.3,0.8-0.3c0.3,0,0.6,0.1,0.8,0.3c0.2,0.2,0.3,0.4,0.3,0.8
			c0,0.3-0.1,0.6-0.3,0.7c-0.2,0.2-0.4,0.3-0.8,0.3c-0.3,0-0.6-0.1-0.8-0.3C126,348.2,125.9,347.9,125.9,347.6z M127.8,358.6H126
			v-8.7h1.8V358.6z"/>
		<path d="M132.3,358.6h-1.8v-12.2h1.8V358.6z"/>
		<path d="M142.7,354.2c0,1.4-0.4,2.5-1.1,3.3c-0.7,0.8-1.7,1.2-3,1.2c-0.8,0-1.5-0.2-2.2-0.6c-0.6-0.4-1.1-0.9-1.4-1.6
			c-0.3-0.7-0.5-1.5-0.5-2.4c0-1.4,0.4-2.5,1.1-3.3c0.7-0.8,1.7-1.2,3.1-1.2c1.3,0,2.3,0.4,3,1.2
			C142.3,351.8,142.7,352.9,142.7,354.2z M136.3,354.2c0,2,0.7,3,2.2,3c1.5,0,2.2-1,2.2-3c0-2-0.7-3-2.2-3c-0.8,0-1.3,0.3-1.7,0.8
			C136.5,352.6,136.3,353.3,136.3,354.2z"/>
		<path d="M152.1,358.6h-1.9v-5.4c0-0.7-0.1-1.2-0.4-1.5c-0.3-0.3-0.6-0.5-1.2-0.5c-0.7,0-1.2,0.2-1.6,0.7c-0.3,0.5-0.5,1.2-0.5,2.3
			v4.3h-1.8v-8.7h1.4l0.3,1.1h0.1c0.2-0.4,0.6-0.7,1-1c0.5-0.2,1-0.3,1.5-0.3c1.3,0,2.2,0.5,2.7,1.4h0.1c0.3-0.4,0.6-0.8,1.1-1
			c0.5-0.2,1-0.4,1.6-0.4c1,0,1.8,0.3,2.3,0.8c0.5,0.5,0.7,1.3,0.7,2.4v5.7h-1.8v-5.4c0-0.7-0.1-1.2-0.4-1.5
			c-0.3-0.3-0.6-0.5-1.2-0.5c-0.7,0-1.2,0.2-1.6,0.7c-0.3,0.4-0.5,1.1-0.5,2.1V358.6z"/>
		<path d="M164,358.8c-1.4,0-2.4-0.4-3.2-1.2c-0.8-0.8-1.1-1.9-1.1-3.3c0-1.4,0.4-2.5,1.1-3.3c0.7-0.8,1.7-1.2,2.9-1.2
			c1.1,0,2.1,0.3,2.7,1c0.7,0.7,1,1.7,1,2.9v1h-5.8c0,0.8,0.3,1.5,0.7,1.9c0.4,0.5,1,0.7,1.8,0.7c0.5,0,1,0,1.4-0.1
			c0.4-0.1,0.9-0.3,1.4-0.5v1.5c-0.5,0.2-0.9,0.4-1.4,0.5C165.1,358.7,164.6,358.8,164,358.8z M163.6,351.2c-0.6,0-1.1,0.2-1.4,0.6
			c-0.4,0.4-0.6,0.9-0.6,1.6h3.9c0-0.7-0.2-1.3-0.5-1.6C164.7,351.3,164.2,351.2,163.6,351.2z"/>
		<path d="M172.7,357.3c0.5,0,0.9-0.1,1.4-0.2v1.4c-0.2,0.1-0.5,0.2-0.8,0.2c-0.3,0.1-0.7,0.1-1,0.1c-1.7,0-2.6-0.9-2.6-2.8v-4.7
			h-1.2v-0.8l1.3-0.7l0.6-1.8h1.1v1.9h2.5v1.4h-2.5v4.7c0,0.4,0.1,0.8,0.3,1C172,357.2,172.3,357.3,172.7,357.3z"/>
		<path d="M179.6,358.8c-1.4,0-2.4-0.4-3.2-1.2c-0.8-0.8-1.1-1.9-1.1-3.3c0-1.4,0.4-2.5,1.1-3.3c0.7-0.8,1.7-1.2,2.9-1.2
			c1.1,0,2.1,0.3,2.7,1c0.7,0.7,1,1.7,1,2.9v1h-5.8c0,0.8,0.3,1.5,0.7,1.9c0.4,0.5,1,0.7,1.8,0.7c0.5,0,1,0,1.4-0.1
			c0.4-0.1,0.9-0.3,1.4-0.5v1.5c-0.5,0.2-0.9,0.4-1.4,0.5C180.7,358.7,180.2,358.8,179.6,358.8z M179.2,351.2
			c-0.6,0-1.1,0.2-1.4,0.6c-0.4,0.4-0.6,0.9-0.6,1.6h3.9c0-0.7-0.2-1.3-0.5-1.6C180.3,351.3,179.8,351.2,179.2,351.2z"/>
		<path d="M189.5,349.8c0.4,0,0.7,0,0.9,0.1l-0.2,1.7c-0.3-0.1-0.5-0.1-0.8-0.1c-0.7,0-1.3,0.2-1.8,0.7c-0.5,0.5-0.7,1.1-0.7,1.9
			v4.5H185v-8.7h1.4l0.2,1.5h0.1c0.3-0.5,0.7-0.9,1.1-1.2C188.4,349.9,188.9,349.8,189.5,349.8z"/>
	</g>
	<g>
		<path d="M233.4,358.6h-1.9v-5.2h-5.3v5.2h-1.9v-11.5h1.9v4.7h5.3v-4.7h1.9V358.6z"/>
		<path d="M240.1,358.8c-1.4,0-2.4-0.4-3.2-1.2c-0.8-0.8-1.1-1.9-1.1-3.3c0-1.4,0.4-2.5,1.1-3.3c0.7-0.8,1.7-1.2,2.9-1.2
			c1.1,0,2.1,0.3,2.7,1c0.7,0.7,1,1.7,1,2.9v1h-5.8c0,0.8,0.3,1.5,0.7,1.9c0.4,0.5,1,0.7,1.8,0.7c0.5,0,1,0,1.4-0.1
			c0.4-0.1,0.9-0.3,1.4-0.5v1.5c-0.5,0.2-0.9,0.4-1.4,0.5C241.2,358.7,240.7,358.8,240.1,358.8z M239.7,351.2
			c-0.6,0-1.1,0.2-1.4,0.6c-0.4,0.4-0.6,0.9-0.6,1.6h3.9c0-0.7-0.2-1.3-0.5-1.6C240.8,351.3,240.3,351.2,239.7,351.2z"/>
		<path d="M251,358.6l-0.4-1.2h-0.1c-0.4,0.5-0.8,0.9-1.3,1.1c-0.4,0.2-1,0.3-1.6,0.3c-0.9,0-1.5-0.2-2-0.7c-0.5-0.5-0.7-1.1-0.7-2
			c0-0.9,0.3-1.6,1-2c0.7-0.5,1.7-0.7,3-0.7l1.5,0v-0.5c0-0.6-0.1-1-0.4-1.2c-0.3-0.3-0.7-0.4-1.2-0.4c-0.4,0-0.9,0.1-1.3,0.2
			c-0.4,0.1-0.8,0.3-1.2,0.5l-0.6-1.3c0.5-0.2,1-0.4,1.5-0.6c0.6-0.1,1.1-0.2,1.6-0.2c1.1,0,1.9,0.2,2.5,0.7
			c0.6,0.5,0.8,1.2,0.8,2.3v5.9H251z M248.2,357.3c0.7,0,1.2-0.2,1.6-0.6c0.4-0.4,0.6-0.9,0.6-1.6v-0.8l-1.1,0
			c-0.9,0-1.5,0.2-1.9,0.4c-0.4,0.3-0.6,0.7-0.6,1.2c0,0.4,0.1,0.7,0.3,0.9C247.4,357.2,247.8,357.3,248.2,357.3z"/>
		<path d="M258.1,357.3c0.5,0,0.9-0.1,1.4-0.2v1.4c-0.2,0.1-0.5,0.2-0.8,0.2c-0.3,0.1-0.7,0.1-1,0.1c-1.7,0-2.6-0.9-2.6-2.8v-4.7
			h-1.2v-0.8l1.3-0.7l0.6-1.8h1.1v1.9h2.5v1.4h-2.5v4.7c0,0.4,0.1,0.8,0.3,1C257.5,357.2,257.7,357.3,258.1,357.3z"/>
	</g>
	<g>
		<path d="M318.3,358.6h-1.9v-9.9H313v-1.6h8.6v1.6h-3.4V358.6z"/>
		<path d="M327.6,349.8c0.4,0,0.7,0,0.9,0.1l-0.2,1.7c-0.3-0.1-0.5-0.1-0.8-0.1c-0.7,0-1.3,0.2-1.8,0.7c-0.5,0.5-0.7,1.1-0.7,1.9
			v4.5h-1.8v-8.7h1.4l0.2,1.5h0.1c0.3-0.5,0.7-0.9,1.1-1.2C326.6,349.9,327.1,349.8,327.6,349.8z"/>
		<path d="M337.9,354.2c0,1.4-0.4,2.5-1.1,3.3c-0.7,0.8-1.7,1.2-3,1.2c-0.8,0-1.5-0.2-2.2-0.6c-0.6-0.4-1.1-0.9-1.4-1.6
			c-0.3-0.7-0.5-1.5-0.5-2.4c0-1.4,0.4-2.5,1.1-3.3c0.7-0.8,1.7-1.2,3.1-1.2c1.3,0,2.3,0.4,3,1.2
			C337.5,351.8,337.9,352.9,337.9,354.2z M331.5,354.2c0,2,0.7,3,2.2,3c1.5,0,2.2-1,2.2-3c0-2-0.7-3-2.2-3c-0.8,0-1.3,0.3-1.7,0.8
			C331.7,352.6,331.5,353.3,331.5,354.2z"/>
		<path d="M342,358.6l-3.3-8.7h1.9l1.8,5.1c0.3,0.8,0.5,1.5,0.6,2.1h0.1c0-0.4,0.2-1.1,0.6-2.1l1.8-5.1h2l-3.3,8.7H342z"/>
		<path d="M352.4,358.8c-1.4,0-2.4-0.4-3.2-1.2c-0.8-0.8-1.1-1.9-1.1-3.3c0-1.4,0.4-2.5,1.1-3.3c0.7-0.8,1.7-1.2,2.9-1.2
			c1.1,0,2.1,0.3,2.7,1c0.7,0.7,1,1.7,1,2.9v1H350c0,0.8,0.3,1.5,0.7,1.9c0.4,0.5,1,0.7,1.8,0.7c0.5,0,1,0,1.4-0.1
			c0.4-0.1,0.9-0.3,1.4-0.5v1.5c-0.5,0.2-0.9,0.4-1.4,0.5C353.5,358.7,353,358.8,352.4,358.8z M352.1,351.2c-0.6,0-1.1,0.2-1.4,0.6
			c-0.4,0.4-0.6,0.9-0.6,1.6h3.9c0-0.7-0.2-1.3-0.5-1.6C353.1,351.3,352.6,351.2,352.1,351.2z"/>
	</g>
	<g>
		<path d="M407.5,358.6v-11.5h1.9v11.5H407.5z"/>
		<path d="M416.6,349.8c0.4,0,0.7,0,0.9,0.1l-0.2,1.7c-0.3-0.1-0.5-0.1-0.8-0.1c-0.7,0-1.3,0.2-1.8,0.7c-0.5,0.5-0.7,1.1-0.7,1.9
			v4.5h-1.8v-8.7h1.4l0.2,1.5h0.1c0.3-0.5,0.7-0.9,1.1-1.2C415.6,349.9,416.1,349.8,416.6,349.8z"/>
		<path d="M426.9,354.2c0,1.4-0.4,2.5-1.1,3.3c-0.7,0.8-1.7,1.2-3,1.2c-0.8,0-1.5-0.2-2.2-0.6c-0.6-0.4-1.1-0.9-1.4-1.6
			c-0.3-0.7-0.5-1.5-0.5-2.4c0-1.4,0.4-2.5,1.1-3.3c0.7-0.8,1.7-1.2,3.1-1.2c1.3,0,2.3,0.4,3,1.2
			C426.5,351.8,426.9,352.9,426.9,354.2z M420.5,354.2c0,2,0.7,3,2.2,3c1.5,0,2.2-1,2.2-3c0-2-0.7-3-2.2-3c-0.8,0-1.3,0.3-1.7,0.8
			C420.7,352.6,420.5,353.3,420.5,354.2z"/>
		<path d="M436.6,358.6h-1.9v-5.3c0-0.7-0.1-1.2-0.4-1.5c-0.3-0.3-0.7-0.5-1.3-0.5c-0.8,0-1.4,0.2-1.7,0.7c-0.4,0.5-0.5,1.2-0.5,2.3
			v4.3H429v-8.7h1.4l0.3,1.1h0.1c0.3-0.4,0.6-0.7,1.1-1c0.5-0.2,1-0.3,1.6-0.3c2.1,0,3.1,1.1,3.1,3.2V358.6z"/>
		<path d="M439.1,347.6c0-0.3,0.1-0.6,0.3-0.8c0.2-0.2,0.4-0.3,0.8-0.3c0.3,0,0.6,0.1,0.8,0.3c0.2,0.2,0.3,0.4,0.3,0.8
			c0,0.3-0.1,0.6-0.3,0.7c-0.2,0.2-0.4,0.3-0.8,0.3c-0.3,0-0.6-0.1-0.8-0.3C439.2,348.2,439.1,347.9,439.1,347.6z M441,358.6h-1.8
			v-8.7h1.8V358.6z"/>
		<path d="M447.2,358.8c-1.3,0-2.3-0.4-3-1.2c-0.7-0.8-1-1.9-1-3.3c0-1.5,0.4-2.6,1.1-3.4s1.7-1.2,3.1-1.2c0.9,0,1.7,0.2,2.5,0.5
			l-0.6,1.5c-0.8-0.3-1.4-0.5-1.9-0.5c-1.5,0-2.3,1-2.3,3c0,1,0.2,1.7,0.6,2.2c0.4,0.5,0.9,0.7,1.6,0.7c0.8,0,1.6-0.2,2.3-0.6v1.6
			c-0.3,0.2-0.7,0.3-1.1,0.4C448.2,358.7,447.7,358.8,447.2,358.8z"/>
	</g>
	<g>
		<g>
			<path fill="#DF8F2F" d="M425.3,69.7c3.5,0,6.3,0.8,8.3,2.4c2,1.6,3.1,3.8,3.1,6.5c0,3.8-2.3,6.8-6.8,9c2.9,1.4,5,3,6.2,4.6
				c1.2,1.6,1.8,3.4,1.8,5.4c0,3-1.1,5.5-3.4,7.3c-2.2,1.8-5.3,2.8-9.1,2.8c-4,0-7.1-0.9-9.3-2.6c-2.2-1.7-3.3-4.2-3.3-7.3
				c0-2.1,0.6-3.9,1.7-5.5c1.2-1.6,3-3.1,5.7-4.4c-2.3-1.3-3.9-2.8-4.8-4.3c-1-1.5-1.4-3.2-1.4-5.1c0-2.7,1.1-4.8,3.2-6.4
				C419.2,70.5,421.9,69.7,425.3,69.7z M418.5,97.5c0,1.8,0.6,3.1,1.8,4.1c1.2,1,2.9,1.5,5,1.5c2.2,0,3.9-0.5,5.1-1.5
				c1.2-1,1.8-2.4,1.8-4.1c0-1.4-0.6-2.6-1.7-3.7c-1.1-1.1-2.8-2.2-5.1-3.1l-0.7-0.3c-2.2,1-3.8,2.1-4.8,3.2
				C419,94.7,418.5,96,418.5,97.5z M425.3,74.3c-1.7,0-3,0.4-4.1,1.3c-1,0.8-1.5,2-1.5,3.4c0,0.9,0.2,1.7,0.6,2.3
				c0.4,0.7,0.9,1.3,1.6,1.9c0.7,0.6,1.9,1.2,3.6,2c2-0.9,3.4-1.8,4.3-2.8c0.8-1,1.3-2.1,1.3-3.4c0-1.4-0.5-2.6-1.6-3.4
				C428.4,74.7,427,74.3,425.3,74.3z"/>
			<path fill="#DF8F2F" d="M467.4,107.1h-25v-4.5l9.5-9.6c2.8-2.9,4.7-4.9,5.6-6.1c0.9-1.2,1.6-2.3,2-3.4c0.4-1.1,0.6-2.2,0.6-3.4
				c0-1.7-0.5-3-1.5-3.9c-1-1-2.4-1.4-4.2-1.4c-1.4,0-2.8,0.3-4.1,0.8c-1.3,0.5-2.9,1.5-4.6,2.8l-3.2-3.9c2.1-1.7,4-3,6-3.7
				c1.9-0.7,4-1.1,6.2-1.1c3.4,0,6.2,0.9,8.3,2.7c2.1,1.8,3.1,4.2,3.1,7.2c0,1.7-0.3,3.2-0.9,4.7c-0.6,1.5-1.5,3-2.8,4.6
				c-1.2,1.6-3.3,3.7-6.2,6.5l-6.4,6.2v0.3h17.5V107.1z"/>
			<path fill="#DF8F2F" d="M488,81.2c0,3.9-0.7,6.8-2.1,8.7c-1.4,1.9-3.4,2.9-6.1,2.9c-2.6,0-4.5-1-5.9-3c-1.4-2-2.1-4.9-2.1-8.6
				c0-7.7,2.7-11.5,8.1-11.5c2.6,0,4.7,1,6.1,3C487.3,74.6,488,77.5,488,81.2z M476.7,81.2c0,2.5,0.2,4.4,0.7,5.6
				c0.5,1.2,1.3,1.8,2.4,1.8c2.2,0,3.3-2.5,3.3-7.5c0-5-1.1-7.5-3.3-7.5c-1.1,0-1.9,0.6-2.4,1.8C476.9,76.9,476.7,78.7,476.7,81.2z
				 M504.6,70.2l-20.5,36.9h-4.9l20.5-36.9H504.6z M512.1,96c0,3.9-0.7,6.8-2.1,8.7c-1.4,1.9-3.4,2.9-6.1,2.9c-2.6,0-4.5-1-6-3
				c-1.4-2-2.1-4.9-2.1-8.6c0-7.7,2.7-11.5,8.1-11.5c2.6,0,4.6,1,6,3C511.4,89.4,512.1,92.3,512.1,96z M500.7,96
				c0,2.5,0.2,4.4,0.7,5.6c0.5,1.2,1.3,1.9,2.4,1.9c2.2,0,3.3-2.5,3.3-7.5c0-4.9-1.1-7.4-3.3-7.4c-1.1,0-1.9,0.6-2.4,1.8
				C501,91.6,500.7,93.5,500.7,96z"/>
		</g>
		<path fill="#C6E4F2" d="M403.6,130.8c0,4.5-1.6,8.3-4.7,11.4c-3.2,3.2-7,4.7-11.4,4.7h-45.7c-5.2,0-9.6-1.8-13.3-5.5
			c-3.7-3.7-5.5-8.1-5.5-13.3c0-3.7,1-7.1,3-10.2c2-3.1,4.6-5.4,7.9-6.9c-0.1-0.8-0.1-1.4-0.1-1.8c0-5.9,2.1-11,6.3-15.2
			c4.2-4.2,9.3-6.3,15.2-6.3c4.4,0,8.4,1.2,12,3.7c3.6,2.5,6.2,5.7,7.9,9.7c2-1.7,4.3-2.6,7-2.6c3,0,5.5,1.1,7.6,3.2
			c2.1,2.1,3.2,4.6,3.2,7.6c0,2.1-0.6,4-1.7,5.8c3.6,0.8,6.6,2.7,9,5.6C402.4,123.7,403.6,127.1,403.6,130.8z"/>
		<path fill="#C6E4F2" d="M599.5,130.8c0,4.5-1.6,8.3-4.7,11.4c-3.2,3.2-7,4.7-11.4,4.7h-45.7c-5.2,0-9.6-1.8-13.3-5.5
			c-3.7-3.7-5.5-8.1-5.5-13.3c0-3.7,1-7.1,3-10.2c2-3.1,4.6-5.4,7.9-6.9c-0.1-0.8-0.1-1.4-0.1-1.8c0-5.9,2.1-11,6.3-15.2
			c4.2-4.2,9.3-6.3,15.2-6.3c4.4,0,8.4,1.2,12,3.7c3.6,2.5,6.2,5.7,7.9,9.7c2-1.7,4.3-2.6,7-2.6c3,0,5.5,1.1,7.6,3.2
			c2.1,2.1,3.2,4.6,3.2,7.6c0,2.1-0.6,4-1.7,5.8c3.6,0.8,6.6,2.7,9,5.6C598.3,123.7,599.5,127.1,599.5,130.8z"/>
		<g>
			<path fill="#DF8F2F" d="M391.2,162c0,1.4-0.4,2.5-1.1,3.3c-0.7,0.8-1.7,1.2-3,1.2c-0.8,0-1.5-0.2-2.2-0.6
				c-0.6-0.4-1.1-0.9-1.4-1.6c-0.3-0.7-0.5-1.5-0.5-2.4c0-1.4,0.4-2.5,1.1-3.3c0.7-0.8,1.7-1.2,3.1-1.2c1.3,0,2.3,0.4,3,1.2
				C390.8,159.5,391.2,160.6,391.2,162z M384.9,162c0,2,0.7,3,2.2,3c1.5,0,2.2-1,2.2-3c0-2-0.7-3-2.2-3c-0.8,0-1.3,0.3-1.7,0.8
				C385,160.3,384.9,161,384.9,162z"/>
			<path fill="#DF8F2F" d="M397.7,159.1h-2.1v7.3h-1.9v-7.3h-1.4v-0.9l1.4-0.6v-0.6c0-1,0.2-1.8,0.7-2.3c0.5-0.5,1.2-0.7,2.2-0.7
				c0.6,0,1.3,0.1,1.9,0.3l-0.5,1.4c-0.5-0.1-0.9-0.2-1.3-0.2c-0.4,0-0.7,0.1-0.9,0.4c-0.2,0.3-0.3,0.6-0.3,1.2v0.6h2.1V159.1z"/>
			<path fill="#DF8F2F" d="M413.7,160.6c0,1.9-0.5,3.3-1.4,4.4c-0.9,1-2.3,1.6-4,1.6c-1.7,0-3.1-0.5-4-1.5c-0.9-1-1.4-2.5-1.4-4.4
				c0-1.9,0.5-3.4,1.4-4.4c0.9-1,2.3-1.5,4-1.5c1.7,0,3,0.5,4,1.5C413.3,157.3,413.7,158.7,413.7,160.6z M405,160.6
				c0,1.4,0.3,2.5,0.9,3.2c0.6,0.7,1.4,1.1,2.5,1.1c1.1,0,2-0.4,2.5-1.1c0.6-0.7,0.9-1.8,0.9-3.2c0-1.4-0.3-2.5-0.8-3.2
				c-0.6-0.7-1.4-1.1-2.5-1.1c-1.1,0-2,0.4-2.5,1.1C405.2,158.1,405,159.2,405,160.6z"/>
			<path fill="#DF8F2F" d="M420.4,166.5c-1.1,0-2-0.4-2.6-1.2h-0.1c0.1,0.7,0.1,1.2,0.1,1.3v3.6H416v-12.6h1.5
				c0,0.2,0.1,0.6,0.3,1.2h0.1c0.6-0.9,1.4-1.3,2.6-1.3c1.1,0,1.9,0.4,2.5,1.2c0.6,0.8,0.9,1.9,0.9,3.3c0,1.4-0.3,2.5-0.9,3.3
				C422.3,166.1,421.5,166.5,420.4,166.5z M420,159c-0.7,0-1.3,0.2-1.6,0.6c-0.3,0.4-0.5,1.1-0.5,2.1v0.3c0,1.1,0.2,1.8,0.5,2.3
				c0.3,0.5,0.9,0.7,1.6,0.7c0.6,0,1.1-0.3,1.5-0.8c0.3-0.5,0.5-1.3,0.5-2.2c0-1-0.2-1.7-0.5-2.2C421.1,159.3,420.6,159,420,159z"/>
			<path fill="#DF8F2F" d="M429.8,166.5c-1.4,0-2.4-0.4-3.2-1.2c-0.8-0.8-1.1-1.9-1.1-3.3c0-1.4,0.4-2.5,1.1-3.3
				c0.7-0.8,1.7-1.2,2.9-1.2c1.1,0,2.1,0.3,2.7,1c0.7,0.7,1,1.7,1,2.9v1h-5.8c0,0.8,0.3,1.5,0.7,1.9c0.4,0.5,1,0.7,1.8,0.7
				c0.5,0,1,0,1.4-0.1c0.4-0.1,0.9-0.3,1.4-0.5v1.5c-0.5,0.2-0.9,0.4-1.4,0.5C430.9,166.5,430.4,166.5,429.8,166.5z M429.5,158.9
				c-0.6,0-1.1,0.2-1.4,0.6c-0.4,0.4-0.6,0.9-0.6,1.6h3.9c0-0.7-0.2-1.3-0.5-1.6C430.5,159.1,430.1,158.9,429.5,158.9z"/>
			<path fill="#DF8F2F" d="M442.9,166.3h-1.9V161c0-0.7-0.1-1.2-0.4-1.5c-0.3-0.3-0.7-0.5-1.3-0.5c-0.8,0-1.4,0.2-1.7,0.7
				c-0.4,0.5-0.5,1.2-0.5,2.3v4.3h-1.8v-8.7h1.4l0.3,1.1h0.1c0.3-0.4,0.6-0.7,1.1-1c0.5-0.2,1-0.3,1.6-0.3c2.1,0,3.1,1.1,3.1,3.2
				V166.3z"/>
			<path fill="#DF8F2F" d="M452.3,163.2c0,1-0.4,1.8-1.1,2.4c-0.7,0.6-1.8,0.9-3.1,0.9c-1.3,0-2.4-0.2-3.2-0.6v-1.8
				c0.5,0.2,1.1,0.4,1.7,0.6c0.6,0.1,1.1,0.2,1.6,0.2c0.7,0,1.3-0.1,1.6-0.4c0.4-0.3,0.5-0.7,0.5-1.1c0-0.4-0.2-0.8-0.5-1.1
				c-0.3-0.3-1-0.7-2-1.1c-1-0.4-1.8-0.9-2.2-1.5c-0.4-0.5-0.6-1.2-0.6-2c0-1,0.3-1.7,1-2.3c0.7-0.6,1.6-0.8,2.7-0.8
				c1.1,0,2.2,0.2,3.3,0.7l-0.6,1.5c-1-0.4-1.9-0.6-2.7-0.6c-0.6,0-1.1,0.1-1.4,0.4s-0.5,0.6-0.5,1c0,0.3,0.1,0.6,0.2,0.8
				c0.1,0.2,0.3,0.4,0.6,0.6c0.3,0.2,0.8,0.4,1.6,0.7c0.8,0.4,1.5,0.7,1.9,1c0.4,0.3,0.7,0.6,0.9,1
				C452.2,162.3,452.3,162.7,452.3,163.2z"/>
			<path fill="#DF8F2F" d="M457.6,165c0.5,0,0.9-0.1,1.4-0.2v1.4c-0.2,0.1-0.5,0.2-0.8,0.2c-0.3,0.1-0.7,0.1-1,0.1
				c-1.7,0-2.6-0.9-2.6-2.8v-4.7h-1.2v-0.8l1.3-0.7l0.6-1.8h1.1v1.9h2.5v1.4h-2.5v4.7c0,0.4,0.1,0.8,0.3,1
				C456.9,164.9,457.2,165,457.6,165z"/>
			<path fill="#DF8F2F" d="M466.1,166.3l-0.4-1.2h-0.1c-0.4,0.5-0.8,0.9-1.3,1.1c-0.4,0.2-1,0.3-1.6,0.3c-0.9,0-1.5-0.2-2-0.7
				c-0.5-0.5-0.7-1.1-0.7-2c0-0.9,0.3-1.6,1-2c0.7-0.5,1.7-0.7,3-0.7l1.5,0v-0.5c0-0.6-0.1-1-0.4-1.2c-0.3-0.3-0.7-0.4-1.2-0.4
				c-0.4,0-0.9,0.1-1.3,0.2c-0.4,0.1-0.8,0.3-1.2,0.5l-0.6-1.3c0.5-0.2,1-0.4,1.5-0.6c0.6-0.1,1.1-0.2,1.6-0.2
				c1.1,0,1.9,0.2,2.5,0.7c0.6,0.5,0.8,1.2,0.8,2.3v5.9H466.1z M463.4,165.1c0.7,0,1.2-0.2,1.6-0.6c0.4-0.4,0.6-0.9,0.6-1.6v-0.8
				l-1.1,0c-0.9,0-1.5,0.2-1.9,0.4c-0.4,0.3-0.6,0.7-0.6,1.2c0,0.4,0.1,0.7,0.3,0.9C462.6,165,462.9,165.1,463.4,165.1z"/>
			<path fill="#DF8F2F" d="M473.5,166.5c-1.3,0-2.3-0.4-3-1.2c-0.7-0.8-1-1.9-1-3.3c0-1.5,0.4-2.6,1.1-3.4c0.7-0.8,1.7-1.2,3.1-1.2
				c0.9,0,1.7,0.2,2.5,0.5l-0.6,1.5c-0.8-0.3-1.4-0.5-1.9-0.5c-1.5,0-2.3,1-2.3,3c0,1,0.2,1.7,0.6,2.2c0.4,0.5,0.9,0.7,1.6,0.7
				c0.8,0,1.6-0.2,2.3-0.6v1.6c-0.3,0.2-0.7,0.3-1.1,0.4C474.5,166.5,474.1,166.5,473.5,166.5z"/>
			<path fill="#DF8F2F" d="M479.8,161.8l1-1.3l2.6-2.8h2.1l-3.5,3.7l3.7,5h-2.2l-2.8-3.8l-1,0.8v3H478v-12.2h1.8v6L479.8,161.8
				L479.8,161.8z"/>
			<path fill="#DF8F2F" d="M496.4,156.3c-1.1,0-1.9,0.4-2.5,1.1c-0.6,0.8-0.9,1.8-0.9,3.2c0,1.4,0.3,2.5,0.9,3.2
				c0.6,0.7,1.5,1.1,2.6,1.1c0.5,0,1,0,1.4-0.1c0.5-0.1,0.9-0.2,1.4-0.4v1.6c-0.9,0.3-1.9,0.5-3.1,0.5c-1.7,0-3-0.5-3.9-1.5
				c-0.9-1-1.4-2.5-1.4-4.4c0-1.2,0.2-2.2,0.7-3.1c0.4-0.9,1.1-1.6,1.9-2.1c0.8-0.5,1.8-0.7,2.9-0.7c1.2,0,2.3,0.2,3.3,0.7L499,157
				c-0.4-0.2-0.8-0.3-1.2-0.5C497.4,156.4,496.9,156.3,496.4,156.3z"/>
			<path fill="#DF8F2F" d="M503.4,166.3h-1.8v-12.2h1.8V166.3z"/>
			<path fill="#DF8F2F" d="M513.8,162c0,1.4-0.4,2.5-1.1,3.3c-0.7,0.8-1.7,1.2-3,1.2c-0.8,0-1.5-0.2-2.2-0.6
				c-0.6-0.4-1.1-0.9-1.4-1.6c-0.3-0.7-0.5-1.5-0.5-2.4c0-1.4,0.4-2.5,1.1-3.3c0.7-0.8,1.7-1.2,3.1-1.2c1.3,0,2.3,0.4,3,1.2
				C513.4,159.5,513.8,160.6,513.8,162z M507.4,162c0,2,0.7,3,2.2,3c1.5,0,2.2-1,2.2-3c0-2-0.7-3-2.2-3c-0.8,0-1.3,0.3-1.7,0.8
				C507.6,160.3,507.4,161,507.4,162z"/>
			<path fill="#DF8F2F" d="M522,166.3l-0.3-1.1h-0.1c-0.3,0.4-0.6,0.7-1.1,1c-0.5,0.2-1,0.3-1.6,0.3c-1.1,0-1.8-0.3-2.4-0.8
				c-0.5-0.5-0.8-1.3-0.8-2.4v-5.7h1.9v5.4c0,0.7,0.1,1.2,0.4,1.5c0.3,0.3,0.7,0.5,1.3,0.5c0.8,0,1.3-0.2,1.7-0.7
				c0.4-0.5,0.5-1.2,0.5-2.3v-4.3h1.9v8.7H522z"/>
			<path fill="#DF8F2F" d="M529,166.5c-1.1,0-1.9-0.4-2.5-1.2c-0.6-0.8-0.9-1.9-0.9-3.3c0-1.4,0.3-2.5,0.9-3.3
				c0.6-0.8,1.5-1.2,2.6-1.2c1.1,0,2,0.4,2.6,1.3h0.1c-0.1-0.6-0.1-1.1-0.1-1.5v-3.2h1.9v12.2H532l-0.3-1.1h-0.1
				C531,166.1,530.2,166.5,529,166.5z M529.5,165c0.8,0,1.3-0.2,1.7-0.6c0.3-0.4,0.5-1.1,0.5-2.1V162c0-1.1-0.2-1.9-0.5-2.3
				c-0.4-0.5-0.9-0.7-1.7-0.7c-0.6,0-1.1,0.3-1.5,0.8c-0.4,0.5-0.5,1.3-0.5,2.3c0,1,0.2,1.7,0.5,2.2
				C528.3,164.8,528.8,165,529.5,165z"/>
			<path fill="#DF8F2F" d="M542,163.9c0,0.8-0.3,1.5-0.9,2c-0.6,0.5-1.5,0.7-2.7,0.7c-1.2,0-2.1-0.2-2.8-0.5v-1.6
				c1,0.5,2,0.7,2.9,0.7c1.1,0,1.7-0.3,1.7-1c0-0.2-0.1-0.4-0.2-0.6c-0.1-0.1-0.3-0.3-0.6-0.5c-0.3-0.2-0.7-0.3-1.2-0.5
				c-1-0.4-1.7-0.8-2-1.2c-0.4-0.4-0.5-0.9-0.5-1.5c0-0.7,0.3-1.3,0.9-1.7c0.6-0.4,1.4-0.6,2.4-0.6c1,0,2,0.2,2.9,0.6l-0.6,1.4
				c-0.9-0.4-1.7-0.6-2.4-0.6c-1,0-1.5,0.3-1.5,0.8c0,0.3,0.1,0.5,0.4,0.7c0.3,0.2,0.8,0.4,1.7,0.8c0.7,0.3,1.2,0.5,1.6,0.8
				c0.3,0.2,0.6,0.5,0.7,0.8C541.9,163.1,542,163.5,542,163.9z"/>
			<path fill="#DF8F2F" d="M354.7,174.5c0-0.5,0.1-0.8,0.4-1c0.3-0.2,0.7-0.3,1.2-0.3c0.6,0,1,0.1,1.2,0.3c0.3,0.2,0.4,0.6,0.4,1
				c0,0.9-0.5,1.4-1.6,1.4C355.2,175.9,354.7,175.4,354.7,174.5z M357.8,185.7h-3.1v-8.9h3.1V185.7z"/>
			<path fill="#DF8F2F" d="M365.6,185.7v-4.9c0-0.6-0.1-1-0.3-1.3c-0.2-0.3-0.4-0.5-0.8-0.5c-0.5,0-0.9,0.2-1.1,0.6
				c-0.2,0.4-0.3,1.1-0.3,2.1v3.9H360v-8.9h2.3l0.4,1.1h0.2c0.3-0.4,0.6-0.7,1.1-0.9c0.5-0.2,1-0.3,1.6-0.3c1,0,1.8,0.3,2.3,0.9
				c0.5,0.6,0.8,1.4,0.8,2.4v5.8H365.6z"/>
			<path fill="#DF8F2F" d="M375.1,183.4c0.4,0,0.9-0.1,1.5-0.3v2.2c-0.4,0.2-0.8,0.3-1.2,0.4c-0.4,0.1-0.8,0.1-1.3,0.1
				c-1,0-1.8-0.3-2.2-0.8c-0.5-0.5-0.7-1.3-0.7-2.3v-3.7h-1.1v-1.2l1.4-1l0.8-1.9h2v1.8h2.2v2.3h-2.2v3.5
				C374.3,183.1,374.6,183.4,375.1,183.4z"/>
			<path fill="#DF8F2F" d="M382.5,185.8c-1.5,0-2.6-0.4-3.5-1.2c-0.8-0.8-1.2-1.9-1.2-3.4c0-1.5,0.4-2.7,1.1-3.5
				c0.8-0.8,1.8-1.2,3.3-1.2c1.3,0,2.4,0.3,3.1,1c0.7,0.7,1.1,1.7,1.1,3v1.4h-5.5c0,0.5,0.2,0.9,0.5,1.2c0.3,0.3,0.8,0.4,1.4,0.4
				c0.5,0,1-0.1,1.5-0.2c0.5-0.1,0.9-0.3,1.5-0.5v2.2c-0.5,0.2-1,0.4-1.5,0.5C383.8,185.8,383.2,185.8,382.5,185.8z M382.3,178.7
				c-0.4,0-0.7,0.1-0.9,0.3c-0.2,0.2-0.4,0.6-0.4,1.1h2.6c0-0.4-0.1-0.8-0.4-1C383,178.8,382.7,178.7,382.3,178.7z"/>
			<path fill="#DF8F2F" d="M393.5,176.6c0.3,0,0.5,0,0.8,0.1l0.2,0l-0.3,2.9c-0.3-0.1-0.6-0.1-1-0.1c-0.7,0-1.2,0.2-1.5,0.5
				c-0.3,0.3-0.5,0.7-0.5,1.3v4.4h-3.1v-8.9h2.3l0.5,1.4h0.1c0.3-0.5,0.6-0.9,1.1-1.1C392.6,176.7,393,176.6,393.5,176.6z"/>
			<path fill="#DF8F2F" d="M401.5,185.7l-0.6-1.2h-0.1c-0.4,0.5-0.8,0.9-1.3,1.1c-0.4,0.2-1,0.3-1.7,0.3c-0.8,0-1.5-0.3-2-0.8
				c-0.5-0.5-0.7-1.2-0.7-2.1c0-0.9,0.3-1.7,1-2.1c0.7-0.5,1.6-0.7,2.9-0.8l1.5,0v-0.1c0-0.7-0.4-1.1-1.1-1.1
				c-0.6,0-1.5,0.2-2.5,0.7l-0.9-2c1-0.5,2.3-0.8,3.9-0.8c1.1,0,2,0.3,2.7,0.8c0.6,0.6,0.9,1.4,0.9,2.4v5.8H401.5z M399.2,183.6
				c0.4,0,0.7-0.1,1-0.4c0.3-0.2,0.4-0.5,0.4-0.9v-0.7l-0.7,0c-1,0-1.5,0.4-1.5,1.1C398.3,183.4,398.6,183.6,399.2,183.6z"/>
			<path fill="#DF8F2F" d="M409.8,185.8c-1.5,0-2.6-0.4-3.3-1.2c-0.8-0.8-1.1-1.9-1.1-3.4c0-1.5,0.4-2.6,1.2-3.4
				c0.8-0.8,2-1.2,3.5-1.2c1,0,2,0.2,2.9,0.7l-0.9,2.3c-0.4-0.2-0.7-0.3-1-0.4s-0.6-0.1-1-0.1c-0.5,0-0.9,0.2-1.2,0.6
				c-0.3,0.4-0.4,0.9-0.4,1.6c0,1.4,0.5,2.1,1.6,2.1c0.9,0,1.8-0.3,2.6-0.8v2.4C411.8,185.6,410.9,185.8,409.8,185.8z"/>
			<path fill="#DF8F2F" d="M418.7,183.4c0.4,0,0.9-0.1,1.5-0.3v2.2c-0.4,0.2-0.8,0.3-1.2,0.4c-0.4,0.1-0.8,0.1-1.3,0.1
				c-1,0-1.8-0.3-2.2-0.8c-0.5-0.5-0.7-1.3-0.7-2.3v-3.7h-1.1v-1.2l1.4-1l0.8-1.9h2v1.8h2.2v2.3h-2.2v3.5
				C417.9,183.1,418.2,183.4,418.7,183.4z"/>
			<path fill="#DF8F2F" d="M433.6,185.7l-1-4.2l-0.2-1.3l-0.2-1h0c-0.3,1.5-0.4,2.4-0.5,2.8l-0.9,3.8h-3.2l-2.4-8.9h3l0.7,3.4
				c0.2,1.2,0.4,2.1,0.4,2.9h0c0-0.5,0.2-1.4,0.4-2.8l0.8-3.6h3.4l0.8,3.6c0.2,1.2,0.4,2.1,0.5,2.7h0c0-0.4,0.1-0.9,0.2-1.5
				c0.1-0.6,0.2-1.1,0.2-1.4l0.8-3.4h3l-2.4,8.9H433.6z"/>
			<path fill="#DF8F2F" d="M440.5,174.5c0-0.5,0.1-0.8,0.4-1c0.3-0.2,0.7-0.3,1.2-0.3c0.6,0,1,0.1,1.2,0.3c0.3,0.2,0.4,0.6,0.4,1
				c0,0.9-0.5,1.4-1.6,1.4C441.1,175.9,440.5,175.4,440.5,174.5z M443.7,185.7h-3.1v-8.9h3.1V185.7z"/>
			<path fill="#DF8F2F" d="M450.2,183.4c0.4,0,0.9-0.1,1.5-0.3v2.2c-0.4,0.2-0.8,0.3-1.2,0.4c-0.4,0.1-0.8,0.1-1.3,0.1
				c-1,0-1.8-0.3-2.2-0.8c-0.5-0.5-0.7-1.3-0.7-2.3v-3.7h-1.1v-1.2l1.4-1l0.8-1.9h2v1.8h2.2v2.3h-2.2v3.5
				C449.4,183.1,449.6,183.4,450.2,183.4z"/>
			<path fill="#DF8F2F" d="M458.8,185.7v-4.9c0-1.2-0.4-1.8-1.1-1.8c-0.5,0-0.9,0.2-1.1,0.6c-0.2,0.4-0.4,1.1-0.4,2.1v3.9h-3.1
				v-12.2h3.1v1.7c0,0.8,0,1.7-0.1,2.7h0.1c0.3-0.5,0.6-0.8,1-1c0.4-0.2,0.9-0.3,1.4-0.3c1,0,1.8,0.3,2.3,0.9
				c0.6,0.6,0.8,1.4,0.8,2.4v5.8H458.8z"/>
			<path fill="#DF8F2F" d="M476.7,181.2c0,1.5-0.4,2.6-1.2,3.4c-0.8,0.8-1.9,1.2-3.3,1.2c-1.4,0-2.4-0.4-3.2-1.2s-1.2-2-1.2-3.4
				c0-1.5,0.4-2.6,1.2-3.4c0.8-0.8,1.9-1.2,3.3-1.2c0.9,0,1.6,0.2,2.3,0.6c0.7,0.4,1.2,0.9,1.6,1.6
				C476.5,179.4,476.7,180.3,476.7,181.2z M470.9,181.2c0,0.8,0.1,1.3,0.3,1.7c0.2,0.4,0.5,0.6,1,0.6c0.5,0,0.8-0.2,1-0.6
				c0.2-0.4,0.3-1,0.3-1.7c0-0.8-0.1-1.3-0.3-1.7c-0.2-0.4-0.5-0.6-1-0.6c-0.5,0-0.8,0.2-1,0.6C471,179.8,470.9,180.4,470.9,181.2z"
				/>
			<path fill="#DF8F2F" d="M482.8,183.4c0.4,0,0.9-0.1,1.5-0.3v2.2c-0.4,0.2-0.8,0.3-1.2,0.4c-0.4,0.1-0.8,0.1-1.3,0.1
				c-1,0-1.8-0.3-2.2-0.8c-0.5-0.5-0.7-1.3-0.7-2.3v-3.7h-1.1v-1.2l1.4-1l0.8-1.9h2v1.8h2.2v2.3H482v3.5
				C482,183.1,482.3,183.4,482.8,183.4z"/>
			<path fill="#DF8F2F" d="M491.5,185.7v-4.9c0-1.2-0.4-1.8-1.1-1.8c-0.5,0-0.9,0.2-1.1,0.6c-0.2,0.4-0.4,1.1-0.4,2.1v3.9h-3.1
				v-12.2h3.1v1.7c0,0.8,0,1.7-0.1,2.7h0.1c0.3-0.5,0.6-0.8,1-1c0.4-0.2,0.9-0.3,1.4-0.3c1,0,1.8,0.3,2.3,0.9
				c0.6,0.6,0.8,1.4,0.8,2.4v5.8H491.5z"/>
			<path fill="#DF8F2F" d="M500.9,185.8c-1.5,0-2.6-0.4-3.5-1.2c-0.8-0.8-1.2-1.9-1.2-3.4c0-1.5,0.4-2.7,1.1-3.5
				c0.8-0.8,1.8-1.2,3.3-1.2c1.3,0,2.4,0.3,3.1,1c0.7,0.7,1.1,1.7,1.1,3v1.4h-5.5c0,0.5,0.2,0.9,0.5,1.2c0.3,0.3,0.8,0.4,1.4,0.4
				c0.5,0,1-0.1,1.5-0.2c0.5-0.1,0.9-0.3,1.5-0.5v2.2c-0.5,0.2-1,0.4-1.5,0.5C502.3,185.8,501.6,185.8,500.9,185.8z M500.8,178.7
				c-0.4,0-0.7,0.1-0.9,0.3c-0.2,0.2-0.4,0.6-0.4,1.1h2.6c0-0.4-0.1-0.8-0.4-1C501.5,178.8,501.1,178.7,500.8,178.7z"/>
			<path fill="#DF8F2F" d="M512,176.6c0.3,0,0.5,0,0.8,0.1l0.2,0l-0.3,2.9c-0.3-0.1-0.6-0.1-1-0.1c-0.7,0-1.2,0.2-1.5,0.5
				c-0.3,0.3-0.5,0.7-0.5,1.3v4.4h-3.1v-8.9h2.3l0.5,1.4h0.1c0.3-0.5,0.6-0.9,1.1-1.1C511,176.7,511.5,176.6,512,176.6z"/>
			<path fill="#DF8F2F" d="M522.4,185.8c-1.5,0-2.6-0.4-3.3-1.2c-0.8-0.8-1.1-1.9-1.1-3.4c0-1.5,0.4-2.6,1.2-3.4
				c0.8-0.8,2-1.2,3.5-1.2c1,0,2,0.2,2.9,0.7l-0.9,2.3c-0.4-0.2-0.7-0.3-1-0.4c-0.3-0.1-0.6-0.1-1-0.1c-0.5,0-0.9,0.2-1.2,0.6
				c-0.3,0.4-0.4,0.9-0.4,1.6c0,1.4,0.5,2.1,1.6,2.1c0.9,0,1.8-0.3,2.6-0.8v2.4C524.4,185.6,523.5,185.8,522.4,185.8z"/>
			<path fill="#DF8F2F" d="M530.1,185.7H527v-12.2h3.1V185.7z"/>
			<path fill="#DF8F2F" d="M540.7,181.2c0,1.5-0.4,2.6-1.2,3.4c-0.8,0.8-1.9,1.2-3.3,1.2c-1.4,0-2.4-0.4-3.2-1.2s-1.2-2-1.2-3.4
				c0-1.5,0.4-2.6,1.2-3.4c0.8-0.8,1.9-1.2,3.3-1.2c0.9,0,1.6,0.2,2.3,0.6c0.7,0.4,1.2,0.9,1.6,1.6
				C540.5,179.4,540.7,180.3,540.7,181.2z M534.9,181.2c0,0.8,0.1,1.3,0.3,1.7c0.2,0.4,0.5,0.6,1,0.6c0.5,0,0.8-0.2,1-0.6
				c0.2-0.4,0.3-1,0.3-1.7c0-0.8-0.1-1.3-0.3-1.7c-0.2-0.4-0.5-0.6-1-0.6c-0.5,0-0.8,0.2-1,0.6C535,179.8,534.9,180.4,534.9,181.2z"
				/>
			<path fill="#DF8F2F" d="M548.8,185.7l-0.4-1.1h-0.2c-0.3,0.4-0.6,0.7-1.1,0.9c-0.5,0.2-1,0.3-1.6,0.3c-1,0-1.7-0.3-2.3-0.9
				c-0.5-0.6-0.8-1.4-0.8-2.4v-5.8h3.1v4.9c0,0.6,0.1,1,0.2,1.3c0.2,0.3,0.4,0.4,0.8,0.4c0.5,0,0.9-0.2,1.1-0.6
				c0.2-0.4,0.3-1.1,0.3-2.1v-3.9h3.1v8.9H548.8z"/>
			<path fill="#DF8F2F" d="M556,185.8c-0.6,0-1.2-0.2-1.7-0.5c-0.5-0.4-0.8-0.9-1.1-1.6c-0.3-0.7-0.4-1.5-0.4-2.5
				c0-1.4,0.3-2.6,0.9-3.4c0.6-0.8,1.4-1.2,2.4-1.2c0.5,0,0.9,0.1,1.3,0.3c0.4,0.2,0.7,0.5,1,1h0.1c-0.1-0.7-0.1-1.4-0.1-2.1v-2.4
				h3.1v12.2h-2.3l-0.7-1.1h-0.1C557.8,185.4,557,185.8,556,185.8z M557.2,183.4c0.5,0,0.8-0.2,1-0.5c0.2-0.3,0.3-0.8,0.3-1.4v-0.2
				c0-0.8-0.1-1.3-0.3-1.7c-0.2-0.3-0.6-0.5-1.1-0.5c-0.4,0-0.7,0.2-0.9,0.6c-0.2,0.4-0.3,0.9-0.3,1.6c0,0.7,0.1,1.2,0.3,1.6
				C556.5,183.2,556.8,183.4,557.2,183.4z"/>
			<path fill="#DF8F2F" d="M570.4,182.9c0,1-0.3,1.7-1,2.2c-0.6,0.5-1.6,0.7-2.8,0.7c-0.7,0-1.2,0-1.7-0.1c-0.5-0.1-1-0.2-1.5-0.4
				v-2.5c0.5,0.2,1,0.4,1.6,0.5c0.6,0.1,1.1,0.2,1.5,0.2c0.7,0,1-0.2,1-0.5c0-0.2-0.1-0.3-0.3-0.4c-0.2-0.1-0.7-0.4-1.6-0.7
				c-0.8-0.3-1.4-0.7-1.7-1.1c-0.3-0.4-0.5-1-0.5-1.6c0-0.8,0.3-1.5,1-1.9c0.6-0.5,1.5-0.7,2.7-0.7c0.6,0,1.1,0.1,1.7,0.2
				c0.5,0.1,1.1,0.3,1.6,0.6l-0.8,2c-0.4-0.2-0.8-0.3-1.3-0.5c-0.5-0.1-0.8-0.2-1.1-0.2c-0.5,0-0.8,0.1-0.8,0.4
				c0,0.2,0.1,0.3,0.3,0.4c0.2,0.1,0.7,0.3,1.5,0.7c0.6,0.3,1.1,0.5,1.4,0.8c0.3,0.2,0.5,0.5,0.7,0.9
				C570.4,182,570.4,182.4,570.4,182.9z"/>
		</g>
		<g>
			<path fill="#417390" d="M499.9,128.4h-4v-2h4V128.4z M491.9,128.4h-3v-2h3V128.4z M484.9,128.4h-4v-2h4V128.4z M477.9,128.4h-4
				v-2h4V128.4z M469.9,128.4h-3v-2h3V128.4z M462.9,128.4h-4v-2h4V128.4z M455.9,128.4h-4v-2h4V128.4z M447.9,128.4h-3v-2h3V128.4z
				 M440.9,128.4h-4v-2h4V128.4z M433.9,128.4h-4v-2h4V128.4z M425.9,128.4h-3v-2h3V128.4z"/>
			<g>
				<path fill="#417390" d="M412.7,127.5c4.6,1.7,10.2,4.6,13.8,7.7l-2.8-7.7l2.8-7.7C423,122.9,417.3,125.8,412.7,127.5z"/>
			</g>
			<g>
				<path fill="#417390" d="M512.1,127.5c-4.6,1.7-10.2,4.6-13.8,7.7l2.8-7.7l-2.8-7.7C501.8,122.9,507.5,125.8,512.1,127.5z"/>
			</g>
		</g>
	</g>
	<g>
		<path fill="#61ABD9" d="M629.5,341.7c0,2.2,1.8,4,4,4h61c2.2,0,4-1.8,4-4V114.3c0-2.2-1.8-4-4-4h-61c-2.2,0-4,1.8-4,4V341.7z"/>
	</g>
	<g>
		<path fill="#61ABD9" d="M707.7,341.7c0,2.2,1.8,4,4,4h61c2.2,0,4-1.8,4-4V218.7c0-2.2-1.8-4-4-4h-61c-2.2,0-4,1.8-4,4V341.7z"/>
	</g>
	<g>
		<path fill="#61ABD9" d="M785.8,341.7c0,2.2,1.8,4,4,4h61c2.2,0,4-1.8,4-4V170.3c0-2.2-1.8-4-4-4h-61c-2.2,0-4,1.8-4,4V341.7z"/>
	</g>
	<path fill="#555555" d="M864,256.8h-1.8v-1.6h1.8V256.8z M858.9,256.4h-4v-1h4V256.4z M850.9,256.4h-3v-1h3V256.4z M843.9,256.4h-4
		v-1h4V256.4z M836.9,256.4h-4v-1h4V256.4z M828.9,256.4h-3v-1h3V256.4z M821.9,256.4h-4v-1h4V256.4z M813.9,256.4h-3v-1h3V256.4z
		 M806.9,256.4h-4v-1h4V256.4z M799.9,256.4h-4v-1h4V256.4z M791.9,256.4h-3v-1h3V256.4z M784.9,256.4h-4v-1h4V256.4z M777.9,256.4
		h-4v-1h4V256.4z M769.9,256.4h-3v-1h3V256.4z M762.9,256.4h-4v-1h4V256.4z M755.9,256.4h-4v-1h4V256.4z M747.9,256.4h-3v-1h3V256.4
		z M740.9,256.4h-4v-1h4V256.4z M733.9,256.4h-4v-1h4V256.4z M725.9,256.4h-3v-1h3V256.4z M718.9,256.4h-4v-1h4V256.4z M710.9,256.4
		h-3v-1h3V256.4z M703.9,256.4h-4v-1h4V256.4z M696.9,256.4h-4v-1h4V256.4z M688.9,256.4h-3v-1h3V256.4z M681.9,256.4h-4v-1h4V256.4
		z M674.9,256.4h-4v-1h4V256.4z M666.9,256.4h-3v-1h3V256.4z M659.9,256.4h-4v-1h4V256.4z M652.9,256.4h-4v-1h4V256.4z M644.9,256.4
		h-3v-1h3V256.4z M637.9,256.4h-4v-1h4V256.4z M630.9,256.4h-4v-1h4V256.4z M622.9,256.4h-3v-1h3V256.4z"/>
	<g>
		<path fill="#698C46" d="M631,46.3V34.9h1.9v9.9h4.9v1.6H631z"/>
		<path fill="#698C46" d="M645,46.3l-0.4-1.2h-0.1c-0.4,0.5-0.8,0.9-1.3,1.1c-0.4,0.2-1,0.3-1.6,0.3c-0.9,0-1.5-0.2-2-0.7
			c-0.5-0.5-0.7-1.1-0.7-2c0-0.9,0.3-1.6,1-2c0.7-0.5,1.7-0.7,3-0.7l1.5,0v-0.5c0-0.6-0.1-1-0.4-1.2c-0.3-0.3-0.7-0.4-1.2-0.4
			c-0.4,0-0.9,0.1-1.3,0.2c-0.4,0.1-0.8,0.3-1.2,0.5l-0.6-1.3c0.5-0.2,1-0.4,1.5-0.6c0.6-0.1,1.1-0.2,1.6-0.2c1.1,0,1.9,0.2,2.5,0.7
			c0.6,0.5,0.8,1.2,0.8,2.3v5.9H645z M642.3,45.1c0.7,0,1.2-0.2,1.6-0.6s0.6-0.9,0.6-1.6v-0.8l-1.1,0c-0.9,0-1.5,0.2-1.9,0.4
			c-0.4,0.3-0.6,0.7-0.6,1.2c0,0.4,0.1,0.7,0.3,0.9C641.4,45,641.8,45.1,642.3,45.1z"/>
		<path fill="#698C46" d="M653.3,37.5c0.4,0,0.7,0,0.9,0.1l-0.2,1.7c-0.3-0.1-0.5-0.1-0.8-0.1c-0.7,0-1.3,0.2-1.8,0.7
			c-0.5,0.5-0.7,1.1-0.7,1.9v4.5h-1.8v-8.7h1.4l0.2,1.5h0.1c0.3-0.5,0.7-0.9,1.1-1.2C652.3,37.7,652.8,37.5,653.3,37.5z"/>
		<path fill="#698C46" d="M663.2,37.7v1l-1.5,0.3c0.1,0.2,0.2,0.4,0.3,0.7c0.1,0.3,0.1,0.6,0.1,0.8c0,0.9-0.3,1.6-0.9,2.1
			c-0.6,0.5-1.5,0.8-2.6,0.8c-0.3,0-0.5,0-0.8-0.1c-0.4,0.2-0.6,0.5-0.6,0.9c0,0.2,0.1,0.3,0.3,0.4c0.2,0.1,0.5,0.1,1,0.1h1.5
			c1,0,1.7,0.2,2.2,0.6c0.5,0.4,0.7,1,0.7,1.8c0,1-0.4,1.7-1.2,2.3c-0.8,0.5-2,0.8-3.5,0.8c-1.2,0-2.1-0.2-2.7-0.6
			c-0.6-0.4-0.9-1-0.9-1.8c0-0.5,0.2-1,0.5-1.3c0.3-0.4,0.8-0.6,1.4-0.8c-0.2-0.1-0.4-0.3-0.6-0.5c-0.2-0.2-0.2-0.5-0.2-0.7
			c0-0.3,0.1-0.6,0.3-0.8c0.2-0.2,0.5-0.4,0.8-0.7c-0.5-0.2-0.8-0.5-1.1-0.9c-0.3-0.4-0.4-0.9-0.4-1.5c0-0.9,0.3-1.7,0.9-2.2
			c0.6-0.5,1.4-0.8,2.5-0.8c0.2,0,0.5,0,0.8,0.1c0.3,0,0.5,0.1,0.6,0.1H663.2z M656.3,47.7c0,0.4,0.2,0.7,0.5,0.9
			c0.4,0.2,0.9,0.3,1.5,0.3c1,0,1.8-0.1,2.2-0.4c0.5-0.3,0.7-0.7,0.7-1.1c0-0.4-0.1-0.6-0.4-0.8c-0.3-0.2-0.8-0.2-1.5-0.2h-1.4
			c-0.5,0-0.9,0.1-1.3,0.4C656.5,46.9,656.3,47.3,656.3,47.7z M657.1,40.5c0,0.5,0.1,1,0.4,1.3c0.3,0.3,0.7,0.4,1.2,0.4
			c1.1,0,1.6-0.6,1.6-1.7c0-0.6-0.1-1-0.4-1.3c-0.3-0.3-0.7-0.5-1.2-0.5c-0.5,0-0.9,0.2-1.2,0.5C657.3,39.4,657.1,39.9,657.1,40.5z"
			/>
		<path fill="#698C46" d="M668.6,46.5c-1.4,0-2.4-0.4-3.2-1.2c-0.8-0.8-1.1-1.9-1.1-3.3c0-1.4,0.4-2.5,1.1-3.3
			c0.7-0.8,1.7-1.2,2.9-1.2c1.1,0,2.1,0.3,2.7,1c0.7,0.7,1,1.7,1,2.9v1h-5.8c0,0.8,0.3,1.5,0.7,1.9c0.4,0.5,1,0.7,1.8,0.7
			c0.5,0,1,0,1.4-0.1c0.4-0.1,0.9-0.3,1.4-0.5v1.5c-0.5,0.2-0.9,0.4-1.4,0.5C669.7,46.5,669.2,46.5,668.6,46.5z M668.2,38.9
			c-0.6,0-1.1,0.2-1.4,0.6c-0.4,0.4-0.6,0.9-0.6,1.6h3.9c0-0.7-0.2-1.3-0.5-1.6C669.3,39.1,668.8,38.9,668.2,38.9z"/>
		<path fill="#698C46" d="M679.9,43.9c0,0.8-0.3,1.5-0.9,2c-0.6,0.5-1.5,0.7-2.7,0.7c-1.2,0-2.1-0.2-2.8-0.5v-1.6
			c1,0.5,2,0.7,2.9,0.7c1.1,0,1.7-0.3,1.7-1c0-0.2-0.1-0.4-0.2-0.6c-0.1-0.1-0.3-0.3-0.6-0.5c-0.3-0.2-0.7-0.3-1.2-0.5
			c-1-0.4-1.7-0.8-2-1.2c-0.4-0.4-0.5-0.9-0.5-1.5c0-0.7,0.3-1.3,0.9-1.7c0.6-0.4,1.4-0.6,2.4-0.6c1,0,2,0.2,2.9,0.6l-0.6,1.4
			c-0.9-0.4-1.7-0.6-2.4-0.6c-1,0-1.5,0.3-1.5,0.8c0,0.3,0.1,0.5,0.4,0.7s0.8,0.4,1.7,0.8c0.7,0.3,1.2,0.5,1.6,0.8
			c0.3,0.2,0.6,0.5,0.7,0.8C679.8,43.1,679.9,43.5,679.9,43.9z"/>
		<path fill="#698C46" d="M685.1,45c0.5,0,0.9-0.1,1.4-0.2v1.4c-0.2,0.1-0.5,0.2-0.8,0.2c-0.3,0.1-0.7,0.1-1,0.1
			c-1.7,0-2.6-0.9-2.6-2.8v-4.7h-1.2v-0.8l1.3-0.7l0.6-1.8h1.1v1.9h2.5v1.4h-2.5v4.7c0,0.4,0.1,0.8,0.3,1
			C684.5,44.9,684.8,45,685.1,45z"/>
		<path fill="#698C46" d="M698.5,46.3l-0.3-1.1h-0.1c-0.3,0.4-0.6,0.7-1.1,1c-0.5,0.2-1,0.3-1.6,0.3c-1.1,0-1.8-0.3-2.4-0.8
			c-0.5-0.5-0.8-1.3-0.8-2.4v-5.7h1.9V43c0,0.7,0.1,1.2,0.4,1.5c0.3,0.3,0.7,0.5,1.3,0.5c0.8,0,1.3-0.2,1.7-0.7
			c0.4-0.5,0.5-1.2,0.5-2.3v-4.3h1.9v8.7H698.5z"/>
		<path fill="#698C46" d="M708.5,43.9c0,0.8-0.3,1.5-0.9,2c-0.6,0.5-1.5,0.7-2.7,0.7c-1.2,0-2.1-0.2-2.8-0.5v-1.6
			c1,0.5,2,0.7,2.9,0.7c1.1,0,1.7-0.3,1.7-1c0-0.2-0.1-0.4-0.2-0.6c-0.1-0.1-0.3-0.3-0.6-0.5c-0.3-0.2-0.7-0.3-1.2-0.5
			c-1-0.4-1.7-0.8-2-1.2c-0.4-0.4-0.5-0.9-0.5-1.5c0-0.7,0.3-1.3,0.9-1.7c0.6-0.4,1.4-0.6,2.4-0.6c1,0,2,0.2,2.9,0.6l-0.6,1.4
			c-0.9-0.4-1.7-0.6-2.4-0.6c-1,0-1.5,0.3-1.5,0.8c0,0.3,0.1,0.5,0.4,0.7s0.8,0.4,1.7,0.8c0.7,0.3,1.2,0.5,1.6,0.8
			c0.3,0.2,0.6,0.5,0.7,0.8C708.4,43.1,708.5,43.5,708.5,43.9z"/>
		<path fill="#698C46" d="M714.2,46.5c-1.4,0-2.4-0.4-3.2-1.2c-0.8-0.8-1.1-1.9-1.1-3.3c0-1.4,0.4-2.5,1.1-3.3
			c0.7-0.8,1.7-1.2,2.9-1.2c1.1,0,2.1,0.3,2.7,1c0.7,0.7,1,1.7,1,2.9v1h-5.8c0,0.8,0.3,1.5,0.7,1.9c0.4,0.5,1,0.7,1.8,0.7
			c0.5,0,1,0,1.4-0.1c0.4-0.1,0.9-0.3,1.4-0.5v1.5c-0.5,0.2-0.9,0.4-1.4,0.5C715.4,46.5,714.8,46.5,714.2,46.5z M713.9,38.9
			c-0.6,0-1.1,0.2-1.4,0.6c-0.4,0.4-0.6,0.9-0.6,1.6h3.9c0-0.7-0.2-1.3-0.5-1.6C715,39.1,714.5,38.9,713.9,38.9z"/>
		<path fill="#698C46" d="M724.1,37.5c0.4,0,0.7,0,0.9,0.1l-0.2,1.7c-0.3-0.1-0.5-0.1-0.8-0.1c-0.7,0-1.3,0.2-1.8,0.7
			c-0.5,0.5-0.7,1.1-0.7,1.9v4.5h-1.8v-8.7h1.4l0.2,1.5h0.1c0.3-0.5,0.7-0.9,1.1-1.2C723.1,37.7,723.6,37.5,724.1,37.5z"/>
		<path fill="#698C46" d="M734.6,46.5c-1.4,0-2.4-0.4-3.2-1.2c-0.8-0.8-1.1-1.9-1.1-3.3c0-1.4,0.4-2.5,1.1-3.3
			c0.7-0.8,1.7-1.2,2.9-1.2c1.1,0,2.1,0.3,2.7,1c0.7,0.7,1,1.7,1,2.9v1h-5.8c0,0.8,0.3,1.5,0.7,1.9c0.4,0.5,1,0.7,1.8,0.7
			c0.5,0,1,0,1.4-0.1c0.4-0.1,0.9-0.3,1.4-0.5v1.5c-0.5,0.2-0.9,0.4-1.4,0.5C735.8,46.5,735.2,46.5,734.6,46.5z M734.3,38.9
			c-0.6,0-1.1,0.2-1.4,0.6c-0.4,0.4-0.6,0.9-0.6,1.6h3.9c0-0.7-0.2-1.3-0.5-1.6C735.3,39.1,734.9,38.9,734.3,38.9z"/>
		<path fill="#698C46" d="M747.8,46.3h-1.9V41c0-0.7-0.1-1.2-0.4-1.5c-0.3-0.3-0.7-0.5-1.3-0.5c-0.8,0-1.4,0.2-1.7,0.7
			c-0.4,0.5-0.5,1.2-0.5,2.3v4.3h-1.8v-8.7h1.4l0.3,1.1h0.1c0.3-0.4,0.6-0.7,1.1-1c0.5-0.2,1-0.3,1.6-0.3c2.1,0,3.1,1.1,3.1,3.2
			V46.3z"/>
		<path fill="#698C46" d="M752.3,46.3l-3.3-8.7h1.9l1.8,5.1c0.3,0.8,0.5,1.5,0.6,2.1h0.1c0-0.4,0.2-1.1,0.5-2.1l1.8-5.1h2l-3.3,8.7
			H752.3z"/>
		<path fill="#698C46" d="M758.8,35.4c0-0.3,0.1-0.6,0.3-0.8c0.2-0.2,0.4-0.3,0.8-0.3c0.3,0,0.6,0.1,0.8,0.3
			c0.2,0.2,0.3,0.4,0.3,0.8c0,0.3-0.1,0.6-0.3,0.7c-0.2,0.2-0.4,0.3-0.8,0.3c-0.3,0-0.6-0.1-0.8-0.3
			C758.9,35.9,758.8,35.7,758.8,35.4z M760.8,46.3h-1.8v-8.7h1.8V46.3z"/>
		<path fill="#698C46" d="M767.8,37.5c0.4,0,0.7,0,0.9,0.1l-0.2,1.7c-0.3-0.1-0.5-0.1-0.8-0.1c-0.7,0-1.3,0.2-1.8,0.7
			c-0.5,0.5-0.7,1.1-0.7,1.9v4.5h-1.8v-8.7h1.4l0.2,1.5h0.1c0.3-0.5,0.7-0.9,1.1-1.2C766.8,37.7,767.3,37.5,767.8,37.5z"/>
		<path fill="#698C46" d="M778.1,42c0,1.4-0.4,2.5-1.1,3.3c-0.7,0.8-1.7,1.2-3,1.2c-0.8,0-1.5-0.2-2.2-0.6c-0.6-0.4-1.1-0.9-1.4-1.6
			c-0.3-0.7-0.5-1.5-0.5-2.4c0-1.4,0.4-2.5,1.1-3.3c0.7-0.8,1.7-1.2,3.1-1.2c1.3,0,2.3,0.4,3,1.2C777.7,39.5,778.1,40.6,778.1,42z
			 M771.7,42c0,2,0.7,3,2.2,3c1.5,0,2.2-1,2.2-3c0-2-0.7-3-2.2-3c-0.8,0-1.3,0.3-1.7,0.8C771.9,40.3,771.7,41,771.7,42z"/>
		<path fill="#698C46" d="M787.8,46.3H786V41c0-0.7-0.1-1.2-0.4-1.5c-0.3-0.3-0.7-0.5-1.3-0.5c-0.8,0-1.4,0.2-1.7,0.7
			c-0.4,0.5-0.5,1.2-0.5,2.3v4.3h-1.8v-8.7h1.4l0.3,1.1h0.1c0.3-0.4,0.6-0.7,1.1-1c0.5-0.2,1-0.3,1.6-0.3c2.1,0,3.1,1.1,3.1,3.2
			V46.3z"/>
		<path fill="#698C46" d="M797.7,46.3h-1.9V41c0-0.7-0.1-1.2-0.4-1.5c-0.3-0.3-0.6-0.5-1.2-0.5c-0.7,0-1.2,0.2-1.6,0.7
			c-0.3,0.5-0.5,1.2-0.5,2.3v4.3h-1.8v-8.7h1.4l0.3,1.1h0.1c0.2-0.4,0.6-0.7,1-1c0.5-0.2,1-0.3,1.5-0.3c1.3,0,2.2,0.5,2.7,1.4h0.1
			c0.3-0.4,0.6-0.8,1.1-1c0.5-0.2,1-0.4,1.6-0.4c1,0,1.8,0.3,2.3,0.8c0.5,0.5,0.7,1.3,0.7,2.4v5.7h-1.8V41c0-0.7-0.1-1.2-0.4-1.5
			c-0.3-0.3-0.6-0.5-1.2-0.5c-0.7,0-1.2,0.2-1.6,0.7c-0.3,0.4-0.5,1.1-0.5,2.1V46.3z"/>
		<path fill="#698C46" d="M809.6,46.5c-1.4,0-2.4-0.4-3.2-1.2c-0.8-0.8-1.1-1.9-1.1-3.3c0-1.4,0.4-2.5,1.1-3.3
			c0.7-0.8,1.7-1.2,2.9-1.2c1.1,0,2.1,0.3,2.7,1c0.7,0.7,1,1.7,1,2.9v1h-5.8c0,0.8,0.3,1.5,0.7,1.9c0.4,0.5,1,0.7,1.8,0.7
			c0.5,0,1,0,1.4-0.1c0.4-0.1,0.9-0.3,1.4-0.5v1.5c-0.5,0.2-0.9,0.4-1.4,0.5C810.7,46.5,810.2,46.5,809.6,46.5z M809.2,38.9
			c-0.6,0-1.1,0.2-1.4,0.6c-0.4,0.4-0.6,0.9-0.6,1.6h3.9c0-0.7-0.2-1.3-0.5-1.6C810.3,39.1,809.8,38.9,809.2,38.9z"/>
		<path fill="#698C46" d="M822.7,46.3h-1.9V41c0-0.7-0.1-1.2-0.4-1.5c-0.3-0.3-0.7-0.5-1.3-0.5c-0.8,0-1.4,0.2-1.7,0.7
			c-0.4,0.5-0.5,1.2-0.5,2.3v4.3h-1.8v-8.7h1.4l0.3,1.1h0.1c0.3-0.4,0.6-0.7,1.1-1c0.5-0.2,1-0.3,1.6-0.3c2.1,0,3.1,1.1,3.1,3.2
			V46.3z"/>
		<path fill="#698C46" d="M828.5,45c0.5,0,0.9-0.1,1.4-0.2v1.4c-0.2,0.1-0.5,0.2-0.8,0.2c-0.3,0.1-0.7,0.1-1,0.1
			c-1.7,0-2.6-0.9-2.6-2.8v-4.7h-1.2v-0.8l1.3-0.7l0.6-1.8h1.1v1.9h2.5v1.4h-2.5v4.7c0,0.4,0.1,0.8,0.3,1
			C827.9,44.9,828.2,45,828.5,45z"/>
		<path fill="#698C46" d="M642.5,74.8h-12.3v-3l4.1-4.2c1.2-1.2,1.9-2.1,2.3-2.5c0.4-0.5,0.6-0.8,0.8-1.2c0.1-0.3,0.2-0.7,0.2-1
			c0-0.4-0.1-0.8-0.4-1c-0.3-0.3-0.7-0.4-1.2-0.4c-0.5,0-1.1,0.2-1.6,0.5c-0.5,0.3-1.2,0.8-1.8,1.3l-2.5-2.9
			c0.9-0.8,1.6-1.3,2.2-1.7c0.6-0.3,1.2-0.6,1.9-0.8c0.7-0.2,1.5-0.3,2.4-0.3c1.1,0,2.1,0.2,2.9,0.6c0.9,0.4,1.5,0.9,2,1.6
			c0.5,0.7,0.7,1.5,0.7,2.4c0,0.7-0.1,1.3-0.2,1.8c-0.2,0.6-0.4,1.1-0.8,1.7c-0.3,0.5-0.8,1.1-1.4,1.7c-0.6,0.6-1.8,1.7-3.7,3.4V71
			h6.4V74.8z"/>
		<path fill="#698C46" d="M656.4,66.3c0,3-0.5,5.2-1.5,6.6c-1,1.4-2.5,2.1-4.6,2.1c-2,0-3.5-0.7-4.6-2.2c-1-1.5-1.5-3.6-1.5-6.5
			c0-3,0.5-5.2,1.5-6.6c1-1.4,2.5-2.1,4.6-2.1c2,0,3.5,0.7,4.6,2.2C655.9,61.3,656.4,63.4,656.4,66.3z M648.8,66.3
			c0,1.9,0.1,3.2,0.4,3.9c0.2,0.7,0.6,1.1,1.2,1.1c0.6,0,1-0.4,1.2-1.1c0.2-0.7,0.4-2,0.4-3.9c0-1.9-0.1-3.2-0.4-3.9
			c-0.2-0.8-0.6-1.1-1.2-1.1c-0.6,0-1,0.4-1.2,1.1C648.9,63.1,648.8,64.4,648.8,66.3z"/>
		<path fill="#698C46" d="M670.3,66.3c0,3-0.5,5.2-1.5,6.6c-1,1.4-2.5,2.1-4.6,2.1c-2,0-3.5-0.7-4.6-2.2c-1-1.5-1.5-3.6-1.5-6.5
			c0-3,0.5-5.2,1.5-6.6c1-1.4,2.5-2.1,4.6-2.1c2,0,3.5,0.7,4.6,2.2C669.8,61.3,670.3,63.4,670.3,66.3z M662.6,66.3
			c0,1.9,0.1,3.2,0.4,3.9c0.2,0.7,0.6,1.1,1.2,1.1c0.6,0,1-0.4,1.2-1.1c0.2-0.7,0.4-2,0.4-3.9c0-1.9-0.1-3.2-0.4-3.9
			c-0.2-0.8-0.6-1.1-1.2-1.1c-0.6,0-1,0.4-1.2,1.1C662.8,63.1,662.6,64.4,662.6,66.3z"/>
		<path fill="#698C46" d="M676.9,71.3l0.2,0.3c-0.7,2.9-1.4,5.1-2,6.5h-3.2c0.2-1.1,0.4-2.3,0.7-3.6c0.2-1.3,0.4-2.4,0.5-3.2H676.9z
			"/>
		<path fill="#698C46" d="M691.5,66.3c0,3-0.5,5.2-1.5,6.6c-1,1.4-2.5,2.1-4.6,2.1c-2,0-3.5-0.7-4.6-2.2c-1-1.5-1.5-3.6-1.5-6.5
			c0-3,0.5-5.2,1.5-6.6c1-1.4,2.5-2.1,4.6-2.1c2,0,3.5,0.7,4.6,2.2C691,61.3,691.5,63.4,691.5,66.3z M683.8,66.3
			c0,1.9,0.1,3.2,0.4,3.9c0.2,0.7,0.6,1.1,1.2,1.1c0.6,0,1-0.4,1.2-1.1c0.2-0.7,0.4-2,0.4-3.9c0-1.9-0.1-3.2-0.4-3.9
			c-0.2-0.8-0.6-1.1-1.2-1.1c-0.6,0-1,0.4-1.2,1.1C684,63.1,683.8,64.4,683.8,66.3z"/>
		<path fill="#698C46" d="M705.4,66.3c0,3-0.5,5.2-1.5,6.6c-1,1.4-2.5,2.1-4.6,2.1c-2,0-3.5-0.7-4.6-2.2c-1-1.5-1.5-3.6-1.5-6.5
			c0-3,0.5-5.2,1.5-6.6c1-1.4,2.5-2.1,4.6-2.1c2,0,3.5,0.7,4.6,2.2C704.9,61.3,705.4,63.4,705.4,66.3z M697.7,66.3
			c0,1.9,0.1,3.2,0.4,3.9c0.2,0.7,0.6,1.1,1.2,1.1c0.6,0,1-0.4,1.2-1.1c0.2-0.7,0.4-2,0.4-3.9c0-1.9-0.1-3.2-0.4-3.9
			c-0.2-0.8-0.6-1.1-1.2-1.1c-0.6,0-1,0.4-1.2,1.1C697.8,63.1,697.7,64.4,697.7,66.3z"/>
		<path fill="#698C46" d="M719.3,66.3c0,3-0.5,5.2-1.5,6.6c-1,1.4-2.5,2.1-4.6,2.1c-2,0-3.5-0.7-4.6-2.2c-1-1.5-1.5-3.6-1.5-6.5
			c0-3,0.5-5.2,1.5-6.6c1-1.4,2.5-2.1,4.6-2.1c2,0,3.5,0.7,4.6,2.2C718.7,61.3,719.3,63.4,719.3,66.3z M711.6,66.3
			c0,1.9,0.1,3.2,0.4,3.9c0.2,0.7,0.6,1.1,1.2,1.1c0.6,0,1-0.4,1.2-1.1c0.2-0.7,0.4-2,0.4-3.9c0-1.9-0.1-3.2-0.4-3.9
			c-0.2-0.8-0.6-1.1-1.2-1.1c-0.6,0-1,0.4-1.2,1.1C711.7,63.1,711.6,64.4,711.6,66.3z"/>
		<path fill="#698C46" d="M733.8,75c-2.1,0-3.8-0.6-4.9-1.7c-1.1-1.2-1.7-2.8-1.7-5c0-2.2,0.6-3.9,1.8-5.1c1.2-1.2,2.9-1.8,5.1-1.8
			c1.5,0,2.9,0.3,4.3,1l-1.3,3.3c-0.5-0.2-1.1-0.4-1.5-0.6c-0.5-0.1-0.9-0.2-1.4-0.2c-0.7,0-1.3,0.3-1.7,0.9
			c-0.4,0.6-0.6,1.4-0.6,2.4c0,2.1,0.8,3.1,2.3,3.1c1.3,0,2.6-0.4,3.8-1.2v3.6C736.8,74.6,735.4,75,733.8,75z"/>
		<path fill="#698C46" d="M753.1,68.2c0,2.1-0.6,3.8-1.7,5c-1.2,1.2-2.8,1.8-4.8,1.8c-2,0-3.6-0.6-4.7-1.8c-1.2-1.2-1.8-2.9-1.8-5
			c0-2.1,0.6-3.8,1.7-5c1.2-1.2,2.8-1.8,4.9-1.8c1.3,0,2.4,0.3,3.4,0.8c1,0.5,1.7,1.3,2.3,2.4C752.8,65.6,753.1,66.8,753.1,68.2z
			 M744.6,68.2c0,1.1,0.2,2,0.5,2.6c0.3,0.6,0.8,0.9,1.5,0.9c0.7,0,1.2-0.3,1.5-0.9c0.3-0.6,0.4-1.4,0.4-2.6c0-1.1-0.1-2-0.4-2.5
			c-0.3-0.6-0.8-0.9-1.5-0.9c-0.7,0-1.2,0.3-1.5,0.8C744.7,66.2,744.6,67.1,744.6,68.2z"/>
		<path fill="#698C46" d="M763.6,61.4c0.4,0,0.8,0,1.1,0.1l0.3,0l-0.4,4.3c-0.4-0.1-0.9-0.1-1.5-0.1c-1,0-1.7,0.2-2.2,0.7
			c-0.4,0.5-0.7,1.1-0.7,1.9v6.4h-4.5V61.7h3.4l0.7,2.1h0.2c0.4-0.7,0.9-1.3,1.6-1.7C762.2,61.6,762.9,61.4,763.6,61.4z"/>
		<path fill="#698C46" d="M773.1,75c-2.2,0-3.9-0.6-5.1-1.7c-1.2-1.2-1.8-2.8-1.8-5c0-2.2,0.6-3.9,1.7-5.1c1.1-1.2,2.7-1.8,4.8-1.8
			c2,0,3.5,0.5,4.6,1.5c1.1,1,1.6,2.5,1.6,4.4v2h-8.1c0,0.7,0.3,1.3,0.8,1.7c0.5,0.4,1.2,0.6,2.1,0.6c0.8,0,1.5-0.1,2.2-0.2
			c0.7-0.2,1.4-0.4,2.2-0.8V74c-0.7,0.4-1.4,0.6-2.2,0.8S774.1,75,773.1,75z M772.8,64.5c-0.5,0-1,0.2-1.3,0.5
			c-0.4,0.3-0.6,0.9-0.6,1.6h3.9c0-0.6-0.2-1.1-0.5-1.5C773.9,64.7,773.4,64.5,772.8,64.5z"/>
		<path fill="#698C46" d="M791.5,70.7c0,1.4-0.5,2.5-1.4,3.2c-1,0.7-2.3,1.1-4.1,1.1c-1,0-1.8-0.1-2.5-0.2c-0.7-0.1-1.4-0.3-2.2-0.6
			v-3.6c0.7,0.3,1.5,0.6,2.3,0.8c0.8,0.2,1.6,0.3,2.2,0.3c1,0,1.5-0.2,1.5-0.7c0-0.2-0.1-0.4-0.4-0.6s-1.1-0.5-2.4-1.1
			c-1.2-0.5-2-1.1-2.5-1.7c-0.5-0.6-0.7-1.4-0.7-2.4c0-1.2,0.5-2.2,1.4-2.8c0.9-0.7,2.3-1,4-1c0.9,0,1.7,0.1,2.4,0.3
			c0.8,0.2,1.5,0.5,2.4,0.8l-1.2,2.9c-0.6-0.3-1.2-0.5-1.9-0.7c-0.7-0.2-1.2-0.3-1.6-0.3c-0.7,0-1.1,0.2-1.1,0.5
			c0,0.2,0.1,0.4,0.4,0.6c0.3,0.2,1,0.5,2.2,1c0.9,0.4,1.6,0.7,2.1,1.1c0.5,0.4,0.8,0.8,1,1.3C791.4,69.4,791.5,70,791.5,70.7z"/>
	</g>
	<path fill="#555555" d="M664.9,112.4h-2v-4h2V112.4z M664.9,104.4h-2v-3h2V104.4z M664.9,97.4h-2v-4h2V97.4z M664.9,90.4h-2v-4h2
		V90.4z M664.9,82.4h-2v-3h2V82.4z"/>
	<g>
		<g>
			<circle fill="#FFFFFF" cx="664.2" cy="125.3" r="11.3"/>
			<path fill="#555555" d="M664.2,137.8c-6.9,0-12.4-5.6-12.4-12.4s5.6-12.4,12.4-12.4c6.9,0,12.4,5.6,12.4,12.4
				S671.1,137.8,664.2,137.8z M664.2,115.2c-5.6,0-10.1,4.6-10.1,10.1c0,5.6,4.6,10.1,10.1,10.1s10.1-4.6,10.1-10.1
				C674.4,119.7,669.8,115.2,664.2,115.2z"/>
		</g>
		<circle fill="#555555" cx="664.2" cy="125.3" r="7.2"/>
	</g>
	<g>
		<g>
			<path fill="#417390" d="M900.8,112.7c0,2.2,1.8,4,4,4h84c2.2,0,4-1.8,4-4V12.7c0-2.2-1.8-4-4-4h-84c-2.2,0-4,1.8-4,4V112.7z"/>
		</g>
		<g>
			<path fill="#417390" d="M900.8,225.9c0,2.2,1.8,4,4,4h84c2.2,0,4-1.8,4-4v-99.9c0-2.2-1.8-4-4-4h-84c-2.2,0-4,1.8-4,4V225.9z"/>
		</g>
		<g>
			<path fill="#417390" d="M900.8,339.1c0,2.2,1.8,4,4,4h84c2.2,0,4-1.8,4-4v-99.9c0-2.2-1.8-4-4-4h-84c-2.2,0-4,1.8-4,4V339.1z"/>
		</g>
		<g>
			<path fill="#FFFFFF" d="M934.6,59.9h-5.9V36.1c0-2.8,0.1-5.1,0.2-6.8c-0.4,0.4-0.9,0.9-1.4,1.3c-0.6,0.5-2.5,2-5.7,4.6l-3-3.8
				l10.9-8.5h5V59.9z"/>
			<path fill="#FFFFFF" d="M970.4,31.5c0,2.3-0.7,4.3-2,5.8c-1.4,1.6-3.3,2.6-5.8,3.1v0.2c3,0.4,5.2,1.3,6.7,2.8
				c1.5,1.5,2.2,3.4,2.2,5.9c0,3.6-1.3,6.3-3.8,8.2c-2.5,1.9-6.1,2.9-10.7,2.9c-4.1,0-7.5-0.7-10.4-2v-5.3c1.6,0.8,3.2,1.4,5,1.8
				c1.8,0.4,3.4,0.6,5.1,0.6c2.9,0,5-0.5,6.4-1.6c1.4-1.1,2.1-2.7,2.1-4.9c0-2-0.8-3.4-2.3-4.3c-1.6-0.9-4-1.4-7.4-1.4h-3.2v-4.8
				h3.3c5.9,0,8.8-2,8.8-6.1c0-1.6-0.5-2.8-1.5-3.7c-1-0.9-2.5-1.3-4.5-1.3c-1.4,0-2.7,0.2-4,0.6c-1.3,0.4-2.8,1.2-4.6,2.3l-2.9-4.1
				c3.4-2.5,7.3-3.7,11.8-3.7c3.7,0,6.6,0.8,8.7,2.4C969.3,26.5,970.4,28.7,970.4,31.5z"/>
		</g>
		<g>
			<path fill="#FFFFFF" d="M919.5,94.6c2.4,0,4.3,0.6,5.7,1.9c1.4,1.3,2.1,3,2.1,5.2c0,2.6-0.8,4.6-2.4,6c-1.6,1.4-3.9,2.2-6.8,2.2
				c-2.7,0-4.8-0.4-6.3-1.3v-3.5c0.9,0.5,1.9,0.9,3,1.2c1.1,0.3,2.2,0.4,3.2,0.4c1.7,0,3.1-0.4,4-1.2c0.9-0.8,1.4-1.9,1.4-3.4
				c0-2.9-1.8-4.3-5.5-4.3c-0.5,0-1.1,0.1-1.9,0.2c-0.8,0.1-1.4,0.2-2,0.4l-1.7-1l0.9-11.7h12.5v3.4h-9.1L916,95
				c0.4-0.1,0.8-0.1,1.4-0.2C918,94.7,918.7,94.6,919.5,94.6z"/>
			<path fill="#FFFFFF" d="M946.7,97.6c0,4.2-0.7,7.3-2,9.3c-1.3,2-3.4,3-6.1,3c-2.7,0-4.7-1-6.1-3.1c-1.4-2.1-2.1-5.1-2.1-9.2
				c0-4.2,0.7-7.3,2-9.3c1.3-2,3.4-3,6.1-3c2.7,0,4.7,1,6.1,3.1C946,90.5,946.7,93.6,946.7,97.6z M934.4,97.6c0,3.3,0.3,5.6,1,7
				c0.7,1.4,1.7,2.1,3.2,2.1c1.5,0,2.6-0.7,3.2-2.1c0.7-1.4,1-3.7,1-7c0-3.2-0.3-5.5-1-7c-0.7-1.4-1.8-2.2-3.2-2.2
				c-1.5,0-2.5,0.7-3.2,2.1C934.7,92,934.4,94.3,934.4,97.6z"/>
			<path fill="#FFFFFF" d="M965.9,97.6c0,4.2-0.7,7.3-2,9.3c-1.3,2-3.4,3-6.1,3c-2.7,0-4.7-1-6.1-3.1c-1.4-2.1-2.1-5.1-2.1-9.2
				c0-4.2,0.7-7.3,2-9.3c1.3-2,3.4-3,6.1-3c2.7,0,4.7,1,6.1,3.1C965.2,90.5,965.9,93.6,965.9,97.6z M953.5,97.6c0,3.3,0.3,5.6,1,7
				c0.7,1.4,1.7,2.1,3.2,2.1c1.5,0,2.6-0.7,3.2-2.1c0.7-1.4,1-3.7,1-7c0-3.2-0.3-5.5-1-7c-0.7-1.4-1.8-2.2-3.2-2.2
				c-1.5,0-2.5,0.7-3.2,2.1C953.9,92,953.5,94.3,953.5,97.6z"/>
			<path fill="#FFFFFF" d="M982.3,104.4c0,1.8-0.6,3.1-1.9,4.1c-1.3,0.9-3.1,1.4-5.5,1.4c-2.4,0-4.4-0.4-5.8-1.1v-3.3
				c2.1,1,4.1,1.5,5.9,1.5c2.4,0,3.6-0.7,3.6-2.1c0-0.5-0.1-0.8-0.4-1.1c-0.3-0.3-0.7-0.6-1.3-1c-0.6-0.3-1.4-0.7-2.5-1.1
				c-2.1-0.8-3.5-1.6-4.2-2.4c-0.7-0.8-1.1-1.9-1.1-3.1c0-1.6,0.6-2.8,1.9-3.6c1.3-0.9,3-1.3,5.1-1.3c2.1,0,4.1,0.4,6,1.3l-1.2,2.9
				c-2-0.8-3.6-1.2-4.9-1.2c-2,0-3,0.6-3,1.7c0,0.6,0.3,1,0.8,1.4c0.5,0.4,1.7,0.9,3.5,1.6c1.5,0.6,2.6,1.1,3.3,1.6
				c0.7,0.5,1.2,1,1.5,1.7C982.1,102.8,982.3,103.6,982.3,104.4z"/>
		</g>
		<g>
			<path fill="#FFFFFF" d="M917,79.1h-1.9V67.6h6.5v1.6H917v3.6h4.3v1.6H917V79.1z"/>
			<path fill="#FFFFFF" d="M931.3,74.7c0,1.4-0.4,2.5-1.1,3.3c-0.7,0.8-1.7,1.2-3,1.2c-0.8,0-1.5-0.2-2.2-0.6
				c-0.6-0.4-1.1-0.9-1.4-1.6c-0.3-0.7-0.5-1.5-0.5-2.4c0-1.4,0.4-2.5,1.1-3.3c0.7-0.8,1.7-1.2,3.1-1.2c1.3,0,2.3,0.4,3,1.2
				C930.9,72.2,931.3,73.3,931.3,74.7z M924.9,74.7c0,2,0.7,3,2.2,3c1.5,0,2.2-1,2.2-3c0-2-0.7-3-2.2-3c-0.8,0-1.3,0.3-1.7,0.8
				C925.1,73,924.9,73.7,924.9,74.7z"/>
			<path fill="#FFFFFF" d="M937.8,70.2c0.4,0,0.7,0,0.9,0.1l-0.2,1.7c-0.3-0.1-0.5-0.1-0.8-0.1c-0.7,0-1.3,0.2-1.8,0.7
				c-0.5,0.5-0.7,1.1-0.7,1.9v4.5h-1.8v-8.7h1.4l0.2,1.5h0.1c0.3-0.5,0.7-0.9,1.1-1.2C936.8,70.4,937.3,70.2,937.8,70.2z"/>
			<path fill="#FFFFFF" d="M943.6,77.7c0.5,0,0.9-0.1,1.4-0.2v1.4c-0.2,0.1-0.5,0.2-0.8,0.2c-0.3,0.1-0.7,0.1-1,0.1
				c-1.7,0-2.6-0.9-2.6-2.8v-4.7h-1.2V71l1.3-0.7l0.6-1.8h1.1v1.9h2.5v1.4h-2.5v4.7c0,0.4,0.1,0.8,0.3,1
				C942.9,77.6,943.2,77.7,943.6,77.7z"/>
			<path fill="#FFFFFF" d="M952.8,79.1l-0.3-1.1h-0.1c-0.3,0.4-0.6,0.7-1.1,1c-0.5,0.2-1,0.3-1.6,0.3c-1.1,0-1.8-0.3-2.4-0.8
				c-0.5-0.5-0.8-1.3-0.8-2.4v-5.7h1.9v5.4c0,0.7,0.1,1.2,0.4,1.5c0.3,0.3,0.7,0.5,1.3,0.5c0.8,0,1.3-0.2,1.7-0.7
				c0.4-0.5,0.5-1.2,0.5-2.3v-4.3h1.9v8.7H952.8z"/>
			<path fill="#FFFFFF" d="M964.5,79.1h-1.9v-5.3c0-0.7-0.1-1.2-0.4-1.5c-0.3-0.3-0.7-0.5-1.3-0.5c-0.8,0-1.4,0.2-1.7,0.7
				c-0.4,0.5-0.5,1.2-0.5,2.3v4.3h-1.8v-8.7h1.4l0.3,1.1h0.1c0.3-0.4,0.6-0.7,1.1-1c0.5-0.2,1-0.3,1.6-0.3c2.1,0,3.1,1.1,3.1,3.2
				V79.1z"/>
			<path fill="#FFFFFF" d="M970.9,79.2c-1.4,0-2.4-0.4-3.2-1.2c-0.8-0.8-1.1-1.9-1.1-3.3c0-1.4,0.4-2.5,1.1-3.3
				c0.7-0.8,1.7-1.2,2.9-1.2c1.1,0,2.1,0.3,2.7,1c0.7,0.7,1,1.7,1,2.9v1h-5.8c0,0.8,0.3,1.5,0.7,1.9c0.4,0.5,1,0.7,1.8,0.7
				c0.5,0,1,0,1.4-0.1c0.4-0.1,0.9-0.3,1.4-0.5v1.5c-0.5,0.2-0.9,0.4-1.4,0.5C972,79.2,971.5,79.2,970.9,79.2z M970.5,71.6
				c-0.6,0-1.1,0.2-1.4,0.6c-0.4,0.4-0.6,0.9-0.6,1.6h3.9c0-0.7-0.2-1.3-0.5-1.6C971.6,71.8,971.1,71.6,970.5,71.6z"/>
		</g>
		<g>
			<path fill="#FFFFFF" d="M934.6,168h-5.9v-23.8c0-2.8,0.1-5.1,0.2-6.8c-0.4,0.4-0.9,0.9-1.4,1.3c-0.6,0.5-2.5,2-5.7,4.6l-3-3.8
				l10.9-8.5h5V168z"/>
			<path fill="#FFFFFF" d="M964.2,168h-5.9v-23.8c0-2.8,0.1-5.1,0.2-6.8c-0.4,0.4-0.9,0.9-1.4,1.3c-0.6,0.5-2.5,2-5.7,4.6l-3-3.8
				l10.9-8.5h5V168z"/>
		</g>
		<g>
			<path fill="#FFFFFF" d="M922.6,217.6h-3.9v-15.5c0-1.8,0-3.3,0.1-4.4c-0.3,0.3-0.6,0.6-0.9,0.9c-0.4,0.3-1.6,1.3-3.7,3l-1.9-2.4
				l7-5.5h3.2V217.6z"/>
			<path fill="#FFFFFF" d="M946.7,205.7c0,4.2-0.7,7.3-2,9.3c-1.3,2-3.4,3-6.1,3c-2.7,0-4.7-1-6.1-3.1c-1.4-2.1-2.1-5.1-2.1-9.2
				c0-4.2,0.7-7.3,2-9.3c1.3-2,3.4-3,6.1-3c2.7,0,4.7,1,6.1,3.1C946,198.5,946.7,201.6,946.7,205.7z M934.4,205.7c0,3.3,0.3,5.6,1,7
				c0.7,1.4,1.7,2.1,3.2,2.1c1.5,0,2.6-0.7,3.2-2.1c0.7-1.4,1-3.7,1-7c0-3.2-0.3-5.5-1-7c-0.7-1.4-1.8-2.2-3.2-2.2
				c-1.5,0-2.5,0.7-3.2,2.1C934.7,200,934.4,202.4,934.4,205.7z"/>
			<path fill="#FFFFFF" d="M965.9,205.7c0,4.2-0.7,7.3-2,9.3c-1.3,2-3.4,3-6.1,3c-2.7,0-4.7-1-6.1-3.1c-1.4-2.1-2.1-5.1-2.1-9.2
				c0-4.2,0.7-7.3,2-9.3c1.3-2,3.4-3,6.1-3c2.7,0,4.7,1,6.1,3.1C965.2,198.5,965.9,201.6,965.9,205.7z M953.5,205.7
				c0,3.3,0.3,5.6,1,7c0.7,1.4,1.7,2.1,3.2,2.1c1.5,0,2.6-0.7,3.2-2.1c0.7-1.4,1-3.7,1-7c0-3.2-0.3-5.5-1-7
				c-0.7-1.4-1.8-2.2-3.2-2.2c-1.5,0-2.5,0.7-3.2,2.1C953.9,200,953.5,202.4,953.5,205.7z"/>
			<path fill="#FFFFFF" d="M982.3,212.5c0,1.8-0.6,3.1-1.9,4.1c-1.3,0.9-3.1,1.4-5.5,1.4c-2.4,0-4.4-0.4-5.8-1.1v-3.3
				c2.1,1,4.1,1.5,5.9,1.5c2.4,0,3.6-0.7,3.6-2.1c0-0.5-0.1-0.8-0.4-1.1c-0.3-0.3-0.7-0.6-1.3-1c-0.6-0.3-1.4-0.7-2.5-1.1
				c-2.1-0.8-3.5-1.6-4.2-2.4c-0.7-0.8-1.1-1.9-1.1-3.1c0-1.6,0.6-2.8,1.9-3.6c1.3-0.9,3-1.3,5.1-1.3c2.1,0,4.1,0.4,6,1.3l-1.2,2.9
				c-2-0.8-3.6-1.2-4.9-1.2c-2,0-3,0.6-3,1.7c0,0.6,0.3,1,0.8,1.4c0.5,0.4,1.7,0.9,3.5,1.6c1.5,0.6,2.6,1.1,3.3,1.6
				c0.7,0.5,1.2,1,1.5,1.7C982.1,210.8,982.3,211.6,982.3,212.5z"/>
		</g>
		<g>
			<path fill="#FFFFFF" d="M917,187.1h-1.9v-11.5h6.5v1.6H917v3.6h4.3v1.6H917V187.1z"/>
			<path fill="#FFFFFF" d="M931.3,182.7c0,1.4-0.4,2.5-1.1,3.3c-0.7,0.8-1.7,1.2-3,1.2c-0.8,0-1.5-0.2-2.2-0.6
				c-0.6-0.4-1.1-0.9-1.4-1.6c-0.3-0.7-0.5-1.5-0.5-2.4c0-1.4,0.4-2.5,1.1-3.3c0.7-0.8,1.7-1.2,3.1-1.2c1.3,0,2.3,0.4,3,1.2
				C930.9,180.3,931.3,181.4,931.3,182.7z M924.9,182.7c0,2,0.7,3,2.2,3c1.5,0,2.2-1,2.2-3c0-2-0.7-3-2.2-3c-0.8,0-1.3,0.3-1.7,0.8
				C925.1,181.1,924.9,181.8,924.9,182.7z"/>
			<path fill="#FFFFFF" d="M937.8,178.3c0.4,0,0.7,0,0.9,0.1l-0.2,1.7c-0.3-0.1-0.5-0.1-0.8-0.1c-0.7,0-1.3,0.2-1.8,0.7
				c-0.5,0.5-0.7,1.1-0.7,1.9v4.5h-1.8v-8.7h1.4l0.2,1.5h0.1c0.3-0.5,0.7-0.9,1.1-1.2C936.8,178.4,937.3,178.3,937.8,178.3z"/>
			<path fill="#FFFFFF" d="M943.6,185.8c0.5,0,0.9-0.1,1.4-0.2v1.4c-0.2,0.1-0.5,0.2-0.8,0.2c-0.3,0.1-0.7,0.1-1,0.1
				c-1.7,0-2.6-0.9-2.6-2.8v-4.7h-1.2V179l1.3-0.7l0.6-1.8h1.1v1.9h2.5v1.4h-2.5v4.7c0,0.4,0.1,0.8,0.3,1
				C942.9,185.7,943.2,185.8,943.6,185.8z"/>
			<path fill="#FFFFFF" d="M952.8,187.1l-0.3-1.1h-0.1c-0.3,0.4-0.6,0.7-1.1,1c-0.5,0.2-1,0.3-1.6,0.3c-1.1,0-1.8-0.3-2.4-0.8
				c-0.5-0.5-0.8-1.3-0.8-2.4v-5.7h1.9v5.4c0,0.7,0.1,1.2,0.4,1.5c0.3,0.3,0.7,0.5,1.3,0.5c0.8,0,1.3-0.2,1.7-0.7
				c0.4-0.5,0.5-1.2,0.5-2.3v-4.3h1.9v8.7H952.8z"/>
			<path fill="#FFFFFF" d="M964.5,187.1h-1.9v-5.3c0-0.7-0.1-1.2-0.4-1.5s-0.7-0.5-1.3-0.5c-0.8,0-1.4,0.2-1.7,0.7
				c-0.4,0.5-0.5,1.2-0.5,2.3v4.3h-1.8v-8.7h1.4l0.3,1.1h0.1c0.3-0.4,0.6-0.7,1.1-1c0.5-0.2,1-0.3,1.6-0.3c2.1,0,3.1,1.1,3.1,3.2
				V187.1z"/>
			<path fill="#FFFFFF" d="M970.9,187.3c-1.4,0-2.4-0.4-3.2-1.2c-0.8-0.8-1.1-1.9-1.1-3.3c0-1.4,0.4-2.5,1.1-3.3
				c0.7-0.8,1.7-1.2,2.9-1.2c1.1,0,2.1,0.3,2.7,1c0.7,0.7,1,1.7,1,2.9v1h-5.8c0,0.8,0.3,1.5,0.7,1.9c0.4,0.5,1,0.7,1.8,0.7
				c0.5,0,1,0,1.4-0.1c0.4-0.1,0.9-0.3,1.4-0.5v1.5c-0.5,0.2-0.9,0.4-1.4,0.5C972,187.2,971.5,187.3,970.9,187.3z M970.5,179.7
				c-0.6,0-1.1,0.2-1.4,0.6c-0.4,0.4-0.6,0.9-0.6,1.6h3.9c0-0.7-0.2-1.3-0.5-1.6C971.6,179.8,971.1,179.7,970.5,179.7z"/>
		</g>
		<g>
			<path fill="#FFFFFF" d="M944.5,259.9c3.7,0,6.7,1,8.8,3c2.2,2,3.3,4.7,3.3,8.1c0,3.9-1.2,7-3.7,9.2c-2.5,2.2-6,3.3-10.5,3.3
				c-4.1,0-7.4-0.7-9.7-2v-5.4c1.4,0.8,2.9,1.4,4.7,1.8c1.8,0.4,3.4,0.6,4.9,0.6c2.7,0,4.7-0.6,6.1-1.8c1.4-1.2,2.1-2.9,2.1-5.3
				c0-4.4-2.8-6.6-8.4-6.6c-0.8,0-1.8,0.1-2.9,0.2c-1.2,0.2-2.2,0.3-3.1,0.5l-2.7-1.6l1.4-18H954v5.3h-14l-0.8,9.1
				c0.6-0.1,1.3-0.2,2.2-0.4C942.2,259.9,943.3,259.9,944.5,259.9z"/>
		</g>
		<g>
			<path fill="#FFFFFF" d="M929,317.6c2.4,0,4.3,0.6,5.7,1.9c1.4,1.3,2.1,3,2.1,5.2c0,2.6-0.8,4.6-2.4,6c-1.6,1.4-3.9,2.2-6.8,2.2
				c-2.7,0-4.8-0.4-6.3-1.3v-3.5c0.9,0.5,1.9,0.9,3,1.2c1.1,0.3,2.2,0.4,3.2,0.4c1.7,0,3.1-0.4,4-1.2c0.9-0.8,1.4-1.9,1.4-3.4
				c0-2.9-1.8-4.3-5.5-4.3c-0.5,0-1.1,0.1-1.9,0.2c-0.8,0.1-1.4,0.2-2,0.4l-1.7-1l0.9-11.7h12.5v3.4h-9.1l-0.5,5.9
				c0.4-0.1,0.8-0.1,1.4-0.2C927.6,317.7,928.2,317.6,929,317.6z"/>
			<path fill="#FFFFFF" d="M956.3,320.6c0,4.2-0.7,7.3-2,9.3c-1.3,2-3.4,3-6.1,3c-2.7,0-4.7-1-6.1-3.1c-1.4-2.1-2.1-5.1-2.1-9.2
				c0-4.2,0.7-7.3,2-9.3c1.3-2,3.4-3,6.1-3c2.7,0,4.7,1,6.1,3.1C955.6,313.5,956.3,316.6,956.3,320.6z M943.9,320.6
				c0,3.3,0.3,5.6,1,7c0.7,1.4,1.7,2.1,3.2,2.1c1.5,0,2.6-0.7,3.2-2.1c0.7-1.4,1-3.7,1-7c0-3.2-0.3-5.5-1-7
				c-0.7-1.4-1.8-2.2-3.2-2.2c-1.5,0-2.5,0.7-3.2,2.1C944.3,315,943.9,317.3,943.9,320.6z"/>
			<path fill="#FFFFFF" d="M972.7,327.4c0,1.8-0.6,3.1-1.9,4.1c-1.3,0.9-3.1,1.4-5.5,1.4c-2.4,0-4.4-0.4-5.8-1.1v-3.3
				c2.1,1,4.1,1.5,5.9,1.5c2.4,0,3.6-0.7,3.6-2.1c0-0.5-0.1-0.8-0.4-1.1c-0.3-0.3-0.7-0.6-1.3-1c-0.6-0.3-1.4-0.7-2.5-1.1
				c-2.1-0.8-3.5-1.6-4.2-2.4c-0.7-0.8-1.1-1.9-1.1-3.1c0-1.6,0.6-2.8,1.9-3.6c1.3-0.9,3-1.3,5.1-1.3c2.1,0,4.1,0.4,6,1.3l-1.2,2.9
				c-2-0.8-3.6-1.2-4.9-1.2c-2,0-3,0.6-3,1.7c0,0.6,0.3,1,0.8,1.4c0.5,0.4,1.7,0.9,3.5,1.6c1.5,0.6,2.6,1.1,3.3,1.6
				c0.7,0.5,1.2,1,1.5,1.7C972.5,325.8,972.7,326.5,972.7,327.4z"/>
		</g>
		<g>
			<path fill="#FFFFFF" d="M917,302.1h-1.9v-11.5h6.5v1.6H917v3.6h4.3v1.6H917V302.1z"/>
			<path fill="#FFFFFF" d="M931.3,297.7c0,1.4-0.4,2.5-1.1,3.3c-0.7,0.8-1.7,1.2-3,1.2c-0.8,0-1.5-0.2-2.2-0.6
				c-0.6-0.4-1.1-0.9-1.4-1.6c-0.3-0.7-0.5-1.5-0.5-2.4c0-1.4,0.4-2.5,1.1-3.3c0.7-0.8,1.7-1.2,3.1-1.2c1.3,0,2.3,0.4,3,1.2
				C930.9,295.2,931.3,296.3,931.3,297.7z M924.9,297.7c0,2,0.7,3,2.2,3c1.5,0,2.2-1,2.2-3c0-2-0.7-3-2.2-3c-0.8,0-1.3,0.3-1.7,0.8
				C925.1,296,924.9,296.7,924.9,297.7z"/>
			<path fill="#FFFFFF" d="M937.8,293.2c0.4,0,0.7,0,0.9,0.1l-0.2,1.7c-0.3-0.1-0.5-0.1-0.8-0.1c-0.7,0-1.3,0.2-1.8,0.7
				c-0.5,0.5-0.7,1.1-0.7,1.9v4.5h-1.8v-8.7h1.4l0.2,1.5h0.1c0.3-0.5,0.7-0.9,1.1-1.2C936.8,293.4,937.3,293.2,937.8,293.2z"/>
			<path fill="#FFFFFF" d="M943.6,300.7c0.5,0,0.9-0.1,1.4-0.2v1.4c-0.2,0.1-0.5,0.2-0.8,0.2c-0.3,0.1-0.7,0.1-1,0.1
				c-1.7,0-2.6-0.9-2.6-2.8v-4.7h-1.2v-0.8l1.3-0.7l0.6-1.8h1.1v1.9h2.5v1.4h-2.5v4.7c0,0.4,0.1,0.8,0.3,1
				C942.9,300.6,943.2,300.7,943.6,300.7z"/>
			<path fill="#FFFFFF" d="M952.8,302.1l-0.3-1.1h-0.1c-0.3,0.4-0.6,0.7-1.1,1c-0.5,0.2-1,0.3-1.6,0.3c-1.1,0-1.8-0.3-2.4-0.8
				c-0.5-0.5-0.8-1.3-0.8-2.4v-5.7h1.9v5.4c0,0.7,0.1,1.2,0.4,1.5c0.3,0.3,0.7,0.5,1.3,0.5c0.8,0,1.3-0.2,1.7-0.7
				c0.4-0.5,0.5-1.2,0.5-2.3v-4.3h1.9v8.7H952.8z"/>
			<path fill="#FFFFFF" d="M964.5,302.1h-1.9v-5.3c0-0.7-0.1-1.2-0.4-1.5c-0.3-0.3-0.7-0.5-1.3-0.5c-0.8,0-1.4,0.2-1.7,0.7
				c-0.4,0.5-0.5,1.2-0.5,2.3v4.3h-1.8v-8.7h1.4l0.3,1.1h0.1c0.3-0.4,0.6-0.7,1.1-1c0.5-0.2,1-0.3,1.6-0.3c2.1,0,3.1,1.1,3.1,3.2
				V302.1z"/>
			<path fill="#FFFFFF" d="M970.9,302.2c-1.4,0-2.4-0.4-3.2-1.2c-0.8-0.8-1.1-1.9-1.1-3.3c0-1.4,0.4-2.5,1.1-3.3
				c0.7-0.8,1.7-1.2,2.9-1.2c1.1,0,2.1,0.3,2.7,1c0.7,0.7,1,1.7,1,2.9v1h-5.8c0,0.8,0.3,1.5,0.7,1.9c0.4,0.5,1,0.7,1.8,0.7
				c0.5,0,1,0,1.4-0.1c0.4-0.1,0.9-0.3,1.4-0.5v1.5c-0.5,0.2-0.9,0.4-1.4,0.5C972,302.2,971.5,302.2,970.9,302.2z M970.5,294.6
				c-0.6,0-1.1,0.2-1.4,0.6c-0.4,0.4-0.6,0.9-0.6,1.6h3.9c0-0.7-0.2-1.3-0.5-1.6C971.6,294.8,971.1,294.6,970.5,294.6z"/>
		</g>
	</g>
</g>
</svg>
