<?xml version="1.0" encoding="utf-8"?>
<!-- Generator: Adobe Illustrator 19.1.0, SVG Export Plug-In . SVG Version: 6.00 Build 0)  -->
<svg version="1.1" id="Layer_1" xmlns="http://www.w3.org/2000/svg" xmlns:xlink="http://www.w3.org/1999/xlink" x="0px" y="0px"
	 viewBox="0 0 352.424 323.446" enable-background="new 0 0 352.424 323.446" xml:space="preserve">
<g>
	<g>
		<rect id="XMLID_53_" x="0" y="0" fill="#29ABE2" width="169.163" height="155.808"/>
		<rect id="XMLID_54_" x="183.26" y="0" fill="#29ABE2" width="169.163" height="155.808"/>
		<rect id="XMLID_55_" x="0" y="167.637" fill="#29ABE2" width="169.163" height="155.808"/>
		<rect id="XMLID_56_" x="183.26" y="167.637" fill="#29ABE2" width="169.163" height="155.808"/>
	</g>
	<g>
		<g id="XMLID_294_">
			<path id="XMLID_295_" fill="#FFFFFF" d="M15.577,20.846v5.894H12.32V11.38h4.476c2.087,0,3.631,0.38,4.633,1.14
				c1.002,0.76,1.502,1.914,1.502,3.462c0,0.904-0.249,1.707-0.746,2.411c-0.497,0.704-1.201,1.255-2.112,1.655
				c2.311,3.453,3.817,5.683,4.518,6.692h-3.614l-3.667-5.894H15.577z M15.577,18.199h1.051c1.03,0,1.79-0.172,2.28-0.515
				s0.735-0.883,0.735-1.618c0-0.728-0.25-1.247-0.751-1.555c-0.501-0.308-1.277-0.462-2.327-0.462h-0.988V18.199z"/>
			<path id="XMLID_298_" fill="#FFFFFF" d="M31.588,26.95c-1.891,0-3.369-0.522-4.434-1.565c-1.065-1.044-1.597-2.521-1.597-4.434
				c0-1.968,0.492-3.489,1.476-4.565c0.984-1.075,2.345-1.613,4.082-1.613c1.66,0,2.952,0.473,3.877,1.419
				c0.925,0.946,1.387,2.252,1.387,3.918v1.555h-7.575c0.035,0.911,0.305,1.622,0.809,2.133c0.504,0.512,1.212,0.767,2.122,0.767
				c0.708,0,1.376-0.073,2.007-0.22c0.63-0.147,1.289-0.382,1.975-0.704v2.479c-0.56,0.28-1.159,0.489-1.797,0.625
				C33.284,26.882,32.506,26.95,31.588,26.95z M31.137,17.053c-0.679,0-1.212,0.215-1.597,0.646
				c-0.385,0.43-0.606,1.042-0.662,1.833h4.497c-0.014-0.791-0.221-1.403-0.62-1.833C32.355,17.268,31.816,17.053,31.137,17.053z"/>
			<path id="XMLID_301_" fill="#FFFFFF" d="M43.933,24.397c0.56,0,1.233-0.122,2.017-0.367v2.385
				c-0.798,0.358-1.779,0.536-2.942,0.536c-1.282,0-2.215-0.324-2.8-0.972c-0.585-0.648-0.877-1.62-0.877-2.916V17.4h-1.534v-1.356
				l1.765-1.072l0.925-2.479h2.049v2.5h3.288V17.4h-3.288v5.662c0,0.455,0.128,0.791,0.383,1.009
				C43.175,24.289,43.513,24.397,43.933,24.397z"/>
			<path id="XMLID_303_" fill="#FFFFFF" d="M56.645,26.74l-0.431-1.503h-0.168c-0.343,0.546-0.83,0.969-1.46,1.267
				s-1.348,0.446-2.154,0.446c-1.38,0-2.42-0.37-3.12-1.109s-1.051-1.801-1.051-3.188v-7.659h3.204v6.861
				c0,0.847,0.151,1.482,0.452,1.906c0.301,0.424,0.781,0.635,1.439,0.635c0.897,0,1.544-0.299,1.944-0.898
				C55.7,22.9,55.9,21.907,55.9,20.52v-5.526h3.204V26.74H56.645z"/>
			<path id="XMLID_305_" fill="#FFFFFF" d="M69.022,14.773c0.434,0,0.795,0.032,1.082,0.095l-0.242,3.005
				c-0.259-0.07-0.574-0.105-0.946-0.105c-1.023,0-1.819,0.263-2.39,0.788c-0.571,0.526-0.856,1.261-0.856,2.207v5.978h-3.204
				V14.994h2.427l0.473,1.975h0.158c0.364-0.659,0.856-1.189,1.476-1.592C67.619,14.974,68.293,14.773,69.022,14.773z"/>
			<path id="XMLID_307_" fill="#FFFFFF" d="M83.079,26.74h-3.204v-6.86c0-0.848-0.151-1.483-0.452-1.907
				c-0.301-0.424-0.781-0.636-1.439-0.636c-0.897,0-1.544,0.3-1.944,0.898c-0.399,0.599-0.599,1.592-0.599,2.979v5.526h-3.204
				V14.994h2.448l0.431,1.502h0.179c0.357-0.567,0.849-0.996,1.476-1.287c0.627-0.291,1.339-0.436,2.138-0.436
				c1.366,0,2.402,0.37,3.11,1.109c0.708,0.739,1.061,1.806,1.061,3.2V26.74z"/>
			<path id="XMLID_309_" fill="#FFFFFF" d="M102.641,20.846c0,1.911-0.504,3.407-1.513,4.486s-2.413,1.618-4.213,1.618
				c-1.128,0-2.122-0.247-2.984-0.74c-0.861-0.494-1.523-1.203-1.986-2.127c-0.462-0.925-0.693-2.003-0.693-3.236
				c0-1.919,0.501-3.411,1.502-4.476c1.002-1.064,2.41-1.597,4.223-1.597c1.128,0,2.122,0.246,2.984,0.736
				c0.861,0.49,1.523,1.194,1.986,2.111S102.641,19.613,102.641,20.846z M94.52,20.846c0,1.162,0.191,2.041,0.573,2.637
				c0.381,0.596,1.003,0.893,1.865,0.893c0.855,0,1.469-0.296,1.844-0.888c0.375-0.592,0.562-1.472,0.562-2.642
				c0-1.163-0.189-2.035-0.567-2.616c-0.378-0.581-0.998-0.872-1.86-0.872c-0.855,0-1.471,0.288-1.849,0.867
				C94.709,18.802,94.52,19.676,94.52,20.846z"/>
			<path id="XMLID_312_" fill="#FFFFFF" d="M116.131,26.74h-3.204v-6.86c0-0.848-0.151-1.483-0.452-1.907
				c-0.301-0.424-0.781-0.636-1.439-0.636c-0.897,0-1.544,0.3-1.944,0.898c-0.399,0.599-0.599,1.592-0.599,2.979v5.526h-3.204
				V14.994h2.448l0.431,1.502h0.179c0.357-0.567,0.849-0.996,1.476-1.287c0.627-0.291,1.339-0.436,2.138-0.436
				c1.366,0,2.402,0.37,3.11,1.109c0.708,0.739,1.061,1.806,1.061,3.2V26.74z"/>
			<path id="XMLID_314_" fill="#FFFFFF" d="M11.932,37.777c0-1.043,0.581-1.565,1.744-1.565s1.744,0.522,1.744,1.565
				c0,0.498-0.145,0.885-0.436,1.161c-0.291,0.277-0.727,0.415-1.308,0.415C12.513,39.354,11.932,38.827,11.932,37.777z
				 M15.273,52.559h-3.204V40.814h3.204V52.559z"/>
			<path id="XMLID_317_" fill="#FFFFFF" d="M29.477,52.559h-3.204v-6.86c0-0.848-0.151-1.483-0.452-1.907
				c-0.301-0.424-0.781-0.636-1.439-0.636c-0.897,0-1.544,0.3-1.944,0.898c-0.399,0.599-0.599,1.592-0.599,2.979v5.526h-3.204
				V40.814h2.448l0.431,1.502h0.179c0.357-0.567,0.849-0.996,1.476-1.287c0.627-0.291,1.339-0.436,2.138-0.436
				c1.366,0,2.402,0.37,3.11,1.109c0.708,0.739,1.061,1.806,1.061,3.2V52.559z"/>
			<path id="XMLID_319_" fill="#FFFFFF" d="M35.57,52.559l-4.476-11.746h3.351l2.269,6.693c0.252,0.847,0.41,1.649,0.473,2.406
				h0.063c0.035-0.672,0.193-1.474,0.473-2.406l2.259-6.693h3.351l-4.476,11.746H35.57z"/>
			<path id="XMLID_321_" fill="#FFFFFF" d="M50.331,52.769c-1.891,0-3.369-0.522-4.434-1.565c-1.065-1.044-1.597-2.521-1.597-4.434
				c0-1.968,0.492-3.489,1.476-4.565c0.984-1.075,2.345-1.613,4.082-1.613c1.66,0,2.952,0.473,3.877,1.419s1.387,2.252,1.387,3.918
				v1.555h-7.575c0.035,0.911,0.305,1.622,0.809,2.133c0.504,0.512,1.212,0.767,2.122,0.767c0.708,0,1.376-0.073,2.007-0.22
				c0.63-0.147,1.289-0.382,1.975-0.704v2.479c-0.56,0.28-1.159,0.489-1.797,0.625C52.026,52.701,51.249,52.769,50.331,52.769z
				 M49.88,42.873c-0.679,0-1.212,0.215-1.597,0.646c-0.385,0.43-0.606,1.042-0.662,1.833h4.497
				c-0.014-0.791-0.221-1.403-0.62-1.833C51.098,43.088,50.559,42.873,49.88,42.873z"/>
			<path id="XMLID_324_" fill="#FFFFFF" d="M65.922,49.071c0,1.205-0.418,2.122-1.256,2.753c-0.837,0.63-2.089,0.946-3.756,0.946
				c-0.855,0-1.583-0.058-2.185-0.173c-0.602-0.116-1.166-0.285-1.691-0.509v-2.648c0.595,0.28,1.266,0.514,2.012,0.704
				c0.746,0.189,1.402,0.283,1.97,0.283c1.163,0,1.744-0.336,1.744-1.009c0-0.252-0.077-0.456-0.231-0.614
				c-0.154-0.157-0.42-0.336-0.798-0.535c-0.378-0.2-0.883-0.433-1.513-0.699c-0.904-0.378-1.567-0.728-1.991-1.051
				c-0.424-0.322-0.732-0.691-0.925-1.108c-0.193-0.417-0.289-0.93-0.289-1.54c0-1.043,0.404-1.851,1.214-2.421
				c0.809-0.571,1.956-0.856,3.441-0.856c1.415,0,2.791,0.309,4.129,0.925l-0.967,2.311c-0.588-0.252-1.138-0.459-1.649-0.619
				c-0.511-0.161-1.033-0.241-1.565-0.241c-0.946,0-1.418,0.255-1.418,0.767c0,0.287,0.153,0.536,0.457,0.746
				c0.305,0.21,0.972,0.522,2.002,0.935c0.918,0.371,1.59,0.718,2.017,1.04c0.427,0.322,0.742,0.693,0.946,1.113
				S65.922,48.49,65.922,49.071z"/>
			<path id="XMLID_326_" fill="#FFFFFF" d="M73.371,50.216c0.56,0,1.233-0.122,2.017-0.367v2.385
				c-0.798,0.358-1.779,0.536-2.942,0.536c-1.282,0-2.215-0.324-2.8-0.972c-0.585-0.648-0.877-1.62-0.877-2.916V43.22h-1.534v-1.356
				l1.765-1.072l0.925-2.479h2.049v2.5h3.288v2.406h-3.288v5.662c0,0.455,0.128,0.791,0.383,1.009
				C72.613,50.108,72.951,50.216,73.371,50.216z"/>
			<path id="XMLID_328_" fill="#FFFFFF" d="M88.279,52.559h-3.204v-6.86c0-0.848-0.142-1.483-0.425-1.907
				c-0.284-0.424-0.73-0.636-1.34-0.636c-0.819,0-1.415,0.301-1.786,0.904c-0.371,0.602-0.557,1.593-0.557,2.973v5.526h-3.204
				V40.814h2.448l0.431,1.502h0.179c0.315-0.539,0.771-0.961,1.366-1.266c0.595-0.304,1.278-0.457,2.049-0.457
				c1.758,0,2.949,0.575,3.572,1.723h0.284c0.315-0.546,0.779-0.969,1.392-1.271c0.613-0.301,1.304-0.452,2.075-0.452
				c1.331,0,2.338,0.342,3.02,1.025c0.683,0.683,1.025,1.777,1.025,3.284v7.659h-3.215v-6.86c0-0.848-0.142-1.483-0.425-1.907
				c-0.284-0.424-0.73-0.636-1.34-0.636c-0.784,0-1.371,0.28-1.76,0.84c-0.388,0.561-0.583,1.451-0.583,2.669V52.559z"/>
			<path id="XMLID_330_" fill="#FFFFFF" d="M104.206,52.769c-1.891,0-3.369-0.522-4.434-1.565c-1.065-1.044-1.597-2.521-1.597-4.434
				c0-1.968,0.492-3.489,1.476-4.565c0.984-1.075,2.345-1.613,4.082-1.613c1.66,0,2.952,0.473,3.877,1.419
				c0.925,0.946,1.387,2.252,1.387,3.918v1.555h-7.575c0.035,0.911,0.305,1.622,0.809,2.133c0.504,0.512,1.212,0.767,2.122,0.767
				c0.708,0,1.376-0.073,2.007-0.22c0.63-0.147,1.289-0.382,1.975-0.704v2.479c-0.56,0.28-1.159,0.489-1.797,0.625
				C105.901,52.701,105.124,52.769,104.206,52.769z M103.755,42.873c-0.679,0-1.212,0.215-1.597,0.646
				c-0.385,0.43-0.606,1.042-0.662,1.833h4.497c-0.014-0.791-0.221-1.403-0.62-1.833C104.973,43.088,104.434,42.873,103.755,42.873z
				"/>
			<path id="XMLID_333_" fill="#FFFFFF" d="M122.445,52.559h-3.204v-6.86c0-0.848-0.151-1.483-0.452-1.907
				c-0.301-0.424-0.781-0.636-1.439-0.636c-0.897,0-1.544,0.3-1.944,0.898c-0.399,0.599-0.599,1.592-0.599,2.979v5.526h-3.204
				V40.814h2.448l0.431,1.502h0.179c0.357-0.567,0.849-0.996,1.476-1.287c0.627-0.291,1.339-0.436,2.138-0.436
				c1.366,0,2.402,0.37,3.11,1.109c0.708,0.739,1.061,1.806,1.061,3.2V52.559z"/>
			<path id="XMLID_335_" fill="#FFFFFF" d="M130.692,50.216c0.56,0,1.233-0.122,2.017-0.367v2.385
				c-0.798,0.358-1.779,0.536-2.942,0.536c-1.282,0-2.215-0.324-2.8-0.972c-0.585-0.648-0.877-1.62-0.877-2.916V43.22h-1.534v-1.356
				l1.765-1.072l0.925-2.479h2.049v2.5h3.288v2.406h-3.288v5.662c0,0.455,0.128,0.791,0.383,1.009
				C129.934,50.108,130.272,50.216,130.692,50.216z"/>
			<path id="XMLID_337_" fill="#FFFFFF" d="M134.632,42.379c0-0.588,0.158-1.033,0.473-1.335c0.315-0.301,0.774-0.452,1.376-0.452
				c0.581,0,1.031,0.154,1.35,0.462c0.318,0.309,0.478,0.75,0.478,1.324c0,0.567-0.163,1.006-0.489,1.318
				c-0.325,0.312-0.772,0.467-1.339,0.467c-0.588,0-1.044-0.154-1.366-0.462C134.793,43.394,134.632,42.953,134.632,42.379z
				 M134.632,51.057c0-0.588,0.158-1.032,0.473-1.334c0.315-0.301,0.774-0.451,1.376-0.451c0.581,0,1.031,0.154,1.35,0.462
				c0.318,0.308,0.478,0.749,0.478,1.323c0,0.554-0.161,0.99-0.483,1.309c-0.322,0.319-0.771,0.478-1.345,0.478
				c-0.588,0-1.044-0.157-1.366-0.468C134.793,52.064,134.632,51.625,134.632,51.057z"/>
		</g>
		<g id="XMLID_280_">
			<path id="XMLID_281_" fill="#FFFFFF" d="M24.26,95.118h-4.254V83.471l0.041-1.914l0.069-2.093
				c-0.707,0.707-1.198,1.17-1.473,1.39l-2.313,1.858l-2.051-2.561l6.484-5.162h3.497V95.118z"/>
			<path id="XMLID_283_" fill="#FFFFFF" d="M43.794,85.054c0,3.516-0.576,6.117-1.728,7.806c-1.152,1.689-2.925,2.533-5.321,2.533
				c-2.322,0-4.073-0.872-5.252-2.616c-1.18-1.743-1.769-4.318-1.769-7.723c0-3.552,0.573-6.17,1.721-7.853
				c1.147-1.685,2.914-2.527,5.3-2.527c2.322,0,4.077,0.881,5.266,2.643C43.2,79.079,43.794,81.659,43.794,85.054z M33.951,85.054
				c0,2.469,0.213,4.238,0.64,5.307c0.427,1.069,1.145,1.603,2.154,1.603c0.991,0,1.707-0.541,2.148-1.624
				c0.441-1.082,0.661-2.845,0.661-5.286c0-2.469-0.223-4.242-0.668-5.32c-0.445-1.079-1.159-1.618-2.141-1.618
				c-1.001,0-1.716,0.539-2.148,1.618C34.167,80.812,33.951,82.586,33.951,85.054z"/>
			<path id="XMLID_286_" fill="#FFFFFF" d="M56.446,95.118h-4.254V83.471l0.041-1.914l0.069-2.093
				c-0.707,0.707-1.198,1.17-1.473,1.39l-2.313,1.858l-2.051-2.561l6.484-5.162h3.497V95.118z"/>
			<path id="XMLID_288_" fill="#FFFFFF" d="M71.327,80.993c0,2.111-0.409,3.697-1.225,4.756c-0.817,1.061-2.015,1.59-3.593,1.59
				c-1.514,0-2.684-0.544-3.51-1.631c-0.826-1.088-1.239-2.659-1.239-4.715c0-4.194,1.583-6.291,4.749-6.291
				c1.551,0,2.742,0.544,3.572,1.631C70.912,77.421,71.327,78.974,71.327,80.993z M65.229,81.021c0,1.166,0.103,2.035,0.31,2.608
				c0.206,0.574,0.539,0.861,0.998,0.861c0.881,0,1.322-1.156,1.322-3.469c0-2.294-0.441-3.442-1.322-3.442
				c-0.459,0-0.792,0.283-0.998,0.846C65.332,78.99,65.229,79.855,65.229,81.021z M80.799,74.991L69.634,95.118H66.33l11.165-20.127
				H80.799z M85.424,89.033c0,2.102-0.409,3.682-1.225,4.743c-0.817,1.059-2.015,1.59-3.593,1.59c-1.514,0-2.684-0.543-3.51-1.632
				c-0.826-1.087-1.239-2.654-1.239-4.701c0-4.194,1.583-6.291,4.749-6.291c1.551,0,2.742,0.544,3.572,1.631
				C85.009,85.461,85.424,87.014,85.424,89.033z M79.326,89.06c0,1.166,0.103,2.035,0.31,2.608c0.206,0.574,0.539,0.861,0.998,0.861
				c0.881,0,1.322-1.156,1.322-3.469c0-2.294-0.441-3.442-1.322-3.442c-0.459,0-0.792,0.283-0.998,0.846
				C79.429,87.03,79.326,87.895,79.326,89.06z"/>
		</g>
		<g id="XMLID_249_">
			<path id="XMLID_250_" fill="#FFFFFF" d="M207.939,88.826c0,1.459-0.528,2.632-1.583,3.518c-1.056,0.885-2.533,1.416-4.433,1.59
				v2.822h-1.886v-2.767c-2.24-0.046-4.204-0.441-5.892-1.184V89.17c0.798,0.395,1.76,0.743,2.884,1.046
				c1.124,0.303,2.127,0.482,3.008,0.537v-4.268l-0.922-0.358c-1.817-0.716-3.104-1.493-3.862-2.334
				c-0.757-0.839-1.136-1.879-1.136-3.118c0-1.33,0.521-2.425,1.562-3.283c1.042-0.859,2.494-1.379,4.357-1.563v-2.106h1.886v2.051
				c2.102,0.092,4.001,0.514,5.699,1.267l-1.294,3.221c-1.432-0.587-2.9-0.945-4.405-1.074v4.061c1.79,0.688,3.063,1.285,3.82,1.79
				c0.757,0.505,1.312,1.06,1.666,1.666C207.762,87.312,207.939,88.019,207.939,88.826z M198.261,80.676
				c0,0.404,0.14,0.737,0.42,0.998c0.28,0.262,0.732,0.53,1.356,0.806v-3.235C198.853,79.419,198.261,79.897,198.261,80.676z
				 M203.795,89.033c0-0.385-0.156-0.711-0.468-0.977c-0.312-0.266-0.78-0.541-1.404-0.826v3.428
				C203.171,90.446,203.795,89.905,203.795,89.033z"/>
			<path id="XMLID_254_" fill="#FFFFFF" d="M209.99,86.568c0-3.983,0.842-6.947,2.526-8.893c1.684-1.945,4.206-2.919,7.565-2.919
				c1.147,0,2.047,0.069,2.698,0.206v3.4c-0.817-0.183-1.624-0.275-2.423-0.275c-1.459,0-2.65,0.22-3.572,0.661
				c-0.922,0.441-1.613,1.093-2.072,1.955c-0.459,0.863-0.73,2.088-0.812,3.676h0.179c0.909-1.56,2.363-2.34,4.364-2.34
				c1.799,0,3.208,0.564,4.226,1.693c1.019,1.129,1.528,2.69,1.528,4.681c0,2.148-0.606,3.848-1.817,5.1
				c-1.211,1.253-2.891,1.879-5.039,1.879c-1.487,0-2.783-0.344-3.889-1.032c-1.106-0.688-1.96-1.693-2.561-3.015
				C210.29,90.024,209.99,88.432,209.99,86.568z M217.259,91.993c0.909,0,1.606-0.305,2.093-0.915c0.486-0.611,0.73-1.48,0.73-2.609
				c0-0.982-0.227-1.756-0.681-2.319c-0.454-0.565-1.14-0.847-2.058-0.847c-0.863,0-1.599,0.28-2.21,0.84
				c-0.61,0.56-0.915,1.211-0.915,1.955c0,1.093,0.287,2.015,0.86,2.767C215.65,91.616,216.378,91.993,217.259,91.993z"/>
			<path id="XMLID_257_" fill="#FFFFFF" d="M231.411,92.158c-0.477,1.854-1.285,4.052-2.423,6.594h-3.029
				c0.596-2.442,1.06-4.744,1.39-6.911h3.855L231.411,92.158z"/>
			<path id="XMLID_259_" fill="#FFFFFF" d="M241.337,74.729c1.927,0,3.48,0.438,4.66,1.315c1.179,0.876,1.769,2.058,1.769,3.545
				c0,1.028-0.285,1.943-0.854,2.746c-0.569,0.804-1.487,1.522-2.753,2.155c1.505,0.808,2.586,1.65,3.242,2.526
				c0.656,0.877,0.984,1.838,0.984,2.884c0,1.652-0.647,2.98-1.941,3.986c-1.294,1.004-2.997,1.507-5.107,1.507
				c-2.203,0-3.933-0.468-5.19-1.404c-1.257-0.936-1.886-2.262-1.886-3.979c0-1.147,0.305-2.166,0.915-3.056
				c0.61-0.89,1.59-1.674,2.939-2.354c-1.147-0.725-1.973-1.501-2.478-2.327c-0.505-0.826-0.757-1.73-0.757-2.712
				c0-1.44,0.596-2.606,1.79-3.497C237.863,75.175,239.418,74.729,241.337,74.729z M238.198,89.762c0,0.79,0.275,1.404,0.826,1.845
				s1.303,0.661,2.258,0.661c1.055,0,1.845-0.227,2.368-0.682c0.523-0.454,0.785-1.053,0.785-1.796c0-0.614-0.259-1.19-0.778-1.728
				c-0.519-0.536-1.361-1.108-2.526-1.714C239.175,87.248,238.198,88.386,238.198,89.762z M241.309,77.84
				c-0.725,0-1.31,0.186-1.755,0.557c-0.445,0.372-0.668,0.87-0.668,1.494c0,0.551,0.176,1.044,0.53,1.48
				c0.353,0.436,0.993,0.884,1.92,1.343c0.899-0.422,1.528-0.854,1.886-1.294c0.358-0.441,0.537-0.95,0.537-1.528
				c0-0.633-0.23-1.133-0.688-1.501C242.612,78.025,242.025,77.84,241.309,77.84z"/>
			<path id="XMLID_263_" fill="#FFFFFF" d="M257.43,74.729c1.927,0,3.48,0.438,4.66,1.315c1.179,0.876,1.769,2.058,1.769,3.545
				c0,1.028-0.285,1.943-0.854,2.746c-0.569,0.804-1.487,1.522-2.753,2.155c1.505,0.808,2.586,1.65,3.242,2.526
				c0.656,0.877,0.984,1.838,0.984,2.884c0,1.652-0.647,2.98-1.941,3.986c-1.294,1.004-2.997,1.507-5.107,1.507
				c-2.203,0-3.933-0.468-5.19-1.404c-1.257-0.936-1.886-2.262-1.886-3.979c0-1.147,0.305-2.166,0.915-3.056
				c0.61-0.89,1.59-1.674,2.939-2.354c-1.147-0.725-1.973-1.501-2.478-2.327c-0.505-0.826-0.757-1.73-0.757-2.712
				c0-1.44,0.596-2.606,1.79-3.497C253.956,75.175,255.511,74.729,257.43,74.729z M254.291,89.762c0,0.79,0.275,1.404,0.826,1.845
				s1.303,0.661,2.258,0.661c1.055,0,1.845-0.227,2.368-0.682c0.523-0.454,0.785-1.053,0.785-1.796c0-0.614-0.259-1.19-0.778-1.728
				c-0.519-0.536-1.361-1.108-2.526-1.714C255.268,87.248,254.291,88.386,254.291,89.762z M257.402,77.84
				c-0.725,0-1.31,0.186-1.755,0.557c-0.445,0.372-0.668,0.87-0.668,1.494c0,0.551,0.176,1.044,0.53,1.48
				c0.353,0.436,0.993,0.884,1.92,1.343c0.899-0.422,1.528-0.854,1.886-1.294c0.358-0.441,0.537-0.95,0.537-1.528
				c0-0.633-0.23-1.133-0.688-1.501C258.705,78.025,258.118,77.84,257.402,77.84z"/>
			<path id="XMLID_267_" fill="#FFFFFF" d="M273.908,82.26c1.945,0,3.494,0.546,4.646,1.638c1.152,1.093,1.728,2.588,1.728,4.488
				c0,2.249-0.693,3.979-2.079,5.19c-1.386,1.211-3.368,1.817-5.947,1.817c-2.24,0-4.047-0.362-5.424-1.088V90.63
				c0.725,0.385,1.569,0.7,2.533,0.943c0.964,0.243,1.877,0.364,2.74,0.364c2.597,0,3.896-1.064,3.896-3.194
				c0-2.028-1.345-3.042-4.034-3.042c-0.487,0-1.023,0.048-1.611,0.145c-0.588,0.096-1.065,0.199-1.432,0.309l-1.693-0.909
				l0.757-10.256h10.917v3.607h-7.186l-0.372,3.951l0.482-0.096C272.389,82.324,273.082,82.26,273.908,82.26z"/>
			<path id="XMLID_269_" fill="#FFFFFF" d="M287.867,92.158c-0.477,1.854-1.285,4.052-2.423,6.594h-3.029
				c0.596-2.442,1.06-4.744,1.39-6.911h3.855L287.867,92.158z"/>
			<path id="XMLID_271_" fill="#FFFFFF" d="M304.814,85.054c0,3.516-0.576,6.117-1.728,7.806c-1.152,1.689-2.925,2.533-5.321,2.533
				c-2.322,0-4.073-0.872-5.252-2.616c-1.18-1.743-1.769-4.318-1.769-7.723c0-3.552,0.573-6.17,1.721-7.853
				c1.147-1.685,2.914-2.527,5.3-2.527c2.322,0,4.077,0.881,5.266,2.643C304.22,79.079,304.814,81.659,304.814,85.054z
				 M294.971,85.054c0,2.469,0.213,4.238,0.64,5.307c0.427,1.069,1.145,1.603,2.154,1.603c0.991,0,1.707-0.541,2.148-1.624
				c0.441-1.082,0.661-2.845,0.661-5.286c0-2.469-0.223-4.242-0.668-5.32c-0.445-1.079-1.159-1.618-2.141-1.618
				c-1.001,0-1.716,0.539-2.148,1.618C295.187,80.812,294.971,82.586,294.971,85.054z"/>
			<path id="XMLID_274_" fill="#FFFFFF" d="M320.907,85.054c0,3.516-0.576,6.117-1.728,7.806c-1.152,1.689-2.925,2.533-5.321,2.533
				c-2.322,0-4.073-0.872-5.252-2.616c-1.18-1.743-1.769-4.318-1.769-7.723c0-3.552,0.573-6.17,1.721-7.853
				c1.147-1.685,2.914-2.527,5.3-2.527c2.322,0,4.077,0.881,5.266,2.643C320.313,79.079,320.907,81.659,320.907,85.054z
				 M311.064,85.054c0,2.469,0.213,4.238,0.64,5.307c0.427,1.069,1.145,1.603,2.154,1.603c0.991,0,1.707-0.541,2.148-1.624
				c0.441-1.082,0.661-2.845,0.661-5.286c0-2.469-0.223-4.242-0.668-5.32c-0.445-1.079-1.159-1.618-2.141-1.618
				c-1.001,0-1.716,0.539-2.148,1.618C311.28,80.812,311.064,82.586,311.064,85.054z"/>
			<path id="XMLID_277_" fill="#FFFFFF" d="M337,85.054c0,3.516-0.576,6.117-1.728,7.806c-1.152,1.689-2.925,2.533-5.321,2.533
				c-2.322,0-4.073-0.872-5.252-2.616c-1.18-1.743-1.769-4.318-1.769-7.723c0-3.552,0.573-6.17,1.721-7.853
				c1.147-1.685,2.914-2.527,5.3-2.527c2.322,0,4.077,0.881,5.266,2.643C336.406,79.079,337,81.659,337,85.054z M327.157,85.054
				c0,2.469,0.213,4.238,0.64,5.307c0.427,1.069,1.145,1.603,2.154,1.603c0.991,0,1.707-0.541,2.148-1.624
				c0.441-1.082,0.661-2.845,0.661-5.286c0-2.469-0.223-4.242-0.668-5.32c-0.445-1.079-1.159-1.618-2.141-1.618
				c-1.001,0-1.716,0.539-2.148,1.618C327.373,80.812,327.157,82.586,327.157,85.054z"/>
		</g>
		<g id="XMLID_145_">
			<path id="XMLID_146_" fill="#FFFFFF" d="M195.87,20.846v5.894h-3.257V11.38h4.476c2.087,0,3.631,0.38,4.633,1.14
				c1.002,0.76,1.502,1.914,1.502,3.462c0,0.904-0.249,1.707-0.746,2.411c-0.497,0.704-1.201,1.255-2.112,1.655
				c2.311,3.453,3.817,5.683,4.518,6.692h-3.614l-3.667-5.894H195.87z M195.87,18.199h1.051c1.03,0,1.79-0.172,2.28-0.515
				c0.49-0.343,0.735-0.883,0.735-1.618c0-0.728-0.25-1.247-0.751-1.555c-0.501-0.308-1.277-0.462-2.327-0.462h-0.988V18.199z"/>
			<path id="XMLID_149_" fill="#FFFFFF" d="M211.881,26.95c-1.891,0-3.369-0.522-4.434-1.565c-1.065-1.044-1.597-2.521-1.597-4.434
				c0-1.968,0.492-3.489,1.476-4.565c0.984-1.075,2.345-1.613,4.082-1.613c1.66,0,2.952,0.473,3.877,1.419
				c0.925,0.946,1.387,2.252,1.387,3.918v1.555h-7.575c0.035,0.911,0.305,1.622,0.809,2.133c0.504,0.512,1.212,0.767,2.122,0.767
				c0.708,0,1.376-0.073,2.007-0.22c0.63-0.147,1.289-0.382,1.975-0.704v2.479c-0.56,0.28-1.159,0.489-1.797,0.625
				C213.576,26.882,212.799,26.95,211.881,26.95z M211.429,17.053c-0.679,0-1.212,0.215-1.597,0.646
				c-0.385,0.43-0.606,1.042-0.662,1.833h4.497c-0.014-0.791-0.221-1.403-0.62-1.833C212.648,17.268,212.109,17.053,211.429,17.053z
				"/>
			<path id="XMLID_152_" fill="#FFFFFF" d="M222.997,26.95c-1.38,0-2.463-0.536-3.252-1.607c-0.788-1.072-1.182-2.557-1.182-4.455
				c0-1.927,0.401-3.427,1.203-4.502c0.802-1.075,1.907-1.613,3.315-1.613c1.478,0,2.605,0.575,3.383,1.723h0.105
				c-0.161-0.875-0.242-1.656-0.242-2.342v-3.761h3.215V26.74h-2.458l-0.62-1.523h-0.137
				C225.598,26.372,224.488,26.95,222.997,26.95z M224.121,24.397c0.819,0,1.42-0.238,1.802-0.714
				c0.382-0.476,0.59-1.285,0.625-2.427v-0.347c0-1.261-0.194-2.164-0.583-2.71c-0.388-0.546-1.021-0.82-1.896-0.82
				c-0.714,0-1.269,0.304-1.665,0.909c-0.396,0.606-0.594,1.486-0.594,2.642c0,1.155,0.2,2.022,0.599,2.6
				C222.807,24.108,223.378,24.397,224.121,24.397z"/>
			<path id="XMLID_155_" fill="#FFFFFF" d="M241.214,26.74l-0.431-1.503h-0.168c-0.343,0.546-0.83,0.969-1.46,1.267
				c-0.63,0.298-1.348,0.446-2.154,0.446c-1.38,0-2.42-0.37-3.12-1.109s-1.051-1.801-1.051-3.188v-7.659h3.204v6.861
				c0,0.847,0.151,1.482,0.452,1.906c0.301,0.424,0.781,0.635,1.439,0.635c0.897,0,1.544-0.299,1.944-0.898
				c0.399-0.599,0.599-1.592,0.599-2.979v-5.526h3.204V26.74H241.214z"/>
			<path id="XMLID_157_" fill="#FFFFFF" d="M251.804,26.95c-3.656,0-5.484-2.007-5.484-6.02c0-1.997,0.497-3.521,1.492-4.576
				c0.994-1.054,2.42-1.582,4.276-1.582c1.359,0,2.578,0.267,3.656,0.798l-0.946,2.479c-0.504-0.203-0.973-0.369-1.408-0.498
				c-0.434-0.13-0.868-0.194-1.303-0.194c-1.667,0-2.5,1.183-2.5,3.55c0,2.298,0.834,3.446,2.5,3.446
				c0.616,0,1.187-0.082,1.712-0.246c0.525-0.164,1.051-0.422,1.576-0.772v2.742c-0.518,0.33-1.042,0.557-1.571,0.683
				C253.277,26.887,252.61,26.95,251.804,26.95z"/>
			<path id="XMLID_159_" fill="#FFFFFF" d="M263.046,24.397c0.56,0,1.233-0.122,2.017-0.367v2.385
				c-0.798,0.358-1.779,0.536-2.942,0.536c-1.282,0-2.215-0.324-2.8-0.972c-0.585-0.648-0.877-1.62-0.877-2.916V17.4h-1.534v-1.356
				l1.765-1.072l0.925-2.479h2.049v2.5h3.288V17.4h-3.288v5.662c0,0.455,0.128,0.791,0.383,1.009
				C262.287,24.289,262.625,24.397,263.046,24.397z"/>
			<path id="XMLID_161_" fill="#FFFFFF" d="M267.301,11.957c0-1.043,0.581-1.565,1.744-1.565s1.744,0.522,1.744,1.565
				c0,0.498-0.145,0.885-0.436,1.161c-0.291,0.277-0.727,0.415-1.308,0.415C267.882,13.534,267.301,13.008,267.301,11.957z
				 M270.642,26.74h-3.204V14.994h3.204V26.74z"/>
			<path id="XMLID_164_" fill="#FFFFFF" d="M284.678,20.846c0,1.911-0.504,3.407-1.513,4.486s-2.413,1.618-4.213,1.618
				c-1.128,0-2.122-0.247-2.984-0.74c-0.861-0.494-1.523-1.203-1.986-2.127c-0.462-0.925-0.693-2.003-0.693-3.236
				c0-1.919,0.501-3.411,1.502-4.476c1.002-1.064,2.41-1.597,4.223-1.597c1.128,0,2.122,0.246,2.984,0.736
				c0.861,0.49,1.523,1.194,1.986,2.111C284.447,18.538,284.678,19.613,284.678,20.846z M276.556,20.846
				c0,1.162,0.191,2.041,0.573,2.637c0.381,0.596,1.003,0.893,1.865,0.893c0.855,0,1.469-0.296,1.844-0.888
				c0.375-0.592,0.562-1.472,0.562-2.642c0-1.163-0.189-2.035-0.567-2.616c-0.378-0.581-0.998-0.872-1.86-0.872
				c-0.855,0-1.471,0.288-1.849,0.867C276.746,18.802,276.556,19.676,276.556,20.846z"/>
			<path id="XMLID_167_" fill="#FFFFFF" d="M298.167,26.74h-3.204v-6.86c0-0.848-0.151-1.483-0.452-1.907
				c-0.301-0.424-0.781-0.636-1.439-0.636c-0.897,0-1.544,0.3-1.944,0.898c-0.399,0.599-0.599,1.592-0.599,2.979v5.526h-3.204
				V14.994h2.448l0.431,1.502h0.179c0.357-0.567,0.849-0.996,1.476-1.287c0.627-0.291,1.339-0.436,2.138-0.436
				c1.366,0,2.402,0.37,3.11,1.109c0.708,0.739,1.061,1.806,1.061,3.2V26.74z"/>
			<path id="XMLID_169_" fill="#FFFFFF" d="M306.919,11.957c0-1.043,0.581-1.565,1.744-1.565c1.163,0,1.744,0.522,1.744,1.565
				c0,0.498-0.145,0.885-0.436,1.161c-0.291,0.277-0.727,0.415-1.308,0.415C307.5,13.534,306.919,13.008,306.919,11.957z
				 M310.26,26.74h-3.204V14.994h3.204V26.74z"/>
			<path id="XMLID_172_" fill="#FFFFFF" d="M324.464,26.74h-3.204v-6.86c0-0.848-0.151-1.483-0.452-1.907
				c-0.301-0.424-0.781-0.636-1.439-0.636c-0.897,0-1.544,0.3-1.944,0.898c-0.399,0.599-0.599,1.592-0.599,2.979v5.526h-3.204
				V14.994h2.448l0.431,1.502h0.179c0.357-0.567,0.849-0.996,1.476-1.287c0.627-0.291,1.339-0.436,2.138-0.436
				c1.366,0,2.402,0.37,3.11,1.109c0.708,0.739,1.061,1.806,1.061,3.2V26.74z"/>
			<path id="XMLID_174_" fill="#FFFFFF" d="M200.556,49.071c0,1.205-0.418,2.122-1.256,2.753c-0.837,0.63-2.089,0.946-3.756,0.946
				c-0.855,0-1.583-0.058-2.185-0.173c-0.602-0.116-1.166-0.285-1.691-0.509v-2.648c0.595,0.28,1.266,0.514,2.012,0.704
				c0.746,0.189,1.402,0.283,1.97,0.283c1.163,0,1.744-0.336,1.744-1.009c0-0.252-0.077-0.456-0.231-0.614
				c-0.154-0.157-0.42-0.336-0.798-0.535c-0.378-0.2-0.883-0.433-1.513-0.699c-0.904-0.378-1.567-0.728-1.991-1.051
				c-0.424-0.322-0.732-0.691-0.925-1.108c-0.193-0.417-0.289-0.93-0.289-1.54c0-1.043,0.404-1.851,1.214-2.421
				c0.809-0.571,1.956-0.856,3.441-0.856c1.415,0,2.791,0.309,4.129,0.925l-0.967,2.311c-0.588-0.252-1.138-0.459-1.649-0.619
				c-0.511-0.161-1.033-0.241-1.565-0.241c-0.946,0-1.418,0.255-1.418,0.767c0,0.287,0.153,0.536,0.457,0.746
				c0.305,0.21,0.972,0.522,2.002,0.935c0.918,0.371,1.59,0.718,2.017,1.04c0.427,0.322,0.742,0.693,0.946,1.113
				S200.556,48.49,200.556,49.071z"/>
			<path id="XMLID_176_" fill="#FFFFFF" d="M208.004,50.216c0.56,0,1.233-0.122,2.017-0.367v2.385
				c-0.798,0.358-1.779,0.536-2.942,0.536c-1.282,0-2.215-0.324-2.8-0.972c-0.585-0.648-0.877-1.62-0.877-2.916V43.22h-1.534v-1.356
				l1.765-1.072l0.925-2.479h2.049v2.5h3.288v2.406h-3.288v5.662c0,0.455,0.128,0.791,0.383,1.009
				C207.246,50.108,207.584,50.216,208.004,50.216z"/>
			<path id="XMLID_178_" fill="#FFFFFF" d="M219.855,52.559l-0.62-1.597h-0.084c-0.539,0.68-1.094,1.151-1.665,1.413
				c-0.571,0.263-1.315,0.394-2.232,0.394c-1.128,0-2.015-0.322-2.663-0.967c-0.648-0.644-0.972-1.562-0.972-2.753
				c0-1.247,0.436-2.166,1.308-2.758c0.872-0.592,2.187-0.919,3.945-0.982l2.038-0.063v-0.514c0-1.191-0.609-1.787-1.828-1.787
				c-0.939,0-2.042,0.284-3.309,0.851l-1.061-2.164c1.352-0.707,2.851-1.061,4.497-1.061c1.576,0,2.784,0.343,3.625,1.029
				c0.84,0.687,1.261,1.73,1.261,3.132v7.827H219.855z M218.91,47.117l-1.24,0.042c-0.931,0.028-1.625,0.196-2.08,0.504
				c-0.455,0.308-0.683,0.777-0.683,1.408c0,0.904,0.518,1.355,1.555,1.355c0.742,0,1.336-0.213,1.781-0.641
				c0.445-0.427,0.667-0.995,0.667-1.702V47.117z"/>
			<path id="XMLID_181_" fill="#FFFFFF" d="M231.885,43.22h-2.774v9.34h-3.204v-9.34h-1.765v-1.545l1.765-0.861v-0.861
				c0-1.338,0.329-2.315,0.988-2.932c0.658-0.616,1.712-0.925,3.162-0.925c1.107,0,2.091,0.165,2.952,0.494l-0.819,2.353
				c-0.644-0.203-1.24-0.304-1.786-0.304c-0.455,0-0.784,0.135-0.988,0.404c-0.203,0.27-0.305,0.614-0.305,1.035v0.735h2.774V43.22z
				 M240.216,43.22h-2.774v9.34h-3.204v-9.34h-1.765v-1.545l1.765-0.861v-0.861c0-1.338,0.329-2.315,0.988-2.932
				c0.658-0.616,1.712-0.925,3.162-0.925c1.107,0,2.091,0.165,2.952,0.494l-0.819,2.353c-0.645-0.203-1.24-0.304-1.786-0.304
				c-0.455,0-0.784,0.135-0.988,0.404c-0.203,0.27-0.305,0.614-0.305,1.035v0.735h2.774V43.22z"/>
			<path id="XMLID_184_" fill="#FFFFFF" d="M258.476,52.559h-3.204v-6.86c0-0.848-0.151-1.483-0.452-1.907
				c-0.301-0.424-0.781-0.636-1.439-0.636c-0.897,0-1.544,0.3-1.944,0.898c-0.399,0.599-0.599,1.592-0.599,2.979v5.526h-3.204
				V40.814h2.448l0.431,1.502h0.179c0.357-0.567,0.849-0.996,1.476-1.287c0.627-0.291,1.339-0.436,2.138-0.436
				c1.366,0,2.402,0.37,3.11,1.109c0.708,0.739,1.061,1.806,1.061,3.2V52.559z"/>
			<path id="XMLID_186_" fill="#FFFFFF" d="M267.09,52.769c-1.891,0-3.369-0.522-4.434-1.565c-1.065-1.044-1.597-2.521-1.597-4.434
				c0-1.968,0.492-3.489,1.476-4.565c0.984-1.075,2.345-1.613,4.082-1.613c1.66,0,2.952,0.473,3.877,1.419
				c0.925,0.946,1.387,2.252,1.387,3.918v1.555h-7.575c0.035,0.911,0.305,1.622,0.809,2.133c0.504,0.512,1.212,0.767,2.122,0.767
				c0.708,0,1.376-0.073,2.007-0.22c0.63-0.147,1.289-0.382,1.975-0.704v2.479c-0.56,0.28-1.159,0.489-1.797,0.625
				C268.786,52.701,268.008,52.769,267.09,52.769z M266.639,42.873c-0.679,0-1.212,0.215-1.597,0.646
				c-0.385,0.43-0.606,1.042-0.662,1.833h4.497c-0.014-0.791-0.221-1.403-0.62-1.833C267.857,43.088,267.318,42.873,266.639,42.873z
				"/>
			<path id="XMLID_189_" fill="#FFFFFF" d="M279.803,52.769c-1.891,0-3.369-0.522-4.434-1.565c-1.065-1.044-1.597-2.521-1.597-4.434
				c0-1.968,0.492-3.489,1.476-4.565c0.984-1.075,2.345-1.613,4.082-1.613c1.66,0,2.952,0.473,3.877,1.419s1.387,2.252,1.387,3.918
				v1.555h-7.575c0.035,0.911,0.305,1.622,0.809,2.133c0.504,0.512,1.212,0.767,2.122,0.767c0.708,0,1.376-0.073,2.007-0.22
				c0.63-0.147,1.289-0.382,1.975-0.704v2.479c-0.56,0.28-1.159,0.489-1.797,0.625C281.498,52.701,280.72,52.769,279.803,52.769z
				 M279.351,42.873c-0.679,0-1.212,0.215-1.597,0.646c-0.385,0.43-0.606,1.042-0.662,1.833h4.497
				c-0.014-0.791-0.221-1.403-0.62-1.833C280.57,43.088,280.03,42.873,279.351,42.873z"/>
			<path id="XMLID_192_" fill="#FFFFFF" d="M290.918,52.769c-1.38,0-2.464-0.536-3.252-1.607c-0.788-1.072-1.182-2.557-1.182-4.455
				c0-1.927,0.401-3.427,1.203-4.502c0.802-1.075,1.907-1.613,3.315-1.613c1.478,0,2.605,0.575,3.383,1.723h0.105
				c-0.161-0.875-0.242-1.656-0.242-2.342v-3.761h3.215v16.347h-2.458l-0.62-1.523h-0.137
				C293.52,52.191,292.41,52.769,290.918,52.769z M292.042,50.216c0.819,0,1.42-0.238,1.802-0.714
				c0.382-0.476,0.59-1.285,0.625-2.427v-0.347c0-1.261-0.194-2.164-0.583-2.71c-0.388-0.546-1.021-0.82-1.896-0.82
				c-0.714,0-1.269,0.304-1.665,0.909c-0.396,0.606-0.594,1.486-0.594,2.642c0,1.155,0.2,2.022,0.599,2.6
				C290.729,49.928,291.3,50.216,292.042,50.216z"/>
			<path id="XMLID_195_" fill="#FFFFFF" d="M309.01,49.071c0,1.205-0.418,2.122-1.256,2.753c-0.837,0.63-2.089,0.946-3.756,0.946
				c-0.855,0-1.583-0.058-2.185-0.173c-0.602-0.116-1.166-0.285-1.691-0.509v-2.648c0.595,0.28,1.266,0.514,2.012,0.704
				c0.746,0.189,1.402,0.283,1.97,0.283c1.163,0,1.744-0.336,1.744-1.009c0-0.252-0.077-0.456-0.231-0.614
				c-0.154-0.157-0.42-0.336-0.798-0.535c-0.378-0.2-0.883-0.433-1.513-0.699c-0.904-0.378-1.567-0.728-1.991-1.051
				c-0.424-0.322-0.732-0.691-0.925-1.108c-0.193-0.417-0.289-0.93-0.289-1.54c0-1.043,0.404-1.851,1.214-2.421
				c0.809-0.571,1.956-0.856,3.441-0.856c1.415,0,2.791,0.309,4.129,0.925l-0.967,2.311c-0.588-0.252-1.138-0.459-1.649-0.619
				c-0.511-0.161-1.033-0.241-1.565-0.241c-0.946,0-1.418,0.255-1.418,0.767c0,0.287,0.153,0.536,0.457,0.746
				c0.305,0.21,0.972,0.522,2.002,0.935c0.918,0.371,1.59,0.718,2.017,1.04c0.427,0.322,0.742,0.693,0.946,1.113
				C308.908,47.989,309.01,48.49,309.01,49.071z"/>
			<path id="XMLID_197_" fill="#FFFFFF" d="M311.058,42.379c0-0.588,0.158-1.033,0.473-1.335s0.774-0.452,1.376-0.452
				c0.581,0,1.031,0.154,1.35,0.462c0.318,0.309,0.478,0.75,0.478,1.324c0,0.567-0.163,1.006-0.489,1.318
				c-0.325,0.312-0.772,0.467-1.339,0.467c-0.588,0-1.044-0.154-1.366-0.462C311.22,43.394,311.058,42.953,311.058,42.379z
				 M311.058,51.057c0-0.588,0.158-1.032,0.473-1.334c0.315-0.301,0.774-0.451,1.376-0.451c0.581,0,1.031,0.154,1.35,0.462
				c0.318,0.308,0.478,0.749,0.478,1.323c0,0.554-0.161,0.99-0.483,1.309c-0.322,0.319-0.771,0.478-1.345,0.478
				c-0.588,0-1.044-0.157-1.366-0.468C311.22,52.064,311.058,51.625,311.058,51.057z"/>
		</g>
		<g id="XMLID_222_">
			<path id="XMLID_223_" fill="#FFFFFF" d="M26.904,256.463c0,1.459-0.527,2.632-1.583,3.518c-1.056,0.885-2.533,1.416-4.433,1.59
				v2.822h-1.886v-2.767c-2.24-0.046-4.204-0.441-5.892-1.184v-3.634c0.798,0.395,1.759,0.743,2.884,1.046
				c1.125,0.303,2.127,0.482,3.008,0.537v-4.268l-0.922-0.358c-1.817-0.716-3.105-1.493-3.861-2.334
				c-0.758-0.839-1.136-1.879-1.136-3.118c0-1.33,0.52-2.425,1.562-3.283c1.042-0.859,2.494-1.379,4.357-1.563v-2.106h1.886v2.051
				c2.102,0.092,4.002,0.514,5.699,1.267l-1.294,3.221c-1.432-0.587-2.9-0.945-4.405-1.074v4.061c1.79,0.688,3.063,1.285,3.821,1.79
				c0.756,0.505,1.311,1.06,1.665,1.666C26.727,254.949,26.904,255.656,26.904,256.463z M17.226,248.314
				c0,0.404,0.14,0.737,0.42,0.998c0.28,0.262,0.732,0.53,1.356,0.806v-3.235C17.818,247.056,17.226,247.534,17.226,248.314z
				 M22.76,256.67c0-0.385-0.156-0.711-0.468-0.977c-0.312-0.266-0.78-0.541-1.404-0.826v3.428
				C22.137,258.083,22.76,257.542,22.76,256.67z"/>
			<path id="XMLID_227_" fill="#FFFFFF" d="M39.611,262.755h-4.254v-11.646l0.041-1.914l0.069-2.093
				c-0.707,0.707-1.198,1.17-1.473,1.39l-2.313,1.858l-2.051-2.561l6.484-5.162h3.497V262.755z"/>
			<path id="XMLID_229_" fill="#FFFFFF" d="M50.376,259.795c-0.477,1.854-1.285,4.052-2.423,6.594h-3.029
				c0.596-2.442,1.06-4.744,1.39-6.911h3.855L50.376,259.795z"/>
			<path id="XMLID_231_" fill="#FFFFFF" d="M67.887,258.583h-2.423v4.171h-4.157v-4.171h-8.59v-2.96l8.824-12.996h3.923v12.651
				h2.423V258.583z M61.307,255.279v-3.414c0-0.569,0.022-1.395,0.069-2.478c0.046-1.082,0.083-1.711,0.11-1.886h-0.11
				c-0.34,0.753-0.748,1.487-1.225,2.203l-3.689,5.575H61.307z"/>
			<path id="XMLID_234_" fill="#FFFFFF" d="M71.453,262.755l7.558-16.52h-9.926v-3.579h14.441v2.671l-7.613,17.428H71.453z"/>
			<path id="XMLID_236_" fill="#FFFFFF" d="M92.488,242.366c1.927,0,3.481,0.438,4.66,1.315c1.179,0.876,1.769,2.058,1.769,3.545
				c0,1.028-0.285,1.943-0.854,2.746c-0.569,0.804-1.487,1.522-2.753,2.155c1.505,0.808,2.586,1.65,3.242,2.526
				c0.656,0.877,0.984,1.838,0.984,2.884c0,1.652-0.647,2.98-1.941,3.986c-1.294,1.004-2.997,1.507-5.107,1.507
				c-2.203,0-3.933-0.468-5.19-1.404s-1.886-2.262-1.886-3.979c0-1.147,0.305-2.166,0.916-3.056c0.61-0.89,1.59-1.674,2.939-2.354
				c-1.148-0.725-1.974-1.501-2.478-2.327c-0.505-0.826-0.757-1.73-0.757-2.712c0-1.44,0.596-2.606,1.79-3.497
				C89.015,242.812,90.57,242.366,92.488,242.366z M89.349,257.4c0,0.79,0.275,1.404,0.826,1.845
				c0.551,0.441,1.303,0.661,2.258,0.661c1.055,0,1.845-0.227,2.368-0.682c0.523-0.454,0.785-1.053,0.785-1.796
				c0-0.614-0.259-1.19-0.777-1.728c-0.519-0.536-1.361-1.108-2.527-1.714C90.327,254.885,89.349,256.023,89.349,257.4z
				 M92.461,245.478c-0.725,0-1.31,0.186-1.755,0.557c-0.446,0.372-0.668,0.87-0.668,1.494c0,0.551,0.177,1.044,0.53,1.48
				c0.353,0.436,0.993,0.884,1.92,1.343c0.899-0.422,1.528-0.854,1.886-1.294c0.358-0.441,0.537-0.95,0.537-1.528
				c0-0.633-0.23-1.133-0.688-1.501C93.763,245.662,93.176,245.478,92.461,245.478z"/>
			<path id="XMLID_240_" fill="#FFFFFF" d="M106.833,259.795c-0.477,1.854-1.285,4.052-2.423,6.594h-3.029
				c0.596-2.442,1.06-4.744,1.39-6.911h3.855L106.833,259.795z"/>
			<path id="XMLID_242_" fill="#FFFFFF" d="M123.89,262.755H109.82v-2.96l5.052-5.107c1.495-1.532,2.474-2.595,2.932-3.187
				c0.459-0.593,0.789-1.14,0.991-1.645c0.202-0.504,0.303-1.027,0.303-1.569c0-0.807-0.222-1.409-0.667-1.803
				c-0.446-0.394-1.04-0.592-1.783-0.592c-0.78,0-1.538,0.179-2.271,0.537c-0.735,0.358-1.501,0.867-2.299,1.528l-2.313-2.74
				c0.991-0.844,1.812-1.44,2.464-1.79c0.651-0.349,1.363-0.617,2.134-0.806c0.771-0.188,1.634-0.282,2.588-0.282
				c1.257,0,2.368,0.23,3.332,0.688c0.964,0.459,1.711,1.101,2.244,1.927c0.532,0.826,0.798,1.772,0.798,2.836
				c0,0.927-0.163,1.796-0.488,2.609c-0.326,0.812-0.831,1.645-1.514,2.498c-0.684,0.854-1.889,2.07-3.614,3.648l-2.588,2.437v0.193
				h8.769V262.755z"/>
			<path id="XMLID_244_" fill="#FFFFFF" d="M139.9,251.218c0,3.965-0.835,6.925-2.506,8.879c-1.671,1.955-4.199,2.932-7.585,2.932
				c-1.193,0-2.098-0.064-2.712-0.193v-3.414c0.771,0.193,1.578,0.289,2.423,0.289c1.422,0,2.592-0.209,3.51-0.627
				c0.918-0.417,1.619-1.074,2.106-1.968c0.486-0.896,0.767-2.127,0.84-3.697h-0.165c-0.533,0.863-1.147,1.469-1.845,1.817
				c-0.698,0.349-1.569,0.523-2.616,0.523c-1.753,0-3.134-0.562-4.144-1.687c-1.01-1.124-1.514-2.686-1.514-4.687
				c0-2.156,0.613-3.861,1.837-5.115c1.226-1.252,2.894-1.879,5.005-1.879c1.487,0,2.787,0.349,3.903,1.046
				c1.114,0.698,1.971,1.709,2.567,3.035C139.602,247.802,139.9,249.383,139.9,251.218z M132.618,245.808
				c-0.881,0-1.569,0.303-2.065,0.909c-0.496,0.606-0.743,1.478-0.743,2.616c0,0.973,0.225,1.744,0.675,2.313
				c0.449,0.57,1.133,0.854,2.051,0.854c0.863,0,1.601-0.282,2.216-0.847c0.614-0.564,0.922-1.213,0.922-1.948
				c0-1.092-0.287-2.014-0.86-2.767C134.24,246.185,133.508,245.808,132.618,245.808z"/>
			<path id="XMLID_247_" fill="#FFFFFF" d="M149.33,249.897c1.945,0,3.495,0.546,4.647,1.638c1.151,1.093,1.727,2.588,1.727,4.488
				c0,2.249-0.693,3.979-2.079,5.19c-1.386,1.211-3.368,1.817-5.947,1.817c-2.24,0-4.047-0.362-5.424-1.088v-3.676
				c0.725,0.385,1.569,0.7,2.533,0.943c0.964,0.243,1.877,0.364,2.74,0.364c2.597,0,3.896-1.064,3.896-3.194
				c0-2.028-1.345-3.042-4.034-3.042c-0.487,0-1.023,0.048-1.611,0.145c-0.588,0.096-1.064,0.199-1.432,0.309l-1.693-0.909
				l0.757-10.256h10.917v3.607h-7.186l-0.372,3.951l0.482-0.096C147.811,249.961,148.504,249.897,149.33,249.897z"/>
		</g>
		<g id="XMLID_200_">
			<path id="XMLID_201_" fill="#FFFFFF" d="M203.068,262.755h-4.254v-11.646l0.041-1.914l0.069-2.093
				c-0.706,0.707-1.198,1.17-1.473,1.39l-2.313,1.858l-2.051-2.561l6.484-5.162h3.497V262.755z"/>
			<path id="XMLID_203_" fill="#FFFFFF" d="M215.968,249.897c1.945,0,3.495,0.546,4.647,1.638c1.151,1.093,1.727,2.588,1.727,4.488
				c0,2.249-0.693,3.979-2.079,5.19s-3.368,1.817-5.947,1.817c-2.24,0-4.047-0.362-5.424-1.088v-3.676
				c0.725,0.385,1.569,0.7,2.533,0.943c0.964,0.243,1.877,0.364,2.74,0.364c2.597,0,3.896-1.064,3.896-3.194
				c0-2.028-1.345-3.042-4.034-3.042c-0.487,0-1.023,0.048-1.611,0.145c-0.588,0.096-1.064,0.199-1.432,0.309l-1.693-0.909
				l0.757-10.256h10.917v3.607h-7.186l-0.372,3.951l0.482-0.096C214.448,249.961,215.142,249.897,215.968,249.897z"/>
			<path id="XMLID_205_" fill="#FFFFFF" d="M225.219,260.786c0-0.771,0.206-1.353,0.619-1.748c0.413-0.394,1.014-0.592,1.803-0.592
				c0.762,0,1.351,0.202,1.769,0.606c0.417,0.404,0.627,0.982,0.627,1.735c0,0.725-0.211,1.296-0.633,1.714
				c-0.422,0.418-1.009,0.627-1.762,0.627c-0.771,0-1.367-0.204-1.79-0.612C225.43,262.105,225.219,261.529,225.219,260.786z"/>
			<path id="XMLID_207_" fill="#FFFFFF" d="M240.1,249.897c1.945,0,3.494,0.546,4.646,1.638c1.152,1.093,1.728,2.588,1.728,4.488
				c0,2.249-0.693,3.979-2.079,5.19c-1.386,1.211-3.368,1.817-5.947,1.817c-2.24,0-4.047-0.362-5.424-1.088v-3.676
				c0.725,0.385,1.569,0.7,2.533,0.943c0.964,0.243,1.877,0.364,2.74,0.364c2.598,0,3.896-1.064,3.896-3.194
				c0-2.028-1.345-3.042-4.034-3.042c-0.486,0-1.024,0.048-1.611,0.145c-0.588,0.096-1.065,0.199-1.432,0.309l-1.693-0.909
				l0.757-10.256h10.917v3.607h-7.186l-0.372,3.951l0.482-0.096C238.582,249.961,239.274,249.897,240.1,249.897z"/>
			<path id="XMLID_209_" fill="#FFFFFF" d="M267.263,262.755h-3.205v-6.86c0-0.848-0.142-1.483-0.425-1.907
				c-0.284-0.424-0.73-0.636-1.34-0.636c-0.819,0-1.415,0.301-1.786,0.904c-0.371,0.602-0.556,1.593-0.556,2.973v5.526h-3.205
				v-11.746h2.448l0.43,1.502h0.178c0.316-0.539,0.771-0.961,1.367-1.266c0.595-0.304,1.278-0.457,2.048-0.457
				c1.759,0,2.948,0.575,3.572,1.723h0.283c0.316-0.546,0.78-0.969,1.393-1.271c0.613-0.301,1.304-0.452,2.075-0.452
				c1.33,0,2.337,0.342,3.02,1.025c0.683,0.683,1.025,1.777,1.025,3.284v7.659h-3.215v-6.86c0-0.848-0.142-1.483-0.425-1.907
				c-0.284-0.424-0.73-0.636-1.34-0.636c-0.785,0-1.371,0.28-1.76,0.84c-0.388,0.561-0.583,1.451-0.583,2.669V262.755z"/>
			<path id="XMLID_211_" fill="#FFFFFF" d="M288.547,256.861c0,1.911-0.504,3.407-1.513,4.486c-1.009,1.079-2.413,1.618-4.213,1.618
				c-1.127,0-2.122-0.247-2.984-0.74c-0.862-0.494-1.523-1.203-1.985-2.127c-0.462-0.925-0.694-2.003-0.694-3.236
				c0-1.919,0.501-3.411,1.503-4.476c1.001-1.064,2.41-1.597,4.223-1.597c1.128,0,2.122,0.246,2.984,0.736
				c0.862,0.49,1.524,1.194,1.986,2.111C288.317,254.553,288.547,255.628,288.547,256.861z M280.426,256.861
				c0,1.162,0.191,2.041,0.572,2.637c0.382,0.596,1.004,0.893,1.865,0.893c0.855,0,1.469-0.296,1.843-0.888
				c0.375-0.592,0.562-1.472,0.562-2.642c0-1.163-0.188-2.035-0.567-2.616c-0.378-0.581-0.998-0.872-1.86-0.872
				c-0.854,0-1.471,0.288-1.849,0.867C280.615,254.817,280.426,255.691,280.426,256.861z"/>
			<path id="XMLID_214_" fill="#FFFFFF" d="M302.037,262.755h-3.204v-6.86c0-0.848-0.151-1.483-0.452-1.907
				c-0.301-0.424-0.781-0.636-1.439-0.636c-0.897,0-1.545,0.3-1.943,0.898c-0.4,0.599-0.599,1.592-0.599,2.979v5.526h-3.205v-11.746
				h2.448l0.431,1.502h0.178c0.357-0.567,0.849-0.996,1.477-1.287c0.626-0.291,1.339-0.436,2.137-0.436
				c1.366,0,2.403,0.37,3.11,1.109c0.707,0.739,1.061,1.806,1.061,3.2V262.755z"/>
			<path id="XMLID_216_" fill="#FFFFFF" d="M310.285,260.411c0.56,0,1.232-0.122,2.017-0.367v2.385
				c-0.798,0.358-1.779,0.536-2.942,0.536c-1.282,0-2.215-0.324-2.8-0.972c-0.584-0.648-0.877-1.62-0.877-2.916v-5.662h-1.534
				v-1.356l1.765-1.072l0.925-2.479h2.048v2.5h3.289v2.406h-3.289v5.662c0,0.455,0.128,0.791,0.384,1.009
				C309.526,260.304,309.864,260.411,310.285,260.411z"/>
			<path id="XMLID_218_" fill="#FFFFFF" d="M325.518,262.755h-3.204v-6.86c0-1.695-0.63-2.543-1.891-2.543
				c-0.897,0-1.545,0.305-1.944,0.914c-0.399,0.609-0.599,1.597-0.599,2.963v5.526h-3.204v-16.347h3.204v3.33
				c0,0.259-0.025,0.869-0.073,1.829l-0.073,0.945h0.168c0.714-1.148,1.849-1.723,3.404-1.723c1.38,0,2.427,0.372,3.141,1.114
				c0.714,0.742,1.072,1.807,1.072,3.194V262.755z"/>
			<path id="XMLID_220_" fill="#FFFFFF" d="M337.012,259.267c0,1.205-0.418,2.122-1.256,2.753c-0.837,0.63-2.089,0.946-3.756,0.946
				c-0.854,0-1.582-0.058-2.185-0.173c-0.602-0.116-1.166-0.285-1.691-0.509v-2.648c0.596,0.28,1.266,0.514,2.012,0.704
				c0.746,0.189,1.402,0.283,1.97,0.283c1.162,0,1.743-0.336,1.743-1.009c0-0.252-0.077-0.456-0.23-0.614
				c-0.154-0.157-0.42-0.336-0.798-0.535c-0.378-0.2-0.883-0.433-1.513-0.699c-0.904-0.378-1.568-0.728-1.991-1.051
				c-0.424-0.322-0.732-0.691-0.925-1.108c-0.193-0.417-0.289-0.93-0.289-1.54c0-1.043,0.404-1.851,1.214-2.421
				c0.809-0.571,1.956-0.856,3.44-0.856c1.415,0,2.791,0.309,4.129,0.925l-0.967,2.311c-0.588-0.252-1.138-0.459-1.65-0.619
				c-0.511-0.161-1.033-0.241-1.565-0.241c-0.946,0-1.419,0.255-1.419,0.767c0,0.287,0.153,0.536,0.457,0.746
				c0.305,0.21,0.972,0.522,2.002,0.935c0.917,0.371,1.59,0.718,2.017,1.04c0.427,0.322,0.742,0.693,0.945,1.113
				C336.911,258.184,337.012,258.686,337.012,259.267z"/>
		</g>
		<g id="XMLID_83_">
			<path id="XMLID_84_" fill="#FFFFFF" d="M14.835,188.483v5.894h-3.257v-15.36h4.476c2.087,0,3.631,0.38,4.634,1.14
				c1.001,0.76,1.502,1.914,1.502,3.462c0,0.904-0.249,1.707-0.746,2.411c-0.498,0.704-1.201,1.255-2.112,1.655
				c2.311,3.453,3.818,5.683,4.518,6.692h-3.614l-3.666-5.894H14.835z M14.835,185.836h1.051c1.03,0,1.79-0.172,2.28-0.515
				c0.49-0.343,0.735-0.883,0.735-1.618c0-0.728-0.25-1.247-0.751-1.555c-0.501-0.308-1.277-0.462-2.327-0.462h-0.988V185.836z"/>
			<path id="XMLID_87_" fill="#FFFFFF" d="M30.847,194.587c-1.891,0-3.368-0.522-4.434-1.565c-1.065-1.044-1.597-2.521-1.597-4.434
				c0-1.968,0.492-3.489,1.476-4.565c0.985-1.075,2.345-1.613,4.081-1.613c1.661,0,2.953,0.473,3.877,1.419s1.387,2.252,1.387,3.918
				v1.555h-7.575c0.036,0.911,0.305,1.622,0.809,2.133c0.504,0.512,1.212,0.767,2.122,0.767c0.707,0,1.377-0.073,2.007-0.22
				c0.63-0.147,1.288-0.382,1.975-0.704v2.479c-0.561,0.28-1.159,0.489-1.797,0.625C32.541,194.519,31.765,194.587,30.847,194.587z
				 M30.395,184.69c-0.68,0-1.212,0.215-1.597,0.646c-0.385,0.43-0.606,1.042-0.662,1.833h4.497c-0.014-0.791-0.22-1.403-0.62-1.833
				C31.614,184.906,31.074,184.69,30.395,184.69z"/>
			<path id="XMLID_90_" fill="#FFFFFF" d="M41.962,194.587c-1.38,0-2.463-0.536-3.252-1.607c-0.788-1.072-1.182-2.557-1.182-4.455
				c0-1.927,0.401-3.427,1.203-4.502s1.907-1.613,3.315-1.613c1.478,0,2.606,0.575,3.383,1.723h0.105
				c-0.161-0.875-0.242-1.656-0.242-2.342v-3.761h3.216v16.347h-2.459l-0.619-1.523h-0.137
				C44.564,194.009,43.454,194.587,41.962,194.587z M43.086,192.034c0.819,0,1.42-0.238,1.801-0.714
				c0.382-0.476,0.59-1.285,0.625-2.427v-0.347c0-1.261-0.194-2.164-0.583-2.71c-0.388-0.546-1.02-0.82-1.896-0.82
				c-0.714,0-1.269,0.304-1.665,0.909c-0.396,0.606-0.593,1.486-0.593,2.642c0,1.155,0.199,2.022,0.598,2.6
				C41.773,191.745,42.344,192.034,43.086,192.034z"/>
			<path id="XMLID_93_" fill="#FFFFFF" d="M60.179,194.377l-0.431-1.503H59.58c-0.343,0.546-0.83,0.969-1.46,1.267
				s-1.348,0.446-2.154,0.446c-1.38,0-2.42-0.37-3.12-1.109c-0.7-0.739-1.051-1.801-1.051-3.188v-7.659H55v6.861
				c0,0.847,0.151,1.482,0.452,1.906c0.301,0.424,0.781,0.635,1.439,0.635c0.897,0,1.545-0.299,1.944-0.898
				c0.399-0.599,0.599-1.592,0.599-2.979v-5.526h3.204v11.746H60.179z"/>
			<path id="XMLID_95_" fill="#FFFFFF" d="M70.77,194.587c-3.656,0-5.484-2.007-5.484-6.02c0-1.997,0.497-3.521,1.492-4.576
				c0.995-1.054,2.42-1.582,4.276-1.582c1.359,0,2.578,0.267,3.656,0.798l-0.945,2.479c-0.504-0.203-0.974-0.369-1.409-0.498
				c-0.434-0.13-0.868-0.194-1.303-0.194c-1.666,0-2.5,1.183-2.5,3.55c0,2.298,0.833,3.446,2.5,3.446
				c0.617,0,1.188-0.082,1.713-0.246c0.525-0.164,1.051-0.422,1.576-0.772v2.742c-0.518,0.33-1.042,0.557-1.571,0.683
				C72.243,194.524,71.575,194.587,70.77,194.587z"/>
			<path id="XMLID_97_" fill="#FFFFFF" d="M82.011,192.034c0.561,0,1.233-0.122,2.017-0.367v2.385
				c-0.798,0.358-1.78,0.536-2.942,0.536c-1.282,0-2.215-0.324-2.8-0.972c-0.585-0.648-0.877-1.62-0.877-2.916v-5.662h-1.534v-1.356
				l1.765-1.072l0.925-2.479h2.049v2.5h3.288v2.406h-3.288v5.662c0,0.455,0.128,0.791,0.383,1.009
				C81.253,191.926,81.591,192.034,82.011,192.034z"/>
			<path id="XMLID_99_" fill="#FFFFFF" d="M86.266,179.595c0-1.043,0.582-1.565,1.745-1.565c1.162,0,1.743,0.522,1.743,1.565
				c0,0.498-0.145,0.885-0.435,1.161c-0.291,0.277-0.727,0.415-1.308,0.415C86.847,181.171,86.266,180.645,86.266,179.595z
				 M89.607,194.377h-3.205v-11.746h3.205V194.377z"/>
			<path id="XMLID_102_" fill="#FFFFFF" d="M103.643,188.483c0,1.911-0.504,3.407-1.513,4.486c-1.009,1.079-2.413,1.618-4.213,1.618
				c-1.128,0-2.122-0.247-2.984-0.741c-0.861-0.494-1.524-1.203-1.986-2.127s-0.693-2.003-0.693-3.236
				c0-1.919,0.5-3.411,1.502-4.476c1.002-1.064,2.409-1.597,4.223-1.597c1.127,0,2.122,0.246,2.984,0.736
				c0.861,0.49,1.523,1.194,1.985,2.111C103.412,186.175,103.643,187.25,103.643,188.483z M95.522,188.483
				c0,1.162,0.191,2.041,0.573,2.637c0.381,0.596,1.003,0.893,1.864,0.893c0.854,0,1.469-0.296,1.844-0.888
				c0.375-0.592,0.562-1.472,0.562-2.642c0-1.163-0.19-2.035-0.568-2.616c-0.378-0.581-0.998-0.872-1.859-0.872
				c-0.855,0-1.471,0.288-1.849,0.867C95.711,186.439,95.522,187.313,95.522,188.483z"/>
			<path id="XMLID_105_" fill="#FFFFFF" d="M117.133,194.377h-3.205v-6.86c0-0.848-0.151-1.483-0.451-1.907
				c-0.301-0.424-0.781-0.636-1.44-0.636c-0.896,0-1.544,0.3-1.944,0.898c-0.399,0.599-0.598,1.592-0.598,2.979v5.526h-3.204
				v-11.746h2.448l0.43,1.502h0.179c0.357-0.567,0.849-0.996,1.476-1.287c0.627-0.291,1.34-0.436,2.138-0.436
				c1.366,0,2.402,0.37,3.11,1.109c0.708,0.739,1.061,1.806,1.061,3.2V194.377z"/>
			<path id="XMLID_107_" fill="#FFFFFF" d="M125.884,179.595c0-1.043,0.581-1.565,1.744-1.565c1.163,0,1.744,0.522,1.744,1.565
				c0,0.498-0.145,0.885-0.436,1.161c-0.291,0.277-0.726,0.415-1.308,0.415C126.465,181.171,125.884,180.645,125.884,179.595z
				 M129.225,194.377h-3.205v-11.746h3.205V194.377z"/>
			<path id="XMLID_110_" fill="#FFFFFF" d="M143.429,194.377h-3.205v-6.86c0-0.848-0.151-1.483-0.451-1.907
				c-0.301-0.424-0.781-0.636-1.44-0.636c-0.896,0-1.544,0.3-1.943,0.898c-0.399,0.599-0.598,1.592-0.598,2.979v5.526h-3.205
				v-11.746h2.448l0.43,1.502h0.178c0.358-0.567,0.849-0.996,1.477-1.287c0.627-0.291,1.339-0.436,2.137-0.436
				c1.367,0,2.403,0.37,3.11,1.109c0.708,0.739,1.061,1.806,1.061,3.2V194.377z"/>
			<path id="XMLID_112_" fill="#FFFFFF" d="M19.521,216.708c0,1.205-0.419,2.122-1.256,2.753c-0.837,0.63-2.089,0.946-3.755,0.946
				c-0.855,0-1.583-0.058-2.185-0.173c-0.603-0.116-1.167-0.285-1.692-0.509v-2.648c0.595,0.28,1.266,0.514,2.012,0.704
				c0.746,0.189,1.403,0.283,1.969,0.283c1.163,0,1.745-0.336,1.745-1.009c0-0.252-0.078-0.456-0.232-0.614
				c-0.154-0.157-0.42-0.336-0.798-0.535c-0.378-0.2-0.883-0.433-1.513-0.699c-0.903-0.378-1.566-0.728-1.99-1.051
				c-0.424-0.322-0.733-0.691-0.925-1.108c-0.193-0.417-0.289-0.93-0.289-1.54c0-1.043,0.404-1.851,1.214-2.421
				c0.809-0.571,1.956-0.856,3.441-0.856c1.414,0,2.791,0.309,4.129,0.925l-0.967,2.311c-0.588-0.252-1.138-0.459-1.649-0.619
				c-0.512-0.161-1.033-0.241-1.566-0.241c-0.946,0-1.418,0.255-1.418,0.767c0,0.287,0.152,0.536,0.456,0.746
				c0.305,0.21,0.972,0.522,2.001,0.935c0.918,0.371,1.59,0.718,2.017,1.04c0.427,0.322,0.743,0.693,0.946,1.113
				C19.42,215.626,19.521,216.127,19.521,216.708z"/>
			<path id="XMLID_114_" fill="#FFFFFF" d="M28.472,220.407c-1.38,0-2.462-0.501-3.246-1.503h-0.168
				c0.112,0.981,0.168,1.548,0.168,1.703v4.759h-3.205v-16.915h2.606l0.451,1.524h0.148c0.749-1.163,1.859-1.745,3.33-1.745
				c1.387,0,2.472,0.536,3.257,1.608c0.785,1.072,1.177,2.56,1.177,4.465c0,1.253-0.184,2.342-0.551,3.267
				c-0.368,0.925-0.891,1.628-1.571,2.112C30.188,220.165,29.389,220.407,28.472,220.407z M27.527,210.793
				c-0.792,0-1.369,0.243-1.734,0.73c-0.364,0.487-0.553,1.29-0.567,2.411v0.346c0,1.261,0.187,2.165,0.562,2.711
				c0.375,0.546,0.969,0.819,1.781,0.819c1.435,0,2.154-1.183,2.154-3.55c0-1.156-0.177-2.023-0.531-2.6
				C28.838,211.082,28.283,210.793,27.527,210.793z"/>
			<path id="XMLID_117_" fill="#FFFFFF" d="M43.097,220.196l-0.62-1.597h-0.084c-0.539,0.68-1.094,1.151-1.665,1.413
				c-0.571,0.263-1.314,0.394-2.232,0.394c-1.128,0-2.015-0.322-2.663-0.967c-0.648-0.644-0.972-1.562-0.972-2.753
				c0-1.247,0.436-2.166,1.308-2.758c0.872-0.592,2.187-0.919,3.945-0.982l2.038-0.063v-0.514c0-1.191-0.609-1.787-1.828-1.787
				c-0.939,0-2.042,0.284-3.31,0.851l-1.061-2.164c1.352-0.707,2.85-1.061,4.497-1.061c1.576,0,2.784,0.343,3.624,1.029
				c0.84,0.687,1.261,1.73,1.261,3.132v7.827H43.097z M42.151,214.754l-1.24,0.042c-0.932,0.028-1.624,0.196-2.08,0.504
				s-0.683,0.777-0.683,1.408c0,0.904,0.519,1.355,1.555,1.355c0.743,0,1.336-0.213,1.781-0.641
				c0.445-0.427,0.667-0.995,0.667-1.702V214.754z"/>
			<path id="XMLID_120_" fill="#FFFFFF" d="M55.189,208.23c0.434,0,0.794,0.032,1.082,0.095l-0.241,3.005
				c-0.259-0.07-0.575-0.105-0.946-0.105c-1.022,0-1.819,0.263-2.39,0.788c-0.571,0.526-0.856,1.261-0.856,2.207v5.978h-3.204
				v-11.746h2.427l0.473,1.975h0.157c0.364-0.659,0.856-1.189,1.476-1.592C53.787,208.431,54.461,208.23,55.189,208.23z"/>
			<path id="XMLID_122_" fill="#FFFFFF" d="M58.267,205.414c0-1.043,0.581-1.565,1.744-1.565c1.163,0,1.744,0.522,1.744,1.565
				c0,0.498-0.145,0.885-0.436,1.161c-0.291,0.277-0.726,0.415-1.308,0.415C58.848,206.991,58.267,206.465,58.267,205.414z
				 M61.608,220.196h-3.205v-11.746h3.205V220.196z"/>
			<path id="XMLID_125_" fill="#FFFFFF" d="M75.812,220.196h-3.205v-6.86c0-0.848-0.151-1.483-0.451-1.907
				c-0.301-0.424-0.781-0.636-1.44-0.636c-0.896,0-1.544,0.3-1.943,0.898c-0.399,0.599-0.598,1.592-0.598,2.979v5.526H64.97v-11.746
				h2.448l0.43,1.502h0.178c0.358-0.567,0.849-0.996,1.477-1.287c0.627-0.291,1.339-0.436,2.137-0.436
				c1.367,0,2.403,0.37,3.11,1.109c0.708,0.739,1.061,1.806,1.061,3.2V220.196z"/>
			<path id="XMLID_127_" fill="#FFFFFF" d="M89.333,208.451v1.628l-1.838,0.473c0.336,0.525,0.504,1.114,0.504,1.765
				c0,1.261-0.44,2.243-1.319,2.947c-0.879,0.704-2.099,1.056-3.661,1.056l-0.578-0.032l-0.472-0.052
				c-0.329,0.252-0.494,0.532-0.494,0.84c0,0.462,0.588,0.693,1.765,0.693h1.997c1.288,0,2.271,0.277,2.947,0.83
				s1.014,1.366,1.014,2.437c0,1.373-0.572,2.437-1.718,3.194c-1.145,0.756-2.789,1.135-4.932,1.135
				c-1.639,0-2.891-0.285-3.756-0.856c-0.865-0.571-1.298-1.371-1.298-2.4c0-0.707,0.221-1.299,0.662-1.776
				c0.442-0.476,1.09-0.816,1.944-1.019c-0.33-0.14-0.617-0.37-0.861-0.688c-0.245-0.319-0.368-0.656-0.368-1.014
				c0-0.449,0.13-0.821,0.389-1.119s0.634-0.591,1.124-0.877c-0.616-0.266-1.104-0.693-1.465-1.282
				c-0.361-0.588-0.541-1.282-0.541-2.08c0-1.282,0.417-2.273,1.25-2.974c0.834-0.7,2.024-1.051,3.572-1.051
				c0.33,0,0.72,0.03,1.172,0.09c0.452,0.059,0.741,0.103,0.867,0.131H89.333z M80.267,221.856c0,0.441,0.212,0.788,0.635,1.04
				c0.424,0.252,1.017,0.378,1.781,0.378c1.149,0,2.049-0.157,2.7-0.472c0.652-0.315,0.977-0.746,0.977-1.293
				c0-0.441-0.193-0.746-0.577-0.914c-0.385-0.168-0.981-0.252-1.787-0.252h-1.659c-0.588,0-1.081,0.138-1.477,0.415
				S80.267,221.401,80.267,221.856z M81.433,212.296c0,0.638,0.146,1.142,0.436,1.513c0.291,0.371,0.734,0.556,1.329,0.556
				c0.603,0,1.044-0.185,1.324-0.556c0.28-0.371,0.42-0.875,0.42-1.513c0-1.415-0.582-2.122-1.745-2.122
				C82.021,210.174,81.433,210.881,81.433,212.296z"/>
			<path id="XMLID_131_" fill="#FFFFFF" d="M101.626,220.407c-3.656,0-5.485-2.007-5.485-6.02c0-1.997,0.498-3.521,1.493-4.576
				c0.994-1.054,2.42-1.582,4.276-1.582c1.359,0,2.577,0.267,3.656,0.798l-0.946,2.479c-0.504-0.203-0.974-0.369-1.408-0.498
				c-0.434-0.13-0.869-0.194-1.303-0.194c-1.667,0-2.5,1.183-2.5,3.55c0,2.298,0.833,3.446,2.5,3.446
				c0.617,0,1.188-0.082,1.712-0.246c0.526-0.164,1.051-0.422,1.577-0.772v2.742c-0.519,0.33-1.042,0.557-1.571,0.683
				C103.099,220.344,102.431,220.407,101.626,220.407z"/>
			<path id="XMLID_133_" fill="#FFFFFF" d="M118.593,214.303c0,1.911-0.504,3.407-1.513,4.486c-1.009,1.079-2.413,1.618-4.213,1.618
				c-1.127,0-2.121-0.247-2.984-0.74c-0.861-0.494-1.523-1.203-1.985-2.127s-0.693-2.003-0.693-3.236
				c0-1.919,0.501-3.411,1.502-4.476c1.002-1.064,2.41-1.597,4.224-1.597c1.127,0,2.122,0.246,2.984,0.736
				c0.861,0.49,1.523,1.194,1.985,2.111C118.362,211.995,118.593,213.07,118.593,214.303z M110.472,214.303
				c0,1.162,0.191,2.041,0.573,2.637s1.004,0.893,1.864,0.893c0.855,0,1.469-0.296,1.844-0.888c0.375-0.592,0.562-1.472,0.562-2.642
				c0-1.163-0.189-2.035-0.567-2.616c-0.378-0.581-0.998-0.872-1.859-0.872c-0.855,0-1.471,0.288-1.849,0.867
				C110.661,212.259,110.472,213.133,110.472,214.303z"/>
			<path id="XMLID_136_" fill="#FFFFFF" d="M129.435,216.708c0,1.205-0.418,2.122-1.256,2.753c-0.837,0.63-2.089,0.946-3.756,0.946
				c-0.854,0-1.582-0.058-2.185-0.173c-0.602-0.116-1.166-0.285-1.691-0.509v-2.648c0.596,0.28,1.266,0.514,2.012,0.704
				c0.746,0.189,1.402,0.283,1.97,0.283c1.162,0,1.743-0.336,1.743-1.009c0-0.252-0.077-0.456-0.23-0.614
				c-0.154-0.157-0.42-0.336-0.798-0.535c-0.378-0.2-0.883-0.433-1.513-0.699c-0.904-0.378-1.568-0.728-1.991-1.051
				c-0.424-0.322-0.732-0.691-0.925-1.108c-0.193-0.417-0.289-0.93-0.289-1.54c0-1.043,0.404-1.851,1.214-2.421
				c0.809-0.571,1.956-0.856,3.44-0.856c1.415,0,2.791,0.309,4.129,0.925l-0.967,2.311c-0.588-0.252-1.138-0.459-1.65-0.619
				c-0.511-0.161-1.033-0.241-1.565-0.241c-0.946,0-1.419,0.255-1.419,0.767c0,0.287,0.153,0.536,0.457,0.746
				c0.305,0.21,0.972,0.522,2.002,0.935c0.917,0.371,1.59,0.718,2.017,1.04c0.427,0.322,0.742,0.693,0.945,1.113
				C129.334,215.626,129.435,216.127,129.435,216.708z"/>
			<path id="XMLID_138_" fill="#FFFFFF" d="M136.885,217.853c0.56,0,1.232-0.122,2.017-0.367v2.385
				c-0.798,0.358-1.78,0.536-2.942,0.536c-1.282,0-2.216-0.324-2.8-0.972s-0.877-1.62-0.877-2.916v-5.662h-1.533v-1.356l1.765-1.072
				l0.925-2.479h2.048v2.5h3.289v2.406h-3.289v5.662c0,0.455,0.128,0.791,0.383,1.009
				C136.126,217.745,136.464,217.853,136.885,217.853z"/>
			<path id="XMLID_140_" fill="#FFFFFF" d="M149.47,216.708c0,1.205-0.418,2.122-1.255,2.753c-0.838,0.63-2.09,0.946-3.756,0.946
				c-0.855,0-1.582-0.058-2.185-0.173c-0.603-0.116-1.167-0.285-1.691-0.509v-2.648c0.595,0.28,1.265,0.514,2.011,0.704
				c0.746,0.189,1.403,0.283,1.97,0.283c1.163,0,1.744-0.336,1.744-1.009c0-0.252-0.077-0.456-0.231-0.614
				c-0.154-0.157-0.42-0.336-0.798-0.535c-0.378-0.2-0.883-0.433-1.513-0.699c-0.904-0.378-1.567-0.728-1.99-1.051
				c-0.425-0.322-0.733-0.691-0.925-1.108c-0.193-0.417-0.29-0.93-0.29-1.54c0-1.043,0.404-1.851,1.214-2.421
				c0.809-0.571,1.955-0.856,3.44-0.856c1.414,0,2.791,0.309,4.129,0.925l-0.967,2.311c-0.588-0.252-1.138-0.459-1.649-0.619
				c-0.512-0.161-1.033-0.241-1.565-0.241c-0.946,0-1.419,0.255-1.419,0.767c0,0.287,0.152,0.536,0.456,0.746
				c0.306,0.21,0.972,0.522,2.002,0.935c0.918,0.371,1.59,0.718,2.017,1.04c0.427,0.322,0.743,0.693,0.946,1.113
				C149.369,215.626,149.47,216.127,149.47,216.708z"/>
			<path id="XMLID_142_" fill="#FFFFFF" d="M151.519,210.016c0-0.588,0.158-1.033,0.472-1.335c0.316-0.301,0.774-0.452,1.377-0.452
				c0.581,0,1.032,0.154,1.351,0.462c0.318,0.309,0.477,0.75,0.477,1.324c0,0.567-0.163,1.006-0.489,1.318
				c-0.325,0.312-0.772,0.467-1.339,0.467c-0.588,0-1.043-0.154-1.366-0.462C151.68,211.032,151.519,210.59,151.519,210.016z
				 M151.519,218.694c0-0.588,0.158-1.032,0.472-1.334c0.316-0.301,0.774-0.451,1.377-0.451c0.581,0,1.032,0.154,1.351,0.462
				c0.318,0.308,0.477,0.749,0.477,1.323c0,0.554-0.162,0.99-0.483,1.309s-0.771,0.478-1.345,0.478
				c-0.588,0-1.043-0.157-1.366-0.468C151.68,219.701,151.519,219.262,151.519,218.694z"/>
		</g>
		<g id="XMLID_21_">
			<path id="XMLID_22_" fill="#FFFFFF" d="M203.966,183.808c0,1.653-0.517,2.917-1.55,3.793c-1.033,0.875-2.502,1.313-4.407,1.313
				h-1.398v5.463h-3.257v-15.36h4.907c1.863,0,3.279,0.401,4.25,1.203C203.481,181.022,203.966,182.218,203.966,183.808z
				 M196.612,186.245h1.072c1.001,0,1.751-0.198,2.248-0.593c0.498-0.396,0.746-0.972,0.746-1.729c0-0.763-0.208-1.327-0.625-1.691
				c-0.417-0.364-1.07-0.546-1.959-0.546h-1.482V186.245z"/>
			<path id="XMLID_25_" fill="#FFFFFF" d="M214.073,194.377l-0.62-1.597h-0.084c-0.539,0.68-1.094,1.151-1.665,1.413
				c-0.571,0.263-1.314,0.394-2.232,0.394c-1.128,0-2.015-0.322-2.663-0.967c-0.648-0.644-0.972-1.562-0.972-2.753
				c0-1.247,0.436-2.166,1.308-2.758c0.872-0.592,2.187-0.919,3.945-0.982l2.038-0.063v-0.514c0-1.191-0.609-1.787-1.828-1.787
				c-0.939,0-2.042,0.284-3.31,0.851l-1.061-2.164c1.352-0.707,2.85-1.061,4.497-1.061c1.576,0,2.784,0.343,3.624,1.029
				c0.84,0.687,1.261,1.73,1.261,3.132v7.827H214.073z M213.127,188.935l-1.24,0.042c-0.932,0.028-1.624,0.196-2.08,0.504
				c-0.456,0.308-0.683,0.777-0.683,1.408c0,0.904,0.519,1.355,1.555,1.355c0.743,0,1.336-0.213,1.781-0.641
				c0.445-0.427,0.667-0.995,0.667-1.702V188.935z"/>
			<path id="XMLID_28_" fill="#FFFFFF" d="M217.929,182.631h3.508l2.217,6.609c0.189,0.574,0.319,1.253,0.388,2.037h0.064
				c0.077-0.721,0.228-1.401,0.451-2.037l2.174-6.609h3.436l-4.969,13.249c-0.456,1.225-1.106,2.143-1.949,2.752
				c-0.844,0.61-1.83,0.914-2.958,0.914c-0.554,0-1.096-0.059-1.629-0.178v-2.543c0.385,0.091,0.806,0.137,1.261,0.137
				c0.568,0,1.064-0.173,1.487-0.52c0.424-0.346,0.755-0.87,0.993-1.57l0.19-0.578L217.929,182.631z"/>
			<path id="XMLID_30_" fill="#FFFFFF" d="M238.384,182.41c1.387,0,2.473,0.541,3.257,1.624c0.784,1.082,1.177,2.565,1.177,4.449
				c0,1.94-0.404,3.442-1.214,4.507c-0.809,1.064-1.911,1.597-3.304,1.597c-1.38,0-2.462-0.501-3.247-1.503h-0.22l-0.536,1.293
				h-2.448v-16.347h3.204v3.803c0,0.483-0.042,1.257-0.126,2.322h0.126C235.803,182.992,236.913,182.41,238.384,182.41z
				 M237.354,184.974c-0.791,0-1.369,0.243-1.733,0.73c-0.364,0.487-0.554,1.29-0.568,2.411v0.346c0,1.261,0.188,2.165,0.562,2.711
				c0.375,0.546,0.968,0.819,1.781,0.819c0.658,0,1.182-0.303,1.571-0.909c0.388-0.606,0.583-1.487,0.583-2.642
				c0-1.156-0.196-2.023-0.588-2.6C238.569,185.263,238.034,184.974,237.354,184.974z"/>
			<path id="XMLID_33_" fill="#FFFFFF" d="M252.924,194.377l-0.619-1.597h-0.084c-0.54,0.68-1.095,1.151-1.666,1.413
				c-0.57,0.263-1.315,0.394-2.232,0.394c-1.127,0-2.016-0.322-2.663-0.967c-0.648-0.644-0.972-1.562-0.972-2.753
				c0-1.247,0.436-2.166,1.308-2.758c0.872-0.592,2.187-0.919,3.945-0.982l2.038-0.063v-0.514c0-1.191-0.609-1.787-1.828-1.787
				c-0.938,0-2.042,0.284-3.309,0.851l-1.061-2.164c1.351-0.707,2.851-1.061,4.497-1.061c1.576,0,2.784,0.343,3.625,1.029
				c0.84,0.687,1.261,1.73,1.261,3.132v7.827H252.924z M251.979,188.935l-1.24,0.042c-0.931,0.028-1.625,0.196-2.08,0.504
				c-0.455,0.308-0.683,0.777-0.683,1.408c0,0.904,0.518,1.355,1.555,1.355c0.742,0,1.336-0.213,1.78-0.641
				c0.445-0.427,0.667-0.995,0.667-1.702V188.935z"/>
			<path id="XMLID_36_" fill="#FFFFFF" d="M263.231,194.587c-3.656,0-5.485-2.007-5.485-6.02c0-1.997,0.498-3.521,1.493-4.576
				c0.994-1.054,2.42-1.582,4.276-1.582c1.359,0,2.577,0.267,3.656,0.798l-0.946,2.479c-0.504-0.203-0.974-0.369-1.408-0.498
				c-0.434-0.13-0.869-0.194-1.303-0.194c-1.667,0-2.5,1.183-2.5,3.55c0,2.298,0.833,3.446,2.5,3.446
				c0.617,0,1.188-0.082,1.712-0.246c0.526-0.164,1.051-0.422,1.577-0.772v2.742c-0.519,0.33-1.042,0.557-1.571,0.683
				C264.703,194.524,264.036,194.587,263.231,194.587z"/>
			<path id="XMLID_38_" fill="#FFFFFF" d="M272.603,187.989l1.397-1.786l3.288-3.572h3.614l-4.665,5.096l4.949,6.65h-3.698
				l-3.383-4.759l-1.376,1.103v3.656h-3.205v-16.347h3.205v7.291l-0.168,2.669H272.603z"/>
			<path id="XMLID_63_" fill="#FFFFFF" d="M199.554,220.407c-1.38,0-2.462-0.501-3.247-1.503h-0.168
				c0.112,0.981,0.168,1.548,0.168,1.703v4.759h-3.204v-16.915h2.605l0.452,1.524h0.146c0.75-1.163,1.86-1.745,3.331-1.745
				c1.387,0,2.473,0.536,3.257,1.608c0.784,1.072,1.177,2.56,1.177,4.465c0,1.253-0.184,2.342-0.551,3.267
				c-0.368,0.925-0.892,1.628-1.571,2.112C201.27,220.165,200.472,220.407,199.554,220.407z M198.608,210.793
				c-0.791,0-1.369,0.243-1.733,0.73c-0.364,0.487-0.554,1.29-0.568,2.411v0.346c0,1.261,0.188,2.165,0.562,2.711
				c0.375,0.546,0.968,0.819,1.781,0.819c1.436,0,2.153-1.183,2.153-3.55c0-1.156-0.177-2.023-0.53-2.6
				C199.919,211.082,199.364,210.793,198.608,210.793z"/>
			<path id="XMLID_66_" fill="#FFFFFF" d="M212.035,220.407c-1.891,0-3.368-0.522-4.434-1.565c-1.065-1.044-1.597-2.521-1.597-4.434
				c0-1.968,0.492-3.489,1.476-4.565c0.985-1.075,2.345-1.613,4.081-1.613c1.661,0,2.953,0.473,3.877,1.419
				c0.925,0.946,1.387,2.252,1.387,3.918v1.555h-7.575c0.036,0.911,0.305,1.622,0.809,2.133c0.504,0.512,1.212,0.767,2.122,0.767
				c0.707,0,1.377-0.073,2.007-0.22c0.63-0.147,1.288-0.382,1.975-0.704v2.479c-0.561,0.28-1.159,0.489-1.797,0.625
				C213.729,220.338,212.953,220.407,212.035,220.407z M211.583,210.51c-0.68,0-1.212,0.215-1.597,0.646
				c-0.385,0.43-0.606,1.042-0.662,1.833h4.497c-0.014-0.791-0.22-1.403-0.62-1.833C212.802,210.725,212.262,210.51,211.583,210.51z
				"/>
			<path id="XMLID_69_" fill="#FFFFFF" d="M225.987,208.23c0.434,0,0.795,0.032,1.082,0.095l-0.241,3.005
				c-0.259-0.07-0.575-0.105-0.946-0.105c-1.023,0-1.819,0.263-2.39,0.788c-0.57,0.526-0.856,1.261-0.856,2.207v5.978h-3.205
				v-11.746h2.427l0.473,1.975h0.157c0.364-0.659,0.856-1.189,1.477-1.592C224.584,208.431,225.259,208.23,225.987,208.23z"/>
			<path id="XMLID_71_" fill="#FFFFFF" d="M229.065,205.414c0-1.043,0.581-1.565,1.743-1.565c1.163,0,1.745,0.522,1.745,1.565
				c0,0.498-0.146,0.885-0.436,1.161c-0.291,0.277-0.727,0.415-1.309,0.415C229.647,206.991,229.065,206.465,229.065,205.414z
				 M232.406,220.196h-3.204v-11.746h3.204V220.196z"/>
			<path id="XMLID_74_" fill="#FFFFFF" d="M246.442,214.303c0,1.911-0.504,3.407-1.513,4.486c-1.009,1.079-2.413,1.618-4.213,1.618
				c-1.127,0-2.122-0.247-2.984-0.74c-0.861-0.494-1.523-1.203-1.985-2.127s-0.694-2.003-0.694-3.236
				c0-1.919,0.501-3.411,1.503-4.476c1.001-1.064,2.41-1.597,4.223-1.597c1.128,0,2.122,0.246,2.984,0.736
				c0.861,0.49,1.524,1.194,1.986,2.111C246.211,211.995,246.442,213.07,246.442,214.303z M238.321,214.303
				c0,1.162,0.191,2.041,0.572,2.637c0.382,0.596,1.004,0.893,1.865,0.893c0.855,0,1.469-0.296,1.843-0.888
				c0.375-0.592,0.562-1.472,0.562-2.642c0-1.163-0.188-2.035-0.567-2.616c-0.378-0.581-0.998-0.872-1.86-0.872
				c-0.854,0-1.471,0.288-1.849,0.867C238.51,212.259,238.321,213.133,238.321,214.303z"/>
			<path id="XMLID_77_" fill="#FFFFFF" d="M252.809,220.407c-1.38,0-2.463-0.536-3.252-1.607c-0.788-1.072-1.182-2.557-1.182-4.455
				c0-1.927,0.401-3.427,1.203-4.502c0.803-1.075,1.907-1.613,3.316-1.613c1.477,0,2.605,0.575,3.382,1.723h0.106
				c-0.162-0.875-0.242-1.656-0.242-2.342v-3.761h3.215v16.347h-2.458l-0.62-1.523h-0.136
				C255.41,219.828,254.3,220.407,252.809,220.407z M253.933,217.853c0.819,0,1.42-0.238,1.802-0.714
				c0.381-0.476,0.59-1.285,0.625-2.427v-0.347c0-1.261-0.194-2.164-0.583-2.71c-0.388-0.546-1.021-0.82-1.897-0.82
				c-0.714,0-1.269,0.304-1.665,0.909c-0.396,0.606-0.593,1.486-0.593,2.642c0,1.155,0.199,2.022,0.599,2.6
				C252.619,217.565,253.19,217.853,253.933,217.853z"/>
			<path id="XMLID_80_" fill="#FFFFFF" d="M262.254,210.016c0-0.588,0.157-1.033,0.473-1.335c0.314-0.301,0.774-0.452,1.376-0.452
				c0.582,0,1.031,0.154,1.35,0.462c0.319,0.309,0.478,0.75,0.478,1.324c0,0.567-0.162,1.006-0.488,1.318s-0.772,0.467-1.34,0.467
				c-0.588,0-1.044-0.154-1.366-0.462C262.415,211.032,262.254,210.59,262.254,210.016z M262.254,218.694
				c0-0.588,0.157-1.032,0.473-1.334c0.314-0.301,0.774-0.451,1.376-0.451c0.582,0,1.031,0.154,1.35,0.462
				c0.319,0.308,0.478,0.749,0.478,1.323c0,0.554-0.161,0.99-0.483,1.309s-0.77,0.478-1.345,0.478c-0.588,0-1.044-0.157-1.366-0.468
				C262.415,219.701,262.254,219.262,262.254,218.694z"/>
		</g>
	</g>
</g>
</svg>
