<?xml version="1.0" encoding="utf-8"?>
<!-- Generator: Adobe Illustrator 19.0.0, SVG Export Plug-In . SVG Version: 6.00 Build 0)  -->
<svg version="1.1" id="Layer_1" xmlns="http://www.w3.org/2000/svg" xmlns:xlink="http://www.w3.org/1999/xlink" x="0px" y="0px"
	 viewBox="0 0 969 210" enable-background="new 0 0 969 210" xml:space="preserve">
<g id="XMLID_6_">
	<rect id="XMLID_53_" fill="#4296D2" width="228" height="210"/>
	<rect id="XMLID_54_" x="247" fill="#4296D2" width="228" height="210"/>
	<rect id="XMLID_55_" x="494" fill="#4296D2" width="228" height="210"/>
	<rect id="XMLID_56_" x="741" fill="#4296D2" width="228" height="210"/>
	<g id="XMLID_294_">
		<path id="XMLID_295_" fill="#FFFFFF" d="M20.995,28.097v7.943h-4.39V15.338h6.032c2.813,0,4.895,0.512,6.245,1.536
			s2.025,2.58,2.025,4.666c0,1.218-0.335,2.301-1.005,3.25c-0.67,0.948-1.619,1.691-2.846,2.23c3.115,4.653,5.145,7.66,6.089,9.02
			h-4.871l-4.942-7.943H20.995z M20.995,24.528h1.416c1.388,0,2.412-0.231,3.073-0.694s0.991-1.189,0.991-2.181
			c0-0.981-0.337-1.681-1.012-2.096c-0.675-0.415-1.721-0.623-3.137-0.623h-1.331V24.528z"/>
		<path id="XMLID_298_" fill="#FFFFFF" d="M42.575,36.323c-2.549,0-4.541-0.703-5.976-2.109c-1.435-1.407-2.152-3.398-2.152-5.977
			c0-2.652,0.663-4.703,1.989-6.152c1.327-1.449,3.16-2.174,5.501-2.174c2.237,0,3.979,0.638,5.225,1.912s1.869,3.035,1.869,5.281
			V29.2H38.823c0.047,1.228,0.411,2.186,1.09,2.875s1.633,1.033,2.86,1.033c0.954,0,1.855-0.099,2.705-0.297
			s1.737-0.515,2.662-0.949v3.342c-0.755,0.378-1.562,0.659-2.421,0.843C44.86,36.231,43.812,36.323,42.575,36.323z M41.966,22.984
			c-0.916,0-1.633,0.29-2.152,0.871c-0.519,0.58-0.816,1.404-0.892,2.471h6.061c-0.019-1.066-0.297-1.891-0.835-2.471
			C43.609,23.274,42.882,22.984,41.966,22.984z"/>
		<path id="XMLID_301_" fill="#FFFFFF" d="M59.213,32.882c0.755,0,1.662-0.165,2.719-0.495v3.214
			c-1.076,0.482-2.398,0.723-3.965,0.723c-1.728,0-2.985-0.437-3.774-1.31c-0.788-0.873-1.182-2.184-1.182-3.93v-7.632h-2.067
			v-1.827l2.379-1.444l1.246-3.342h2.761v3.37h4.432v3.243H57.33v7.632c0,0.613,0.172,1.066,0.517,1.359
			C58.191,32.736,58.647,32.882,59.213,32.882z"/>
		<path id="XMLID_303_" fill="#FFFFFF" d="M76.347,36.04l-0.581-2.025H75.54c-0.462,0.736-1.119,1.306-1.968,1.707
			s-1.817,0.602-2.903,0.602c-1.86,0-3.262-0.498-4.206-1.494s-1.416-2.428-1.416-4.297V20.209h4.319v9.247
			c0,1.142,0.203,1.998,0.609,2.569s1.053,0.856,1.94,0.856c1.208,0,2.082-0.403,2.62-1.21c0.538-0.808,0.807-2.146,0.807-4.015
			v-7.448h4.319V36.04H76.347z"/>
		<path id="XMLID_305_" fill="#FFFFFF" d="M93.028,19.911c0.585,0,1.071,0.043,1.458,0.128l-0.326,4.05
			c-0.349-0.095-0.774-0.142-1.274-0.142c-1.378,0-2.452,0.354-3.222,1.062c-0.769,0.709-1.154,1.699-1.154,2.975v8.057h-4.319
			V20.209h3.271l0.637,2.662h0.212c0.491-0.888,1.154-1.603,1.99-2.146C91.137,20.183,92.046,19.911,93.028,19.911z"/>
		<path id="XMLID_307_" fill="#FFFFFF" d="M111.974,36.04h-4.319v-9.246c0-1.143-0.203-1.999-0.609-2.57s-1.053-0.857-1.94-0.857
			c-1.208,0-2.082,0.404-2.62,1.211c-0.538,0.808-0.807,2.146-0.807,4.015v7.448h-4.319V20.209h3.299l0.581,2.024h0.241
			c0.481-0.764,1.145-1.343,1.99-1.734c0.845-0.392,1.805-0.588,2.881-0.588c1.841,0,3.238,0.498,4.191,1.494s1.43,2.434,1.43,4.312
			V36.04z"/>
		<path id="XMLID_309_" fill="#FFFFFF" d="M138.34,28.097c0,2.576-0.68,4.592-2.039,6.046s-3.252,2.181-5.678,2.181
			c-1.52,0-2.86-0.333-4.021-0.998c-1.161-0.666-2.053-1.621-2.676-2.867s-0.935-2.7-0.935-4.361c0-2.587,0.675-4.598,2.025-6.033
			c1.35-1.435,3.248-2.152,5.692-2.152c1.52,0,2.86,0.331,4.021,0.992c1.161,0.66,2.053,1.609,2.676,2.846
			S138.34,26.435,138.34,28.097z M127.395,28.097c0,1.566,0.257,2.751,0.772,3.554c0.514,0.803,1.352,1.204,2.513,1.204
			c1.152,0,1.98-0.399,2.485-1.197c0.505-0.798,0.758-1.984,0.758-3.561c0-1.567-0.255-2.743-0.765-3.526s-1.345-1.175-2.506-1.175
			c-1.152,0-1.982,0.389-2.492,1.168C127.649,25.342,127.395,26.52,127.395,28.097z"/>
		<path id="XMLID_312_" fill="#FFFFFF" d="M156.522,36.04h-4.319v-9.246c0-1.143-0.203-1.999-0.609-2.57s-1.053-0.857-1.94-0.857
			c-1.208,0-2.082,0.404-2.62,1.211c-0.538,0.808-0.807,2.146-0.807,4.015v7.448h-4.319V20.209h3.299l0.581,2.024h0.241
			c0.481-0.764,1.145-1.343,1.99-1.734c0.845-0.392,1.805-0.588,2.881-0.588c1.841,0,3.238,0.498,4.191,1.494s1.43,2.434,1.43,4.312
			V36.04z"/>
		<path id="XMLID_314_" fill="#FFFFFF" d="M16.082,50.916c0-1.406,0.784-2.109,2.351-2.109s2.351,0.703,2.351,2.109
			c0,0.671-0.196,1.192-0.587,1.565c-0.392,0.373-0.979,0.56-1.763,0.56C16.865,53.041,16.082,52.332,16.082,50.916z M20.584,70.84
			h-4.319V55.009h4.319V70.84z"/>
		<path id="XMLID_317_" fill="#FFFFFF" d="M39.729,70.84H35.41v-9.246c0-1.143-0.203-1.999-0.609-2.57s-1.053-0.857-1.94-0.857
			c-1.208,0-2.082,0.404-2.62,1.211c-0.538,0.808-0.807,2.146-0.807,4.015v7.448h-4.319V55.009h3.299l0.581,2.024h0.241
			c0.481-0.764,1.145-1.343,1.99-1.734c0.845-0.392,1.805-0.588,2.881-0.588c1.841,0,3.238,0.498,4.191,1.494s1.43,2.434,1.43,4.312
			V70.84z"/>
		<path id="XMLID_319_" fill="#FFFFFF" d="M47.942,70.84L41.91,55.009h4.517l3.059,9.021c0.34,1.142,0.552,2.223,0.637,3.242h0.085
			c0.047-0.906,0.26-1.987,0.637-3.242l3.044-9.021h4.517L52.374,70.84H47.942z"/>
		<path id="XMLID_321_" fill="#FFFFFF" d="M67.837,71.123c-2.549,0-4.541-0.703-5.976-2.109c-1.435-1.407-2.152-3.398-2.152-5.977
			c0-2.652,0.663-4.703,1.989-6.152c1.327-1.449,3.16-2.174,5.501-2.174c2.237,0,3.979,0.638,5.225,1.912s1.869,3.035,1.869,5.281
			V64H64.084c0.047,1.228,0.411,2.186,1.09,2.875s1.633,1.033,2.86,1.033c0.954,0,1.855-0.099,2.705-0.297s1.737-0.515,2.662-0.949
			v3.342c-0.755,0.378-1.562,0.659-2.421,0.843C70.122,71.031,69.074,71.123,67.837,71.123z M67.228,57.784
			c-0.916,0-1.633,0.29-2.152,0.871c-0.519,0.58-0.816,1.404-0.892,2.471h6.061c-0.019-1.066-0.297-1.891-0.835-2.471
			C68.871,58.074,68.144,57.784,67.228,57.784z"/>
		<path id="XMLID_324_" fill="#FFFFFF" d="M88.851,66.139c0,1.624-0.564,2.86-1.692,3.71c-1.128,0.85-2.815,1.274-5.062,1.274
			c-1.152,0-2.133-0.078-2.945-0.233c-0.812-0.156-1.572-0.385-2.28-0.687v-3.568c0.802,0.377,1.706,0.693,2.712,0.948
			c1.005,0.255,1.89,0.382,2.655,0.382c1.567,0,2.351-0.453,2.351-1.359c0-0.34-0.104-0.615-0.312-0.828
			c-0.208-0.212-0.566-0.453-1.076-0.722c-0.51-0.27-1.189-0.583-2.039-0.942c-1.218-0.51-2.112-0.981-2.683-1.416
			c-0.571-0.434-0.987-0.932-1.246-1.493c-0.26-0.562-0.39-1.253-0.39-2.075c0-1.406,0.545-2.494,1.636-3.264
			c1.09-0.77,2.636-1.154,4.637-1.154c1.907,0,3.762,0.416,5.565,1.246l-1.303,3.115c-0.793-0.34-1.534-0.618-2.223-0.835
			s-1.393-0.325-2.11-0.325c-1.274,0-1.912,0.344-1.912,1.033c0,0.387,0.206,0.723,0.616,1.006c0.411,0.283,1.31,0.703,2.698,1.26
			c1.237,0.5,2.143,0.968,2.719,1.402c0.576,0.434,1,0.934,1.274,1.5S88.851,65.355,88.851,66.139z"/>
		<path id="XMLID_326_" fill="#FFFFFF" d="M98.89,67.682c0.755,0,1.662-0.165,2.719-0.495V70.4
			c-1.076,0.482-2.398,0.723-3.965,0.723c-1.728,0-2.985-0.437-3.774-1.31c-0.788-0.873-1.182-2.184-1.182-3.93v-7.632h-2.067
			v-1.827L93,54.98l1.246-3.342h2.761v3.37h4.432v3.243h-4.432v7.632c0,0.613,0.172,1.066,0.517,1.359
			C97.868,67.536,98.324,67.682,98.89,67.682z"/>
		<path id="XMLID_328_" fill="#FFFFFF" d="M118.983,70.84h-4.319v-9.246c0-1.143-0.191-1.999-0.573-2.57
			c-0.383-0.571-0.984-0.857-1.806-0.857c-1.104,0-1.907,0.406-2.407,1.219c-0.5,0.812-0.75,2.147-0.75,4.007v7.448h-4.319V55.009
			h3.299l0.581,2.024h0.241c0.425-0.727,1.039-1.295,1.841-1.706c0.802-0.41,1.723-0.616,2.761-0.616
			c2.37,0,3.974,0.774,4.814,2.322h0.382c0.425-0.736,1.05-1.307,1.876-1.713c0.826-0.406,1.758-0.609,2.796-0.609
			c1.793,0,3.151,0.461,4.071,1.381c0.921,0.921,1.381,2.396,1.381,4.426V70.84h-4.333v-9.246c0-1.143-0.191-1.999-0.573-2.57
			c-0.383-0.571-0.984-0.857-1.806-0.857c-1.057,0-1.848,0.378-2.372,1.133c-0.523,0.756-0.786,1.955-0.786,3.598V70.84z"/>
		<path id="XMLID_330_" fill="#FFFFFF" d="M140.45,71.123c-2.549,0-4.541-0.703-5.976-2.109c-1.435-1.407-2.152-3.398-2.152-5.977
			c0-2.652,0.663-4.703,1.989-6.152c1.327-1.449,3.16-2.174,5.501-2.174c2.237,0,3.979,0.638,5.225,1.912s1.869,3.035,1.869,5.281
			V64h-10.209c0.047,1.228,0.411,2.186,1.09,2.875s1.633,1.033,2.86,1.033c0.954,0,1.855-0.099,2.705-0.297s1.737-0.515,2.662-0.949
			v3.342c-0.755,0.378-1.562,0.659-2.421,0.843C142.735,71.031,141.687,71.123,140.45,71.123z M139.841,57.784
			c-0.916,0-1.633,0.29-2.152,0.871c-0.519,0.58-0.816,1.404-0.892,2.471h6.061c-0.019-1.066-0.297-1.891-0.835-2.471
			C141.484,58.074,140.757,57.784,139.841,57.784z"/>
		<path id="XMLID_333_" fill="#FFFFFF" d="M165.032,70.84h-4.319v-9.246c0-1.143-0.203-1.999-0.609-2.57s-1.053-0.857-1.94-0.857
			c-1.208,0-2.082,0.404-2.62,1.211c-0.538,0.808-0.807,2.146-0.807,4.015v7.448h-4.319V55.009h3.299l0.581,2.024h0.241
			c0.481-0.764,1.145-1.343,1.99-1.734c0.845-0.392,1.805-0.588,2.881-0.588c1.841,0,3.238,0.498,4.191,1.494s1.43,2.434,1.43,4.312
			V70.84z"/>
		<path id="XMLID_335_" fill="#FFFFFF" d="M176.148,67.682c0.755,0,1.662-0.165,2.719-0.495V70.4
			c-1.076,0.482-2.398,0.723-3.965,0.723c-1.728,0-2.985-0.437-3.774-1.31c-0.788-0.873-1.182-2.184-1.182-3.93v-7.632h-2.067
			v-1.827l2.379-1.444l1.246-3.342h2.761v3.37h4.432v3.243h-4.432v7.632c0,0.613,0.172,1.066,0.517,1.359
			C175.126,67.536,175.582,67.682,176.148,67.682z"/>
		<path id="XMLID_337_" fill="#FFFFFF" d="M181.458,57.119c0-0.793,0.212-1.393,0.637-1.799s1.043-0.609,1.855-0.609
			c0.784,0,1.39,0.208,1.82,0.623c0.429,0.416,0.644,1.011,0.644,1.785c0,0.764-0.219,1.356-0.659,1.776
			c-0.438,0.42-1.041,0.63-1.805,0.63c-0.793,0-1.407-0.207-1.841-0.623C181.675,58.487,181.458,57.893,181.458,57.119z
			 M181.458,68.814c0-0.793,0.212-1.392,0.637-1.798s1.043-0.608,1.855-0.608c0.784,0,1.39,0.207,1.82,0.623
			c0.429,0.415,0.644,1.01,0.644,1.783c0,0.746-0.217,1.334-0.651,1.764s-1.039,0.645-1.812,0.645c-0.793,0-1.407-0.211-1.841-0.631
			S181.458,69.58,181.458,68.814z"/>
	</g>
	<g id="XMLID_280_">
		<path id="XMLID_281_" fill="#FFFFFF" d="M32.697,128.2h-5.733v-15.697l0.056-2.579l0.093-2.82
			c-0.953,0.953-1.614,1.577-1.985,1.874l-3.117,2.505l-2.765-3.451l8.739-6.958h4.713V128.2z"/>
		<path id="XMLID_283_" fill="#FFFFFF" d="M59.026,114.637c0,4.738-0.776,8.245-2.329,10.521c-1.553,2.276-3.943,3.414-7.171,3.414
			c-3.13,0-5.489-1.175-7.079-3.525c-1.59-2.35-2.384-5.819-2.384-10.409c0-4.787,0.773-8.315,2.319-10.585
			c1.546-2.271,3.927-3.405,7.144-3.405c3.129,0,5.495,1.188,7.097,3.562C58.225,106.584,59.026,110.061,59.026,114.637z
			 M45.76,114.637c0,3.328,0.288,5.712,0.863,7.153c0.575,1.44,1.543,2.161,2.904,2.161c1.336,0,2.301-0.729,2.895-2.189
			c0.594-1.459,0.891-3.834,0.891-7.125c0-3.327-0.3-5.718-0.9-7.171c-0.6-1.454-1.562-2.181-2.885-2.181
			c-1.349,0-2.313,0.727-2.895,2.181C46.05,108.919,45.76,111.31,45.76,114.637z"/>
		<path id="XMLID_286_" fill="#FFFFFF" d="M76.078,128.2h-5.733v-15.697l0.056-2.579l0.093-2.82
			c-0.953,0.953-1.614,1.577-1.985,1.874l-3.117,2.505l-2.765-3.451l8.739-6.958h4.713V128.2z"/>
		<path id="XMLID_288_" fill="#FFFFFF" d="M96.136,109.163c0,2.846-0.551,4.982-1.651,6.41c-1.101,1.43-2.715,2.144-4.843,2.144
			c-2.041,0-3.618-0.733-4.731-2.198c-1.113-1.467-1.67-3.584-1.67-6.355c0-5.652,2.134-8.479,6.401-8.479
			c2.09,0,3.695,0.733,4.815,2.198C95.576,104.349,96.136,106.442,96.136,109.163z M87.916,109.2c0,1.571,0.139,2.743,0.417,3.516
			c0.278,0.773,0.727,1.16,1.345,1.16c1.188,0,1.781-1.559,1.781-4.676c0-3.092-0.594-4.639-1.781-4.639
			c-0.619,0-1.067,0.381-1.345,1.141C88.055,106.464,87.916,107.63,87.916,109.2z M108.901,101.073L93.854,128.2H89.4l15.048-27.127
			H108.901z M115.136,119.999c0,2.833-0.551,4.963-1.651,6.393c-1.101,1.428-2.715,2.143-4.843,2.143
			c-2.041,0-3.618-0.732-4.731-2.199c-1.113-1.465-1.67-3.577-1.67-6.336c0-5.652,2.134-8.479,6.401-8.479
			c2.09,0,3.695,0.733,4.815,2.198C114.576,115.185,115.136,117.278,115.136,119.999z M106.916,120.036
			c0,1.571,0.139,2.743,0.417,3.516c0.278,0.773,0.727,1.16,1.345,1.16c1.188,0,1.781-1.559,1.781-4.676
			c0-3.092-0.594-4.639-1.781-4.639c-0.619,0-1.067,0.381-1.345,1.141C107.055,117.3,106.916,118.466,106.916,120.036z"/>
	</g>
	<g id="XMLID_249_">
		<path id="XMLID_250_" fill="#FFFFFF" d="M280.262,119.721c0,1.967-0.711,3.547-2.134,4.741c-1.423,1.193-3.414,1.908-5.975,2.143
			v3.804h-2.542v-3.729c-3.019-0.062-5.666-0.594-7.941-1.596v-4.898c1.076,0.532,2.372,1.002,3.887,1.41
			c1.515,0.408,2.867,0.649,4.054,0.724v-5.752l-1.243-0.482c-2.449-0.965-4.184-2.013-5.205-3.146
			c-1.021-1.131-1.531-2.532-1.531-4.202c0-1.793,0.702-3.269,2.106-4.425c1.404-1.157,3.361-1.858,5.873-2.106v-2.839h2.542v2.765
			c2.833,0.124,5.393,0.693,7.682,1.707l-1.744,4.342c-1.93-0.791-3.909-1.273-5.938-1.447v5.474
			c2.412,0.928,4.128,1.732,5.149,2.412c1.021,0.681,1.769,1.429,2.245,2.245C280.023,117.68,280.262,118.633,280.262,119.721z
			 M267.218,108.736c0,0.545,0.188,0.993,0.566,1.345c0.377,0.354,0.986,0.715,1.828,1.086v-4.36
			C268.016,107.042,267.218,107.686,267.218,108.736z M274.677,119.999c0-0.52-0.21-0.958-0.631-1.317
			c-0.421-0.358-1.052-0.729-1.893-1.113v4.62C273.835,121.904,274.677,121.175,274.677,119.999z"/>
		<path id="XMLID_254_" fill="#FFFFFF" d="M283.026,116.678c0-5.368,1.135-9.363,3.405-11.986c2.27-2.622,5.668-3.934,10.196-3.934
			c1.546,0,2.758,0.093,3.637,0.278v4.583c-1.101-0.247-2.189-0.371-3.266-0.371c-1.967,0-3.572,0.297-4.815,0.891
			s-2.174,1.473-2.792,2.635c-0.619,1.163-0.983,2.814-1.095,4.954h0.241c1.225-2.103,3.185-3.154,5.882-3.154
			c2.424,0,4.323,0.761,5.696,2.282s2.06,3.625,2.06,6.309c0,2.895-0.816,5.187-2.449,6.874c-1.633,1.689-3.896,2.533-6.791,2.533
			c-2.004,0-3.751-0.464-5.242-1.392c-1.491-0.928-2.641-2.282-3.451-4.063C283.431,121.335,283.026,119.189,283.026,116.678z
			 M292.823,123.988c1.225,0,2.165-0.411,2.82-1.233c0.655-0.823,0.983-1.995,0.983-3.517c0-1.323-0.306-2.366-0.918-3.126
			c-0.612-0.762-1.537-1.142-2.774-1.142c-1.163,0-2.156,0.378-2.978,1.132c-0.823,0.755-1.234,1.633-1.234,2.635
			c0,1.473,0.386,2.716,1.16,3.729C290.655,123.481,291.636,123.988,292.823,123.988z"/>
		<path id="XMLID_257_" fill="#FFFFFF" d="M311.897,124.211c-0.644,2.499-1.732,5.461-3.266,8.888h-4.082
			c0.804-3.291,1.429-6.395,1.874-9.314h5.195L311.897,124.211z"/>
		<path id="XMLID_259_" fill="#FFFFFF" d="M325.275,100.721c2.598,0,4.691,0.591,6.281,1.772c1.589,1.181,2.384,2.773,2.384,4.777
			c0,1.386-0.384,2.619-1.15,3.701c-0.767,1.083-2.004,2.051-3.711,2.904c2.028,1.089,3.485,2.224,4.37,3.404
			c0.884,1.182,1.327,2.478,1.327,3.888c0,2.227-0.872,4.017-2.616,5.372c-1.744,1.354-4.039,2.031-6.884,2.031
			c-2.969,0-5.301-0.631-6.995-1.893c-1.695-1.262-2.542-3.049-2.542-5.362c0-1.546,0.411-2.919,1.234-4.119
			c0.822-1.199,2.143-2.257,3.961-3.173c-1.546-0.977-2.66-2.022-3.34-3.136c-0.681-1.113-1.021-2.331-1.021-3.655
			c0-1.941,0.804-3.513,2.412-4.713C320.593,101.321,322.69,100.721,325.275,100.721z M321.045,120.982
			c0,1.064,0.371,1.893,1.113,2.486s1.756,0.891,3.043,0.891c1.422,0,2.486-0.306,3.191-0.919c0.705-0.611,1.058-1.419,1.058-2.421
			c0-0.828-0.35-1.604-1.048-2.329c-0.699-0.723-1.834-1.493-3.405-2.31C322.362,117.594,321.045,119.127,321.045,120.982z
			 M325.238,104.914c-0.978,0-1.766,0.251-2.366,0.751c-0.6,0.502-0.9,1.173-0.9,2.014c0,0.742,0.238,1.407,0.714,1.994
			c0.476,0.588,1.339,1.191,2.588,1.81c1.212-0.568,2.06-1.15,2.542-1.744s0.724-1.28,0.724-2.06c0-0.854-0.31-1.527-0.928-2.022
			C326.995,105.162,326.203,104.914,325.238,104.914z"/>
		<path id="XMLID_263_" fill="#FFFFFF" d="M346.966,100.721c2.598,0,4.691,0.591,6.281,1.772c1.589,1.181,2.384,2.773,2.384,4.777
			c0,1.386-0.384,2.619-1.15,3.701c-0.767,1.083-2.004,2.051-3.711,2.904c2.028,1.089,3.485,2.224,4.37,3.404
			c0.884,1.182,1.327,2.478,1.327,3.888c0,2.227-0.872,4.017-2.616,5.372c-1.744,1.354-4.039,2.031-6.884,2.031
			c-2.969,0-5.301-0.631-6.995-1.893c-1.695-1.262-2.542-3.049-2.542-5.362c0-1.546,0.411-2.919,1.234-4.119
			c0.822-1.199,2.143-2.257,3.961-3.173c-1.546-0.977-2.66-2.022-3.34-3.136c-0.681-1.113-1.021-2.331-1.021-3.655
			c0-1.941,0.804-3.513,2.412-4.713C342.284,101.321,344.38,100.721,346.966,100.721z M342.735,120.982
			c0,1.064,0.371,1.893,1.113,2.486s1.756,0.891,3.043,0.891c1.422,0,2.486-0.306,3.191-0.919c0.705-0.611,1.058-1.419,1.058-2.421
			c0-0.828-0.35-1.604-1.048-2.329c-0.699-0.723-1.834-1.493-3.405-2.31C344.053,117.594,342.735,119.127,342.735,120.982z
			 M346.929,104.914c-0.978,0-1.766,0.251-2.366,0.751c-0.6,0.502-0.9,1.173-0.9,2.014c0,0.742,0.238,1.407,0.714,1.994
			c0.476,0.588,1.339,1.191,2.588,1.81c1.212-0.568,2.06-1.15,2.542-1.744s0.724-1.28,0.724-2.06c0-0.854-0.31-1.527-0.928-2.022
			C348.685,105.162,347.894,104.914,346.929,104.914z"/>
		<path id="XMLID_267_" fill="#FFFFFF" d="M369.176,110.87c2.622,0,4.709,0.736,6.262,2.208c1.552,1.473,2.329,3.488,2.329,6.049
			c0,3.031-0.934,5.362-2.802,6.995c-1.868,1.633-4.54,2.449-8.016,2.449c-3.019,0-5.455-0.488-7.311-1.466v-4.954
			c0.977,0.52,2.115,0.943,3.414,1.271c1.299,0.327,2.529,0.491,3.692,0.491c3.5,0,5.251-1.435,5.251-4.305
			c0-2.733-1.812-4.101-5.437-4.101c-0.656,0-1.379,0.064-2.171,0.195c-0.792,0.129-1.435,0.269-1.93,0.417l-2.282-1.225
			l1.021-13.823h14.714v4.861h-9.686l-0.501,5.325l0.649-0.13C367.128,110.957,368.062,110.87,369.176,110.87z"/>
		<path id="XMLID_269_" fill="#FFFFFF" d="M387.99,124.211c-0.644,2.499-1.732,5.461-3.266,8.888h-4.082
			c0.804-3.291,1.429-6.395,1.874-9.314h5.195L387.99,124.211z"/>
		<path id="XMLID_271_" fill="#FFFFFF" d="M410.831,114.637c0,4.738-0.776,8.245-2.329,10.521c-1.553,2.276-3.943,3.414-7.171,3.414
			c-3.13,0-5.489-1.175-7.079-3.525c-1.59-2.35-2.384-5.819-2.384-10.409c0-4.787,0.773-8.315,2.319-10.585
			c1.546-2.271,3.927-3.405,7.144-3.405c3.129,0,5.495,1.188,7.097,3.562C410.03,106.584,410.831,110.061,410.831,114.637z
			 M397.564,114.637c0,3.328,0.288,5.712,0.863,7.153c0.575,1.44,1.543,2.161,2.904,2.161c1.336,0,2.301-0.729,2.895-2.189
			c0.594-1.459,0.891-3.834,0.891-7.125c0-3.327-0.3-5.718-0.9-7.171c-0.6-1.454-1.562-2.181-2.885-2.181
			c-1.349,0-2.313,0.727-2.895,2.181C397.855,108.919,397.564,111.31,397.564,114.637z"/>
		<path id="XMLID_274_" fill="#FFFFFF" d="M432.521,114.637c0,4.738-0.776,8.245-2.329,10.521c-1.553,2.276-3.943,3.414-7.171,3.414
			c-3.13,0-5.489-1.175-7.079-3.525c-1.59-2.35-2.384-5.819-2.384-10.409c0-4.787,0.773-8.315,2.319-10.585
			c1.546-2.271,3.927-3.405,7.144-3.405c3.129,0,5.495,1.188,7.097,3.562C431.72,106.584,432.521,110.061,432.521,114.637z
			 M419.255,114.637c0,3.328,0.288,5.712,0.863,7.153c0.575,1.44,1.543,2.161,2.904,2.161c1.336,0,2.301-0.729,2.895-2.189
			c0.594-1.459,0.891-3.834,0.891-7.125c0-3.327-0.3-5.718-0.9-7.171c-0.6-1.454-1.562-2.181-2.885-2.181
			c-1.349,0-2.313,0.727-2.895,2.181C419.545,108.919,419.255,111.31,419.255,114.637z"/>
		<path id="XMLID_277_" fill="#FFFFFF" d="M454.212,114.637c0,4.738-0.776,8.245-2.329,10.521c-1.553,2.276-3.943,3.414-7.171,3.414
			c-3.13,0-5.489-1.175-7.079-3.525c-1.59-2.35-2.384-5.819-2.384-10.409c0-4.787,0.773-8.315,2.319-10.585
			c1.546-2.271,3.927-3.405,7.144-3.405c3.129,0,5.495,1.188,7.097,3.562C453.411,106.584,454.212,110.061,454.212,114.637z
			 M440.945,114.637c0,3.328,0.288,5.712,0.863,7.153c0.575,1.44,1.543,2.161,2.904,2.161c1.336,0,2.301-0.729,2.895-2.189
			c0.594-1.459,0.891-3.834,0.891-7.125c0-3.327-0.3-5.718-0.9-7.171c-0.6-1.454-1.562-2.181-2.885-2.181
			c-1.349,0-2.313,0.727-2.895,2.181C441.236,108.919,440.945,111.31,440.945,114.637z"/>
	</g>
	<g id="XMLID_222_">
		<path id="XMLID_223_" fill="#FFFFFF" d="M530.262,119.721c0,1.967-0.711,3.547-2.134,4.741c-1.423,1.193-3.414,1.908-5.975,2.143
			v3.804h-2.542v-3.729c-3.019-0.062-5.666-0.594-7.941-1.596v-4.898c1.076,0.532,2.371,1.002,3.887,1.41s2.867,0.649,4.055,0.724
			v-5.752l-1.243-0.482c-2.449-0.965-4.185-2.013-5.204-3.146c-1.021-1.131-1.531-2.532-1.531-4.202
			c0-1.793,0.701-3.269,2.105-4.425c1.404-1.157,3.361-1.858,5.873-2.106v-2.839h2.542v2.765c2.833,0.124,5.394,0.693,7.682,1.707
			l-1.744,4.342c-1.93-0.791-3.909-1.273-5.938-1.447v5.474c2.412,0.928,4.128,1.732,5.149,2.412
			c1.02,0.681,1.768,1.429,2.244,2.245S530.262,118.633,530.262,119.721z M517.218,108.736c0,0.545,0.188,0.993,0.565,1.345
			c0.377,0.354,0.986,0.715,1.828,1.086v-4.36C518.016,107.042,517.218,107.686,517.218,108.736z M524.677,119.999
			c0-0.52-0.21-0.958-0.631-1.317c-0.421-0.358-1.052-0.729-1.893-1.113v4.62C523.836,121.904,524.677,121.175,524.677,119.999z"/>
		<path id="XMLID_227_" fill="#FFFFFF" d="M547.388,128.2h-5.733v-15.697l0.056-2.579l0.093-2.82
			c-0.953,0.953-1.614,1.577-1.985,1.874l-3.117,2.505l-2.765-3.451l8.739-6.958h4.713V128.2z"/>
		<path id="XMLID_229_" fill="#FFFFFF" d="M561.897,124.211c-0.644,2.499-1.731,5.461-3.266,8.888h-4.082
			c0.804-3.291,1.429-6.395,1.874-9.314h5.195L561.897,124.211z"/>
		<path id="XMLID_231_" fill="#FFFFFF" d="M585.499,122.578h-3.266v5.622h-5.604v-5.622h-11.578v-3.989l11.894-17.516h5.288v17.052
			h3.266V122.578z M576.63,118.125v-4.602c0-0.767,0.03-1.88,0.093-3.34c0.062-1.459,0.111-2.307,0.148-2.542h-0.148
			c-0.458,1.015-1.008,2.004-1.651,2.969l-4.973,7.515H576.63z"/>
		<path id="XMLID_234_" fill="#FFFFFF" d="M590.305,128.2l10.187-22.266h-13.378v-4.824h19.464v3.6l-10.261,23.49H590.305z"/>
		<path id="XMLID_236_" fill="#FFFFFF" d="M618.656,100.721c2.598,0,4.691,0.591,6.281,1.772c1.589,1.181,2.384,2.773,2.384,4.777
			c0,1.386-0.384,2.619-1.15,3.701c-0.767,1.083-2.004,2.051-3.711,2.904c2.028,1.089,3.485,2.224,4.37,3.404
			c0.884,1.182,1.326,2.478,1.326,3.888c0,2.227-0.872,4.017-2.616,5.372c-1.744,1.354-4.039,2.031-6.884,2.031
			c-2.969,0-5.301-0.631-6.995-1.893s-2.542-3.049-2.542-5.362c0-1.546,0.411-2.919,1.234-4.119
			c0.822-1.199,2.143-2.257,3.961-3.173c-1.547-0.977-2.66-2.022-3.34-3.136c-0.681-1.113-1.021-2.331-1.021-3.655
			c0-1.941,0.804-3.513,2.412-4.713C613.975,101.321,616.07,100.721,618.656,100.721z M614.426,120.982
			c0,1.064,0.371,1.893,1.113,2.486s1.756,0.891,3.043,0.891c1.422,0,2.486-0.306,3.191-0.919c0.705-0.611,1.058-1.419,1.058-2.421
			c0-0.828-0.35-1.604-1.048-2.329c-0.699-0.723-1.834-1.493-3.405-2.31C615.743,117.594,614.426,119.127,614.426,120.982z
			 M618.619,104.914c-0.978,0-1.766,0.251-2.365,0.751c-0.601,0.502-0.9,1.173-0.9,2.014c0,0.742,0.238,1.407,0.715,1.994
			c0.476,0.588,1.338,1.191,2.588,1.81c1.212-0.568,2.06-1.15,2.542-1.744s0.724-1.28,0.724-2.06c0-0.854-0.31-1.527-0.928-2.022
			C620.375,105.162,619.584,104.914,618.619,104.914z"/>
		<path id="XMLID_240_" fill="#FFFFFF" d="M637.99,124.211c-0.644,2.499-1.732,5.461-3.266,8.888h-4.082
			c0.804-3.291,1.429-6.395,1.874-9.314h5.195L637.99,124.211z"/>
		<path id="XMLID_242_" fill="#FFFFFF" d="M660.979,128.2h-18.963v-3.989l6.81-6.884c2.016-2.065,3.334-3.498,3.952-4.295
			c0.618-0.799,1.063-1.537,1.336-2.218c0.272-0.68,0.408-1.385,0.408-2.115c0-1.088-0.3-1.898-0.899-2.431
			c-0.601-0.531-1.401-0.798-2.403-0.798c-1.052,0-2.072,0.241-3.062,0.724c-0.99,0.482-2.022,1.169-3.099,2.06l-3.117-3.692
			c1.336-1.138,2.442-1.941,3.321-2.412c0.878-0.47,1.837-0.832,2.876-1.086c1.039-0.253,2.202-0.38,3.488-0.38
			c1.694,0,3.191,0.31,4.49,0.928c1.299,0.619,2.307,1.484,3.024,2.598c0.717,1.113,1.076,2.388,1.076,3.822
			c0,1.25-0.22,2.421-0.658,3.517c-0.439,1.094-1.12,2.217-2.041,3.367c-0.922,1.15-2.546,2.79-4.871,4.917l-3.488,3.284v0.26
			h11.819V128.2z"/>
		<path id="XMLID_244_" fill="#FFFFFF" d="M682.559,112.651c0,5.344-1.126,9.333-3.377,11.968
			c-2.252,2.635-5.659,3.952-10.224,3.952c-1.608,0-2.827-0.087-3.655-0.26v-4.602c1.039,0.26,2.127,0.39,3.266,0.39
			c1.917,0,3.494-0.281,4.731-0.845c1.237-0.562,2.183-1.447,2.839-2.652c0.655-1.207,1.033-2.867,1.132-4.982h-0.223
			c-0.718,1.163-1.546,1.979-2.486,2.449c-0.94,0.471-2.115,0.705-3.525,0.705c-2.362,0-4.225-0.758-5.585-2.273
			c-1.361-1.515-2.041-3.62-2.041-6.317c0-2.906,0.826-5.204,2.477-6.894c1.652-1.688,3.9-2.532,6.745-2.532
			c2.004,0,3.757,0.471,5.261,1.41c1.502,0.94,2.656,2.304,3.46,4.091C682.156,108.047,682.559,110.178,682.559,112.651z
			 M672.743,105.359c-1.188,0-2.115,0.408-2.783,1.225s-1.002,1.992-1.002,3.525c0,1.312,0.303,2.351,0.909,3.117
			c0.605,0.768,1.527,1.15,2.765,1.15c1.163,0,2.158-0.38,2.987-1.142c0.828-0.76,1.243-1.635,1.243-2.625
			c0-1.472-0.387-2.715-1.159-3.729C674.93,105.867,673.943,105.359,672.743,105.359z"/>
		<path id="XMLID_247_" fill="#FFFFFF" d="M695.269,110.87c2.622,0,4.71,0.736,6.263,2.208c1.552,1.473,2.328,3.488,2.328,6.049
			c0,3.031-0.934,5.362-2.802,6.995s-4.54,2.449-8.016,2.449c-3.019,0-5.455-0.488-7.311-1.466v-4.954
			c0.978,0.52,2.115,0.943,3.414,1.271c1.299,0.327,2.529,0.491,3.692,0.491c3.5,0,5.251-1.435,5.251-4.305
			c0-2.733-1.812-4.101-5.437-4.101c-0.656,0-1.379,0.064-2.171,0.195c-0.792,0.129-1.435,0.269-1.93,0.417l-2.282-1.225
			l1.021-13.823h14.714v4.861h-9.686l-0.501,5.325l0.649-0.13C693.221,110.957,694.155,110.87,695.269,110.87z"/>
	</g>
	<g id="XMLID_200_">
		<path id="XMLID_201_" fill="#FFFFFF" d="M767.697,128.2h-5.733v-15.697l0.056-2.579l0.093-2.82
			c-0.952,0.953-1.614,1.577-1.985,1.874l-3.117,2.505l-2.765-3.451l8.739-6.958h4.713V128.2z"/>
		<path id="XMLID_203_" fill="#FFFFFF" d="M785.083,110.87c2.622,0,4.71,0.736,6.263,2.208c1.552,1.473,2.328,3.488,2.328,6.049
			c0,3.031-0.934,5.362-2.802,6.995s-4.54,2.449-8.016,2.449c-3.019,0-5.455-0.488-7.311-1.466v-4.954
			c0.978,0.52,2.115,0.943,3.414,1.271c1.299,0.327,2.529,0.491,3.692,0.491c3.5,0,5.251-1.435,5.251-4.305
			c0-2.733-1.812-4.101-5.437-4.101c-0.656,0-1.379,0.064-2.171,0.195c-0.792,0.129-1.435,0.269-1.93,0.417l-2.282-1.225
			l1.021-13.823h14.714v4.861h-9.686l-0.501,5.325l0.649-0.13C783.035,110.957,783.97,110.87,785.083,110.87z"/>
		<path id="XMLID_205_" fill="#FFFFFF" d="M797.552,125.547c0-1.039,0.278-1.824,0.835-2.356c0.557-0.531,1.367-0.798,2.431-0.798
			c1.026,0,1.821,0.272,2.384,0.816c0.562,0.545,0.845,1.324,0.845,2.338c0,0.978-0.284,1.747-0.854,2.31
			c-0.569,0.563-1.36,0.845-2.375,0.845c-1.039,0-1.843-0.275-2.412-0.825C797.836,127.325,797.552,126.549,797.552,125.547z"/>
		<path id="XMLID_207_" fill="#FFFFFF" d="M817.609,110.87c2.622,0,4.709,0.736,6.262,2.208c1.553,1.473,2.329,3.488,2.329,6.049
			c0,3.031-0.935,5.362-2.802,6.995c-1.868,1.633-4.54,2.449-8.016,2.449c-3.019,0-5.455-0.488-7.311-1.466v-4.954
			c0.977,0.52,2.115,0.943,3.414,1.271c1.299,0.327,2.529,0.491,3.692,0.491c3.501,0,5.251-1.435,5.251-4.305
			c0-2.733-1.812-4.101-5.437-4.101c-0.655,0-1.38,0.064-2.171,0.195c-0.792,0.129-1.436,0.269-1.93,0.417l-2.282-1.225
			l1.021-13.823h14.714v4.861h-9.686l-0.501,5.325l0.649-0.13C815.562,110.957,816.496,110.87,817.609,110.87z"/>
		<path id="XMLID_209_" fill="#FFFFFF" d="M854.219,128.2h-4.319v-9.246c0-1.143-0.191-1.999-0.573-2.57
			c-0.383-0.571-0.984-0.857-1.806-0.857c-1.104,0-1.907,0.406-2.407,1.219c-0.5,0.812-0.75,2.147-0.75,4.007v7.448h-4.319v-15.831
			h3.3l0.58,2.024h0.24c0.426-0.727,1.039-1.295,1.842-1.706c0.802-0.41,1.723-0.616,2.761-0.616c2.37,0,3.974,0.774,4.814,2.322
			h0.382c0.426-0.736,1.051-1.307,1.877-1.713s1.758-0.609,2.797-0.609c1.793,0,3.15,0.461,4.07,1.381
			c0.921,0.921,1.381,2.396,1.381,4.426V128.2h-4.333v-9.246c0-1.143-0.191-1.999-0.573-2.57c-0.383-0.571-0.984-0.857-1.806-0.857
			c-1.058,0-1.848,0.378-2.372,1.133c-0.523,0.756-0.785,1.955-0.785,3.598V128.2z"/>
		<path id="XMLID_211_" fill="#FFFFFF" d="M882.906,120.257c0,2.576-0.68,4.592-2.039,6.046s-3.252,2.181-5.678,2.181
			c-1.52,0-2.86-0.333-4.021-0.998c-1.161-0.666-2.053-1.621-2.676-2.867s-0.936-2.7-0.936-4.361c0-2.587,0.676-4.598,2.025-6.033
			c1.35-1.435,3.248-2.152,5.692-2.152c1.521,0,2.86,0.331,4.021,0.992c1.161,0.66,2.054,1.609,2.677,2.846
			S882.906,118.595,882.906,120.257z M871.961,120.257c0,1.566,0.258,2.751,0.771,3.554c0.515,0.803,1.353,1.204,2.514,1.204
			c1.152,0,1.98-0.399,2.484-1.197c0.506-0.798,0.758-1.984,0.758-3.561c0-1.567-0.254-2.743-0.764-3.526s-1.346-1.175-2.507-1.175
			c-1.151,0-1.982,0.389-2.492,1.168C872.216,117.502,871.961,118.68,871.961,120.257z"/>
		<path id="XMLID_214_" fill="#FFFFFF" d="M901.088,128.2h-4.318v-9.246c0-1.143-0.203-1.999-0.609-2.57
			c-0.405-0.571-1.053-0.857-1.939-0.857c-1.209,0-2.082,0.404-2.619,1.211c-0.539,0.808-0.808,2.146-0.808,4.015v7.448h-4.319
			v-15.831h3.3l0.581,2.024h0.24c0.481-0.764,1.145-1.343,1.99-1.734c0.844-0.392,1.805-0.588,2.881-0.588
			c1.841,0,3.238,0.498,4.191,1.494s1.43,2.434,1.43,4.312V128.2z"/>
		<path id="XMLID_216_" fill="#FFFFFF" d="M912.204,125.042c0.755,0,1.661-0.165,2.719-0.495v3.214
			c-1.076,0.482-2.397,0.723-3.965,0.723c-1.728,0-2.985-0.437-3.774-1.31c-0.787-0.873-1.182-2.184-1.182-3.93v-7.632h-2.067
			v-1.827l2.379-1.444l1.246-3.342h2.761v3.37h4.433v3.243h-4.433v7.632c0,0.613,0.173,1.066,0.518,1.359
			C911.182,124.896,911.638,125.042,912.204,125.042z"/>
		<path id="XMLID_218_" fill="#FFFFFF" d="M932.736,128.2h-4.318v-9.246c0-2.285-0.85-3.428-2.549-3.428
			c-1.209,0-2.082,0.411-2.62,1.232s-0.808,2.152-0.808,3.993v7.448h-4.318v-22.033h4.318v4.488c0,0.35-0.033,1.171-0.099,2.465
			l-0.099,1.273h0.227c0.963-1.548,2.492-2.322,4.588-2.322c1.859,0,3.271,0.501,4.233,1.502c0.963,1,1.444,2.436,1.444,4.305V128.2
			z"/>
		<path id="XMLID_220_" fill="#FFFFFF" d="M948.228,123.499c0,1.624-0.563,2.86-1.692,3.71c-1.128,0.85-2.815,1.274-5.062,1.274
			c-1.151,0-2.133-0.078-2.945-0.233c-0.812-0.156-1.571-0.385-2.279-0.687v-3.568c0.803,0.377,1.706,0.693,2.712,0.948
			c1.005,0.255,1.89,0.382,2.655,0.382c1.566,0,2.35-0.453,2.35-1.359c0-0.34-0.104-0.615-0.311-0.828
			c-0.208-0.212-0.566-0.453-1.076-0.722c-0.51-0.27-1.189-0.583-2.039-0.942c-1.219-0.51-2.113-0.981-2.684-1.416
			c-0.571-0.434-0.986-0.932-1.246-1.493s-0.39-1.253-0.39-2.075c0-1.406,0.545-2.494,1.636-3.264
			c1.09-0.77,2.636-1.154,4.637-1.154c1.907,0,3.762,0.416,5.565,1.246l-1.303,3.115c-0.793-0.34-1.534-0.618-2.224-0.835
			c-0.688-0.217-1.393-0.325-2.109-0.325c-1.274,0-1.912,0.344-1.912,1.033c0,0.387,0.206,0.723,0.616,1.006
			c0.411,0.283,1.31,0.703,2.698,1.26c1.236,0.5,2.143,0.968,2.719,1.402c0.575,0.434,1,0.934,1.273,1.5
			C948.091,122.04,948.228,122.716,948.228,123.499z"/>
	</g>
	<g id="XMLID_145_">
		<path id="XMLID_146_" fill="#FFFFFF" d="M263.995,28.097v7.943h-4.39V15.338h6.032c2.813,0,4.895,0.512,6.245,1.536
			s2.025,2.58,2.025,4.666c0,1.218-0.335,2.301-1.005,3.25c-0.67,0.948-1.619,1.691-2.846,2.23c3.115,4.653,5.145,7.66,6.089,9.02
			h-4.871l-4.942-7.943H263.995z M263.995,24.528h1.416c1.388,0,2.412-0.231,3.073-0.694s0.991-1.189,0.991-2.181
			c0-0.981-0.337-1.681-1.012-2.096c-0.675-0.415-1.721-0.623-3.137-0.623h-1.331V24.528z"/>
		<path id="XMLID_149_" fill="#FFFFFF" d="M285.575,36.323c-2.549,0-4.541-0.703-5.976-2.109c-1.435-1.407-2.152-3.398-2.152-5.977
			c0-2.652,0.663-4.703,1.989-6.152c1.327-1.449,3.16-2.174,5.501-2.174c2.237,0,3.979,0.638,5.225,1.912s1.869,3.035,1.869,5.281
			V29.2h-10.209c0.047,1.228,0.411,2.186,1.09,2.875s1.633,1.033,2.86,1.033c0.954,0,1.855-0.099,2.705-0.297
			s1.737-0.515,2.662-0.949v3.342c-0.755,0.378-1.562,0.659-2.421,0.843C287.86,36.231,286.812,36.323,285.575,36.323z
			 M284.966,22.984c-0.916,0-1.633,0.29-2.152,0.871c-0.519,0.58-0.816,1.404-0.892,2.471h6.061
			c-0.019-1.066-0.297-1.891-0.835-2.471C286.609,23.274,285.882,22.984,284.966,22.984z"/>
		<path id="XMLID_152_" fill="#FFFFFF" d="M300.557,36.323c-1.86,0-3.32-0.723-4.383-2.166c-1.062-1.445-1.593-3.446-1.593-6.004
			c0-2.597,0.541-4.619,1.621-6.068c1.081-1.449,2.57-2.174,4.468-2.174c1.992,0,3.512,0.774,4.56,2.322h0.142
			c-0.217-1.18-0.326-2.232-0.326-3.157v-5.069h4.333V36.04h-3.313l-0.835-2.053h-0.184
			C304.063,35.544,302.567,36.323,300.557,36.323z M302.072,32.882c1.104,0,1.914-0.32,2.428-0.963
			c0.515-0.642,0.795-1.731,0.843-3.271v-0.468c0-1.699-0.262-2.916-0.786-3.652c-0.523-0.736-1.375-1.105-2.556-1.105
			c-0.963,0-1.711,0.409-2.244,1.226c-0.534,0.816-0.8,2.003-0.8,3.562c0,1.557,0.269,2.726,0.807,3.504
			C300.302,32.493,301.071,32.882,302.072,32.882z"/>
		<path id="XMLID_155_" fill="#FFFFFF" d="M325.11,36.04l-0.581-2.025h-0.227c-0.462,0.736-1.119,1.306-1.968,1.707
			s-1.817,0.602-2.903,0.602c-1.86,0-3.262-0.498-4.206-1.494s-1.416-2.428-1.416-4.297V20.209h4.319v9.247
			c0,1.142,0.203,1.998,0.609,2.569s1.053,0.856,1.94,0.856c1.208,0,2.082-0.403,2.62-1.21c0.538-0.808,0.807-2.146,0.807-4.015
			v-7.448h4.319V36.04H325.11z"/>
		<path id="XMLID_157_" fill="#FFFFFF" d="M339.384,36.323c-4.928,0-7.392-2.705-7.392-8.113c0-2.691,0.67-4.746,2.011-6.167
			s3.262-2.132,5.763-2.132c1.832,0,3.474,0.359,4.928,1.076l-1.274,3.342c-0.68-0.273-1.312-0.497-1.897-0.672
			s-1.17-0.262-1.756-0.262c-2.247,0-3.37,1.595-3.37,4.785c0,3.097,1.124,4.645,3.37,4.645c0.831,0,1.6-0.11,2.308-0.332
			s1.416-0.569,2.124-1.041v3.695c-0.699,0.444-1.404,0.751-2.117,0.921C341.369,36.238,340.469,36.323,339.384,36.323z"/>
		<path id="XMLID_159_" fill="#FFFFFF" d="M354.535,32.882c0.755,0,1.662-0.165,2.719-0.495v3.214
			c-1.076,0.482-2.398,0.723-3.965,0.723c-1.728,0-2.985-0.437-3.774-1.31c-0.788-0.873-1.182-2.184-1.182-3.93v-7.632h-2.067
			v-1.827l2.379-1.444l1.246-3.342h2.761v3.37h4.432v3.243h-4.432v7.632c0,0.613,0.172,1.066,0.517,1.359
			C353.513,32.736,353.969,32.882,354.535,32.882z"/>
		<path id="XMLID_161_" fill="#FFFFFF" d="M360.27,16.116c0-1.406,0.784-2.109,2.351-2.109s2.351,0.703,2.351,2.109
			c0,0.671-0.196,1.192-0.587,1.565c-0.392,0.373-0.979,0.56-1.763,0.56C361.054,18.241,360.27,17.532,360.27,16.116z
			 M364.773,36.04h-4.319V20.209h4.319V36.04z"/>
		<path id="XMLID_164_" fill="#FFFFFF" d="M383.691,28.097c0,2.576-0.68,4.592-2.039,6.046s-3.252,2.181-5.678,2.181
			c-1.52,0-2.86-0.333-4.021-0.998c-1.161-0.666-2.053-1.621-2.676-2.867s-0.935-2.7-0.935-4.361c0-2.587,0.675-4.598,2.025-6.033
			c1.35-1.435,3.248-2.152,5.692-2.152c1.52,0,2.86,0.331,4.021,0.992c1.161,0.66,2.053,1.609,2.676,2.846
			S383.691,26.435,383.691,28.097z M372.745,28.097c0,1.566,0.257,2.751,0.772,3.554c0.514,0.803,1.352,1.204,2.513,1.204
			c1.152,0,1.98-0.399,2.485-1.197c0.505-0.798,0.758-1.984,0.758-3.561c0-1.567-0.255-2.743-0.765-3.526s-1.345-1.175-2.506-1.175
			c-1.152,0-1.982,0.389-2.492,1.168C373,25.342,372.745,26.52,372.745,28.097z"/>
		<path id="XMLID_167_" fill="#FFFFFF" d="M401.873,36.04h-4.319v-9.246c0-1.143-0.203-1.999-0.609-2.57s-1.053-0.857-1.94-0.857
			c-1.208,0-2.082,0.404-2.62,1.211c-0.538,0.808-0.807,2.146-0.807,4.015v7.448h-4.319V20.209h3.299l0.581,2.024h0.241
			c0.481-0.764,1.145-1.343,1.99-1.734c0.845-0.392,1.805-0.588,2.881-0.588c1.841,0,3.238,0.498,4.191,1.494s1.43,2.434,1.43,4.312
			V36.04z"/>
		<path id="XMLID_169_" fill="#FFFFFF" d="M413.668,16.116c0-1.406,0.784-2.109,2.351-2.109s2.351,0.703,2.351,2.109
			c0,0.671-0.196,1.192-0.587,1.565c-0.392,0.373-0.979,0.56-1.763,0.56C414.452,18.241,413.668,17.532,413.668,16.116z
			 M418.171,36.04h-4.319V20.209h4.319V36.04z"/>
		<path id="XMLID_172_" fill="#FFFFFF" d="M437.315,36.04h-4.319v-9.246c0-1.143-0.203-1.999-0.609-2.57s-1.053-0.857-1.94-0.857
			c-1.208,0-2.082,0.404-2.62,1.211c-0.538,0.808-0.807,2.146-0.807,4.015v7.448h-4.319V20.209h3.299l0.581,2.024h0.241
			c0.481-0.764,1.145-1.343,1.99-1.734c0.845-0.392,1.805-0.588,2.881-0.588c1.841,0,3.238,0.498,4.191,1.494s1.43,2.434,1.43,4.312
			V36.04z"/>
		<path id="XMLID_174_" fill="#FFFFFF" d="M270.311,66.139c0,1.624-0.564,2.86-1.692,3.71c-1.128,0.85-2.815,1.274-5.062,1.274
			c-1.152,0-2.133-0.078-2.945-0.233c-0.812-0.156-1.572-0.385-2.28-0.687v-3.568c0.802,0.377,1.706,0.693,2.712,0.948
			c1.005,0.255,1.89,0.382,2.655,0.382c1.567,0,2.351-0.453,2.351-1.359c0-0.34-0.104-0.615-0.312-0.828
			c-0.208-0.212-0.566-0.453-1.076-0.722c-0.51-0.27-1.189-0.583-2.039-0.942c-1.218-0.51-2.112-0.981-2.683-1.416
			c-0.571-0.434-0.987-0.932-1.246-1.493c-0.26-0.562-0.39-1.253-0.39-2.075c0-1.406,0.545-2.494,1.636-3.264
			c1.09-0.77,2.636-1.154,4.637-1.154c1.907,0,3.762,0.416,5.565,1.246l-1.303,3.115c-0.793-0.34-1.534-0.618-2.223-0.835
			s-1.393-0.325-2.11-0.325c-1.274,0-1.912,0.344-1.912,1.033c0,0.387,0.206,0.723,0.616,1.006c0.411,0.283,1.31,0.703,2.698,1.26
			c1.237,0.5,2.143,0.968,2.719,1.402c0.576,0.434,1,0.934,1.274,1.5S270.311,65.355,270.311,66.139z"/>
		<path id="XMLID_176_" fill="#FFFFFF" d="M280.35,67.682c0.755,0,1.662-0.165,2.719-0.495V70.4
			c-1.076,0.482-2.398,0.723-3.965,0.723c-1.728,0-2.985-0.437-3.774-1.31c-0.788-0.873-1.182-2.184-1.182-3.93v-7.632h-2.067
			v-1.827l2.379-1.444l1.246-3.342h2.761v3.37h4.432v3.243h-4.432v7.632c0,0.613,0.172,1.066,0.517,1.359
			C279.328,67.536,279.784,67.682,280.35,67.682z"/>
		<path id="XMLID_178_" fill="#FFFFFF" d="M296.323,70.84l-0.835-2.152h-0.113c-0.727,0.916-1.475,1.551-2.245,1.904
			c-0.769,0.354-1.772,0.531-3.009,0.531c-1.52,0-2.716-0.435-3.59-1.303c-0.873-0.868-1.31-2.105-1.31-3.71
			c0-1.681,0.588-2.919,1.763-3.717c1.176-0.798,2.948-1.239,5.317-1.324l2.747-0.085v-0.693c0-1.605-0.821-2.408-2.464-2.408
			c-1.265,0-2.752,0.383-4.46,1.147l-1.43-2.917c1.822-0.953,3.842-1.43,6.061-1.43c2.124,0,3.752,0.462,4.885,1.387
			c1.133,0.926,1.699,2.332,1.699,4.221V70.84H296.323z M295.048,63.505l-1.671,0.057c-1.255,0.038-2.19,0.265-2.804,0.68
			s-0.92,1.048-0.92,1.897c0,1.218,0.699,1.826,2.096,1.826c1,0,1.801-0.287,2.4-0.863c0.6-0.576,0.899-1.341,0.899-2.294V63.505z"
			/>
		<path id="XMLID_181_" fill="#FFFFFF" d="M312.536,58.252h-3.738V70.84h-4.319V58.252H302.1V56.17l2.379-1.161v-1.161
			c0-1.803,0.444-3.12,1.331-3.951c0.887-0.83,2.308-1.246,4.262-1.246c1.492,0,2.818,0.223,3.979,0.666l-1.104,3.172
			c-0.869-0.273-1.671-0.41-2.407-0.41c-0.614,0-1.057,0.182-1.331,0.545s-0.411,0.828-0.411,1.395v0.991h3.738V58.252z
			 M323.765,58.252h-3.738V70.84h-4.319V58.252h-2.379V56.17l2.379-1.161v-1.161c0-1.803,0.444-3.12,1.331-3.951
			c0.887-0.83,2.308-1.246,4.262-1.246c1.492,0,2.818,0.223,3.979,0.666l-1.104,3.172c-0.869-0.273-1.671-0.41-2.407-0.41
			c-0.614,0-1.057,0.182-1.331,0.545s-0.411,0.828-0.411,1.395v0.991h3.738V58.252z"/>
		<path id="XMLID_184_" fill="#FFFFFF" d="M348.375,70.84h-4.319v-9.246c0-1.143-0.203-1.999-0.609-2.57s-1.053-0.857-1.94-0.857
			c-1.208,0-2.082,0.404-2.62,1.211c-0.538,0.808-0.807,2.146-0.807,4.015v7.448h-4.319V55.009h3.299l0.581,2.024h0.241
			c0.481-0.764,1.145-1.343,1.99-1.734c0.845-0.392,1.805-0.588,2.881-0.588c1.841,0,3.238,0.498,4.191,1.494s1.43,2.434,1.43,4.312
			V70.84z"/>
		<path id="XMLID_186_" fill="#FFFFFF" d="M359.987,71.123c-2.549,0-4.541-0.703-5.976-2.109c-1.435-1.407-2.152-3.398-2.152-5.977
			c0-2.652,0.663-4.703,1.989-6.152c1.327-1.449,3.16-2.174,5.501-2.174c2.237,0,3.979,0.638,5.225,1.912s1.869,3.035,1.869,5.281
			V64h-10.209c0.047,1.228,0.411,2.186,1.09,2.875s1.633,1.033,2.86,1.033c0.954,0,1.855-0.099,2.705-0.297s1.737-0.515,2.662-0.949
			v3.342c-0.755,0.378-1.562,0.659-2.421,0.843C362.271,71.031,361.224,71.123,359.987,71.123z M359.378,57.784
			c-0.916,0-1.633,0.29-2.152,0.871c-0.519,0.58-0.816,1.404-0.892,2.471h6.061c-0.019-1.066-0.297-1.891-0.835-2.471
			C361.021,58.074,360.293,57.784,359.378,57.784z"/>
		<path id="XMLID_189_" fill="#FFFFFF" d="M377.121,71.123c-2.549,0-4.541-0.703-5.976-2.109c-1.435-1.407-2.152-3.398-2.152-5.977
			c0-2.652,0.663-4.703,1.989-6.152c1.327-1.449,3.16-2.174,5.501-2.174c2.237,0,3.979,0.638,5.225,1.912s1.869,3.035,1.869,5.281
			V64h-10.209c0.047,1.228,0.411,2.186,1.09,2.875s1.633,1.033,2.86,1.033c0.954,0,1.855-0.099,2.705-0.297s1.737-0.515,2.662-0.949
			v3.342c-0.755,0.378-1.562,0.659-2.421,0.843C379.405,71.031,378.357,71.123,377.121,71.123z M376.512,57.784
			c-0.916,0-1.633,0.29-2.152,0.871c-0.519,0.58-0.816,1.404-0.892,2.471h6.061c-0.019-1.066-0.297-1.891-0.835-2.471
			C378.154,58.074,377.427,57.784,376.512,57.784z"/>
		<path id="XMLID_192_" fill="#FFFFFF" d="M392.102,71.123c-1.86,0-3.32-0.723-4.383-2.166c-1.062-1.445-1.593-3.446-1.593-6.004
			c0-2.597,0.541-4.619,1.621-6.068c1.081-1.449,2.57-2.174,4.468-2.174c1.992,0,3.512,0.774,4.56,2.322h0.142
			c-0.217-1.18-0.326-2.232-0.326-3.157v-5.069h4.333V70.84h-3.313l-0.835-2.053h-0.184
			C395.609,70.344,394.113,71.123,392.102,71.123z M393.617,67.682c1.104,0,1.914-0.32,2.428-0.963
			c0.515-0.642,0.795-1.731,0.843-3.271V62.98c0-1.699-0.262-2.916-0.786-3.652c-0.523-0.736-1.375-1.105-2.556-1.105
			c-0.963,0-1.711,0.409-2.244,1.226c-0.534,0.816-0.8,2.003-0.8,3.562c0,1.557,0.269,2.726,0.807,3.504
			C391.847,67.293,392.617,67.682,393.617,67.682z"/>
		<path id="XMLID_195_" fill="#FFFFFF" d="M416.486,66.139c0,1.624-0.564,2.86-1.692,3.71c-1.128,0.85-2.815,1.274-5.062,1.274
			c-1.152,0-2.133-0.078-2.945-0.233c-0.812-0.156-1.572-0.385-2.28-0.687v-3.568c0.802,0.377,1.706,0.693,2.712,0.948
			c1.005,0.255,1.89,0.382,2.655,0.382c1.567,0,2.351-0.453,2.351-1.359c0-0.34-0.104-0.615-0.312-0.828
			c-0.208-0.212-0.566-0.453-1.076-0.722c-0.51-0.27-1.189-0.583-2.039-0.942c-1.218-0.51-2.112-0.981-2.683-1.416
			c-0.571-0.434-0.987-0.932-1.246-1.493c-0.26-0.562-0.39-1.253-0.39-2.075c0-1.406,0.545-2.494,1.636-3.264
			c1.09-0.77,2.636-1.154,4.637-1.154c1.907,0,3.762,0.416,5.565,1.246l-1.303,3.115c-0.793-0.34-1.534-0.618-2.223-0.835
			s-1.393-0.325-2.11-0.325c-1.274,0-1.912,0.344-1.912,1.033c0,0.387,0.206,0.723,0.616,1.006c0.411,0.283,1.31,0.703,2.698,1.26
			c1.237,0.5,2.143,0.968,2.719,1.402c0.576,0.434,1,0.934,1.274,1.5S416.486,65.355,416.486,66.139z"/>
		<path id="XMLID_197_" fill="#FFFFFF" d="M419.247,57.119c0-0.793,0.212-1.393,0.637-1.799s1.043-0.609,1.855-0.609
			c0.784,0,1.39,0.208,1.82,0.623c0.429,0.416,0.644,1.011,0.644,1.785c0,0.764-0.219,1.356-0.659,1.776
			c-0.438,0.42-1.041,0.63-1.805,0.63c-0.793,0-1.407-0.207-1.841-0.623C419.464,58.487,419.247,57.893,419.247,57.119z
			 M419.247,68.814c0-0.793,0.212-1.392,0.637-1.798s1.043-0.608,1.855-0.608c0.784,0,1.39,0.207,1.82,0.623
			c0.429,0.415,0.644,1.01,0.644,1.783c0,0.746-0.217,1.334-0.651,1.764s-1.039,0.645-1.812,0.645c-0.793,0-1.407-0.211-1.841-0.631
			S419.247,69.58,419.247,68.814z"/>
	</g>
	<g id="XMLID_83_">
		<path id="XMLID_84_" fill="#FFFFFF" d="M513.995,28.097v7.943h-4.39V15.338h6.032c2.813,0,4.895,0.512,6.245,1.536
			c1.35,1.024,2.024,2.58,2.024,4.666c0,1.218-0.335,2.301-1.005,3.25c-0.671,0.948-1.619,1.691-2.847,2.23
			c3.115,4.653,5.146,7.66,6.089,9.02h-4.871l-4.941-7.943H513.995z M513.995,24.528h1.416c1.388,0,2.412-0.231,3.073-0.694
			c0.66-0.463,0.99-1.189,0.99-2.181c0-0.981-0.337-1.681-1.012-2.096c-0.676-0.415-1.721-0.623-3.137-0.623h-1.331V24.528z"/>
		<path id="XMLID_87_" fill="#FFFFFF" d="M535.575,36.323c-2.549,0-4.54-0.703-5.976-2.109c-1.436-1.407-2.152-3.398-2.152-5.977
			c0-2.652,0.663-4.703,1.989-6.152c1.327-1.449,3.16-2.174,5.501-2.174c2.238,0,3.979,0.638,5.226,1.912s1.869,3.035,1.869,5.281
			V29.2h-10.21c0.048,1.228,0.411,2.186,1.091,2.875s1.634,1.033,2.86,1.033c0.953,0,1.855-0.099,2.705-0.297
			s1.736-0.515,2.662-0.949v3.342c-0.756,0.378-1.562,0.659-2.422,0.843C537.859,36.231,536.812,36.323,535.575,36.323z
			 M534.967,22.984c-0.916,0-1.634,0.29-2.152,0.871c-0.52,0.58-0.816,1.404-0.893,2.471h6.061c-0.02-1.066-0.297-1.891-0.836-2.471
			C536.609,23.274,535.882,22.984,534.967,22.984z"/>
		<path id="XMLID_90_" fill="#FFFFFF" d="M550.557,36.323c-1.859,0-3.32-0.723-4.383-2.166c-1.062-1.445-1.593-3.446-1.593-6.004
			c0-2.597,0.54-4.619,1.621-6.068s2.57-2.174,4.468-2.174c1.992,0,3.512,0.774,4.56,2.322h0.142
			c-0.217-1.18-0.326-2.232-0.326-3.157v-5.069h4.334V36.04h-3.314l-0.835-2.053h-0.185
			C554.063,35.544,552.567,36.323,550.557,36.323z M552.072,32.882c1.104,0,1.914-0.32,2.428-0.963
			c0.515-0.642,0.795-1.731,0.843-3.271v-0.468c0-1.699-0.262-2.916-0.786-3.652c-0.523-0.736-1.375-1.105-2.556-1.105
			c-0.963,0-1.711,0.409-2.244,1.226c-0.534,0.816-0.8,2.003-0.8,3.562c0,1.557,0.269,2.726,0.807,3.504
			C550.302,32.493,551.071,32.882,552.072,32.882z"/>
		<path id="XMLID_93_" fill="#FFFFFF" d="M575.11,36.04l-0.581-2.025h-0.227c-0.462,0.736-1.118,1.306-1.968,1.707
			s-1.817,0.602-2.903,0.602c-1.859,0-3.262-0.498-4.205-1.494s-1.416-2.428-1.416-4.297V20.209h4.318v9.247
			c0,1.142,0.203,1.998,0.609,2.569s1.053,0.856,1.939,0.856c1.209,0,2.082-0.403,2.62-1.21c0.538-0.808,0.808-2.146,0.808-4.015
			v-7.448h4.318V36.04H575.11z"/>
		<path id="XMLID_95_" fill="#FFFFFF" d="M589.384,36.323c-4.928,0-7.392-2.705-7.392-8.113c0-2.691,0.67-4.746,2.011-6.167
			s3.262-2.132,5.763-2.132c1.832,0,3.475,0.359,4.928,1.076l-1.273,3.342c-0.68-0.273-1.312-0.497-1.898-0.672
			c-0.585-0.175-1.17-0.262-1.756-0.262c-2.246,0-3.369,1.595-3.369,4.785c0,3.097,1.123,4.645,3.369,4.645
			c0.831,0,1.601-0.11,2.309-0.332s1.416-0.569,2.124-1.041v3.695c-0.698,0.444-1.404,0.751-2.117,0.921
			C591.369,36.238,590.469,36.323,589.384,36.323z"/>
		<path id="XMLID_97_" fill="#FFFFFF" d="M604.535,32.882c0.756,0,1.662-0.165,2.719-0.495v3.214
			c-1.076,0.482-2.398,0.723-3.965,0.723c-1.728,0-2.985-0.437-3.773-1.31c-0.789-0.873-1.183-2.184-1.183-3.93v-7.632h-2.067
			v-1.827l2.379-1.444l1.246-3.342h2.762v3.37h4.432v3.243h-4.432v7.632c0,0.613,0.172,1.066,0.516,1.359
			C603.514,32.736,603.969,32.882,604.535,32.882z"/>
		<path id="XMLID_99_" fill="#FFFFFF" d="M610.27,16.116c0-1.406,0.784-2.109,2.352-2.109c1.566,0,2.35,0.703,2.35,2.109
			c0,0.671-0.195,1.192-0.587,1.565s-0.979,0.56-1.763,0.56C611.054,18.241,610.27,17.532,610.27,16.116z M614.773,36.04h-4.319
			V20.209h4.319V36.04z"/>
		<path id="XMLID_102_" fill="#FFFFFF" d="M633.691,28.097c0,2.576-0.68,4.592-2.039,6.046s-3.252,2.181-5.679,2.181
			c-1.521,0-2.86-0.333-4.021-0.998c-1.161-0.666-2.054-1.621-2.677-2.867s-0.934-2.7-0.934-4.361c0-2.587,0.674-4.598,2.024-6.033
			c1.351-1.435,3.247-2.152,5.692-2.152c1.52,0,2.86,0.331,4.021,0.992c1.161,0.66,2.053,1.609,2.676,2.846
			S633.691,26.435,633.691,28.097z M622.745,28.097c0,1.566,0.257,2.751,0.772,3.554c0.514,0.803,1.352,1.204,2.513,1.204
			c1.151,0,1.979-0.399,2.485-1.197c0.505-0.798,0.758-1.984,0.758-3.561c0-1.567-0.256-2.743-0.766-3.526s-1.345-1.175-2.506-1.175
			c-1.152,0-1.982,0.389-2.492,1.168C623,25.342,622.745,26.52,622.745,28.097z"/>
		<path id="XMLID_105_" fill="#FFFFFF" d="M651.873,36.04h-4.319v-9.246c0-1.143-0.203-1.999-0.608-2.57
			c-0.406-0.571-1.053-0.857-1.94-0.857c-1.208,0-2.081,0.404-2.62,1.211c-0.537,0.808-0.807,2.146-0.807,4.015v7.448h-4.318V20.209
			h3.299l0.58,2.024h0.241c0.481-0.764,1.145-1.343,1.989-1.734c0.846-0.392,1.806-0.588,2.882-0.588
			c1.841,0,3.237,0.498,4.191,1.494s1.431,2.434,1.431,4.312V36.04z"/>
		<path id="XMLID_107_" fill="#FFFFFF" d="M663.668,16.116c0-1.406,0.783-2.109,2.351-2.109s2.351,0.703,2.351,2.109
			c0,0.671-0.195,1.192-0.588,1.565c-0.392,0.373-0.979,0.56-1.763,0.56C664.451,18.241,663.668,17.532,663.668,16.116z
			 M668.171,36.04h-4.319V20.209h4.319V36.04z"/>
		<path id="XMLID_110_" fill="#FFFFFF" d="M687.315,36.04h-4.319v-9.246c0-1.143-0.203-1.999-0.608-2.57s-1.053-0.857-1.94-0.857
			c-1.208,0-2.081,0.404-2.619,1.211c-0.538,0.808-0.807,2.146-0.807,4.015v7.448h-4.319V20.209h3.3l0.58,2.024h0.24
			c0.482-0.764,1.145-1.343,1.99-1.734c0.845-0.392,1.805-0.588,2.881-0.588c1.842,0,3.238,0.498,4.191,1.494
			c0.954,0.996,1.431,2.434,1.431,4.312V36.04z"/>
		<path id="XMLID_112_" fill="#FFFFFF" d="M520.311,66.139c0,1.624-0.564,2.86-1.692,3.71s-2.815,1.274-5.062,1.274
			c-1.152,0-2.134-0.078-2.945-0.233c-0.812-0.156-1.572-0.385-2.28-0.687v-3.568c0.802,0.377,1.706,0.693,2.712,0.948
			c1.005,0.255,1.891,0.382,2.654,0.382c1.567,0,2.352-0.453,2.352-1.359c0-0.34-0.104-0.615-0.312-0.828
			c-0.207-0.212-0.566-0.453-1.076-0.722c-0.51-0.27-1.189-0.583-2.039-0.942c-1.217-0.51-2.111-0.981-2.683-1.416
			c-0.571-0.434-0.987-0.932-1.246-1.493c-0.26-0.562-0.39-1.253-0.39-2.075c0-1.406,0.545-2.494,1.636-3.264
			c1.09-0.77,2.636-1.154,4.638-1.154c1.906,0,3.762,0.416,5.564,1.246l-1.303,3.115c-0.793-0.34-1.534-0.618-2.223-0.835
			c-0.689-0.217-1.393-0.325-2.11-0.325c-1.274,0-1.911,0.344-1.911,1.033c0,0.387,0.205,0.723,0.615,1.006
			c0.411,0.283,1.311,0.703,2.697,1.26c1.237,0.5,2.144,0.968,2.719,1.402c0.576,0.434,1.001,0.934,1.275,1.5
			C520.174,64.68,520.311,65.355,520.311,66.139z"/>
		<path id="XMLID_114_" fill="#FFFFFF" d="M532.375,71.123c-1.859,0-3.318-0.675-4.375-2.025h-0.227
			c0.15,1.322,0.227,2.087,0.227,2.295v6.414h-4.319V55.009h3.512l0.608,2.054H528c1.01-1.567,2.506-2.352,4.488-2.352
			c1.869,0,3.332,0.723,4.39,2.167s1.586,3.45,1.586,6.019c0,1.689-0.248,3.157-0.743,4.403c-0.496,1.246-1.201,2.194-2.117,2.847
			C534.688,70.797,533.611,71.123,532.375,71.123z M531.101,58.166c-1.067,0-1.846,0.328-2.337,0.984
			c-0.49,0.656-0.745,1.739-0.764,3.25v0.467c0,1.699,0.252,2.918,0.757,3.654s1.306,1.104,2.4,1.104
			c1.935,0,2.903-1.595,2.903-4.785c0-1.559-0.238-2.727-0.716-3.505C532.868,58.556,532.12,58.166,531.101,58.166z"/>
		<path id="XMLID_117_" fill="#FFFFFF" d="M552.086,70.84l-0.836-2.152h-0.113c-0.727,0.916-1.475,1.551-2.244,1.904
			c-0.77,0.354-1.771,0.531-3.009,0.531c-1.521,0-2.716-0.435-3.59-1.303c-0.873-0.868-1.31-2.105-1.31-3.71
			c0-1.681,0.588-2.919,1.763-3.717c1.176-0.798,2.948-1.239,5.317-1.324l2.747-0.085v-0.693c0-1.605-0.821-2.408-2.464-2.408
			c-1.266,0-2.752,0.383-4.461,1.147l-1.43-2.917c1.822-0.953,3.842-1.43,6.061-1.43c2.124,0,3.752,0.462,4.885,1.387
			c1.133,0.926,1.699,2.332,1.699,4.221V70.84H552.086z M550.812,63.505l-1.671,0.057c-1.256,0.038-2.189,0.265-2.804,0.68
			s-0.921,1.048-0.921,1.897c0,1.218,0.699,1.826,2.096,1.826c1.001,0,1.801-0.287,2.4-0.863s0.899-1.341,0.899-2.294V63.505z"/>
		<path id="XMLID_120_" fill="#FFFFFF" d="M568.385,54.711c0.585,0,1.07,0.043,1.458,0.128l-0.325,4.05
			c-0.35-0.095-0.774-0.142-1.275-0.142c-1.378,0-2.451,0.354-3.221,1.062c-0.77,0.709-1.154,1.699-1.154,2.975v8.057h-4.318V55.009
			h3.271l0.638,2.662h0.212c0.491-0.888,1.153-1.603,1.989-2.146S567.402,54.711,568.385,54.711z"/>
		<path id="XMLID_122_" fill="#FFFFFF" d="M572.533,50.916c0-1.406,0.783-2.109,2.351-2.109s2.351,0.703,2.351,2.109
			c0,0.671-0.195,1.192-0.588,1.565c-0.392,0.373-0.979,0.56-1.763,0.56C573.316,53.041,572.533,52.332,572.533,50.916z
			 M577.036,70.84h-4.319V55.009h4.319V70.84z"/>
		<path id="XMLID_125_" fill="#FFFFFF" d="M596.181,70.84h-4.319v-9.246c0-1.143-0.203-1.999-0.608-2.57s-1.053-0.857-1.94-0.857
			c-1.208,0-2.081,0.404-2.619,1.211c-0.538,0.808-0.807,2.146-0.807,4.015v7.448h-4.319V55.009h3.3l0.58,2.024h0.24
			c0.482-0.764,1.145-1.343,1.99-1.734c0.845-0.392,1.805-0.588,2.881-0.588c1.842,0,3.238,0.498,4.191,1.494
			c0.954,0.996,1.431,2.434,1.431,4.312V70.84z"/>
		<path id="XMLID_127_" fill="#FFFFFF" d="M614.404,55.009v2.194l-2.478,0.638c0.453,0.708,0.68,1.501,0.68,2.379
			c0,1.699-0.593,3.023-1.777,3.972c-1.185,0.949-2.829,1.424-4.935,1.424l-0.779-0.043l-0.637-0.07
			c-0.443,0.34-0.666,0.717-0.666,1.133c0,0.623,0.793,0.934,2.379,0.934h2.691c1.736,0,3.061,0.373,3.972,1.119
			s1.366,1.841,1.366,3.285c0,1.851-0.771,3.285-2.315,4.305c-1.543,1.02-3.759,1.529-6.647,1.529c-2.209,0-3.896-0.385-5.062-1.154
			s-1.749-1.848-1.749-3.235c0-0.953,0.298-1.751,0.892-2.394c0.596-0.642,1.469-1.1,2.62-1.373
			c-0.444-0.188-0.831-0.498-1.161-0.928s-0.496-0.885-0.496-1.366c0-0.604,0.176-1.106,0.524-1.508s0.854-0.796,1.515-1.183
			c-0.83-0.358-1.488-0.935-1.975-1.728s-0.729-1.728-0.729-2.804c0-1.728,0.562-3.063,1.685-4.008
			c1.124-0.943,2.729-1.416,4.814-1.416c0.444,0,0.971,0.041,1.579,0.121c0.609,0.08,0.999,0.139,1.169,0.177H614.404z
			 M602.185,73.077c0,0.595,0.286,1.062,0.856,1.401c0.571,0.34,1.371,0.51,2.4,0.51c1.549,0,2.762-0.212,3.639-0.637
			c0.879-0.425,1.317-1.006,1.317-1.742c0-0.594-0.26-1.005-0.778-1.231c-0.52-0.227-1.322-0.34-2.408-0.34h-2.236
			c-0.793,0-1.457,0.187-1.99,0.56S602.185,72.464,602.185,73.077z M603.756,60.191c0,0.859,0.196,1.539,0.588,2.039
			c0.393,0.5,0.989,0.75,1.791,0.75c0.812,0,1.407-0.25,1.785-0.75c0.377-0.5,0.566-1.18,0.566-2.039c0-1.907-0.784-2.86-2.352-2.86
			C604.549,57.331,603.756,58.284,603.756,60.191z"/>
		<path id="XMLID_131_" fill="#FFFFFF" d="M630.973,71.123c-4.928,0-7.393-2.705-7.393-8.113c0-2.691,0.671-4.746,2.012-6.167
			c1.34-1.421,3.262-2.132,5.763-2.132c1.831,0,3.474,0.359,4.928,1.076l-1.274,3.342c-0.68-0.273-1.312-0.497-1.897-0.672
			s-1.171-0.262-1.756-0.262c-2.247,0-3.37,1.595-3.37,4.785c0,3.097,1.123,4.645,3.37,4.645c0.831,0,1.601-0.11,2.308-0.332
			c0.709-0.222,1.416-0.569,2.125-1.041v3.695c-0.699,0.444-1.404,0.751-2.117,0.921S632.058,71.123,630.973,71.123z"/>
		<path id="XMLID_133_" fill="#FFFFFF" d="M653.841,62.896c0,2.576-0.68,4.592-2.039,6.046s-3.252,2.181-5.679,2.181
			c-1.52,0-2.859-0.333-4.021-0.998c-1.16-0.666-2.053-1.621-2.676-2.867s-0.935-2.7-0.935-4.361c0-2.587,0.675-4.598,2.024-6.033
			c1.351-1.435,3.248-2.152,5.693-2.152c1.52,0,2.859,0.331,4.021,0.992c1.16,0.66,2.053,1.609,2.676,2.846
			S653.841,61.234,653.841,62.896z M642.895,62.896c0,1.566,0.258,2.751,0.772,3.554s1.353,1.204,2.513,1.204
			c1.152,0,1.98-0.399,2.485-1.197s0.758-1.984,0.758-3.561c0-1.567-0.255-2.743-0.765-3.526s-1.346-1.175-2.506-1.175
			c-1.152,0-1.982,0.389-2.492,1.168C643.15,60.142,642.895,61.319,642.895,62.896z"/>
		<path id="XMLID_136_" fill="#FFFFFF" d="M668.454,66.139c0,1.624-0.563,2.86-1.692,3.71c-1.128,0.85-2.815,1.274-5.062,1.274
			c-1.151,0-2.133-0.078-2.945-0.233c-0.812-0.156-1.571-0.385-2.279-0.687v-3.568c0.803,0.377,1.706,0.693,2.712,0.948
			c1.005,0.255,1.89,0.382,2.655,0.382c1.566,0,2.35-0.453,2.35-1.359c0-0.34-0.104-0.615-0.311-0.828
			c-0.208-0.212-0.566-0.453-1.076-0.722c-0.51-0.27-1.189-0.583-2.039-0.942c-1.219-0.51-2.113-0.981-2.684-1.416
			c-0.571-0.434-0.986-0.932-1.246-1.493s-0.39-1.253-0.39-2.075c0-1.406,0.545-2.494,1.636-3.264
			c1.09-0.77,2.636-1.154,4.637-1.154c1.907,0,3.762,0.416,5.565,1.246l-1.303,3.115c-0.793-0.34-1.534-0.618-2.224-0.835
			c-0.688-0.217-1.393-0.325-2.109-0.325c-1.274,0-1.912,0.344-1.912,1.033c0,0.387,0.206,0.723,0.616,1.006
			c0.411,0.283,1.31,0.703,2.698,1.26c1.236,0.5,2.143,0.968,2.719,1.402c0.575,0.434,1,0.934,1.273,1.5
			C668.317,64.68,668.454,65.355,668.454,66.139z"/>
		<path id="XMLID_138_" fill="#FFFFFF" d="M678.494,67.682c0.755,0,1.661-0.165,2.719-0.495V70.4
			c-1.076,0.482-2.398,0.723-3.965,0.723c-1.729,0-2.986-0.437-3.774-1.31s-1.183-2.184-1.183-3.93v-7.632h-2.066v-1.827
			l2.379-1.444l1.246-3.342h2.761v3.37h4.433v3.243h-4.433v7.632c0,0.613,0.173,1.066,0.517,1.359
			C677.472,67.536,677.928,67.682,678.494,67.682z"/>
		<path id="XMLID_140_" fill="#FFFFFF" d="M695.457,66.139c0,1.624-0.563,2.86-1.691,3.71c-1.129,0.85-2.816,1.274-5.062,1.274
			c-1.152,0-2.133-0.078-2.945-0.233c-0.812-0.156-1.572-0.385-2.279-0.687v-3.568c0.802,0.377,1.705,0.693,2.711,0.948
			s1.891,0.382,2.655,0.382c1.567,0,2.351-0.453,2.351-1.359c0-0.34-0.104-0.615-0.312-0.828c-0.208-0.212-0.566-0.453-1.076-0.722
			c-0.51-0.27-1.189-0.583-2.039-0.942c-1.218-0.51-2.112-0.981-2.683-1.416c-0.572-0.434-0.987-0.932-1.246-1.493
			c-0.26-0.562-0.391-1.253-0.391-2.075c0-1.406,0.545-2.494,1.637-3.264c1.09-0.77,2.635-1.154,4.637-1.154
			c1.906,0,3.762,0.416,5.564,1.246l-1.303,3.115c-0.793-0.34-1.533-0.618-2.223-0.835s-1.393-0.325-2.109-0.325
			c-1.275,0-1.912,0.344-1.912,1.033c0,0.387,0.205,0.723,0.615,1.006c0.412,0.283,1.311,0.703,2.698,1.26
			c1.237,0.5,2.144,0.968,2.719,1.402c0.575,0.434,1.001,0.934,1.274,1.5S695.457,65.355,695.457,66.139z"/>
		<path id="XMLID_142_" fill="#FFFFFF" d="M698.219,57.119c0-0.793,0.213-1.393,0.637-1.799c0.426-0.406,1.043-0.609,1.855-0.609
			c0.783,0,1.391,0.208,1.82,0.623c0.429,0.416,0.644,1.011,0.644,1.785c0,0.764-0.22,1.356-0.659,1.776
			c-0.438,0.42-1.04,0.63-1.805,0.63c-0.793,0-1.406-0.207-1.841-0.623C698.436,58.487,698.219,57.893,698.219,57.119z
			 M698.219,68.814c0-0.793,0.213-1.392,0.637-1.798c0.426-0.406,1.043-0.608,1.855-0.608c0.783,0,1.391,0.207,1.82,0.623
			c0.429,0.415,0.644,1.01,0.644,1.783c0,0.746-0.218,1.334-0.651,1.764s-1.039,0.645-1.812,0.645c-0.793,0-1.406-0.211-1.841-0.631
			S698.219,69.58,698.219,68.814z"/>
	</g>
	<g id="XMLID_21_">
		<path id="XMLID_22_" fill="#FFFFFF" d="M768.907,21.795c0,2.228-0.696,3.932-2.089,5.112c-1.393,1.18-3.372,1.77-5.939,1.77
			h-1.884v7.363h-4.39V15.338h6.613c2.511,0,4.42,0.54,5.728,1.621S768.907,19.652,768.907,21.795z M758.995,25.08h1.444
			c1.35,0,2.359-0.267,3.03-0.8s1.005-1.311,1.005-2.33c0-1.028-0.28-1.788-0.842-2.279c-0.562-0.491-1.442-0.736-2.641-0.736
			h-1.997V25.08z"/>
		<path id="XMLID_25_" fill="#FFFFFF" d="M782.529,36.04l-0.836-2.152h-0.113c-0.727,0.916-1.475,1.551-2.244,1.904
			c-0.77,0.354-1.771,0.531-3.009,0.531c-1.521,0-2.716-0.435-3.59-1.303c-0.873-0.868-1.31-2.105-1.31-3.71
			c0-1.681,0.588-2.919,1.763-3.717c1.176-0.798,2.948-1.239,5.317-1.324l2.747-0.085v-0.693c0-1.605-0.821-2.408-2.464-2.408
			c-1.266,0-2.752,0.383-4.461,1.147l-1.43-2.917c1.822-0.953,3.842-1.43,6.061-1.43c2.124,0,3.752,0.462,4.885,1.387
			c1.133,0.926,1.699,2.332,1.699,4.221V36.04H782.529z M781.255,28.705l-1.671,0.057c-1.256,0.038-2.189,0.265-2.804,0.68
			s-0.921,1.048-0.921,1.897c0,1.218,0.699,1.826,2.096,1.826c1.001,0,1.801-0.287,2.4-0.863s0.899-1.341,0.899-2.294V28.705z"/>
		<path id="XMLID_28_" fill="#FFFFFF" d="M787.727,20.209h4.729l2.988,8.907c0.255,0.773,0.43,1.689,0.523,2.746h0.086
			c0.104-0.972,0.307-1.888,0.608-2.746l2.931-8.907h4.631l-6.697,17.856c-0.614,1.651-1.49,2.889-2.627,3.709
			c-1.138,0.822-2.467,1.232-3.986,1.232c-0.746,0-1.478-0.08-2.195-0.24v-3.428c0.52,0.123,1.086,0.185,1.699,0.185
			c0.766,0,1.434-0.233,2.004-0.701c0.571-0.467,1.018-1.173,1.338-2.116l0.256-0.779L787.727,20.209z"/>
		<path id="XMLID_30_" fill="#FFFFFF" d="M815.296,19.911c1.869,0,3.333,0.729,4.39,2.188c1.057,1.458,1.586,3.457,1.586,5.997
			c0,2.614-0.545,4.64-1.636,6.074c-1.09,1.435-2.575,2.152-4.453,2.152c-1.86,0-3.318-0.675-4.376-2.025h-0.297l-0.723,1.742
			h-3.299V14.007h4.318v5.126c0,0.651-0.057,1.694-0.17,3.13h0.17C811.817,20.695,813.313,19.911,815.296,19.911z M813.908,23.366
			c-1.066,0-1.846,0.328-2.336,0.984c-0.491,0.656-0.746,1.739-0.766,3.25v0.467c0,1.699,0.253,2.918,0.758,3.654
			c0.506,0.736,1.305,1.104,2.4,1.104c0.887,0,1.593-0.408,2.117-1.225c0.523-0.816,0.785-2.004,0.785-3.561
			c0-1.559-0.264-2.727-0.793-3.505C815.546,23.756,814.824,23.366,813.908,23.366z"/>
		<path id="XMLID_33_" fill="#FFFFFF" d="M834.894,36.04l-0.835-2.152h-0.113c-0.728,0.916-1.476,1.551-2.245,1.904
			c-0.769,0.354-1.772,0.531-3.009,0.531c-1.52,0-2.717-0.435-3.59-1.303s-1.31-2.105-1.31-3.71c0-1.681,0.588-2.919,1.763-3.717
			c1.176-0.798,2.947-1.239,5.317-1.324l2.747-0.085v-0.693c0-1.605-0.821-2.408-2.464-2.408c-1.265,0-2.752,0.383-4.46,1.147
			l-1.431-2.917c1.821-0.953,3.843-1.43,6.061-1.43c2.124,0,3.753,0.462,4.886,1.387c1.133,0.926,1.699,2.332,1.699,4.221V36.04
			H834.894z M833.619,28.705l-1.671,0.057c-1.255,0.038-2.19,0.265-2.804,0.68s-0.92,1.048-0.92,1.897
			c0,1.218,0.698,1.826,2.096,1.826c1,0,1.801-0.287,2.399-0.863c0.6-0.576,0.899-1.341,0.899-2.294V28.705z"/>
		<path id="XMLID_36_" fill="#FFFFFF" d="M848.785,36.323c-4.928,0-7.393-2.705-7.393-8.113c0-2.691,0.671-4.746,2.012-6.167
			c1.34-1.421,3.262-2.132,5.763-2.132c1.831,0,3.474,0.359,4.928,1.076l-1.274,3.342c-0.68-0.273-1.312-0.497-1.897-0.672
			s-1.171-0.262-1.756-0.262c-2.247,0-3.37,1.595-3.37,4.785c0,3.097,1.123,4.645,3.37,4.645c0.831,0,1.601-0.11,2.308-0.332
			c0.709-0.222,1.416-0.569,2.125-1.041v3.695c-0.699,0.444-1.404,0.751-2.117,0.921S849.87,36.323,848.785,36.323z"/>
		<path id="XMLID_38_" fill="#FFFFFF" d="M861.416,27.431l1.883-2.407l4.432-4.814h4.871l-6.287,6.868l6.67,8.963H868l-4.56-6.414
			l-1.854,1.486v4.928h-4.319V14.007h4.319v9.827l-0.227,3.597H861.416z"/>
		<path id="XMLID_63_" fill="#FFFFFF" d="M762.96,71.123c-1.86,0-3.318-0.675-4.376-2.025h-0.227
			c0.151,1.322,0.227,2.087,0.227,2.295v6.414h-4.318V55.009h3.512l0.609,2.054h0.197c1.011-1.567,2.507-2.352,4.489-2.352
			c1.869,0,3.333,0.723,4.39,2.167s1.586,3.45,1.586,6.019c0,1.689-0.248,3.157-0.743,4.403c-0.496,1.246-1.202,2.194-2.117,2.847
			C765.273,70.797,764.197,71.123,762.96,71.123z M761.686,58.166c-1.066,0-1.846,0.328-2.336,0.984
			c-0.491,0.656-0.746,1.739-0.766,3.25v0.467c0,1.699,0.253,2.918,0.758,3.654c0.506,0.736,1.305,1.104,2.4,1.104
			c1.936,0,2.902-1.595,2.902-4.785c0-1.559-0.238-2.727-0.715-3.505C763.453,58.556,762.705,58.166,761.686,58.166z"/>
		<path id="XMLID_66_" fill="#FFFFFF" d="M779.782,71.123c-2.549,0-4.54-0.703-5.976-2.109c-1.436-1.407-2.152-3.398-2.152-5.977
			c0-2.652,0.663-4.703,1.989-6.152c1.327-1.449,3.16-2.174,5.501-2.174c2.238,0,3.979,0.638,5.226,1.912s1.869,3.035,1.869,5.281
			V64h-10.21c0.048,1.228,0.411,2.186,1.091,2.875s1.634,1.033,2.86,1.033c0.953,0,1.855-0.099,2.705-0.297s1.736-0.515,2.662-0.949
			v3.342c-0.756,0.378-1.562,0.659-2.422,0.843C782.066,71.031,781.02,71.123,779.782,71.123z M779.174,57.784
			c-0.916,0-1.634,0.29-2.152,0.871c-0.52,0.58-0.816,1.404-0.893,2.471h6.061c-0.02-1.066-0.297-1.891-0.836-2.471
			C780.816,58.074,780.089,57.784,779.174,57.784z"/>
		<path id="XMLID_69_" fill="#FFFFFF" d="M798.587,54.711c0.585,0,1.071,0.043,1.458,0.128l-0.325,4.05
			c-0.349-0.095-0.774-0.142-1.274-0.142c-1.379,0-2.452,0.354-3.222,1.062c-0.769,0.709-1.153,1.699-1.153,2.975v8.057h-4.319
			V55.009h3.271l0.638,2.662h0.212c0.491-0.888,1.154-1.603,1.99-2.146C796.696,54.982,797.605,54.711,798.587,54.711z"/>
		<path id="XMLID_71_" fill="#FFFFFF" d="M802.736,50.916c0-1.406,0.783-2.109,2.35-2.109c1.567,0,2.352,0.703,2.352,2.109
			c0,0.671-0.196,1.192-0.588,1.565c-0.393,0.373-0.979,0.56-1.764,0.56C803.52,53.041,802.736,52.332,802.736,50.916z
			 M807.238,70.84h-4.318V55.009h4.318V70.84z"/>
		<path id="XMLID_74_" fill="#FFFFFF" d="M826.156,62.896c0,2.576-0.68,4.592-2.039,6.046s-3.252,2.181-5.678,2.181
			c-1.52,0-2.86-0.333-4.021-0.998c-1.161-0.666-2.053-1.621-2.676-2.867s-0.936-2.7-0.936-4.361c0-2.587,0.676-4.598,2.025-6.033
			c1.35-1.435,3.248-2.152,5.692-2.152c1.521,0,2.86,0.331,4.021,0.992c1.161,0.66,2.054,1.609,2.677,2.846
			S826.156,61.234,826.156,62.896z M815.211,62.896c0,1.566,0.258,2.751,0.771,3.554c0.515,0.803,1.353,1.204,2.514,1.204
			c1.152,0,1.98-0.399,2.484-1.197c0.506-0.798,0.758-1.984,0.758-3.561c0-1.567-0.254-2.743-0.764-3.526s-1.346-1.175-2.507-1.175
			c-1.151,0-1.982,0.389-2.492,1.168C815.466,60.142,815.211,61.319,815.211,62.896z"/>
		<path id="XMLID_77_" fill="#FFFFFF" d="M834.738,71.123c-1.86,0-3.32-0.723-4.383-2.166c-1.062-1.445-1.594-3.446-1.594-6.004
			c0-2.597,0.541-4.619,1.621-6.068c1.082-1.449,2.57-2.174,4.469-2.174c1.991,0,3.512,0.774,4.559,2.322h0.143
			c-0.218-1.18-0.326-2.232-0.326-3.157v-5.069h4.333V70.84h-3.313l-0.836-2.053h-0.184
			C838.244,70.344,836.748,71.123,834.738,71.123z M836.253,67.682c1.104,0,1.914-0.32,2.429-0.963
			c0.514-0.642,0.795-1.731,0.842-3.271V62.98c0-1.699-0.262-2.916-0.785-3.652s-1.376-1.105-2.557-1.105
			c-0.963,0-1.711,0.409-2.244,1.226s-0.8,2.003-0.8,3.562c0,1.557,0.269,2.726,0.808,3.504
			C834.482,67.293,835.252,67.682,836.253,67.682z"/>
		<path id="XMLID_80_" fill="#FFFFFF" d="M847.468,57.119c0-0.793,0.212-1.393,0.638-1.799c0.424-0.406,1.043-0.609,1.854-0.609
			c0.784,0,1.39,0.208,1.819,0.623c0.43,0.416,0.645,1.011,0.645,1.785c0,0.764-0.219,1.356-0.658,1.776s-1.041,0.63-1.806,0.63
			c-0.793,0-1.407-0.207-1.841-0.623C847.686,58.487,847.468,57.893,847.468,57.119z M847.468,68.814
			c0-0.793,0.212-1.392,0.638-1.798c0.424-0.406,1.043-0.608,1.854-0.608c0.784,0,1.39,0.207,1.819,0.623
			c0.43,0.415,0.645,1.01,0.645,1.783c0,0.746-0.217,1.334-0.651,1.764s-1.038,0.645-1.812,0.645c-0.793,0-1.407-0.211-1.841-0.631
			S847.468,69.58,847.468,68.814z"/>
	</g>
</g>
</svg>
