<?xml version="1.0" encoding="utf-8"?>
<!-- Generator: Adobe Illustrator 16.0.4, SVG Export Plug-In . SVG Version: 6.00 Build 0)  -->
<!DOCTYPE svg PUBLIC "-//W3C//DTD SVG 1.1//EN" "http://www.w3.org/Graphics/SVG/1.1/DTD/svg11.dtd">
<svg version="1.1" id="Layer_1" xmlns="http://www.w3.org/2000/svg" xmlns:xlink="http://www.w3.org/1999/xlink" x="0px" y="0px"
	 width="999px" height="878.888px" viewBox="0 0 999 878.888" enable-background="new 0 0 999 878.888" xml:space="preserve">
<rect x="18" y="98.888" fill="#EEF2F6" stroke="#D4DCE5" stroke-width="2" stroke-miterlimit="10" width="958" height="262"/>
<g>
	<path fill="#A51E22" d="M195,464.978c0,2.209,1.791,4,4,4h596c2.209,0,4-1.791,4-4v-39.935c0-2.209-1.791-4-4-4H199
		c-2.209,0-4,1.791-4,4V464.978z"/>
</g>
<text transform="matrix(1 0 0 1 409.9854 449.5225)" fill="#FFFFFF" font-family="'OpenSans-Bold'" font-size="14">OpenStack Control Plane</text>
<g>
	<text transform="matrix(1 0 0 1 411.9492 153.207)" fill="#2A4F68" font-family="'OpenSans-Bold'" font-size="16">API INTERACTIONS</text>
</g>
<g>
	<text transform="matrix(1 0 0 1 386.7969 512.207)" fill="#2A4F68" font-family="'OpenSans-Bold'" font-size="16">BACK-END ORCHESTRATION</text>
</g>
<g>
	<path fill="#30739C" d="M60.01,308.888c0,2.209,1.791,4,4,4h180.391c2.209,0,4-1.791,4-4V199.724c0-2.209-1.791-4-4-4H64.01
		c-2.209,0-4,1.791-4,4V308.888z"/>
</g>
<g>
	<text transform="matrix(1 0 0 1 106.5337 238.5234)" fill="#FFFFFF" font-family="'OpenSans-Semibold'" font-size="12">PaaS Auomation</text>
</g>
<g>
	<path fill="#30739C" d="M288.54,308.888c0,2.209,1.791,4,4,4h180.392c2.209,0,4-1.791,4-4V199.724c0-2.209-1.791-4-4-4H292.54
		c-2.209,0-4,1.791-4,4V308.888z"/>
</g>
<g>
	<text transform="matrix(1 0 0 1 329.1807 231.3232)"><tspan x="0" y="0" fill="#FFFFFF" font-family="'OpenSans-Semibold'" font-size="12">Policy or Template</tspan><tspan x="-7.541" y="14.4" fill="#FFFFFF" font-family="'OpenSans-Semibold'" font-size="12">Driven Orchestration</tspan></text>
</g>
<g>
	<path fill="#30739C" d="M517.068,308.888c0,2.209,1.791,4,4,4h180.391c2.209,0,4-1.791,4-4V199.724c0-2.209-1.791-4-4-4H521.068
		c-2.209,0-4,1.791-4,4V308.888z"/>
</g>
<g>
	<text transform="matrix(1 0 0 1 586.1953 238.5234)" fill="#FFFFFF" font-family="'OpenSans-Semibold'" font-size="12">Web GUI</text>
</g>
<g>
	<path fill="#30739C" d="M745.598,308.888c0,2.209,1.791,4,4,4H929.99c2.209,0,4-1.791,4-4V199.724c0-2.209-1.791-4-4-4H749.598
		c-2.209,0-4,1.791-4,4V308.888z"/>
</g>
<g>
	<text transform="matrix(1 0 0 1 784.6191 238.5234)" fill="#FFFFFF" font-family="'OpenSans-Semibold'" font-size="12">Custom Automation</text>
</g>
<polyline fill="none" stroke="#A51E22" stroke-width="2" stroke-miterlimit="10" points="497.5,366.828 497.5,415.722 
	496.5,415.722 496.5,366.725 "/>
<polyline fill="none" stroke="#A51E22" stroke-width="2" stroke-miterlimit="10" points="296,475.852 296,535.888 295,535.888 
	295,475.725 "/>
<polyline fill="none" stroke="#A51E22" stroke-width="2" stroke-miterlimit="10" points="699,475.852 699,535.888 698,535.888 
	698,475.725 "/>
<g>
	<g>
		<path fill="#2A4F68" d="M497.259,23.096h-29.79l-8.938,20.854v14.896h47.665V43.949L497.259,23.096z M503.217,55.865H461.51
			v-8.937h41.707V55.865z"/>
		<rect x="497.259" y="49.907" fill="#2A4F68" width="2.979" height="2.979"/>
		<rect x="464.489" y="49.907" fill="#2A4F68" width="2.979" height="2.979"/>
		<rect x="470.447" y="49.907" fill="#2A4F68" width="2.979" height="2.979"/>
		<rect x="476.405" y="49.907" fill="#2A4F68" width="2.979" height="2.979"/>
	</g>
</g>
<polyline fill="none" stroke="#D4DCE5" stroke-width="2" stroke-miterlimit="10" points="481.863,89.464 481.864,67.262 
	482.864,67.262 482.863,89.511 "/>
<polyline fill="none" stroke="#D4DCE5" stroke-width="2" stroke-miterlimit="10" points="403.946,41.22 446.618,41.221 
	446.618,42.221 403.856,42.22 "/>
<g>
	<g>
		<path fill="#2A4F68" d="M369.624,19.272c-11.979,0-21.697,9.719-21.697,21.698c0,11.979,9.719,21.697,21.697,21.697
			c11.979,0,21.698-9.719,21.698-21.697C391.322,28.991,381.604,19.272,369.624,19.272z M375.552,52.271
			c0,0,0.003,0.003,0.006,0.003c0.129-0.018,0.158,0.002,0.257-0.165c0,0.263,0.057,0.512,0.164,0.752
			c-0.303-1.193,0.909-1.229,1.458-1.936c0.209-0.274,0.548-1.028,0.813-1.142c0.142,0.209,0.172,0.44,0.096,0.681
			c0.062-0.172,0.009-0.011-0.011,0.048c-0.007,0.24-0.049,0.469-0.153,0.684c-0.042-0.04-0.065-0.088-0.073-0.145
			c-0.96,0.78-0.949,2.992-2.255,3.542c-0.7,0.294-0.612-0.652-0.35-0.986c0.39-0.498-0.145-0.822,0.099-1.311
			c-0.017,0-0.031-0.023-0.045-0.025c-0.003,0.002-0.006,0.002-0.006,0.002C375.552,52.274,375.552,52.271,375.552,52.271
			c-0.237-0.057-0.466-0.647-0.466-0.983c0.279-0.051,0.424-0.22,0.445-0.119c0.071-0.088,0.396-0.662,0.398-0.749
			C376.019,50.918,375.303,51.881,375.552,52.271z M385.31,38.406c-0.361-0.696-0.681-1.503-0.942-1.916
			c-0.464-0.734-0.758-1.911-1.431-2.47c0.159,0.195,0.178,0.401,0.051,0.616c-0.351-0.105-0.636-0.305-0.842-0.616
			c-0.034-0.142,0.359,0.192,0.141-0.232c-0.556,0.074-0.954-0.5-1.408-0.819c-0.8-0.105-1.671,0.571-2.486,0.093
			c-0.19-0.113-0.371-0.771-0.668-0.39c-0.155,0.201-0.321,0.201-0.554,0.133c-0.912-0.277-1.307-1.06-2.133-1.083
			c0.009,0.35,0.596,0.868,0.876,1.029c0.367,0.212,0.624,1.133,0.67,0.311c0.525,0.302,0.152,0.975,0.898,0.726
			c0.567,0.22,0.415-0.689,0.534-0.96c0.178,0.107,0.277,0.548,0.421,0.689c0.297,0.276,0.721,0.169,0.994,0.454
			c0.348,0.362,0.545,0.881,0.461,1.317c-0.325-0.025-0.068,0.39-0.271,0.709c-0.221,0.333-0.201,0.407-0.339,0.769
			c-0.385,0.095-0.84,0.271-0.769,0.773c-0.269,0.322-2.664,2.058-2.981,1.583c-0.389-0.589-0.485-1.405-0.802-2.026
			c-0.47-0.156-1.446-1.348-1.639-1.809c0.145-0.811-1.997-2.405-2.346-2.416c0.255,1.103,1.205,1.685,1.643,2.534
			c0.37,0.729,1.051,2.441,1.618,2.675c0.946-0.09,1.528,1.628,2.034,1.984c0.659,0.458,2.009-1.028,2.585-0.881
			c0.065,0.78,0.052,1.015-0.186,1.876c-0.48,1.762-1.291,2.525-2.334,3.955c-0.602,0.822-0.991,1.401-1.443,2.306
			c-0.354,0.714,0.681,2.209,0.398,2.607c0.152,1.167-0.134,1.851-1.142,2.433c-0.737,0.429-1.373,0.836-1.125,1.644
			c0.251,0.809-0.754,0.936-0.872,1.39c-0.309,0.752-0.738,1.153-1.255,1.436c-0.348,0.023-0.692,0.051-1.043,0.051
			c-0.633,0-1.254-0.048-1.87-0.119c-0.818-1.023-1.666-2.107-2.542-3.13c-0.534-0.611-1.255-1.724-0.476-2.508
			c0.088-0.509-0.522-1.685-0.793-2.134c-0.455-0.76-2.555-2.405-1.735-3.286c0.113-0.581-0.398-1.16-0.398-1.619
			c-0.446-0.359-0.901,0.48-1.336-0.28c-0.464-0.813-1.306-0.59-2.003-0.09c-0.156,0.108-2.094,0.396-2.267,0.243
			c-1.474-1.316-1.942-3.382-1.433-5.153c0.209-0.734,0.235-2.04,0.82-2.532c0.191-0.763,1.072-1.514,1.543-2.141
			c0.248-0.337,0.654-0.367,0.946-0.712c0.438-0.514,0.649-1.125,1.215-1.579c0.57-0.452,1.794-1.223,0.754-1.388
			c0.413-0.604,1.07-1.265,1.313-1.991c0.355-0.285,1.023-0.167,1.424-0.365c0.345-0.706,0.485-0.683,0.356-1.135
			c0.07-0.289,0.985-0.509,1.181-0.583c0.361-0.142,0.684-0.474,1.011-0.717c1.368-0.384,2.804-0.604,4.289-0.604
			C377.523,25.059,384.078,30.85,385.31,38.406z"/>
		<path fill="#2A4F68" d="M370.133,27.805c-0.003,0.285,1.02,0.243,1.173,0.283c-0.274-0.068,0.093-0.057,0,0
			c0.93-0.577-1.913-1.128-1.947-1.147c0.077-0.034,0.127-0.087,0.145-0.164c-0.509,0.187-0.178-0.367-0.655,0.187
			c0.124,0.42-0.43,0.701-0.189,1.146C369.153,28.528,369.647,27.884,370.133,27.805z"/>
		<path fill="#2A4F68" d="M366.384,28.909c-0.503-0.285-0.141,0.113-0.446,0.452c-0.443,0.506-0.404,0.676-1.082,0.416
			c-0.029-0.562,1.274-0.062,0.678-1.09c-0.297-0.509-0.582-1.114-1.145-0.741c-0.53,0.351-1.488,0.554-1.9,1.316
			c-0.244,0.254-1.953,1.574-1.947,1.689c0.661,0.537,3.264-1.587,3.916-0.963c-0.043,0.441-0.551,0.774-0.562,1.218
			c0.195,0.082,0.244,0.271,0.47,0.304c0.861-0.186,0.629,0.407,1.265,0.562c1.062,0.264,0.252,0.065,0.921-0.598
			c0.221-0.212,1.394-0.19,1.447,0.177c-0.034-0.229,0.492-0.09,0,0c0.522-0.096,1.025,0.429,1.413,0.04
			c0.275-0.271,0.502-0.217,0.709-0.065c0.946,0.684,0.626-1.98,0.652-2.107c-0.328,0.212-2.224,0.409-2.209,0.212
			c0.033-0.232-0.243-0.249-0.351-0.542c0.37-0.44-0.322-0.22,0.048-0.701c-0.187-0.097-0.376-0.097-0.562,0
			c-0.08,0.317,0.155,0.204-0.264,0.115c-0.139,0.342,0.325,0.574,0.264,0.891c-0.057-0.045-0.122-0.071-0.19-0.068
			c-0.059,0.229-0.017,0.175-0.021,0.537c-0.645-0.119-0.294-0.607-0.845-1.312c0.499-0.397-1.038-1.18-0.82-1.43
			C364.736,27.514,366.684,28.649,366.384,28.909z M364.389,29.333c-0.106,0.045-0.217,0.068-0.33,0.068
			c0.088-0.274,0.485-1.251,0.729-1.292C364.771,28.463,364.449,28.969,364.389,29.333z"/>
		<path fill="#2A4F68" d="M364.389,29.333C364.435,29.06,364.22,29.303,364.389,29.333L364.389,29.333z"/>
		<path fill="#2A4F68" d="M373.631,28.135c-0.258,0.1,0.064,0.876,0.469,0.846c0.285,0.242,0.607,0.287,0.961,0.14
			c-0.094-0.658-1.74-1.949-2.277-2.231c0.079-0.073,0.109-0.308,0.285-0.283c-0.161-0.706-0.893-0.135-0.893,0.312
			C372.449,27.249,373.561,27.828,373.631,28.135z"/>
		<path fill="#2A4F68" d="M374.1,28.981C373.789,29.003,374.295,29.195,374.1,28.981L374.1,28.981z"/>
		<path fill="#2A4F68" d="M374.919,26.985c-0.263-0.059-0.543-0.644-0.819-0.728c-0.031,0.149-0.021,0.132-0.045,0.237
			c0.02-0.08,0.121,0.195,0,0C374.156,26.663,374.613,27.311,374.919,26.985z"/>
		<path fill="#2A4F68" d="M363.024,27.923c-0.054,0.09-0.147,0.13-0.237,0.175c-0.006,0.015-0.012,0.023-0.02,0.037
			C362.855,28.172,362.951,27.896,363.024,27.923z"/>
	</g>
</g>
<g>
	<text transform="matrix(1 0 0 1 347 76.3867)" fill="#2A4F68" font-family="'OpenSans-Semibold'" font-size="12">Internet</text>
</g>
<g>
	
		<rect x="116.5" y="544.136" fill="#EEF2F6" stroke="#D4DCE5" stroke-width="2" stroke-miterlimit="10" width="358" height="283.681"/>
	<g>
		<path fill="#30739C" d="M148.696,716.888c0,2.209,1.791,4,4,4h290.327c2.209,0,4-1.791,4-4v-144c0-2.209-1.791-4-4-4H152.696
			c-2.209,0-4,1.791-4,4V716.888z"/>
	</g>
	<g>
		<path fill="#D4DCE5" d="M147.119,764.279c0,2.209,1.791,4,4,4H444.6c2.209,0,4-1.791,4-4v-27.392c0-2.209-1.791-4-4-4H151.119
			c-2.209,0-4,1.791-4,4V764.279z"/>
	</g>
	<text transform="matrix(1 0 0 1 223.0547 754.0986)" fill="#2A4F68" font-family="'OpenSans'" font-size="12">PROPRIETARY STORAGE</text>
	<g>
		<path fill="#D4DCE5" d="M147.119,803.888c0,2.209,1.791,4,4,4H444.6c2.209,0,4-1.791,4-4v-27.392c0-2.209-1.791-4-4-4H151.119
			c-2.209,0-4,1.791-4,4V803.888z"/>
	</g>
	<text transform="matrix(1 0 0 1 220.752 793.708)" fill="#2A4F68" font-family="'OpenSans'" font-size="12">PROPRIETARY NETWORK</text>
	<g>
		<text transform="matrix(1 0 0 1 226.793 846.4795)" fill="#2A4F68" font-family="'OpenSans-Bold'" font-size="13">PROPRIETARY CLOUD</text>
	</g>
	<g>
		<g>
			<path fill="#29AAE2" d="M187.307,673.167c0,2.209,1.791,4,4,4h213.105c2.209,0,4-1.791,4-4v-33.104c0-2.209-1.791-4-4-4H191.307
				c-2.209,0-4,1.791-4,4V673.167z"/>
		</g>
		<g>
			<text transform="matrix(1 0 0 1 285.8062 660.0635)" fill="#FFFFFF" font-family="'OpenSans-Semibold'" font-size="12">ESXi</text>
		</g>
	</g>
	<g>
		<g>
			<path fill="#2A4F68" d="M187.307,626.167c0,2.209,1.791,4,4,4h213.105c2.209,0,4-1.791,4-4v-33.104c0-2.209-1.791-4-4-4H191.307
				c-2.209,0-4,1.791-4,4V626.167z"/>
		</g>
		<g>
			<text transform="matrix(1 0 0 1 243.9468 606.0635)"><tspan x="0" y="0" fill="#FFFFFF" font-family="'OpenSans-Semibold'" font-size="12">Proprietary Virtual</tspan><tspan x="8.244" y="14.4" fill="#FFFFFF" font-family="'OpenSans-Semibold'" font-size="12">Network Switch</tspan></text>
		</g>
	</g>
	<g>
		<text transform="matrix(1 0 0 1 268.4658 704.3232)" fill="#FFFFFF" font-family="'OpenSans-Bold'" font-size="12">COMPUTE</text>
	</g>
</g>
<g>
	
		<rect x="519.5" y="544.136" fill="#EEF2F6" stroke="#D4DCE5" stroke-width="2" stroke-miterlimit="10" width="358" height="283.681"/>
	<g>
		<path fill="#30739C" d="M551.695,716.888c0,2.209,1.791,4,4,4h290.327c2.209,0,4-1.791,4-4v-144c0-2.209-1.791-4-4-4H555.695
			c-2.209,0-4,1.791-4,4V716.888z"/>
	</g>
	<g>
		<path fill="#D4DCE5" d="M550.119,764.279c0,2.209,1.791,4,4,4H847.6c2.209,0,4-1.791,4-4v-27.392c0-2.209-1.791-4-4-4h-293.48
			c-2.209,0-4,1.791-4,4V764.279z"/>
	</g>
	<text transform="matrix(1 0 0 1 602.1221 754.0986)" fill="#2A4F68" font-family="'OpenSans'" font-size="12">MULTIPLE STORAGE SOLUTIONS</text>
	<g>
		<path fill="#D4DCE5" d="M550.119,803.888c0,2.209,1.791,4,4,4H847.6c2.209,0,4-1.791,4-4v-27.392c0-2.209-1.791-4-4-4h-293.48
			c-2.209,0-4,1.791-4,4V803.888z"/>
	</g>
	<text transform="matrix(1 0 0 1 635.2012 793.708)" fill="#2A4F68" font-family="'OpenSans'" font-size="12">PHYSICAL NETWORK</text>
	<g>
		<text transform="matrix(1 0 0 1 655.9199 846.4795)" fill="#2A4F68" font-family="'OpenSans-Bold'" font-size="13">open CLOUD</text>
	</g>
	<g>
		<g>
			<path fill="#29AAE2" d="M590.307,673.167c0,2.209,1.791,4,4,4h213.105c2.209,0,4-1.791,4-4v-33.104c0-2.209-1.791-4-4-4H594.307
				c-2.209,0-4,1.791-4,4V673.167z"/>
		</g>
		<g>
			<text transform="matrix(1 0 0 1 669.2969 660.0635)" fill="#FFFFFF" font-family="'OpenSans-Semibold'" font-size="12">Hypervisor</text>
		</g>
	</g>
	<g>
		<g>
			<path fill="#2A4F68" d="M590.307,626.167c0,2.209,1.791,4,4,4h213.105c2.209,0,4-1.791,4-4v-33.104c0-2.209-1.791-4-4-4H594.307
				c-2.209,0-4,1.791-4,4V626.167z"/>
		</g>
		<g>
			<text transform="matrix(1 0 0 1 641.1641 606.0635)"><tspan x="0" y="0" fill="#FFFFFF" font-family="'OpenSans-Semibold'" font-size="12">Proprietary or Open </tspan><tspan x="-6.844" y="14.4" fill="#FFFFFF" font-family="'OpenSans-Semibold'" font-size="12">Virtual Network Switch</tspan></text>
		</g>
	</g>
	<g>
		<text transform="matrix(1 0 0 1 671.4658 704.3232)" fill="#FFFFFF" font-family="'OpenSans-Bold'" font-size="12">COMPUTE</text>
	</g>
</g>
<g>
	<polygon fill="#FFFFFF" points="624.764,275.839 614.069,265.143 622.801,260.779 597.764,252.434 606.109,277.47 610.473,268.739 
		621.168,279.435 	"/>
</g>
<g>
	<path fill="#FFFFFF" d="M388.776,251.893h-1.36h-9.361v3.745h-3.745v3.745h-3.744v20.594h16.851v-3.744h3.744v-3.745h3.745v-13.105
		v-0.902L388.776,251.893z M385.543,278.104h-13.105v-1.872v-14.978h1.872v14.978h11.233V278.104z M389.288,274.359h-1.872h-1.873
		h-9.361v-13.104v-1.873v-1.872h1.873v1.872v1.873v11.232h7.488h1.873h1.872V274.359z M393.032,270.615h-1.872h-1.872h-1.872h-1.873
		h-5.616v-9.36v-1.873v-1.872v-1.873v-1.872h7.489v4.434v1.183h1.101h4.516V270.615z"/>
</g>
<g>
	<path fill="#FFFFFF" d="M827.99,252.81v26.25h30v-26.25H827.99z M856.115,277.184h-26.25v-22.5h26.25V277.184z"/>
	<path fill="#FFFFFF" d="M854.24,256.56h-22.5v18.75h22.5V256.56z M840.102,262.95l-4.311,2.958
		c-0.165,0.113-0.348,0.165-0.531,0.165c-0.3,0-0.593-0.139-0.772-0.406c-0.293-0.425-0.187-1.011,0.241-1.304l3.124-2.145
		l-3.087-1.908c-0.439-0.271-0.575-0.849-0.304-1.289c0.274-0.442,0.853-0.578,1.289-0.305l4.31,2.664
		c0.271,0.167,0.44,0.458,0.447,0.775C840.515,262.47,840.361,262.77,840.102,262.95z M848.615,264.059h-5.625v-1.875h5.625V264.059
		z"/>
</g>
<path fill="#FFFFFF" d="M166.113,258.267l-3.269,3.249l-3.616-0.783l-0.76-3.619l3.274-3.256c-0.51-0.141-1.042-0.24-1.597-0.241
	c-3.429-0.008-6.215,2.759-6.225,6.188c-0.003,0.729,0.144,1.416,0.372,2.066l-11.177,11.106c-1.336,1.329-1.497,3.356-0.358,4.503
	c1.143,1.146,3.168,0.998,4.507-0.332l11.294-11.228c0.028-0.026,0.047-0.06,0.074-0.087c0.475,0.117,0.964,0.198,1.476,0.198
	c3.428,0.012,6.214-2.759,6.225-6.188C166.337,259.296,166.244,258.774,166.113,258.267z"/>
</svg>
