<?xml version="1.0" encoding="utf-8"?>
<!-- Generator: Adobe Illustrator 18.1.1, SVG Export Plug-In . SVG Version: 6.00 Build 0)  -->
<svg version="1.1" id="Layer_1" xmlns="http://www.w3.org/2000/svg" xmlns:xlink="http://www.w3.org/1999/xlink" x="0px" y="0px"
	 viewBox="0 0 500 250" enable-background="new 0 0 500 250" xml:space="preserve">
<rect width="500" height="250"/>
<g>
	<g>
		<path fill="#EEEEEE" d="M130.5,48.8c-0.9,0-1.7,0.3-2.2,1c-0.5,0.7-0.8,1.6-0.8,2.8c0,1.2,0.3,2.2,0.8,2.8
			c0.5,0.6,1.3,0.9,2.2,0.9c0.4,0,0.8,0,1.2-0.1s0.8-0.2,1.2-0.3v1.4c-0.8,0.3-1.7,0.4-2.7,0.4c-1.5,0-2.6-0.4-3.4-1.3
			c-0.8-0.9-1.2-2.2-1.2-3.8c0-1,0.2-1.9,0.6-2.7c0.4-0.8,0.9-1.4,1.7-1.8c0.7-0.4,1.6-0.6,2.5-0.6c1,0,2,0.2,2.8,0.6l-0.6,1.4
			c-0.3-0.2-0.7-0.3-1.1-0.4S130.9,48.8,130.5,48.8z"/>
		<path fill="#EEEEEE" d="M143,57.5h-1.6V53h-4.6v4.5h-1.6v-10h1.6v4.1h4.6v-4.1h1.6V57.5z"/>
		<path fill="#EEEEEE" d="M151.3,57.5h-5.7v-10h5.7v1.4h-4v2.7h3.8V53h-3.8v3.1h4V57.5z"/>
		<path fill="#EEEEEE" d="M157.7,48.8c-0.9,0-1.7,0.3-2.2,1c-0.5,0.7-0.8,1.6-0.8,2.8c0,1.2,0.3,2.2,0.8,2.8
			c0.5,0.6,1.3,0.9,2.2,0.9c0.4,0,0.8,0,1.2-0.1s0.8-0.2,1.2-0.3v1.4c-0.8,0.3-1.7,0.4-2.7,0.4c-1.5,0-2.6-0.4-3.4-1.3
			c-0.8-0.9-1.2-2.2-1.2-3.8c0-1,0.2-1.9,0.6-2.7c0.4-0.8,0.9-1.4,1.7-1.8c0.7-0.4,1.6-0.6,2.5-0.6c1,0,2,0.2,2.8,0.6l-0.6,1.4
			c-0.3-0.2-0.7-0.3-1.1-0.4S158.1,48.8,157.7,48.8z"/>
		<path fill="#EEEEEE" d="M170,57.5h-1.9L165,53l-1,0.8v3.7h-1.6v-10h1.6v4.8c0.4-0.5,0.9-1.1,1.3-1.6l2.7-3.2h1.9
			c-1.7,2.1-3,3.5-3.8,4.4L170,57.5z"/>
		<path fill="#EEEEEE" d="M174.9,47.5h3c1.4,0,2.4,0.2,3,0.6c0.6,0.4,0.9,1,0.9,1.9c0,0.6-0.2,1.1-0.5,1.5s-0.7,0.6-1.3,0.7v0.1
			c0.7,0.1,1.2,0.4,1.5,0.8c0.3,0.4,0.5,0.9,0.5,1.6c0,0.9-0.3,1.6-0.9,2.1c-0.6,0.5-1.5,0.8-2.6,0.8h-3.6V47.5z M176.6,51.7h1.6
			c0.7,0,1.2-0.1,1.5-0.3s0.5-0.6,0.5-1.1c0-0.5-0.2-0.8-0.5-1c-0.3-0.2-0.9-0.3-1.6-0.3h-1.4V51.7z M176.6,53v3.2h1.7
			c0.7,0,1.2-0.1,1.5-0.4s0.5-0.7,0.5-1.2c0-0.5-0.2-0.9-0.5-1.2S179,53,178.2,53H176.6z"/>
		<path fill="#EEEEEE" d="M190.4,57.5l-1-2.8h-3.8l-1,2.8h-1.7l3.7-10h1.8l3.7,10H190.4z M189,53.3l-0.9-2.7
			c-0.1-0.2-0.2-0.5-0.3-0.9c-0.1-0.4-0.2-0.7-0.2-0.9c-0.1,0.6-0.3,1.2-0.5,1.8l-0.9,2.6H189z"/>
		<path fill="#EEEEEE" d="M197.7,48.8c-0.9,0-1.7,0.3-2.2,1c-0.5,0.7-0.8,1.6-0.8,2.8c0,1.2,0.3,2.2,0.8,2.8
			c0.5,0.6,1.3,0.9,2.2,0.9c0.4,0,0.8,0,1.2-0.1s0.8-0.2,1.2-0.3v1.4c-0.8,0.3-1.7,0.4-2.7,0.4c-1.5,0-2.6-0.4-3.4-1.3
			c-0.8-0.9-1.2-2.2-1.2-3.8c0-1,0.2-1.9,0.6-2.7c0.4-0.8,0.9-1.4,1.7-1.8c0.7-0.4,1.6-0.6,2.5-0.6c1,0,2,0.2,2.8,0.6l-0.6,1.4
			c-0.3-0.2-0.7-0.3-1.1-0.4S198.1,48.8,197.7,48.8z"/>
		<path fill="#EEEEEE" d="M209.9,57.5H208l-3.1-4.5l-1,0.8v3.7h-1.6v-10h1.6v4.8c0.4-0.5,0.9-1.1,1.3-1.6l2.7-3.2h1.9
			c-1.7,2.1-3,3.5-3.8,4.4L209.9,57.5z"/>
		<path fill="#EEEEEE" d="M220.7,54.8c0,0.9-0.3,1.6-1,2.1s-1.5,0.8-2.7,0.8c-1.1,0-2.1-0.2-2.8-0.5v-1.5c0.5,0.2,0.9,0.4,1.5,0.5
			s1,0.2,1.4,0.2c0.6,0,1.1-0.1,1.4-0.4s0.5-0.6,0.5-1c0-0.4-0.1-0.7-0.4-1c-0.3-0.3-0.9-0.6-1.8-0.9c-0.9-0.4-1.6-0.8-1.9-1.3
			c-0.4-0.5-0.6-1-0.6-1.7c0-0.8,0.3-1.5,0.9-2c0.6-0.5,1.4-0.7,2.4-0.7c1,0,1.9,0.2,2.9,0.6l-0.5,1.3c-0.9-0.4-1.7-0.6-2.4-0.6
			c-0.5,0-0.9,0.1-1.2,0.3S216,49.7,216,50c0,0.3,0.1,0.5,0.2,0.7s0.3,0.4,0.5,0.5c0.2,0.2,0.7,0.4,1.4,0.6c0.7,0.3,1.3,0.6,1.6,0.9
			s0.6,0.6,0.8,0.9C220.6,54,220.7,54.4,220.7,54.8z"/>
		<path fill="#EEEEEE" d="M231.5,52.5c0,1.6-0.4,2.9-1.2,3.8s-2,1.4-3.5,1.4c-1.5,0-2.7-0.4-3.5-1.3c-0.8-0.9-1.2-2.2-1.2-3.8
			s0.4-2.9,1.2-3.8s2-1.3,3.5-1.3c1.5,0,2.6,0.4,3.4,1.3C231.1,49.6,231.5,50.9,231.5,52.5z M223.8,52.5c0,1.2,0.2,2.2,0.7,2.8
			c0.5,0.6,1.2,1,2.2,1c1,0,1.7-0.3,2.2-0.9c0.5-0.6,0.7-1.6,0.7-2.8c0-1.2-0.2-2.2-0.7-2.8c-0.5-0.6-1.2-1-2.2-1
			c-1,0-1.7,0.3-2.2,1S223.8,51.3,223.8,52.5z"/>
		<path fill="#EEEEEE" d="M242.5,52.5c0,1.6-0.4,2.9-1.2,3.8s-2,1.4-3.5,1.4c-1.5,0-2.7-0.4-3.5-1.3c-0.8-0.9-1.2-2.2-1.2-3.8
			s0.4-2.9,1.2-3.8s2-1.3,3.5-1.3c1.5,0,2.6,0.4,3.4,1.3C242.1,49.6,242.5,50.9,242.5,52.5z M234.9,52.5c0,1.2,0.2,2.2,0.7,2.8
			c0.5,0.6,1.2,1,2.2,1c1,0,1.7-0.3,2.2-0.9c0.5-0.6,0.7-1.6,0.7-2.8c0-1.2-0.2-2.2-0.7-2.8c-0.5-0.6-1.2-1-2.2-1
			c-1,0-1.7,0.3-2.2,1S234.9,51.3,234.9,52.5z"/>
		<path fill="#EEEEEE" d="M253,57.5h-2l-4.9-8H246l0,0.4c0.1,0.8,0.1,1.6,0.1,2.3v5.2h-1.5v-10h2l4.9,7.9h0c0-0.1,0-0.5-0.1-1.1
			s0-1.2,0-1.5v-5.2h1.5V57.5z"/>
		<path fill="#EEEEEE" d="M260.9,57.5h-1.6v-10h5.6v1.4h-4V52h3.8v1.4h-3.8V57.5z"/>
		<path fill="#EEEEEE" d="M275.6,52.5c0,1.6-0.4,2.9-1.2,3.8s-2,1.4-3.5,1.4c-1.5,0-2.7-0.4-3.5-1.3c-0.8-0.9-1.2-2.2-1.2-3.8
			s0.4-2.9,1.2-3.8s2-1.3,3.5-1.3c1.5,0,2.6,0.4,3.4,1.3C275.2,49.6,275.6,50.9,275.6,52.5z M267.9,52.5c0,1.2,0.2,2.2,0.7,2.8
			c0.5,0.6,1.2,1,2.2,1c1,0,1.7-0.3,2.2-0.9c0.5-0.6,0.7-1.6,0.7-2.8c0-1.2-0.2-2.2-0.7-2.8c-0.5-0.6-1.2-1-2.2-1
			c-1,0-1.7,0.3-2.2,1S267.9,51.3,267.9,52.5z"/>
		<path fill="#EEEEEE" d="M279.3,53.5v4h-1.6v-10h2.8c1.3,0,2.2,0.2,2.9,0.7c0.6,0.5,0.9,1.2,0.9,2.2c0,1.2-0.6,2.1-1.9,2.7l2.8,4.4
			h-1.9l-2.4-4H279.3z M279.3,52.2h1.1c0.8,0,1.3-0.1,1.7-0.4s0.5-0.7,0.5-1.3c0-0.6-0.2-1-0.6-1.2s-0.9-0.4-1.7-0.4h-1.1V52.2z"/>
		<path fill="#EEEEEE" d="M296,47.5h1.7l-3.5,10h-1.7l-3.5-10h1.7l2.1,6.2c0.1,0.3,0.2,0.7,0.3,1.1s0.2,0.8,0.2,1
			c0.1-0.3,0.2-0.7,0.3-1.2s0.2-0.8,0.3-1L296,47.5z"/>
		<path fill="#EEEEEE" d="M299,57.5v-10h1.6v10H299z"/>
		<path fill="#EEEEEE" d="M311.4,52.4c0,1.6-0.5,2.9-1.4,3.8s-2.2,1.3-4,1.3h-2.8v-10h3.1c1.6,0,2.8,0.4,3.7,1.3
			C311,49.7,311.4,50.9,311.4,52.4z M309.7,52.5c0-2.4-1.1-3.6-3.4-3.6h-1.4v7.3h1.2C308.5,56.2,309.7,54.9,309.7,52.5z"/>
		<path fill="#EEEEEE" d="M319.2,57.5h-5.7v-10h5.7v1.4h-4v2.7h3.8V53h-3.8v3.1h4V57.5z"/>
		<path fill="#EEEEEE" d="M330.2,52.5c0,1.6-0.4,2.9-1.2,3.8s-2,1.4-3.5,1.4c-1.5,0-2.7-0.4-3.5-1.3c-0.8-0.9-1.2-2.2-1.2-3.8
			s0.4-2.9,1.2-3.8s2-1.3,3.5-1.3c1.5,0,2.6,0.4,3.4,1.3C329.8,49.6,330.2,50.9,330.2,52.5z M322.6,52.5c0,1.2,0.2,2.2,0.7,2.8
			c0.5,0.6,1.2,1,2.2,1c1,0,1.7-0.3,2.2-0.9c0.5-0.6,0.7-1.6,0.7-2.8c0-1.2-0.2-2.2-0.7-2.8c-0.5-0.6-1.2-1-2.2-1
			c-1,0-1.7,0.3-2.2,1S322.6,51.3,322.6,52.5z"/>
		<path fill="#EEEEEE" d="M337.6,57.5H336v-10h5.6v1.4h-4V52h3.8v1.4h-3.8V57.5z"/>
		<path fill="#EEEEEE" d="M345.1,53.5v4h-1.6v-10h2.8c1.3,0,2.2,0.2,2.9,0.7c0.6,0.5,0.9,1.2,0.9,2.2c0,1.2-0.6,2.1-1.9,2.7l2.8,4.4
			h-1.9l-2.4-4H345.1z M345.1,52.2h1.1c0.8,0,1.3-0.1,1.7-0.4s0.5-0.7,0.5-1.3c0-0.6-0.2-1-0.6-1.2s-0.9-0.4-1.7-0.4h-1.1V52.2z"/>
		<path fill="#EEEEEE" d="M361.3,52.5c0,1.6-0.4,2.9-1.2,3.8s-2,1.4-3.5,1.4c-1.5,0-2.7-0.4-3.5-1.3c-0.8-0.9-1.2-2.2-1.2-3.8
			s0.4-2.9,1.2-3.8s2-1.3,3.5-1.3c1.5,0,2.6,0.4,3.4,1.3C360.9,49.6,361.3,50.9,361.3,52.5z M353.7,52.5c0,1.2,0.2,2.2,0.7,2.8
			c0.5,0.6,1.2,1,2.2,1c1,0,1.7-0.3,2.2-0.9c0.5-0.6,0.7-1.6,0.7-2.8c0-1.2-0.2-2.2-0.7-2.8c-0.5-0.6-1.2-1-2.2-1
			c-1,0-1.7,0.3-2.2,1S353.7,51.3,353.7,52.5z"/>
		<path fill="#EEEEEE" d="M367.8,57.5l-2.9-8.3h-0.1c0.1,1.2,0.1,2.4,0.1,3.5v4.9h-1.5v-10h2.3l2.8,8h0l2.9-8h2.3v10h-1.6v-4.9
			c0-0.5,0-1.1,0-1.9c0-0.8,0-1.3,0.1-1.4h-0.1l-3,8.3H367.8z"/>
		<path fill="#EEEEEE" d="M115.8,74.3h-1.6v-8.6h-2.9v-1.4h7.5v1.4h-2.9V74.3z"/>
		<path fill="#EEEEEE" d="M128.1,74.3h-1.6v-4.5h-4.6v4.5h-1.6v-10h1.6v4.1h4.6v-4.1h1.6V74.3z"/>
		<path fill="#EEEEEE" d="M136.4,74.3h-5.7v-10h5.7v1.4h-4v2.7h3.8v1.4h-3.8v3.1h4V74.3z"/>
		<path fill="#EEEEEE" d="M151.1,69.3c0,1.6-0.4,2.9-1.2,3.8s-2,1.4-3.5,1.4c-1.5,0-2.7-0.4-3.5-1.3c-0.8-0.9-1.2-2.2-1.2-3.8
			s0.4-2.9,1.2-3.8s2-1.3,3.5-1.3c1.5,0,2.6,0.4,3.4,1.3C150.7,66.4,151.1,67.7,151.1,69.3z M143.5,69.3c0,1.2,0.2,2.2,0.7,2.8
			c0.5,0.6,1.2,1,2.2,1c1,0,1.7-0.3,2.2-0.9c0.5-0.6,0.7-1.6,0.7-2.8c0-1.2-0.2-2.2-0.7-2.8c-0.5-0.6-1.2-1-2.2-1
			c-1,0-1.7,0.3-2.2,1S143.5,68.1,143.5,69.3z"/>
		<path fill="#EEEEEE" d="M159.9,67.4c0,1-0.3,1.8-1,2.4s-1.7,0.8-2.9,0.8h-1v3.7h-1.6v-10h2.9c1.2,0,2.2,0.3,2.8,0.8
			S159.9,66.4,159.9,67.4z M154.9,69.2h0.9c0.8,0,1.5-0.1,1.8-0.4c0.4-0.3,0.6-0.7,0.6-1.4c0-0.6-0.2-1-0.5-1.3
			c-0.4-0.3-0.9-0.4-1.6-0.4h-1.1V69.2z"/>
		<path fill="#EEEEEE" d="M167.5,74.3h-5.7v-10h5.7v1.4h-4v2.7h3.8v1.4h-3.8v3.1h4V74.3z"/>
		<path fill="#EEEEEE" d="M178,74.3h-2l-4.9-8H171l0,0.4c0.1,0.8,0.1,1.6,0.1,2.3v5.2h-1.5v-10h2l4.9,7.9h0c0-0.1,0-0.5-0.1-1.1
			s0-1.2,0-1.5v-5.2h1.5V74.3z"/>
		<path fill="#EEEEEE" d="M186.4,71.6c0,0.9-0.3,1.6-1,2.1s-1.5,0.8-2.7,0.8c-1.1,0-2.1-0.2-2.8-0.5v-1.5c0.5,0.2,0.9,0.4,1.5,0.5
			s1,0.2,1.4,0.2c0.6,0,1.1-0.1,1.4-0.4s0.5-0.6,0.5-1c0-0.4-0.1-0.7-0.4-1c-0.3-0.3-0.9-0.6-1.8-0.9c-0.9-0.4-1.6-0.8-1.9-1.3
			c-0.4-0.5-0.6-1-0.6-1.7c0-0.8,0.3-1.5,0.9-2c0.6-0.5,1.4-0.7,2.4-0.7c1,0,1.9,0.2,2.9,0.6l-0.5,1.3c-0.9-0.4-1.7-0.6-2.4-0.6
			c-0.5,0-0.9,0.1-1.2,0.3s-0.4,0.5-0.4,0.9c0,0.3,0.1,0.5,0.2,0.7s0.3,0.4,0.5,0.5c0.2,0.2,0.7,0.4,1.4,0.6
			c0.7,0.3,1.3,0.6,1.6,0.9s0.6,0.6,0.8,0.9C186.3,70.8,186.4,71.2,186.4,71.6z"/>
		<path fill="#EEEEEE" d="M191.8,74.3h-1.6v-8.6h-2.9v-1.4h7.5v1.4h-2.9V74.3z"/>
		<path fill="#EEEEEE" d="M202.5,74.3l-1-2.8h-3.8l-1,2.8h-1.7l3.7-10h1.8l3.7,10H202.5z M201,70.1l-0.9-2.7
			c-0.1-0.2-0.2-0.5-0.3-0.9c-0.1-0.4-0.2-0.7-0.2-0.9c-0.1,0.6-0.3,1.2-0.5,1.8l-0.9,2.6H201z"/>
		<path fill="#EEEEEE" d="M209.8,65.6c-0.9,0-1.7,0.3-2.2,1c-0.5,0.7-0.8,1.6-0.8,2.8c0,1.2,0.3,2.2,0.8,2.8
			c0.5,0.6,1.3,0.9,2.2,0.9c0.4,0,0.8,0,1.2-0.1s0.8-0.2,1.2-0.3V74c-0.8,0.3-1.7,0.4-2.7,0.4c-1.5,0-2.6-0.4-3.4-1.3
			c-0.8-0.9-1.2-2.2-1.2-3.8c0-1,0.2-1.9,0.6-2.7c0.4-0.8,0.9-1.4,1.7-1.8c0.7-0.4,1.6-0.6,2.5-0.6c1,0,2,0.2,2.8,0.6l-0.6,1.4
			c-0.3-0.2-0.7-0.3-1.1-0.4S210.2,65.6,209.8,65.6z"/>
		<path fill="#EEEEEE" d="M222,74.3h-1.9l-3.1-4.5l-1,0.8v3.7h-1.6v-10h1.6v4.8c0.4-0.5,0.9-1.1,1.3-1.6l2.7-3.2h1.9
			c-1.7,2.1-3,3.5-3.8,4.4L222,74.3z"/>
		<path fill="#EEEEEE" d="M232.7,71.6c0,0.9-0.3,1.6-1,2.1s-1.5,0.8-2.7,0.8c-1.1,0-2.1-0.2-2.8-0.5v-1.5c0.5,0.2,0.9,0.4,1.5,0.5
			s1,0.2,1.4,0.2c0.6,0,1.1-0.1,1.4-0.4s0.5-0.6,0.5-1c0-0.4-0.1-0.7-0.4-1c-0.3-0.3-0.9-0.6-1.8-0.9c-0.9-0.4-1.6-0.8-1.9-1.3
			c-0.4-0.5-0.6-1-0.6-1.7c0-0.8,0.3-1.5,0.9-2c0.6-0.5,1.4-0.7,2.4-0.7c1,0,1.9,0.2,2.9,0.6l-0.5,1.3c-0.9-0.4-1.7-0.6-2.4-0.6
			c-0.5,0-0.9,0.1-1.2,0.3s-0.4,0.5-0.4,0.9c0,0.3,0.1,0.5,0.2,0.7s0.3,0.4,0.5,0.5c0.2,0.2,0.7,0.4,1.4,0.6
			c0.7,0.3,1.3,0.6,1.6,0.9s0.6,0.6,0.8,0.9C232.7,70.8,232.7,71.2,232.7,71.6z"/>
		<path fill="#EEEEEE" d="M242.5,64.3v6.5c0,0.7-0.2,1.4-0.5,1.9c-0.3,0.6-0.8,1-1.4,1.3c-0.6,0.3-1.3,0.4-2.1,0.4
			c-1.2,0-2.2-0.3-2.9-1c-0.7-0.7-1-1.6-1-2.7v-6.4h1.6v6.3c0,0.8,0.2,1.4,0.6,1.8s1,0.6,1.8,0.6c1.5,0,2.3-0.8,2.3-2.4v-6.3H242.5z
			"/>
		<path fill="#EEEEEE" d="M249.4,74.3l-2.9-8.3h-0.1c0.1,1.2,0.1,2.4,0.1,3.5v4.9h-1.5v-10h2.3l2.8,8h0l2.9-8h2.3v10h-1.6v-4.9
			c0-0.5,0-1.1,0-1.9c0-0.8,0-1.3,0.1-1.4h-0.1l-3,8.3H249.4z"/>
		<path fill="#EEEEEE" d="M262.3,74.3l-2.9-8.3h-0.1c0.1,1.2,0.1,2.4,0.1,3.5v4.9H258v-10h2.3l2.8,8h0l2.9-8h2.3v10h-1.6v-4.9
			c0-0.5,0-1.1,0-1.9c0-0.8,0-1.3,0.1-1.4h-0.1l-3,8.3H262.3z"/>
		<path fill="#EEEEEE" d="M270.9,74.3v-10h1.6v10H270.9z"/>
		<path fill="#EEEEEE" d="M278.6,74.3H277v-8.6h-2.9v-1.4h7.5v1.4h-2.9V74.3z"/>
		<path fill="#EEEEEE" d="M286.7,74.3v-10h1.6v10H286.7z"/>
		<path fill="#EEEEEE" d="M299.3,74.3h-2l-4.9-8h-0.1l0,0.4c0.1,0.8,0.1,1.6,0.1,2.3v5.2H291v-10h2l4.9,7.9h0c0-0.1,0-0.5-0.1-1.1
			s0-1.2,0-1.5v-5.2h1.5V74.3z"/>
		<path fill="#EEEEEE" d="M311.3,64.3h1.7l-3.5,10h-1.7l-3.5-10h1.7l2.1,6.2c0.1,0.3,0.2,0.7,0.3,1.1s0.2,0.8,0.2,1
			c0.1-0.3,0.2-0.7,0.3-1.2s0.2-0.8,0.3-1L311.3,64.3z"/>
		<path fill="#EEEEEE" d="M320.5,74.3l-1-2.8h-3.8l-1,2.8H313l3.7-10h1.8l3.7,10H320.5z M319.1,70.1l-0.9-2.7
			c-0.1-0.2-0.2-0.5-0.3-0.9c-0.1-0.4-0.2-0.7-0.2-0.9c-0.1,0.6-0.3,1.2-0.5,1.8l-0.9,2.6H319.1z"/>
		<path fill="#EEEEEE" d="M331.9,74.3h-2l-4.9-8h-0.1l0,0.4c0.1,0.8,0.1,1.6,0.1,2.3v5.2h-1.5v-10h2l4.9,7.9h0c0-0.1,0-0.5-0.1-1.1
			s0-1.2,0-1.5v-5.2h1.5V74.3z"/>
		<path fill="#EEEEEE" d="M338.8,65.6c-0.9,0-1.7,0.3-2.2,1c-0.5,0.7-0.8,1.6-0.8,2.8c0,1.2,0.3,2.2,0.8,2.8
			c0.5,0.6,1.3,0.9,2.2,0.9c0.4,0,0.8,0,1.2-0.1s0.8-0.2,1.2-0.3V74c-0.8,0.3-1.7,0.4-2.7,0.4c-1.5,0-2.6-0.4-3.4-1.3
			c-0.8-0.9-1.2-2.2-1.2-3.8c0-1,0.2-1.9,0.6-2.7c0.4-0.8,0.9-1.4,1.7-1.8c0.7-0.4,1.6-0.6,2.5-0.6c1,0,2,0.2,2.8,0.6l-0.6,1.4
			c-0.3-0.2-0.7-0.3-1.1-0.4S339.2,65.6,338.8,65.6z"/>
		<path fill="#EEEEEE" d="M352.3,69.3c0,1.6-0.4,2.9-1.2,3.8s-2,1.4-3.5,1.4c-1.5,0-2.7-0.4-3.5-1.3c-0.8-0.9-1.2-2.2-1.2-3.8
			s0.4-2.9,1.2-3.8s2-1.3,3.5-1.3c1.5,0,2.6,0.4,3.4,1.3C351.9,66.4,352.3,67.7,352.3,69.3z M344.7,69.3c0,1.2,0.2,2.2,0.7,2.8
			c0.5,0.6,1.2,1,2.2,1c1,0,1.7-0.3,2.2-0.9c0.5-0.6,0.7-1.6,0.7-2.8c0-1.2-0.2-2.2-0.7-2.8c-0.5-0.6-1.2-1-2.2-1
			c-1,0-1.7,0.3-2.2,1S344.7,68.1,344.7,69.3z"/>
		<path fill="#EEEEEE" d="M362.3,64.3v6.5c0,0.7-0.2,1.4-0.5,1.9c-0.3,0.6-0.8,1-1.4,1.3c-0.6,0.3-1.3,0.4-2.1,0.4
			c-1.2,0-2.2-0.3-2.9-1c-0.7-0.7-1-1.6-1-2.7v-6.4h1.6v6.3c0,0.8,0.2,1.4,0.6,1.8s1,0.6,1.8,0.6c1.5,0,2.3-0.8,2.3-2.4v-6.3H362.3z
			"/>
		<path fill="#EEEEEE" d="M370.5,64.3h1.7l-3.5,10H367l-3.5-10h1.7l2.1,6.2c0.1,0.3,0.2,0.7,0.3,1.1s0.2,0.8,0.2,1
			c0.1-0.3,0.2-0.7,0.3-1.2s0.2-0.8,0.3-1L370.5,64.3z"/>
		<path fill="#EEEEEE" d="M379.2,74.3h-5.7v-10h5.7v1.4h-4v2.7h3.8v1.4h-3.8v3.1h4V74.3z"/>
		<path fill="#EEEEEE" d="M383,70.3v4h-1.6v-10h2.8c1.3,0,2.2,0.2,2.9,0.7s0.9,1.2,0.9,2.2c0,1.2-0.6,2.1-1.9,2.7l2.8,4.4H387
			l-2.4-4H383z M383,69h1.1c0.8,0,1.3-0.1,1.7-0.4s0.5-0.7,0.5-1.3c0-0.6-0.2-1-0.6-1.2s-0.9-0.4-1.7-0.4H383V69z"/>
	</g>
	<g>
		<g>
			<path fill="#797167" d="M228,182.9c0,0.7,0,1.2,0.1,1.7h-1l-0.1-1h0c-0.3,0.5-1,1.2-2.1,1.2c-1,0-2.2-0.6-2.2-2.8v-3.7h1.2v3.5
				c0,1.2,0.4,2,1.4,2c0.8,0,1.3-0.5,1.5-1.1c0.1-0.2,0.1-0.4,0.1-0.6v-3.9h1.2V182.9z"/>
			<path fill="#797167" d="M229.8,183.4c0.3,0.2,1,0.5,1.5,0.5c0.8,0,1.2-0.4,1.2-0.9c0-0.6-0.3-0.9-1.2-1.2c-1.1-0.4-1.7-1-1.7-1.8
				c0-1,0.8-1.9,2.2-1.9c0.6,0,1.2,0.2,1.6,0.4l-0.3,0.8c-0.2-0.2-0.7-0.4-1.3-0.4c-0.7,0-1.1,0.4-1.1,0.9c0,0.5,0.4,0.8,1.2,1.1
				c1.1,0.4,1.7,1,1.7,1.9c0,1.1-0.9,1.9-2.4,1.9c-0.7,0-1.3-0.2-1.8-0.4L229.8,183.4z"/>
			<path fill="#797167" d="M235.8,181.6c0,1.6,1,2.2,2.2,2.2c0.8,0,1.3-0.1,1.8-0.3l0.2,0.8c-0.4,0.2-1.1,0.4-2.1,0.4
				c-2,0-3.1-1.3-3.1-3.2c0-1.9,1.1-3.4,3-3.4c2.1,0,2.6,1.8,2.6,3c0,0.2,0,0.4,0,0.5L235.8,181.6L235.8,181.6z M239.2,180.8
				c0-0.7-0.3-1.9-1.6-1.9c-1.2,0-1.7,1.1-1.8,1.9H239.2z"/>
			<path fill="#797167" d="M241.8,180.2c0-0.8,0-1.4-0.1-2h1l0,1.3h0.1c0.3-0.9,1-1.4,1.8-1.4c0.1,0,0.2,0,0.3,0v1.1
				c-0.1,0-0.2,0-0.4,0c-0.8,0-1.4,0.6-1.6,1.5c0,0.2-0.1,0.3-0.1,0.5v3.4h-1.1L241.8,180.2L241.8,180.2z"/>
			<path fill="#797167" d="M245.9,183.4c0.3,0.2,0.9,0.5,1.5,0.5c0.8,0,1.2-0.4,1.2-0.9c0-0.6-0.3-0.9-1.2-1.2
				c-1.1-0.4-1.7-1-1.7-1.8c0-1,0.8-1.9,2.2-1.9c0.6,0,1.2,0.2,1.6,0.4l-0.3,0.8c-0.3-0.2-0.7-0.4-1.3-0.4c-0.7,0-1.1,0.4-1.1,0.9
				c0,0.5,0.4,0.8,1.2,1.1c1.1,0.4,1.7,1,1.7,1.9c0,1.1-0.9,1.9-2.4,1.9c-0.7,0-1.3-0.2-1.8-0.4L245.9,183.4z"/>
			<path fill="#797167" d="M228.2,101.3v7.7c0,0.6,0,1.2,0.1,1.6h-1l-0.1-1.1h0c-0.4,0.7-1.1,1.3-2.2,1.3c-1.5,0-2.7-1.3-2.7-3.2
				c0-2.1,1.3-3.4,2.9-3.4c1,0,1.6,0.5,1.9,1h0v-3.8H228.2z M227,106.9c0-0.1,0-0.3-0.1-0.5c-0.2-0.7-0.8-1.3-1.7-1.3
				c-1.2,0-1.9,1.1-1.9,2.5c0,1.3,0.6,2.4,1.9,2.4c0.8,0,1.5-0.5,1.7-1.4c0-0.2,0.1-0.3,0.1-0.5V106.9z"/>
			<path fill="#797167" d="M230.8,107.7c0,1.6,1,2.2,2.2,2.2c0.8,0,1.3-0.1,1.8-0.3l0.2,0.8c-0.4,0.2-1.1,0.4-2.1,0.4
				c-2,0-3.1-1.3-3.1-3.2c0-1.9,1.1-3.4,3-3.4c2.1,0,2.6,1.8,2.6,3c0,0.2,0,0.4,0,0.5H230.8z M234.2,106.8c0-0.7-0.3-1.9-1.6-1.9
				c-1.2,0-1.7,1.1-1.8,1.9H234.2z"/>
			<path fill="#797167" d="M237.2,104.3l1.3,3.6c0.2,0.6,0.4,1.1,0.5,1.6h0c0.1-0.5,0.3-1.1,0.5-1.6l1.2-3.6h1.2l-2.5,6.4h-1.1
				l-2.4-6.4H237.2z"/>
			<path fill="#797167" d="M242.8,109.5c0.3,0.2,0.9,0.5,1.5,0.5c0.8,0,1.2-0.4,1.2-0.9c0-0.6-0.3-0.9-1.2-1.2
				c-1.1-0.4-1.7-1-1.7-1.8c0-1,0.8-1.9,2.2-1.9c0.6,0,1.2,0.2,1.6,0.4l-0.3,0.8c-0.3-0.2-0.7-0.4-1.3-0.4c-0.7,0-1.1,0.4-1.1,0.9
				c0,0.5,0.4,0.8,1.2,1.1c1.1,0.4,1.7,1,1.7,1.9c0,1.1-0.9,1.9-2.4,1.9c-0.7,0-1.3-0.2-1.8-0.4L242.8,109.5z"/>
			<path fill="#FFFFFF" d="M204.7,165.1c1.3,0.8,3.5,1.6,5.7,1.6c3,0,4.5-1.5,4.5-3.5c0-2-1.2-3.1-4.3-4.3c-4.3-1.5-6.2-3.8-6.2-6.6
				c0-3.8,3.1-6.9,8.1-6.9c2.4,0,4.4,0.6,5.7,1.4l-1,3.1c-0.9-0.6-2.6-1.4-4.8-1.4c-2.5,0-3.9,1.4-3.9,3.2c0,1.9,1.4,2.8,4.4,4
				c4,1.5,6.1,3.5,6.1,7c0,4.2-3.2,7.1-8.7,7.1c-2.6,0-4.9-0.7-6.6-1.6L204.7,165.1z"/>
			<path fill="#FFFFFF" d="M253.6,152.4c0-2.5-0.1-4.4-0.2-6.3h3.7l0.2,3.8h0.1c1.3-2.2,3.5-4.3,7.4-4.3c3.1,0,5.6,1.9,6.6,4.7h0.1
				c0.7-1.4,1.7-2.3,2.7-3c1.4-1.1,2.9-1.6,5.1-1.6c3.1,0,7.7,2,7.7,10.1v13.7h-4.2v-13.2c0-4.5-1.7-7.2-5.1-7.2
				c-2.5,0-4.3,1.8-5.1,3.8c-0.2,0.6-0.3,1.4-0.3,2.1v14.4h-4.2v-14c0-3.7-1.6-6.4-4.9-6.4c-2.6,0-4.6,2.1-5.3,4.3
				c-0.2,0.6-0.3,1.4-0.3,2.1v14.1h-4.2V152.4L253.6,152.4z"/>
			<path fill="#FFFFFF" d="M293.5,152.4c0-2.5-0.1-4.4-0.2-6.3h3.7l0.2,3.8h0.1c1.3-2.2,3.5-4.3,7.4-4.3c3.1,0,5.6,1.9,6.6,4.7h0.1
				c0.7-1.4,1.7-2.3,2.7-3c1.4-1.1,2.9-1.6,5.1-1.6c3.1,0,7.7,2,7.7,10.1v13.7h-4.2v-13.2c0-4.5-1.7-7.2-5.1-7.2
				c-2.5,0-4.3,1.8-5.1,3.8c-0.2,0.6-0.3,1.4-0.3,2.1v14.4h-4.2v-14c0-3.7-1.6-6.4-4.9-6.4c-2.6,0-4.6,2.1-5.3,4.3
				c-0.2,0.6-0.3,1.4-0.3,2.1v14.1h-4.2V152.4L293.5,152.4z"/>
			<rect x="333.5" y="146" fill="#FFFFFF" width="4.3" height="23.4"/>
			<path fill="#FFFFFF" d="M348.1,146h6.1v3.2h-6.1v12.6c0,2.9,0.8,4.5,3.2,4.5c1.2,0,1.8-0.1,2.5-0.3l0.2,3.2
				c-0.8,0.3-2.1,0.6-3.8,0.6c-2,0-3.6-0.7-4.6-1.8c-1.2-1.3-1.6-3.4-1.6-6.1v-12.8h-3.6V146h3.6"/>
			<path fill="#FFFFFF" d="M168.6,127.8c0,8.6-6,12.4-11.6,12.4c-6.3,0-11.2-4.6-11.2-12c0-7.8,5.2-12.4,11.6-12.4
				C164.1,115.8,168.6,120.7,168.6,127.8 M150.1,128c0,5.1,2.9,9,7.1,9c4.1,0,7.1-3.8,7.1-9.1c0-4-2-8.9-7-8.9
				C152.3,119,150.1,123.6,150.1,128"/>
			<path fill="#FFFFFF" d="M173.3,123.9c0-3-0.1-5.4-0.2-7.6h3.8l0.2,4h0.1c1.7-2.8,4.5-4.5,8.3-4.5c5.7,0,9.9,4.8,9.9,11.8
				c0,8.4-5.2,12.6-10.7,12.6c-3.1,0-5.8-1.4-7.2-3.7h-0.1v12.7h-4.2L173.3,123.9L173.3,123.9z M177.5,130.1c0,0.6,0,1.2,0.2,1.7
				c0.8,2.9,3.3,5,6.4,5c4.5,0,7.1-3.7,7.1-9c0-4.6-2.5-8.6-7-8.6c-2.9,0-5.7,2-6.4,5.2c-0.1,0.5-0.3,1.2-0.3,1.7V130.1z"/>
			<path fill="#FFFFFF" d="M203.8,128.7c0.1,5.7,3.7,8.1,8,8.1c3,0,4.9-0.5,6.5-1.2l0.8,3c-1.5,0.7-4.1,1.5-7.8,1.5
				c-7.2,0-11.5-4.8-11.5-11.8c0-7.1,4.2-12.6,11-12.6c7.7,0,9.7,6.7,9.7,11c0,0.9,0,1.5-0.1,2L203.8,128.7L203.8,128.7z
				 M216.3,125.7c0-2.7-1.1-6.9-5.9-6.9c-4.3,0-6.2,3.9-6.5,6.9H216.3z"/>
			<path fill="#FFFFFF" d="M253.2,135.3c1.3,0.8,3.5,1.6,5.7,1.6c3,0,4.5-1.5,4.5-3.5c0-2-1.2-3.1-4.3-4.3c-4.3-1.5-6.2-3.8-6.2-6.6
				c0-3.8,3.1-6.9,8.1-6.9c2.4,0,4.4,0.6,5.7,1.5l-1,3.1c-0.9-0.6-2.6-1.4-4.8-1.4c-2.5,0-3.9,1.4-3.9,3.2c0,1.9,1.4,2.8,4.4,4
				c4,1.5,6.1,3.5,6.1,7c0,4.2-3.2,7.1-8.7,7.1c-2.6,0-4.9-0.7-6.6-1.6L253.2,135.3z"/>
			<path fill="#FFFFFF" d="M278.1,110.7v5.6h6.1v3.2h-6.1v12.6c0,2.9,0.8,4.5,3.2,4.5c1.2,0,1.8-0.1,2.5-0.3l0.2,3.2
				c-0.8,0.3-2.1,0.6-3.8,0.6c-2,0-3.6-0.7-4.6-1.8c-1.2-1.3-1.6-3.4-1.6-6.1v-12.8h-3.6v-3.2h3.6v-4.3L278.1,110.7z"/>
			<path fill="#FFFFFF" d="M306.1,134c0,2,0.1,4,0.3,5.6h-3.8l-0.3-2.9h-0.1c-1.3,1.8-3.8,3.5-7.1,3.5c-4.7,0-7.1-3.3-7.1-6.7
				c0-5.7,5-8.7,14.1-8.7v-0.5c0-1.9-0.5-5.4-5.3-5.4c-2.2,0-4.5,0.6-6.1,1.7l-1-2.8c1.9-1.2,4.8-2,7.7-2c7.1,0,8.9,4.9,8.9,9.5
				L306.1,134L306.1,134z M302,127.7c-4.6-0.1-9.9,0.7-9.9,5.3c0,2.8,1.8,4.1,4,4.1c3.1,0,5.1-1.9,5.8-3.9c0.1-0.5,0.2-1,0.2-1.4
				V127.7L302,127.7z"/>
			<path fill="#FFFFFF" d="M329,138.8c-1.1,0.5-3.6,1.4-6.7,1.4c-7.1,0-11.6-4.8-11.6-11.9c0-7.2,4.9-12.5,12.6-12.5
				c2.5,0,4.7,0.6,5.9,1.3l-1,3.2c-1-0.5-2.6-1.1-4.9-1.1c-5.4,0-8.3,4-8.3,8.8c0,5.4,3.5,8.7,8.1,8.7c2.4,0,4-0.6,5.2-1.1
				L329,138.8z"/>
			<path fill="#FFFFFF" d="M337.9,127L337.9,127c0.7-0.8,1.4-1.8,2.1-2.7l6.9-8.1h5.1l-9,9.6l10.3,13.8h-5.2l-8-11.2l-2.2,2.4v8.8
				h-4.2v-34.3h4.2V127L337.9,127z"/>
			<polygon fill="#2BA8E0" points="240.8,149.5 245.3,142.6 249.7,149.5 			"/>
			<polygon fill="#2BA8E0" points="231.5,135.6 227,142.5 222.5,135.6 			"/>
			<path fill="#2BA8E0" d="M243.3,148.7v11.5c0,4.2-3.2,7.6-7.1,7.6c-3.9,0-7.1-3.4-7.1-7.6v-15h-4.2v15c0,6.2,5.1,11.3,11.3,11.3
				c6.2,0,11.3-5.1,11.3-11.3v-11.5H243.3z"/>
			<path fill="#2BA8E0" d="M229.1,136.2v-10c0-4.2,3.2-7.6,7.1-7.6c3.9,0,7.1,3.4,7.1,7.6v13.5h4.2v-13.5c0-6.2-5.1-11.3-11.3-11.3
				c-6.2,0-11.3,5.1-11.3,11.3v10H229.1z"/>
			<g opacity="0.5">
				<g>
					<path fill="#FFFFFF" d="M350.4,126.1c0,0.9-0.7,1.5-1.6,1.5c-0.9,0-1.6-0.7-1.6-1.5c0-0.8,0.7-1.5,1.6-1.5
						C349.7,124.6,350.4,125.3,350.4,126.1 M347.7,126.1c0,0.7,0.5,1.2,1.2,1.2c0.7,0,1.2-0.5,1.2-1.2c0-0.7-0.5-1.2-1.2-1.2
						C348.2,124.9,347.7,125.5,347.7,126.1 M348.6,126.9h-0.4v-1.5c0.1,0,0.3,0,0.6,0c0.3,0,0.4,0,0.5,0.1c0.1,0.1,0.1,0.2,0.1,0.3
						c0,0.2-0.1,0.3-0.3,0.4v0c0.1,0.1,0.2,0.2,0.3,0.4c0,0.2,0.1,0.3,0.1,0.4h-0.4c0-0.1-0.1-0.2-0.1-0.4c0-0.2-0.1-0.2-0.3-0.2
						h-0.2V126.9L348.6,126.9z M348.6,126.1h0.2c0.2,0,0.4-0.1,0.4-0.2c0-0.1-0.1-0.2-0.3-0.2c-0.1,0-0.2,0-0.2,0L348.6,126.1
						L348.6,126.1z"/>
					<path fill="#FFFFFF" d="M350.4,126.1c0,0.9-0.7,1.5-1.6,1.5c-0.9,0-1.6-0.7-1.6-1.5c0-0.8,0.7-1.5,1.6-1.5
						C349.7,124.6,350.4,125.3,350.4,126.1 M347.7,126.1c0,0.7,0.5,1.2,1.2,1.2c0.7,0,1.2-0.5,1.2-1.2c0-0.7-0.5-1.2-1.2-1.2
						C348.2,124.9,347.7,125.5,347.7,126.1 M348.6,126.9h-0.4v-1.5c0.1,0,0.3,0,0.6,0c0.3,0,0.4,0,0.5,0.1c0.1,0.1,0.1,0.2,0.1,0.3
						c0,0.2-0.1,0.3-0.3,0.4v0c0.1,0.1,0.2,0.2,0.3,0.4c0,0.2,0.1,0.3,0.1,0.4h-0.4c0-0.1-0.1-0.2-0.1-0.4c0-0.2-0.1-0.2-0.3-0.2
						h-0.2V126.9L348.6,126.9z M348.6,126.1h0.2c0.2,0,0.4-0.1,0.4-0.2c0-0.1-0.1-0.2-0.3-0.2c-0.1,0-0.2,0-0.2,0L348.6,126.1
						L348.6,126.1z"/>
				</g>
			</g>
		</g>
	</g>
</g>
</svg>
