<?xml version="1.0" encoding="UTF-8"?>
<svg width="311px" height="225px" viewBox="0 0 311 225" version="1.1" xmlns="http://www.w3.org/2000/svg" xmlns:xlink="http://www.w3.org/1999/xlink">
    <!-- Generator: Sketch 46 (44423) - http://www.bohemiancoding.com/sketch -->
    <title>edge illustration</title>
    <desc>Created with Sketch.</desc>
    <defs></defs>
    <g id="Welcome" stroke="none" stroke-width="1" fill="none" fill-rule="evenodd">
        <g id="Desktop-HD" transform="translate(-153.000000, -1060.000000)">
            <g id="section-2" transform="translate(0.000000, 985.000000)">
                <g id="section-1" transform="translate(153.000000, 75.000000)">
                    <g id="edge-illustration">
                        <path d="M162.643486,124.153012 C162.643486,125.741247 161.304222,127.047129 159.675388,127.047129 L133.288271,127.047129 C131.659437,127.047129 130.320173,125.741247 130.320173,124.153012 L130.320173,122.105953 L116.999928,122.105953 L116.999928,134.670659 C116.999928,137.600071 119.461277,139.999718 122.465572,139.999718 L170.425694,139.999718 C173.429989,139.999718 175.891701,137.600071 175.891701,134.670659 L175.891701,122.105953 L162.571093,122.105953 L162.571093,124.153012 L162.643486,124.153012 Z" id="Fill-4" fill="#EC1944"></path>
                        <polygon id="Fill-7" fill="#EC1944" points="117 119 131 119 131 105 117 105"></polygon>
                        <polygon id="Fill-9" fill="#EC1944" points="162 119 176 119 176 105 162 105"></polygon>
                        <path d="M170.462108,82.2422385 L122.501985,82.2422385 C119.497691,82.2422385 117.035979,84.5960846 117.035979,87.4691615 L117.035979,99.7922385 L130.32039,99.7922385 L130.32039,97.7845462 C130.32039,96.2268538 131.659654,94.9460846 133.288488,94.9460846 L159.675243,94.9460846 C161.304077,94.9460846 162.643341,96.2268538 162.643341,97.7845462 L162.643341,99.7922385 L175.927752,99.7922385 L175.927752,87.5037769 C175.927752,84.6307 173.466402,82.2422385 170.462108,82.2422385" id="Fill-1" fill="#EC1944"></path>
                        <path d="M160.768208,31 C161.447228,31.4329471 162.267975,31.9485679 163.230469,32.546875 C164.29037,33.2057325 165.335932,33.8502573 166.367188,34.4804688 L166.925781,34.8671875 L167.3125,35.4257812 C167.541668,35.7981789 167.985674,36.5143176 168.644531,37.5742188 C169.303389,38.6341199 169.919268,39.6080685 170.492188,40.4960938 C170.549479,40.6106777 170.606771,40.7180985 170.664062,40.8183594 C170.721354,40.9186203 170.778646,41.0117183 170.835938,41.0976562 C170.864583,41.0976562 170.843099,41.0904949 170.771484,41.0761719 C170.699869,41.0618489 170.678385,41.0403647 170.707031,41.0117188 L170.707031,33.75 L171.523438,32.9335938 L177.109375,27.5625 L180.160156,24.5117188 L181.664062,28.5507812 C181.950522,29.3528686 182.279946,30.2695261 182.652344,31.3007812 C183.024741,32.3320364 183.411456,33.3847603 183.8125,34.4589844 C184.213544,35.5332085 184.593097,36.5572868 184.951172,37.53125 C185.309247,38.5052132 185.617186,39.3359341 185.875,40.0234375 C186.190106,39.6796858 186.51953,39.3144551 186.863281,38.9277344 C187.207033,38.5410137 187.479166,38.2330741 187.679688,38.0039062 C187.765625,37.8893223 187.815755,37.8033857 187.830078,37.7460938 C187.844401,37.6888018 187.851562,37.6171879 187.851562,37.53125 C187.822917,37.3880201 187.765625,36.6002676 187.679688,35.1679688 C187.59375,33.7356699 187.507813,32.1458421 187.421875,30.3984375 C187.278645,28.4218651 187.14974,26.3880313 187.035156,24.296875 C186.920572,22.2057187 186.820313,20.5156314 186.734375,19.2265625 L186.648438,18.0234375 L196.574219,8.09765625 C197.548182,7.12369305 198.063802,6.21419693 198.121094,5.36914062 C198.178386,4.52408432 198.164063,3.97265754 198.078125,3.71484375 C197.992187,3.68619777 197.870443,3.65755223 197.712891,3.62890625 C197.555338,3.60026027 197.36198,3.5859375 197.132812,3.5859375 C196.789061,3.5859375 196.302086,3.67903553 195.671875,3.86523438 C195.041664,4.05143322 194.382816,4.48827781 193.695312,5.17578125 L183.769531,15.1015625 L182.523438,15.015625 C181.291661,14.958333 179.680348,14.865235 177.689453,14.7363281 C175.698558,14.6074212 173.743499,14.4713549 171.824219,14.328125 C169.990876,14.2135411 168.286466,14.1061203 166.710938,14.0058594 C165.135409,13.9055985 164.26172,13.8554688 164.089844,13.8554688 L164.003906,13.8554688 C163.97526,13.8554688 163.932292,13.8697915 163.875,13.8984375 C163.817708,13.9270835 163.760417,13.9700518 163.703125,14.0273438 C163.445311,14.2278656 163.13021,14.4928369 162.757812,14.8222656 C162.385415,15.1516944 162.027345,15.4882795 161.683594,15.8320312 C162.342451,16.089845 163.173172,16.4049461 164.175781,16.7773438 C165.17839,17.1497414 166.223953,17.5364563 167.3125,17.9375 C168.401047,18.3385437 169.468094,18.7324199 170.513672,19.1191406 C171.55925,19.5058613 172.468746,19.8424465 173.242188,20.1289062 L177.28125,21.5898438 L174.230469,24.640625 L168.816406,30.2265625 L168.042969,31 L166.925781,31.0429688 L166.023438,31.0429688 C165.536456,31.0429688 165.006513,31.0358074 164.433594,31.0214844 C163.860674,31.0071614 163.302086,31 162.757812,31 L160.768208,31 L160.768208,31 Z M197.132812,0.8359375 C197.79167,0.8359375 198.371742,0.921874141 198.873047,1.09375 C199.374351,1.26562586 199.768228,1.49479023 200.054688,1.78125 C200.627607,2.35416953 200.921224,3.47134586 200.935547,5.1328125 C200.94987,6.79427914 200.154956,8.42707531 198.550781,10.03125 L189.484375,19.0976562 C189.541667,20.3580792 189.634765,22.0051982 189.763672,24.0390625 C189.892579,26.0729268 190.014322,28.0709537 190.128906,30.0332031 C190.24349,31.9954525 190.34375,33.6998626 190.429688,35.1464844 C190.515625,36.5931062 190.558594,37.3450518 190.558594,37.4023438 C190.58724,37.6315116 190.572917,37.9466126 190.515625,38.3476562 C190.458333,38.7486999 190.214846,39.2070287 189.785156,39.7226562 C189.355467,40.2382838 188.775394,40.88997 188.044922,41.6777344 L186.949219,42.859375 C186.720051,43.0885428 186.469402,43.2675775 186.197266,43.3964844 C185.925129,43.5253913 185.660158,43.5898438 185.402344,43.5898438 L185.1875,43.5898438 C185.015624,43.5611978 184.793621,43.4752611 184.521484,43.3320312 C184.249348,43.1888014 184.027345,42.9023459 183.855469,42.4726562 C183.798177,42.3294264 183.583335,41.7565154 183.210938,40.7539062 C182.83854,39.7512971 182.401695,38.583991 181.900391,37.2519531 C181.399086,35.9199152 180.890628,34.5377676 180.375,33.1054688 C179.859372,31.6731699 179.415366,30.470057 179.042969,29.4960938 L173.457031,34.9101562 C173.428385,35.6835976 173.421224,36.8150967 173.435547,38.3046875 C173.44987,39.7942783 173.442708,40.7825496 173.414062,41.2695312 C173.414062,41.4127611 173.392578,41.6777324 173.349609,42.0644531 C173.30664,42.4511738 172.912764,43.0742145 172.167969,43.9335938 C171.910155,44.1627616 171.652345,44.3417962 171.394531,44.4707031 C171.136717,44.59961 170.89323,44.6640625 170.664062,44.6640625 L170.621094,44.6640625 C170.36328,44.6640625 170.126954,44.59961 169.912109,44.4707031 C169.697265,44.3417962 169.51823,44.1627616 169.375,43.9335938 C169.346354,43.8763018 169.131512,43.5325552 168.730469,42.9023438 C168.329425,42.2721323 167.878258,41.5559936 167.376953,40.7539062 C166.875649,39.9518189 166.395836,39.1783891 165.9375,38.4335938 C165.479164,37.6887984 165.149741,37.1588557 164.949219,36.84375 C163.37369,35.8984328 161.798185,34.9244842 160.222656,33.921875 C158.647128,32.9192658 157.787761,32.3606777 157.644531,32.2460938 C157.386717,32.0455719 157.222006,31.8307303 157.150391,31.6015625 C157.078776,31.3723947 157.042969,31.1718759 157.042969,31 C157.042969,30.8281241 157.085937,30.6204439 157.171875,30.3769531 C157.257813,30.1334623 157.429686,29.8828138 157.6875,29.625 L157.816406,29.4960938 C158.64714,28.8085903 159.255857,28.4290368 159.642578,28.3574219 C160.029299,28.2858069 160.308593,28.25 160.480469,28.25 L160.78125,28.25 C161.296878,28.25 162.091792,28.2571614 163.166016,28.2714844 C164.24024,28.2858074 165.192704,28.2929688 166.023438,28.2929688 L166.882812,28.2929688 L172.296875,22.7070312 C171.294266,22.3346336 170.07683,21.8834662 168.644531,21.3535156 C167.212232,20.8235651 165.822923,20.3079452 164.476562,19.8066406 C163.130202,19.305336 161.948573,18.8613301 160.931641,18.4746094 C159.914708,18.0878887 159.348959,17.8802085 159.234375,17.8515625 C158.776039,17.6796866 158.475261,17.4505223 158.332031,17.1640625 C158.188801,16.8776027 158.117188,16.6484384 158.117188,16.4765625 C158.059896,16.1614568 158.095702,15.8535171 158.224609,15.5527344 C158.353516,15.2519516 158.546874,14.9726575 158.804688,14.7148438 L159.986328,13.6191406 C160.774092,12.8886682 161.425779,12.3085959 161.941406,11.8789062 C162.371096,11.5351545 162.764972,11.3203129 163.123047,11.234375 C163.481122,11.1484371 163.774738,11.1054688 164.003906,11.1054688 L164.21875,11.1054688 C164.304688,11.1054688 165.078118,11.1484371 166.539062,11.234375 C168.000007,11.3203129 169.711579,11.4277337 171.673828,11.5566406 C173.636078,11.6855475 175.648427,11.8216139 177.710938,11.9648438 C179.773448,12.1080736 181.43489,12.208333 182.695312,12.265625 L191.761719,3.2421875 C192.649744,2.35416223 193.566402,1.73112158 194.511719,1.37304688 C195.457036,1.01497217 196.330725,0.8359375 197.132812,0.8359375 Z" id="Plane---simple-line-icons" fill="#2A4E68"></path>
                        <path d="M110.699219,22.7929688 C110.957033,23.0794285 111.078776,23.4088523 111.064453,23.78125 C111.05013,24.1536477 110.914064,24.4830715 110.65625,24.7695312 C110.51302,24.8841152 110.362631,24.9772132 110.205078,25.0488281 C110.047525,25.1204431 109.882813,25.15625 109.710938,25.15625 C109.510416,25.15625 109.32422,25.1204431 109.152344,25.0488281 C108.980468,24.9772132 108.83724,24.8697924 108.722656,24.7265625 L106.875,22.7929688 L106.875,43.375 C106.875,43.7473977 106.738934,44.0696601 106.466797,44.3417969 C106.19466,44.6139337 105.872398,44.75 105.5,44.75 L95.875,44.75 C95.5026023,44.75 95.1803399,44.6139337 94.9082031,44.3417969 C94.6360663,44.0696601 94.5,43.7473977 94.5,43.375 L94.5,29.625 L83.5429688,29.625 L83.5,43.375 C83.5,43.7473977 83.3639337,44.0696601 83.0917969,44.3417969 C82.8196601,44.6139337 82.4973977,44.75 82.125,44.75 L72.5429688,44.75 C72.1419251,44.75 71.8125013,44.6139337 71.5546875,44.3417969 C71.2968737,44.0696601 71.1679688,43.7473977 71.1679688,43.375 L71.1679688,22.7929688 L69.3203125,24.7265625 C69.0338527,24.9843763 68.7044289,25.1204426 68.3320312,25.1347656 C67.9596336,25.1490886 67.6302098,25.027345 67.34375,24.7695312 C67.0859362,24.4830715 66.9498699,24.1536477 66.9355469,23.78125 C66.9212239,23.4088523 67.0429675,23.0794285 67.3007812,22.7929688 L88.0546875,1.1796875 C88.1979174,1.03645762 88.3554679,0.929036816 88.5273438,0.857421875 C88.6992196,0.785806934 88.8710929,0.75 89.0429688,0.75 C89.2434906,0.75 89.4296866,0.785806934 89.6015625,0.857421875 C89.7734384,0.929036816 89.9166661,1.03645762 90.03125,1.1796875 L110.699219,22.7929688 Z M104.125,20.1289062 C104.125,20.0716143 104.139323,20.0143232 104.167969,19.9570312 L89.0429688,4.14453125 L73.875,19.9570312 C73.875,20.0143232 73.8821614,20.0716143 73.8964844,20.1289062 C73.9108074,20.1861982 73.9179688,20.2434893 73.9179688,20.3007812 L73.9179688,42 L80.75,42 L80.7929688,28.25 C80.7929688,27.8776023 80.9290351,27.5553399 81.2011719,27.2832031 C81.4733087,27.0110663 81.7955711,26.875 82.1679688,26.875 L95.875,26.875 C96.2473977,26.875 96.5696601,27.0110663 96.8417969,27.2832031 C97.1139337,27.5553399 97.25,27.8776023 97.25,28.25 L97.25,42 L104.125,42 L104.125,20.1289062 Z" id="Home---simple-line-icons" fill="#2A4E68"></path>
                        <path d="M229.804688,94.4726562 L222.5,85.7929688 L222.5,70.625 L223.402344,70.625 C223.803387,70.625 224.132811,70.4889337 224.390625,70.2167969 C224.648439,69.9446601 224.777344,69.6223977 224.777344,69.25 C224.777344,68.8489563 224.648439,68.5195325 224.390625,68.2617188 C224.132811,68.003905 223.803387,67.875 223.402344,67.875 L221.125,67.875 C220.752602,67.875 220.43034,68.003905 220.158203,68.2617188 C219.886066,68.5195325 219.75,68.8489563 219.75,69.25 L219.75,86.3085938 C219.75,86.4804696 219.778646,86.6451815 219.835938,86.8027344 C219.893229,86.9602872 219.979166,87.1106764 220.09375,87.2539062 L225.722656,94 L208.277344,94 L213.90625,87.2539062 C214.020834,87.1106764 214.106771,86.9602872 214.164062,86.8027344 C214.221354,86.6451815 214.25,86.4804696 214.25,86.3085938 L214.25,69.25 C214.25,68.8489563 214.113934,68.5195325 213.841797,68.2617188 C213.56966,68.003905 213.247398,67.875 212.875,67.875 L210.597656,67.875 C210.196613,67.875 209.867189,68.003905 209.609375,68.2617188 C209.351561,68.5195325 209.222656,68.8489563 209.222656,69.25 C209.222656,69.6223977 209.351561,69.9446601 209.609375,70.2167969 C209.867189,70.4889337 210.196613,70.625 210.597656,70.625 L211.5,70.625 L211.5,85.7929688 L204.195312,94.4726562 C203.994791,94.6731781 203.873047,94.9023425 203.830078,95.1601562 C203.787109,95.41797 203.822916,95.67578 203.9375,95.9335938 C204.052084,96.1914075 204.223957,96.3919264 204.453125,96.5351562 C204.682293,96.6783861 204.92578,96.75 205.183594,96.75 L228.816406,96.75 C229.07422,96.75 229.317707,96.6783861 229.546875,96.5351562 C229.776043,96.3919264 229.947916,96.1914075 230.0625,95.9335938 C230.177084,95.67578 230.212891,95.41797 230.169922,95.1601562 C230.126953,94.9023425 230.005209,94.6731781 229.804688,94.4726562 Z M215.625,66.5 C216.369795,66.5 217.01432,66.2278673 217.558594,65.6835938 C218.102867,65.1393202 218.375,64.4947954 218.375,63.75 C218.375,62.9765586 218.102867,62.3248724 217.558594,61.7949219 C217.01432,61.2649713 216.369795,61 215.625,61 C214.880205,61 214.23568,61.2649713 213.691406,61.7949219 C213.147133,62.3248724 212.875,62.9765586 212.875,63.75 C212.875,64.4947954 213.147133,65.1393202 213.691406,65.6835938 C214.23568,66.2278673 214.880205,66.5 215.625,66.5 Z M224.5625,62.4179688 C223.244785,62.4179688 222.113286,61.9453172 221.167969,61 C220.222652,60.0546828 219.75,58.9088609 219.75,57.5625 C219.75,56.2447851 220.222652,55.113286 221.167969,54.1679688 C222.113286,53.2226515 223.244785,52.75 224.5625,52.75 C225.908861,52.75 227.054683,53.2226515 228,54.1679688 C228.945317,55.113286 229.417969,56.2447851 229.417969,57.5625 C229.417969,58.9088609 228.945317,60.0546828 228,61 C227.054683,61.9453172 225.908861,62.4179688 224.5625,62.4179688 Z M224.5625,55.5 C223.98958,55.5 223.502606,55.7005188 223.101562,56.1015625 C222.700519,56.5026062 222.5,56.9895805 222.5,57.5625 C222.5,58.1354195 222.700519,58.6223938 223.101562,59.0234375 C223.502606,59.4244812 223.98958,59.625 224.5625,59.625 C225.13542,59.625 225.622394,59.4244812 226.023438,59.0234375 C226.424481,58.6223938 226.625,58.1354195 226.625,57.5625 C226.625,56.9895805 226.424481,56.5026062 226.023438,56.1015625 C225.622394,55.7005188 225.13542,55.5 224.5625,55.5 Z" id="Chemistry---simple-line-icons" fill="#2A4E68"></path>
                        <path d="M272.582031,31.65625 C272.983075,31.9140638 273.312499,32.250649 273.570312,32.6660156 C273.828126,33.0813823 273.957031,33.5468724 273.957031,34.0625 C273.957031,34.8072954 273.69206,35.4518202 273.162109,35.9960938 C272.632159,36.5403673 271.980473,36.8125 271.207031,36.8125 C270.43359,36.8125 269.781904,36.5403673 269.251953,35.9960938 C268.722003,35.4518202 268.457031,34.8072954 268.457031,34.0625 C268.457031,33.5468724 268.585936,33.0813823 268.84375,32.6660156 C269.101564,32.250649 269.430988,31.9140638 269.832031,31.65625 L269.832031,22.03125 L264.246094,24.953125 C264.303386,25.0390629 264.339193,25.132161 264.353516,25.2324219 C264.367839,25.3326828 264.375,25.4257808 264.375,25.5117188 L264.375,37.4570312 C264.375,37.6575531 264.332032,37.8509105 264.246094,38.0371094 C264.160156,38.2233082 264.031251,38.3736973 263.859375,38.4882812 C263.716145,38.6315111 262.778003,39.0755171 261.044922,39.8203125 C259.31184,40.5651079 256.268251,40.9375 251.914062,40.9375 C247.559874,40.9375 244.530607,40.5436237 242.826172,39.7558594 C241.121736,38.968095 240.197917,38.5026049 240.054688,38.359375 C239.882812,38.2447911 239.761068,38.094402 239.689453,37.9082031 C239.617838,37.7220043 239.582031,37.5286468 239.582031,37.328125 L239.582031,25.6835938 C239.582031,25.5690098 239.596354,25.4544277 239.625,25.3398438 C239.653646,25.2252598 239.696614,25.1250004 239.753906,25.0390625 L230.730469,20.2265625 C230.501301,20.1119786 230.322266,19.9472667 230.193359,19.7324219 C230.064452,19.5175771 230,19.2812513 230,19.0234375 C230,18.7656237 230.064452,18.5292979 230.193359,18.3144531 C230.322266,18.0996083 230.486978,17.9348964 230.6875,17.8203125 L251.269531,6.734375 C251.470053,6.61979109 251.692056,6.5625 251.935547,6.5625 C252.179038,6.5625 252.401041,6.61979109 252.601562,6.734375 L273.3125,17.7773438 C273.513022,17.9205736 273.677734,18.0996083 273.806641,18.3144531 C273.935548,18.5292979 274,18.7656237 274,19.0234375 C274,19.2526053 273.935548,19.4817697 273.806641,19.7109375 C273.677734,19.9401053 273.498699,20.1119786 273.269531,20.2265625 L272.582031,20.5703125 L272.582031,31.65625 Z M261.625,36.640625 L261.625,26.3710938 L252.558594,31.140625 C252.44401,31.197917 252.336589,31.2408853 252.236328,31.2695312 C252.136067,31.2981772 252.028646,31.3125 251.914062,31.3125 C251.799479,31.3125 251.684896,31.2981772 251.570312,31.2695312 C251.455729,31.2408853 251.355469,31.197917 251.269531,31.140625 L242.332031,26.4140625 L242.332031,36.5976562 C242.819013,36.85547 243.814446,37.1848938 245.318359,37.5859375 C246.822273,37.9869812 249.020819,38.1875 251.914062,38.1875 C254.807306,38.1875 257.013013,37.9941426 258.53125,37.6074219 C260.049487,37.2207012 261.080726,36.8984388 261.625,36.640625 Z M251.914062,28.390625 L269.703125,18.9804688 L251.957031,9.484375 L234.210938,18.9804688 L251.914062,28.390625 Z" id="Graduation---simple-line-icons" fill="#2A4E68"></path>
                        <path d="M212.257812,136.339844 C213.0599,137.457037 213.94075,138.731764 214.900391,140.164062 C215.860031,141.596361 216.898432,143.186189 218.015625,144.933594 C218.302085,145.391929 218.423828,145.907549 218.380859,146.480469 C218.33789,147.053388 218.13021,147.669268 217.757812,148.328125 C217.614583,148.614585 217.371095,149.072914 217.027344,149.703125 C216.683592,150.333336 216.239586,151.149735 215.695312,152.152344 C216.296878,153.011723 217.063146,153.971349 217.994141,155.03125 C218.925135,156.091151 220.006504,157.236973 221.238281,158.46875 C222.498704,159.729173 223.651687,160.824865 224.697266,161.755859 C225.742844,162.686854 226.680985,163.453122 227.511719,164.054688 C228.485682,163.481768 229.294919,163.016278 229.939453,162.658203 C230.583988,162.300128 231.049478,162.04948 231.335938,161.90625 C231.679689,161.705728 232.030597,161.555339 232.388672,161.455078 C232.746747,161.354817 233.083332,161.304688 233.398438,161.304688 C233.656251,161.304688 233.892577,161.333333 234.107422,161.390625 C234.322267,161.447917 234.529947,161.533854 234.730469,161.648438 C236.019538,162.421879 237.380201,163.288407 238.8125,164.248047 C240.244799,165.207687 241.777336,166.260411 243.410156,167.40625 C243.696616,167.606772 243.92578,167.864582 244.097656,168.179688 C244.269532,168.494793 244.384114,168.83854 244.441406,169.210938 C244.470052,169.611981 244.427084,170.02018 244.3125,170.435547 C244.197916,170.850914 243.997397,171.273435 243.710938,171.703125 C243.596354,171.903647 243.42448,172.147134 243.195312,172.433594 C242.966145,172.720054 242.694012,173.049477 242.378906,173.421875 C242.092446,173.794273 241.720054,174.216795 241.261719,174.689453 C240.803383,175.162112 240.259118,175.684893 239.628906,176.257812 C239.027341,176.830732 238.475914,177.260415 237.974609,177.546875 C237.473305,177.833335 237.03646,177.976562 236.664062,177.976562 L236.578125,177.976562 C235.088534,177.919271 233.527352,177.597008 231.894531,177.009766 C230.261711,176.422523 228.542978,175.584641 226.738281,174.496094 C224.933585,173.407547 223.042979,172.046883 221.066406,170.414062 C219.089834,168.781242 217.027354,166.904959 214.878906,164.785156 C212.730458,162.636708 210.847013,160.574229 209.228516,158.597656 C207.610018,156.621084 206.249354,154.730478 205.146484,152.925781 C204.043614,151.121085 203.205732,149.395191 202.632812,147.748047 C202.059893,146.100903 201.744792,144.546882 201.6875,143.085938 C201.6875,142.684894 201.830728,142.233726 202.117188,141.732422 C202.403647,141.231117 202.83333,140.665368 203.40625,140.035156 C203.97917,139.404945 204.494789,138.867841 204.953125,138.423828 C205.411461,137.979815 205.826821,137.614585 206.199219,137.328125 C206.54297,137.070311 206.872394,136.826824 207.1875,136.597656 C207.502606,136.368488 207.774738,136.16797 208.003906,135.996094 C208.319012,135.766926 208.648436,135.602214 208.992188,135.501953 C209.335939,135.401692 209.708331,135.351562 210.109375,135.351562 C210.567711,135.351562 210.97591,135.430338 211.333984,135.587891 C211.692059,135.745443 211.999999,135.996092 212.257812,136.339844 Z M209.507812,138.101562 C208.934893,138.502606 208.376305,138.939451 207.832031,139.412109 C207.287758,139.884768 206.757815,140.378904 206.242188,140.894531 C205.72656,141.410159 205.318361,141.854165 205.017578,142.226562 C204.716795,142.59896 204.523438,142.914061 204.4375,143.171875 C204.494792,144.460944 204.79557,145.83593 205.339844,147.296875 C205.884117,148.75782 206.67187,150.311841 207.703125,151.958984 C208.73438,153.606128 210.009107,155.339184 211.527344,157.158203 C213.045581,158.977223 214.807282,160.889313 216.8125,162.894531 C218.817718,164.89975 220.729809,166.661451 222.548828,168.179688 C224.367848,169.697924 226.100903,170.972651 227.748047,172.003906 C229.395191,173.035161 230.956373,173.822914 232.431641,174.367188 C233.906908,174.911461 235.289056,175.226562 236.578125,175.3125 C236.778647,175.226562 237.065102,175.026043 237.4375,174.710938 C237.809898,174.395832 238.253904,173.980471 238.769531,173.464844 C239.285159,172.949216 239.772133,172.412112 240.230469,171.853516 C240.688804,171.294919 241.13281,170.72917 241.5625,170.15625 C241.648438,170.041666 241.705729,169.934245 241.734375,169.833984 C241.763021,169.733723 241.763021,169.640625 241.734375,169.554688 C240.072908,168.380202 238.547533,167.33464 237.158203,166.417969 C235.768873,165.501297 234.515631,164.684899 233.398438,163.96875 C233.283854,163.96875 233.154949,163.990234 233.011719,164.033203 C232.868489,164.076172 232.710938,164.140625 232.539062,164.226562 C232.309895,164.369792 231.880211,164.61328 231.25,164.957031 C230.619789,165.300783 229.80339,165.744789 228.800781,166.289062 L227.382812,167.148438 L225.964844,166.203125 C225.048172,165.572914 224.038417,164.763677 222.935547,163.775391 C221.832677,162.787104 220.622402,161.634121 219.304688,160.316406 C218.015619,158.998691 216.884119,157.788417 215.910156,156.685547 C214.936193,155.582677 214.134118,154.572921 213.503906,153.65625 L212.472656,152.324219 L213.332031,150.820312 C213.876305,149.817703 214.320311,149.008467 214.664062,148.392578 C215.007814,147.77669 215.251301,147.339845 215.394531,147.082031 C215.480469,146.910155 215.544922,146.752605 215.587891,146.609375 C215.63086,146.466145 215.652344,146.33724 215.652344,146.222656 C214.649735,144.647128 213.69727,143.171882 212.794922,141.796875 C211.892574,140.421868 211.026046,139.132819 210.195312,137.929688 L210.109375,137.929688 C209.994791,137.929688 209.88737,137.94401 209.787109,137.972656 C209.686848,138.001302 209.59375,138.044271 209.507812,138.101562 Z" id="Phone---simple-line-icons" fill="#2A4E68"></path>
                        <path d="M273,180.75 C275.119802,180.75 277.103506,181.158199 278.951172,181.974609 C280.798837,182.79102 282.402988,183.893873 283.763672,185.283203 C285.124356,186.672533 286.198564,188.305329 286.986328,190.181641 C287.774092,192.057952 288.167969,194.055979 288.167969,196.175781 C288.167969,199.183609 287.595058,201.475253 286.449219,203.050781 C285.30338,204.62631 284.114589,205.958328 282.882812,207.046875 C281.966141,207.848962 281.23568,208.543617 280.691406,209.130859 C280.147133,209.718102 279.875,210.427079 279.875,211.257812 L279.875,213.578125 C279.875,213.606771 279.867839,213.635417 279.853516,213.664062 C279.839193,213.692708 279.832031,213.721354 279.832031,213.75 L279.875,213.75 L279.875,217.746094 C279.875,219.83725 279.244798,221.527337 277.984375,222.816406 C276.723952,224.105475 275.076833,224.75 273.042969,224.75 C270.951812,224.75 269.276048,224.105475 268.015625,222.816406 C266.755202,221.527337 266.125,219.83725 266.125,217.746094 L266.125,213.75 L266.167969,213.75 C266.167969,213.721354 266.160807,213.692708 266.146484,213.664062 C266.132161,213.635417 266.125,213.606771 266.125,213.578125 L266.125,211.257812 C266.125,210.713539 265.881513,210.190758 265.394531,209.689453 C264.90755,209.188149 264.263025,208.579431 263.460938,207.863281 C262.229161,206.746088 260.983079,205.320972 259.722656,203.587891 C258.462233,201.854809 257.832031,199.384131 257.832031,196.175781 C257.832031,194.055979 258.225908,192.057952 259.013672,190.181641 C259.801436,188.305329 260.875644,186.672533 262.236328,185.283203 C263.597012,183.893873 265.201163,182.79102 267.048828,181.974609 C268.896494,181.158199 270.880198,180.75 273,180.75 Z M272.957031,222 C274.274746,222 275.298824,221.627608 276.029297,220.882812 C276.759769,220.138017 277.125,219.092455 277.125,217.746094 L277.125,215.855469 C276.638018,216.027345 276.050785,216.177734 275.363281,216.306641 C274.675778,216.435548 273.888025,216.5 273,216.5 C272.083329,216.5 271.288415,216.442709 270.615234,216.328125 C269.942054,216.213541 269.361982,216.070313 268.875,215.898438 L268.875,217.746094 C268.875,219.063809 269.233069,220.10221 269.949219,220.861328 C270.665368,221.620447 271.667962,222 272.957031,222 Z M281.078125,204.984375 C282.223964,203.981766 283.23372,202.857428 284.107422,201.611328 C284.981124,200.365228 285.417969,198.553397 285.417969,196.175781 C285.417969,194.428377 285.102868,192.788419 284.472656,191.255859 C283.842445,189.7233 282.968756,188.376959 281.851562,187.216797 C280.734369,186.056635 279.416674,185.147139 277.898438,184.488281 C276.380201,183.829424 274.747405,183.5 273,183.5 C271.252595,183.5 269.619799,183.829424 268.101562,184.488281 C266.583326,185.147139 265.265631,186.056635 264.148438,187.216797 C263.031244,188.376959 262.157555,189.7233 261.527344,191.255859 C260.897132,192.788419 260.582031,194.428377 260.582031,196.175781 C260.582031,198.782565 261.076167,200.780592 262.064453,202.169922 C263.052739,203.559252 264.134109,204.783849 265.308594,205.84375 C266.167973,206.617191 266.97721,207.419267 267.736328,208.25 C268.495447,209.080733 268.875,210.083327 268.875,211.257812 L268.875,213.019531 C269.16146,213.191407 269.619789,213.36328 270.25,213.535156 C270.880211,213.707032 271.782546,213.792969 272.957031,213.792969 C274.10287,213.792969 274.998044,213.699871 275.642578,213.513672 C276.287113,213.327473 276.781248,213.148438 277.125,212.976562 L277.125,211.257812 C277.125,209.768222 277.547522,208.550786 278.392578,207.605469 C279.237634,206.660152 280.132808,205.786462 281.078125,204.984375 Z" id="Bulb---simple-line-icons" fill="#2A4E68"></path>
                        <polygon id="Line-2" fill-opacity="0.100000001" fill="#2A4E68" fill-rule="nonzero" points="124.407466 77.1379868 100.137987 47.5925343 98.5925343 48.8620132 122.862013 78.4074657"></polygon>
                        <polygon id="Line-2" fill-opacity="0.100000001" fill="#2A4E68" fill-rule="nonzero" points="256.397769 185.784959 247.284959 179.102231 246.102231 180.715041 255.215041 187.397769"></polygon>
                        <polygon id="Line-2" fill-opacity="0.100000001" fill="#2A4E68" fill-rule="nonzero" points="198.352941 137.588235 181.588235 128.647059 180.647059 130.411765 197.411765 139.352941"></polygon>
                        <polygon id="Line-2" fill-opacity="0.100000001" fill="#2A4E68" fill-rule="nonzero" points="113 85 47 85 47 87 113 87"></polygon>
                        <polygon id="Line-2" fill-opacity="0.100000001" fill="#2A4E68" fill-rule="nonzero" points="200.533578 96.6903076 179.690308 105.466422 180.466422 107.309692 201.309692 98.5335784"></polygon>
                        <polygon id="Line-2" fill-opacity="0.100000001" fill="#2A4E68" fill-rule="nonzero" points="154.141823 15.1655905 107.165591 7.85817652 106.858177 9.83440946 153.834409 17.1418235"></polygon>
                        <polygon id="Line-2" fill-opacity="0.100000001" fill="#2A4E68" fill-rule="nonzero" points="64.2428524 35.1067941 30.6067941 58.7571476 31.7571476 60.3932059 65.3932059 36.7428524"></polygon>
                        <polygon id="Line-2" fill-opacity="0.100000001" fill="#2A4E68" fill-rule="nonzero" points="16.7318948 105.373973 37.3739734 166.268105 39.2681052 165.626027 18.6260266 104.731895"></polygon>
                        <polygon id="Line-2" fill-opacity="0.100000001" fill="#2A4E68" fill-rule="nonzero" points="231.199251 29.2504683 196.750468 21.3007493 196.300749 23.2495317 230.749532 31.1992507"></polygon>
                        <polygon id="Line-2" fill-opacity="0.100000001" fill="#2A4E68" fill-rule="nonzero" points="290.308921 91.5354677 270.035468 43.1910789 268.191079 43.9645323 288.464532 92.3089211"></polygon>
                        <polygon id="Line-2" fill-opacity="0.100000001" fill="#2A4E68" fill-rule="nonzero" points="112.16807 204.202746 57.2027462 193.83193 56.8319305 195.797254 111.797254 206.16807"></polygon>
                        <polygon id="Line-2" fill-opacity="0.100000001" fill="#2A4E68" fill-rule="nonzero" points="255.947319 198.949959 166.449959 203.552681 166.552681 205.550041 256.050041 200.947319"></polygon>
                        <polygon id="Line-2" fill-opacity="0.100000001" fill="#2A4E68" fill-rule="nonzero" points="273.162103 135.595108 242.595108 159.837897 243.837897 161.404892 274.404892 137.162103"></polygon>
                        <polygon id="Line-2" fill-opacity="0.100000001" fill="#2A4E68" fill-rule="nonzero" points="212.552321 168.698101 163.698101 188.447679 164.447679 190.301899 213.301899 170.552321"></polygon>
                        <polygon id="Line-2" fill-opacity="0.100000001" fill="#2A4E68" fill-rule="nonzero" points="227.672909 149.243862 256.243862 53.3270909 254.327091 52.7561377 225.756138 148.672909"></polygon>
                        <polygon id="Line-2" fill-opacity="0.100000001" fill="#2A4E68" fill-rule="nonzero" points="242.354571 81.5936287 227.593629 73.6454291 226.645429 75.4063713 241.406371 83.3545709"></polygon>
                        <polygon id="Line-2" fill-opacity="0.100000001" fill="#2A4E68" fill-rule="nonzero" points="277.377997 102.682001 251.682001 86.6220028 250.622003 88.3179994 276.317999 104.377997"></polygon>
                        <polygon id="Line-2" fill-opacity="0.100000001" fill="#2A4E68" fill-rule="nonzero" points="142.852924 183.128061 148.128061 145.147076 146.147076 144.871939 140.871939 182.852924"></polygon>
                        <polygon id="Line-2" fill-opacity="0.100000001" fill="#2A4E68" fill-rule="nonzero" points="119.360432 183.386296 89.3862956 129.639568 87.6395678 130.613704 117.613704 184.360432"></polygon>
                        <polygon id="Line-2" fill-opacity="0.100000001" fill="#2A4E68" fill-rule="nonzero" points="59.3416408 107.552786 43.5527864 99.6583592 42.6583592 101.447214 58.4472136 109.341641"></polygon>
                        <polygon id="Line-2" fill-opacity="0.100000001" fill="#2A4E68" fill-rule="nonzero" points="112.569558 99.7055491 92.7055491 107.430442 93.4304416 109.294451 113.294451 101.569558"></polygon>
                        <polygon id="Line-2" fill-opacity="0.100000001" fill="#2A4E68" fill-rule="nonzero" points="154.742614 79.2035467 164.203547 39.2573861 162.257386 38.7964533 152.796453 78.7426139"></polygon>
                        <polygon id="Line-2" fill-opacity="0.100000001" fill="#2A4E68" fill-rule="nonzero" points="169.657003 79.3719887 236.371989 39.3429972 235.342997 37.6280113 168.628011 77.6570028"></polygon>
                        <polygon id="Line-2" fill-opacity="0.100000001" fill="#2A4E68" fill-rule="nonzero" points="59.7276069 182.212678 67.2126781 152.272393 65.2723931 151.787322 57.7873219 181.727607"></polygon>
                        <path d="M311,114.625 C311,115.283857 310.964193,115.928382 310.892578,116.558594 C310.820963,117.188805 310.555992,117.733071 310.097656,118.191406 L288.355469,139.933594 C288.069009,140.191408 287.761069,140.391926 287.431641,140.535156 C287.102212,140.678386 286.751304,140.75 286.378906,140.75 C286.006509,140.75 285.655601,140.678386 285.326172,140.535156 C284.996743,140.391926 284.703126,140.191408 284.445312,139.933594 L267.816406,123.304688 C267.558592,123.046874 267.358074,122.753257 267.214844,122.423828 C267.071614,122.094399 267,121.743491 267,121.371094 C267,120.998696 267.071614,120.647788 267.214844,120.318359 C267.358074,119.988931 267.558592,119.680991 267.816406,119.394531 L289.558594,97.6523438 C290.016929,97.1940081 290.554033,96.9290368 291.169922,96.8574219 C291.78581,96.7858069 292.337237,96.75 292.824219,96.75 L307.648438,96.75 C308.565109,96.75 309.352861,97.0794238 310.011719,97.7382812 C310.670576,98.3971387 311,99.1848912 311,100.101562 L311,114.625 Z M308.121094,116.257812 C308.178386,116.143229 308.214193,115.914064 308.228516,115.570312 C308.242839,115.226561 308.25,114.925783 308.25,114.667969 L308.25,100.101562 C308.25,99.9296866 308.192709,99.7864589 308.078125,99.671875 C307.963541,99.5572911 307.820313,99.5 307.648438,99.5 L292.824219,99.5 C292.652343,99.5 292.408856,99.5071614 292.09375,99.5214844 C291.778644,99.5358074 291.578125,99.5716143 291.492188,99.6289062 L269.75,121.371094 L286.378906,138 L308.121094,116.257812 Z M300,102.25 C301.518237,102.25 302.814448,102.787104 303.888672,103.861328 C304.962896,104.935552 305.5,106.231763 305.5,107.75 C305.5,109.268237 304.962896,110.564448 303.888672,111.638672 C302.814448,112.712896 301.518237,113.25 300,113.25 C298.481763,113.25 297.185552,112.712896 296.111328,111.638672 C295.037104,110.564448 294.5,109.268237 294.5,107.75 C294.5,106.231763 295.037104,104.935552 296.111328,103.861328 C297.185552,102.787104 298.481763,102.25 300,102.25 Z M300,110.5 C300.773441,110.5 301.425128,110.235029 301.955078,109.705078 C302.485029,109.175128 302.75,108.523441 302.75,107.75 C302.75,106.976559 302.485029,106.324872 301.955078,105.794922 C301.425128,105.264971 300.773441,105 300,105 C299.255205,105 298.61068,105.264971 298.066406,105.794922 C297.522133,106.324872 297.25,106.976559 297.25,107.75 C297.25,108.523441 297.522133,109.175128 298.066406,109.705078 C298.61068,110.235029 299.255205,110.5 300,110.5 Z" id="Tag---simple-line-icons" fill="#2A4E68"></path>
                        <path d="M83.9257812,107.015625 C85.472664,107.731774 86.9837166,108.462236 88.4589844,109.207031 C89.9342522,109.951827 91.2519473,110.753902 92.4121094,111.613281 C93.5722714,112.472661 94.4889289,113.403641 95.1621094,114.40625 C95.8352898,115.408859 96.1145839,116.526036 96,117.757812 C95.9140621,118.989589 95.4915403,120.006506 94.7324219,120.808594 C93.9733035,121.610681 93.0208391,122.291013 91.875,122.849609 C90.7291609,123.408206 89.4544341,123.866535 88.0507812,124.224609 C86.6471284,124.582684 85.2578194,124.919269 83.8828125,125.234375 C83.4531229,125.320313 83.030601,125.40625 82.6152344,125.492188 C82.1998677,125.578125 81.8059914,125.678385 81.4335938,125.792969 C80.7747363,125.936199 80.1875026,126.208331 79.671875,126.609375 C79.1562474,127.010419 78.4544315,127.640621 77.5664062,128.5 L76.75,129.316406 C75.8906207,130.175786 75.2675801,130.87044 74.8808594,131.400391 C74.4941387,131.930341 74.2148446,132.524736 74.0429688,133.183594 C73.9570308,133.555991 73.8639328,133.949868 73.7636719,134.365234 C73.663411,134.780601 73.5703129,135.203123 73.484375,135.632812 C73.1692693,137.007819 72.8326841,138.397128 72.4746094,139.800781 C72.1165347,141.204434 71.6653673,142.479161 71.1210938,143.625 C70.5768202,144.770839 69.8964885,145.723303 69.0800781,146.482422 C68.2636678,147.24154 67.2395895,147.678385 66.0078125,147.792969 L65.6210938,147.792969 C64.4466087,147.792969 63.3795621,147.442061 62.4199219,146.740234 C61.4602817,146.038408 60.5651083,145.114589 59.734375,143.96875 C58.9036417,142.822911 58.1230505,141.5267 57.3925781,140.080078 C56.6621057,138.633456 55.9531284,137.165372 55.265625,135.675781 C55.0078112,135.131508 54.7571627,134.601565 54.5136719,134.085938 C54.2701811,133.57031 54.0338553,133.069013 53.8046875,132.582031 C53.0312461,131.063794 52.5013035,129.617194 52.2148438,128.242188 C51.928384,126.867181 51.8854157,125.535163 52.0859375,124.246094 C52.2864593,122.957025 52.7376267,121.703782 53.4394531,120.486328 C54.1412796,119.268874 55.0794212,118.072923 56.2539062,116.898438 L65.1484375,107.960938 C66.0651088,107.072912 67.2610603,106.141932 68.7363281,105.167969 C70.2115959,104.194006 72.009104,103.707031 74.1289062,103.707031 C75.1888074,103.707031 76.2701768,103.85742 77.3730469,104.158203 C78.475917,104.458986 79.6289002,104.910153 80.8320312,105.511719 C81.3190129,105.740887 81.8203099,105.984374 82.3359375,106.242188 C82.8515651,106.500001 83.3815077,106.757811 83.9257812,107.015625 Z M93.1640625,117.5 C93.2500004,116.583329 92.8418014,115.695317 91.9394531,114.835938 C91.0371049,113.976558 89.8984444,113.152999 88.5234375,112.365234 C87.1484306,111.57747 85.6517008,110.811202 84.0332031,110.066406 C82.4147054,109.321611 80.9179756,108.605472 79.5429688,107.917969 C78.5117136,107.402341 77.5449264,107.022788 76.6425781,106.779297 C75.7402299,106.535806 74.8737021,106.414062 74.0429688,106.414062 C72.7252538,106.414062 71.5006567,106.722002 70.3691406,107.337891 C69.2376246,107.953779 68.1276096,108.805984 67.0390625,109.894531 C66.6953108,110.238283 66.3085959,110.617836 65.8789062,111.033203 C65.4492166,111.44857 64.9765651,111.91406 64.4609375,112.429688 C63.7447881,113.174483 63.0716177,113.861976 62.4414062,114.492188 C61.8111948,115.122399 61.2239611,115.69531 60.6796875,116.210938 C60.1927059,116.726565 59.7343771,117.192055 59.3046875,117.607422 C58.8749979,118.022789 58.488283,118.402342 58.1445312,118.746094 C56.3971267,120.522144 55.2942731,122.376943 54.8359375,124.310547 C54.3776019,126.24415 54.8359306,128.571601 56.2109375,131.292969 C56.8984409,132.63933 57.6002568,134.107414 58.3164062,135.697266 C59.0325557,137.287117 59.7773399,138.769524 60.5507812,140.144531 C61.3242226,141.519538 62.1334593,142.66536 62.9785156,143.582031 C63.8235719,144.498703 64.6900997,144.957031 65.578125,144.957031 L65.7929688,144.957031 C66.652348,144.871093 67.3684867,144.39128 67.9414062,143.517578 C68.5143258,142.643876 69.0084615,141.569668 69.4238281,140.294922 C69.8391948,139.020176 70.1972641,137.673835 70.4980469,136.255859 C70.7988296,134.837884 71.0924465,133.555995 71.3789062,132.410156 C71.6080741,131.407547 72.0019503,130.541019 72.5605469,129.810547 C73.1191434,129.080074 73.8567662,128.242192 74.7734375,127.296875 C74.8593754,127.239583 74.9309893,127.182292 74.9882812,127.125 C75.0455732,127.067708 75.1028643,126.996094 75.1601562,126.910156 C75.2460942,126.852864 75.317708,126.795573 75.375,126.738281 L75.5898438,126.523438 C76.506515,125.606766 77.3300745,124.869143 78.0605469,124.310547 C78.7910193,123.75195 79.6575471,123.343751 80.6601562,123.085938 C81.8059953,122.799478 83.0878835,122.513022 84.5058594,122.226562 C85.9238352,121.940103 87.2630145,121.589195 88.5234375,121.173828 C89.7838605,120.758461 90.8580685,120.257164 91.7460938,119.669922 C92.634119,119.082679 93.1067705,118.359379 93.1640625,117.5 Z M72.5820312,118.832031 L72.5820312,116.082031 L75.3320312,116.082031 L75.3320312,118.832031 L72.5820312,118.832031 Z M72.5820312,114.707031 L72.5820312,111.957031 L75.3320312,111.957031 L75.3320312,114.707031 L72.5820312,114.707031 Z M76.7070312,114.707031 L76.7070312,111.957031 L79.4570312,111.957031 L79.4570312,114.707031 L76.7070312,114.707031 Z M76.7070312,118.832031 L76.7070312,116.082031 L79.4570312,116.082031 L79.4570312,118.832031 L76.7070312,118.832031 Z M66.1796875,127.082031 L67.2539062,128.15625 C67.51172,128.414064 67.640625,128.729165 67.640625,129.101562 C67.640625,129.47396 67.51172,129.789061 67.2539062,130.046875 C66.9960925,130.304689 66.6809914,130.433594 66.3085938,130.433594 C65.9361961,130.433594 65.621095,130.304689 65.3632812,130.046875 L64.2890625,128.972656 L63.2578125,130.003906 C62.9999987,130.26172 62.6920591,130.390625 62.3339844,130.390625 C61.9759097,130.390625 61.66797,130.26172 61.4101562,130.003906 C61.1523425,129.746092 61.0234375,129.438153 61.0234375,129.080078 C61.0234375,128.722003 61.1523425,128.414064 61.4101562,128.15625 L62.4414062,127.082031 L61.4101562,126.050781 C61.1523425,125.792967 61.0234375,125.485028 61.0234375,125.126953 C61.0234375,124.768878 61.1523425,124.460939 61.4101562,124.203125 C61.66797,123.945311 61.9759097,123.816406 62.3339844,123.816406 C62.6920591,123.816406 62.9999987,123.945311 63.2578125,124.203125 L64.2890625,125.234375 L65.3632812,124.203125 C65.621095,123.945311 65.9290347,123.816406 66.2871094,123.816406 C66.6451841,123.816406 66.9531237,123.945311 67.2109375,124.203125 C67.4687513,124.460939 67.5976562,124.768878 67.5976562,125.126953 C67.5976562,125.485028 67.4687513,125.792967 67.2109375,126.050781 L66.1796875,127.082031 Z" id="Game-controller---simple-line-icons" fill="#2A4E68"></path>
                        <path d="M39.875,70.375 C41.2500069,70.375 42.2812466,70.8906198 42.96875,71.921875 C43.6562534,72.9531302 44,73.8124966 44,74.5 L44,96.5429688 C44,97.6315159 43.5488326,98.5839803 42.6464844,99.4003906 C41.7441361,100.216801 40.8489628,100.625 39.9609375,100.625 L3.82421875,100.625 C2.93619348,100.625 2.07682707,100.223962 1.24609375,99.421875 C0.41536043,98.6197877 0,97.6458391 0,96.5 L0,74.4570312 C0,73.1106704 0.515619844,72.0937534 1.546875,71.40625 C2.57813016,70.7187466 3.43749656,70.375 4.125,70.375 L10.4414062,70.375 L13.75,64.875 L30.25,64.875 L33.5585938,70.375 L39.875,70.375 Z M41.25,96.5429688 L41.25,74.5 C41.25,74.442708 41.1425792,74.1992209 40.9277344,73.7695312 C40.7128896,73.3398416 40.3619816,73.125 39.875,73.125 L32.0117188,73.125 L31.2382812,71.7929688 L28.7890625,67.625 L15.296875,67.625 L11.9882812,73.125 L4.125,73.125 C4.01041609,73.125 3.75260617,73.2395822 3.3515625,73.46875 C2.95051883,73.6979178 2.75,74.0273416 2.75,74.4570312 L2.75,96.5 C2.75,96.8723977 2.89322773,97.1946601 3.1796875,97.4667969 C3.46614727,97.7389337 3.69531164,97.875 3.8671875,97.875 L39.9609375,97.875 C40.1614593,97.846354 40.4264306,97.6816421 40.7558594,97.3808594 C41.0852881,97.0800766 41.25,96.8007825 41.25,96.5429688 Z M22,74.5 C23.3177149,74.5 24.5637962,74.7506485 25.7382812,75.2519531 C26.9127663,75.7532577 27.9368446,76.4407508 28.8105469,77.3144531 C29.6842492,78.1881554 30.3717423,79.2122337 30.8730469,80.3867188 C31.3743515,81.5612038 31.625,82.8072851 31.625,84.125 C31.625,85.4427149 31.3743515,86.6887962 30.8730469,87.8632812 C30.3717423,89.0377663 29.6842492,90.0618446 28.8105469,90.9355469 C27.9368446,91.8092492 26.9127663,92.4967423 25.7382812,92.9980469 C24.5637962,93.4993515 23.3177149,93.75 22,93.75 C20.6822851,93.75 19.4362038,93.4993515 18.2617188,92.9980469 C17.0872337,92.4967423 16.0631554,91.8092492 15.1894531,90.9355469 C14.3157508,90.0618446 13.6282577,89.0377663 13.1269531,87.8632812 C12.6256485,86.6887962 12.375,85.4427149 12.375,84.125 C12.375,82.8072851 12.6256485,81.5612038 13.1269531,80.3867188 C13.6282577,79.2122337 14.3157508,78.1881554 15.1894531,77.3144531 C16.0631554,76.4407508 17.0872337,75.7532577 18.2617188,75.2519531 C19.4362038,74.7506485 20.6822851,74.5 22,74.5 Z M22,91 C23.8906345,91 25.5091079,90.3268296 26.8554688,88.9804688 C28.2018296,87.6341079 28.875,86.0156345 28.875,84.125 C28.875,82.2343655 28.2018296,80.6158921 26.8554688,79.2695312 C25.5091079,77.9231704 23.8906345,77.25 22,77.25 C20.1093655,77.25 18.4908921,77.9231704 17.1445312,79.2695312 C15.7981704,80.6158921 15.125,82.2343655 15.125,84.125 C15.125,86.0156345 15.7981704,87.6341079 17.1445312,88.9804688 C18.4908921,90.3268296 20.1093655,91 22,91 Z" id="Camera---simple-line-icons" fill="#2A4E68"></path>
                        <path d="M161,193.210938 L161,218.5625 C161,219.708339 160.598962,220.682288 159.796875,221.484375 C158.994788,222.286462 158.020839,222.6875 156.875,222.6875 L121.125,222.6875 C119.979161,222.6875 119.005212,222.286462 118.203125,221.484375 C117.401038,220.682288 117,219.708339 117,218.5625 L117,196.5625 C117,195.445307 117.401038,194.485681 118.203125,193.683594 C119.005212,192.881506 119.964838,192.466146 121.082031,192.4375 L122.457031,192.4375 L122.457031,186.9375 C122.457031,185.791661 122.86523,184.817712 123.681641,184.015625 C124.498051,183.213538 125.464838,182.8125 126.582031,182.8125 L157.648438,189 C159.19532,189.42969 160.140623,190.117183 160.484375,191.0625 C160.828127,192.007817 161,192.723956 161,193.210938 Z M125.207031,186.9375 L125.207031,192.4375 L155.5,192.4375 C156.044274,192.466146 156.402343,192.351564 156.574219,192.09375 L156.832031,191.707031 L126.496094,185.5625 C126.123696,185.591146 125.815756,185.734374 125.572266,185.992188 C125.328775,186.250001 125.207031,186.565102 125.207031,186.9375 Z M158.25,218.5625 L158.25,193.8125 C158.25,194.270836 157.956383,194.614582 157.369141,194.84375 C156.781898,195.072918 156.158857,195.1875 155.5,195.1875 L121.125,195.1875 C120.752602,195.1875 120.43034,195.323566 120.158203,195.595703 C119.886066,195.86784 119.75,196.190102 119.75,196.5625 L119.75,218.5625 C119.75,218.934898 119.886066,219.25716 120.158203,219.529297 C120.43034,219.801434 120.752602,219.9375 121.125,219.9375 L156.875,219.9375 C157.247398,219.9375 157.56966,219.801434 157.841797,219.529297 C158.113934,219.25716 158.25,218.934898 158.25,218.5625 Z M125.25,204.8125 C125.994795,204.8125 126.63932,205.084633 127.183594,205.628906 C127.727867,206.17318 128,206.817705 128,207.5625 C128,208.335941 127.727867,208.987628 127.183594,209.517578 C126.63932,210.047529 125.994795,210.3125 125.25,210.3125 C124.476559,210.3125 123.824872,210.047529 123.294922,209.517578 C122.764971,208.987628 122.5,208.335941 122.5,207.5625 C122.5,206.817705 122.764971,206.17318 123.294922,205.628906 C123.824872,205.084633 124.476559,204.8125 125.25,204.8125 Z" id="Wallet---simple-line-icons" fill="#2A4E68"></path>
                        <path d="M50.25,167.75 C51.3958391,167.75 52.3697877,168.151038 53.171875,168.953125 C53.9739623,169.755212 54.375,170.729161 54.375,171.875 L54.375,207.625 C54.375,208.770839 53.9739623,209.744788 53.171875,210.546875 C52.3697877,211.348962 51.3958391,211.75 50.25,211.75 L33.75,211.75 C32.6041609,211.75 31.6302123,211.348962 30.828125,210.546875 C30.0260377,209.744788 29.625,208.770839 29.625,207.625 L29.625,171.875 C29.625,170.729161 30.0260377,169.755212 30.828125,168.953125 C31.6302123,168.151038 32.6041609,167.75 33.75,167.75 L50.25,167.75 Z M51.625,207.625 L51.625,171.875 C51.625,171.502602 51.4889337,171.18034 51.2167969,170.908203 C50.9446601,170.636066 50.6223977,170.5 50.25,170.5 L33.75,170.5 C33.3776023,170.5 33.0553399,170.636066 32.7832031,170.908203 C32.5110663,171.18034 32.375,171.502602 32.375,171.875 L32.375,207.625 C32.375,207.997398 32.5110663,208.31966 32.7832031,208.591797 C33.0553399,208.863934 33.3776023,209 33.75,209 L50.25,209 C50.6223977,209 50.9446601,208.863934 51.2167969,208.591797 C51.4889337,208.31966 51.625,207.997398 51.625,207.625 Z M42,202.125 C42.7734414,202.125 43.4251276,202.397133 43.9550781,202.941406 C44.4850287,203.48568 44.75,204.130205 44.75,204.875 C44.75,205.619795 44.4850287,206.26432 43.9550781,206.808594 C43.4251276,207.352867 42.7734414,207.625 42,207.625 C41.2552046,207.625 40.6106798,207.352867 40.0664062,206.808594 C39.5221327,206.26432 39.25,205.619795 39.25,204.875 C39.25,204.130205 39.5221327,203.48568 40.0664062,202.941406 C40.6106798,202.397133 41.2552046,202.125 42,202.125 Z M44.75,171.875 C45.1223977,171.875 45.4446601,172.011066 45.7167969,172.283203 C45.9889337,172.55534 46.125,172.877602 46.125,173.25 C46.125,173.622398 45.9889337,173.94466 45.7167969,174.216797 C45.4446601,174.488934 45.1223977,174.625 44.75,174.625 L39.25,174.625 C38.8776023,174.625 38.5553399,174.488934 38.2832031,174.216797 C38.0110663,173.94466 37.875,173.622398 37.875,173.25 C37.875,172.877602 38.0110663,172.55534 38.2832031,172.283203 C38.5553399,172.011066 38.8776023,171.875 39.25,171.875 L44.75,171.875 Z" id="Screen-smartphone---simple-line-icons" fill="#2A4E68"></path>
                    </g>
                </g>
            </g>
        </g>
    </g>
</svg>