<?xml version="1.0" encoding="UTF-8"?>
<svg width="209px" height="55px" viewBox="0 0 209 55" version="1.1" xmlns="http://www.w3.org/2000/svg" xmlns:xlink="http://www.w3.org/1999/xlink">
    <!-- Generator: Sketch 46 (44423) - http://www.bohemiancoding.com/sketch -->
    <title>Page 1</title>
    <desc>Created with Sketch.</desc>
    <defs></defs>
    <g id="Welcome" stroke="none" stroke-width="1" fill="none" fill-rule="evenodd">
        <g id="Desktop-HD" transform="translate(-160.000000, -759.000000)">
            <g id="section-6" transform="translate(-4.000000, 697.000000)">
                <g id="Page-1" transform="translate(164.000000, 62.000000)">
                    <path d="M44.0002563,30 C43.4486029,30 43,30.448833 43,30.9997435 C43,31.551167 43.4486029,32 44.0002563,32 C44.5513971,32 45,31.551167 45,30.9997435 C45,30.448833 44.5513971,30 44.0002563,30" id="Fill-1" fill="#ED285E"></path>
                    <path d="M44.0002563,42 C44.5513971,42 45,41.5517949 45,40.9994872 C45,40.4487179 44.5513971,40 44.0002563,40 C43.4486029,40 43,40.4487179 43,40.9994872 C43,41.5517949 43.4486029,42 44.0002563,42" id="Fill-3" fill="#ED285E"></path>
                    <path d="M5.70712935,28.2940836 C5.51829641,28.1040366 5.26686124,28 5.00003209,28 C4.7326898,28 4.48125463,28.1040366 4.29293483,28.2940836 C3.90244062,28.6855083 3.90244062,29.3236336 4.29242169,29.7145432 C4.67008757,30.0951523 5.32895033,30.0951523 5.70712935,29.7145432 C6.09762355,29.3236336 6.09762355,28.6855083 5.70712935,28.2940836" id="Fill-5" fill="#ED285E"></path>
                    <path d="M11.0002567,20 C10.743649,20 10.4875546,20.0979003 10.2920196,20.2942162 C9.90248923,20.6853021 9.90248923,21.3231998 10.293046,21.714801 C10.669746,22.0950663 11.3302541,22.0950663 11.7069541,21.714801 L11.7074673,21.714801 C12.0975109,21.3231998 12.0975109,20.6853021 11.7074673,20.2937009 C11.5124455,20.0979003 11.2568643,20 11.0002567,20" id="Fill-7" fill="#ED285E"></path>
                    <path d="M8.44606424,30.9305581 C8.44606424,27.6961613 11.0778918,25.0643109 14.3122606,25.0643109 C17.5466293,25.0643109 20.1784569,27.6961613 20.1784569,30.9305581 C20.1784569,34.1649549 17.5466293,36.7968053 14.3122606,36.7968053 C11.0778918,36.7968053 8.44606424,34.1649549 8.44606424,30.9305581 M40.1829205,25.8866152 L40.1829205,35.9740243 C40.1829205,36.4283176 39.8149127,36.7968053 39.3601466,36.7968053 L34.3162475,36.7968053 C31.0818787,36.7968053 28.4505278,34.1649549 28.4505278,30.9305581 C28.4505278,27.6961613 31.0818787,25.0643109 34.3162475,25.0643109 L39.3601466,25.0643109 C39.8149127,25.0643109 40.1829205,25.4318452 40.1829205,25.8866152 M47.2689768,16.9204001 L45.0604535,16.9223069 L45.0604535,28.5036879 C46.075335,28.8492941 46.8123039,29.8007835 46.8123039,30.9305581 C46.8123039,32.3501651 45.6572744,33.504728 44.2376796,33.504728 C42.8180849,33.504728 41.6630553,32.3501651 41.6630553,30.9305581 C41.6630553,29.8007835 42.4000243,28.8488174 43.4153825,28.5032112 L43.4153825,16.1004793 C43.4153825,15.6466627 43.7833902,15.278175 44.2372029,15.278175 L46.4457262,15.2767449 L46.4457262,13.1649722 L40.1829205,13.1649722 L40.1829205,20.955173 C40.1829205,21.4094664 39.8149127,21.7774773 39.3601466,21.7774773 L34.2633344,21.7774773 C29.2160984,21.7774773 25.110333,25.883755 25.110333,30.9305581 C25.110333,35.9773612 29.2160984,40.0831622 34.2633344,40.0831622 L41.8103538,40.0831622 C42.1554802,39.0682718 43.1074382,38.3312965 44.2376796,38.3312965 C45.6572744,38.3312965 46.8123039,39.4863361 46.8123039,40.9054664 C46.8123039,42.3255502 45.6572744,43.4805897 44.2376796,43.4805897 C43.1069615,43.4805897 42.1554802,42.7431377 41.8098771,41.7277707 L34.2633344,41.7277707 C29.7709702,41.7277707 25.9135624,38.9686419 24.2889892,35.0573338 C23.7627191,36.3620566 22.9723604,37.5838339 21.9164832,38.6397202 C19.8114025,40.7448192 17.047054,41.7973686 14.2817522,41.7973686 C11.5164503,41.7973686 8.75162509,40.7448192 6.6465444,38.6397202 C4.64061606,36.6332978 3.53182582,33.9819028 3.4936903,31.1550829 C3.21291754,31.0282812 2.95264262,30.8566699 2.72811975,30.6326218 C1.72467888,29.6291722 1.72467888,27.9960044 2.72859644,26.9920781 C3.7005755,26.0200907 5.39665274,26.0181839 6.3691085,26.9920781 C7.37254936,27.9960044 7.37254936,29.6291722 6.36958519,30.6326218 L6.3691085,30.6326218 C6.0273189,30.974891 5.60353794,31.2017993 5.14448162,31.3104865 C5.22075266,33.6401102 6.15221273,35.8186207 7.80967775,37.4765768 C11.378209,41.0446623 17.1843419,41.0460924 20.7538266,37.4765768 C24.3214044,33.9080146 24.3214044,28.1004013 20.7538266,24.5318391 C18.8980568,22.6770067 16.3982735,21.741725 13.8064882,21.8771072 C13.727357,22.4024286 13.493777,22.908682 13.0900172,23.3124453 C12.604266,23.7991541 11.9578689,24.0665817 11.2699995,24.0665817 C10.5826067,24.0665817 9.93573298,23.7991541 9.4495051,23.3124453 C8.44654094,22.308519 8.44654094,20.6753512 9.44902841,19.671425 C10.4543761,18.6694055 12.0875297,18.6674987 13.0900172,19.671425 C13.2649639,19.8463732 13.3984382,20.0451563 13.5118913,20.2510899 C16.6447243,20.0227515 19.6779282,21.1296446 21.9164832,23.3686957 C22.954246,24.4059908 23.733164,25.6053633 24.2589575,26.8843444 C25.8644629,22.9306101 29.7404618,20.1328688 34.2633344,20.1328688 L38.5378495,20.1328688 L38.5378495,12.3426679 C38.5378495,11.8878979 38.9053806,11.519887 39.3601466,11.519887 L47.2685001,11.519887 C47.7232661,11.519887 48.0907972,11.8878979 48.0907972,12.3426679 L48.0907972,16.0980958 C48.0907972,16.5519124 47.7232661,16.9204001 47.2689768,16.9204001 M27.5,0 C12.3120526,0 0,12.3121593 0,27.5002383 C0,42.6878407 12.3120526,55 27.5,55 C42.6879474,55 55,42.6878407 55,27.5002383 C55,12.3121593 42.6879474,0 27.5,0" id="Fill-9" fill="#ED285E"></path>
                    <path d="M18,31.0002259 C18,28.7943419 16.2054091,27 14.0002258,27 C11.7941392,27 10,28.7943419 10,31.0002259 C10,33.2061099 11.7941392,35 14.0002258,35 C16.2054091,35 18,33.2061099 18,31.0002259" id="Fill-11" fill="#ED285E"></path>
                    <path d="M30,31.0002259 C30,33.2061099 31.7937888,35 33.9995483,35 L38,35 L38,27 L33.9995483,27 C31.7937888,27 30,28.7943419 30,31.0002259" id="Fill-13" fill="#ED285E"></path>
                    <path d="M77.0073212,26.5 C77.0073212,30.5803963 73.8640615,33.8998106 69.999769,33.8998106 C66.114229,33.8998106 62.952955,30.5803963 62.952955,26.5 C62.952955,22.4423992 66.114229,19.1414153 69.999769,19.1414153 C73.8640615,19.1414153 77.0073212,22.4423992 77.0073212,26.5 M69.999769,16 C64.4860158,16 60,20.7099404 60,26.5 C60,32.2900596 64.4860158,37 69.999769,37 C75.5139842,37 80,32.2900596 80,26.5 C80,20.7099404 75.5139842,16 69.999769,16" id="Fill-15" fill="#FEFEFE"></path>
                    <path d="M100.008245,26.241987 C100.008245,30.2221171 96.8640615,33.4599645 93.000231,33.4599645 C89.1151528,33.4599645 85.9534169,30.2221171 85.9534169,26.241987 C85.9534169,22.2840923 89.1151528,19.0642224 93.000231,19.0642224 C96.8640615,19.0642224 100.008245,22.2840923 100.008245,26.241987 M93.000231,16 C87.4860158,16 83,20.5942046 83,26.2632762 L83,43.1536369 C83,43.6593732 83.3321093,44 83.826347,44 L85.0882699,44 C85.5834315,44 85.9155408,43.6593732 85.9155408,43.1536369 L85.9155408,33.4410408 C87.7941061,35.3793022 90.35629,36.483974 93.000231,36.483974 C98.5139842,36.483974 103,31.8897694 103,26.241987 C103,20.5942046 98.5139842,16 93.000231,16" id="Fill-17" fill="#FEFEFE"></path>
                    <path d="M158.5,34.1456463 C154.262221,34.1456463 150.814124,30.6215634 150.814124,26.2902855 C150.814124,21.9361086 154.262221,18.3938971 158.5,18.3938971 C162.759248,18.3938971 166.224146,21.9361086 166.224146,26.2902855 C166.224146,30.6215634 162.759248,34.1456463 158.5,34.1456463 M167.768509,9 L166.493908,9 C166.325424,9 166.262417,9.06344971 166.262417,9.23567037 L166.262417,20.5974627 L165.458732,19.7101209 C163.655809,17.7198035 161.119209,16.5786628 158.5,16.5786628 C153.261582,16.5786628 149,20.9352251 149,26.2902855 C149,31.6443918 153.261582,36 158.5,36 C163.738418,36 168,31.6443918 168,26.2902855 L167.974797,25.5517881 L168,25.5517881 L168,9.23567037 C168,9.06344971 167.937927,9 167.768509,9" id="Fill-19" fill="#FEFEFE"></path>
                    <path d="M109.209777,24.9099286 C109.872007,21.0163514 113.0761,18.9803229 115.941498,18.9803229 C119.220909,18.9803229 122.102413,21.5178411 122.710168,24.9099286 L109.209777,24.9099286 Z M115.941498,16 C110.273703,16 106,20.3591769 106,26.1389178 C106,31.4777939 109.821321,37 116.215769,37 C119.184434,37 121.962673,35.7875009 124.05926,33.5613525 C124.369532,33.1976027 124.363847,32.756253 124.061154,32.4046283 L123.269131,31.392919 C123.055494,31.1125892 122.825277,31.0427493 122.677956,31.0354743 C122.33121,30.9976443 122.137941,31.2236541 122.090571,31.2750641 C121.065015,32.2411834 118.937638,33.8596272 116.215769,33.8596272 C112.695246,33.8596272 109.836006,31.2813691 109.209777,27.5691817 L125.152554,27.5691817 C125.683096,27.5691817 126,27.244717 126,26.7010324 L125.999053,26.6690224 C125.684991,20.3877919 121.549134,16 115.941498,16 L115.941498,16 Z" id="Fill-21" fill="#FEFEFE"></path>
                    <path d="M174.987586,25.0398438 C175.644841,20.8514333 179.234098,18.6601489 182.440315,18.6601489 C186.116822,18.6601489 189.337421,21.4017048 189.932354,25.0375101 L190.020084,25.5737798 L174.903691,25.5737798 L174.987586,25.0398438 Z M182.718366,36 C185.551132,36 188.204602,34.8985237 190.188833,32.8981306 C190.2943,32.7805154 190.2943,32.6941708 190.173492,32.5592866 L189.367144,31.5796261 C189.301945,31.4974821 189.247294,31.4680783 189.216612,31.4666781 C189.16292,31.463411 189.132238,31.4918814 189.08286,31.540421 C187.970176,32.536417 185.683925,34.1862979 182.718366,34.1862979 C178.788737,34.1862979 175.609366,31.4195387 174.987586,27.4588912 L174.903212,26.9249552 L191.762218,26.9249552 C191.955416,26.9249552 192,26.8810828 192,26.6934584 C191.700376,20.9956521 187.768829,17 182.440315,17 C177.058108,17 173,20.9345108 173,26.1525216 C173,30.9934167 176.635279,36 182.718366,36 L182.718366,36 Z" id="Fill-23" fill="#FEFEFE"></path>
                    <path d="M200.580377,36 L201.380032,36 C201.577528,36 201.620803,35.8779516 201.637376,35.8316407 L208.994476,17.0168842 C208.996777,17.0115777 208.998619,17.0057889 209,17.0014472 C208.988951,17.0004824 208.975601,17 208.961329,17 L207.323349,17 C207.126313,17 207.081197,17.1259077 207.066465,17.1669121 L200.997008,33.3636571 L194.973126,17.1741482 C194.955632,17.1259077 194.911437,17 194.71348,17 L193.03729,17 C193.023939,17 193.011509,17.0004824 193,17.0009648 C193.003223,17.0110953 193.006445,17.0221906 193.011049,17.0347332 L200.318429,35.8190982 C200.340066,35.8779516 200.38288,36 200.580377,36" id="Fill-25" fill="#FEFEFE"></path>
                    <path d="M144.134324,36 C144.651701,36 145,35.6622652 145,35.1608228 L145,24.2149307 C145,19.6916293 141.210253,16.0070361 136.54082,16.0028145 L136.444204,16 C131.788298,16 128,19.6855313 128,24.2149307 L128,35.1608228 C128,35.6622652 128.347816,36 128.865193,36 L130.224574,36 C130.741468,36 131.089284,35.6622652 131.089284,35.1608228 L131.089284,24.2149307 C131.089284,21.3183854 133.516268,18.9608087 136.500242,18.9598705 C139.484215,18.9608087 141.911199,21.3183854 141.911199,24.2149307 L141.911199,35.1608228 C141.911199,35.6622652 142.259015,36 142.775426,36 L144.134324,36 Z" id="Fill-27" fill="#FEFEFE"></path>
                </g>
            </g>
        </g>
    </g>
</svg>